<svg xmlns="http://www.w3.org/2000/svg" xmlns:xlink="http://www.w3.org/1999/xlink" width="58" height="87" viewBox="0 0 58 87">
  <defs>
    <clipPath id="clip-path">
      <path id="SVGID" d="M1028.485,861.991c0-2.4-11.859-24.991,1.005-24.991,5.433,0,6.524,1.477,7.291,2.642a1.772,1.772,0,0,0,2.712.286,10.206,10.206,0,0,1,7.081-2.928c3.7,0,7.194,2,8.923,3.173a1.892,1.892,0,0,0,2.022.066,3.744,3.744,0,0,1,3.124-.24c4.527,1.443,4.123,7.356,2.729,13.281-.837,3.554-2.241,7.065-2.729,9.711-.8,4.336,0,15.145,0,20.993,0,8.129,8.214,23.679,9.044,25.991,1.36,3.784,1.6,6.32-4.019,6-3.886-.222-16.575-23.843-20.758-31.493a1.082,1.082,0,0,0-2,.261c-.588,2.41-1.949,6.324-2.368,9.24a18.91,18.91,0,0,0,1.005,8,45.2,45.2,0,0,1,2.01,8c.2,2.4-.2,5.6-5.025,1s-10.049-11.8-10.049-18.993Z" fill="none"/>
    </clipPath>
    <linearGradient id="linear-gradient" x1="0.5" y1="1" x2="0.5" gradientUnits="objectBoundingBox">
      <stop offset="0" stop-color="#fff"/>
      <stop offset="0.25" stop-color="#f2f7fa"/>
    </linearGradient>
  </defs>
  <g id="Regular19" transform="translate(-1018 -836)">
    <rect id="Rectangle_274" data-name="Rectangle 274" width="58" height="87" transform="translate(1018 836)" fill="none"/>
    <g id="Group_1327" data-name="Group 1327" transform="translate(0 3)">
      <g id="Group_1326" data-name="Group 1326">
        <g id="Group_1325" data-name="Group 1325" clip-path="url(#clip-path)">
          <g id="Group_1319" data-name="Group 1319">
            <path id="Path_2291" data-name="Path 2291" d="M1066.577,915.5c-.276,0-.569-.009-.881-.027-3.415-.2-15.645-22.614-19.663-29.981l-.684-1.253a1.582,1.582,0,0,0-2.922.382c-.2.811-.485,1.793-.792,2.85a51.081,51.081,0,0,0-1.586,6.438,19.381,19.381,0,0,0,1.03,8.239,44.746,44.746,0,0,1,1.982,7.868,3.97,3.97,0,0,1-.363,2.62.538.538,0,0,1-.428.176c-.405,0-1.384-.286-3.391-2.2-2.321-2.212-9.894-10.095-9.894-18.631v-29.99a17.281,17.281,0,0,0-1.252-3.936c-1.918-5.121-5.487-14.653-2.714-18.652.888-1.28,2.35-1.9,4.471-1.9,5.281,0,6.2,1.4,6.874,2.417a2.25,2.25,0,0,0,1.886,1.014,2.281,2.281,0,0,0,1.589-.643,9.781,9.781,0,0,1,6.735-2.788c3.554,0,6.94,1.934,8.642,3.087a2.384,2.384,0,0,0,1.341.413,2.427,2.427,0,0,0,1.213-.328,2.967,2.967,0,0,1,1.509-.4,4.023,4.023,0,0,1,1.212.2c3.415,1.089,4.176,5.121,2.394,12.69-.392,1.666-.906,3.31-1.4,4.9a44.444,44.444,0,0,0-1.33,4.836c-.558,3.028-.352,9.112-.17,14.48.083,2.456.162,4.776.162,6.6,0,6.587,5.268,17.89,7.8,23.323.621,1.334,1.113,2.388,1.274,2.837.629,1.752,1.124,3.5.482,4.412C1069.252,915.191,1068.231,915.5,1066.577,915.5Z" fill="#ebf2f7"/>
            <g id="Group_1316" data-name="Group 1316">
              <g id="Group_1315" data-name="Group 1315">
                <path id="Path_2292" data-name="Path 2292" d="M1058.505,852.134c-.355,1.508-.845,3.073-1.318,4.586a47.276,47.276,0,0,0-1.461,5.365c-.647,3.508-.441,9.577-.242,15.447.081,2.417.159,4.7.159,6.451a35.912,35.912,0,0,0,2.294,11.037c1.8,3.152,3.35,5.768,4.672,7.922-2.829-6.677-4.966-13.057-4.966-17.959,0-1.751-.078-4.034-.159-6.451-.2-5.87-.405-11.939.242-15.447a47.276,47.276,0,0,1,1.461-5.365c.473-1.513.963-3.078,1.318-4.586,1.071-4.549.849-6.46.661-7.147a6.925,6.925,0,0,1-1.845.466A25.015,25.015,0,0,1,1058.505,852.134Z" fill="#d1e2ed"/>
                <path id="Path_2293" data-name="Path 2293" d="M1054.473,845.172a15.957,15.957,0,0,0-2.657-1.413c.293.174.586.357.876.554A6.884,6.884,0,0,0,1054.473,845.172Z" fill="#d1e2ed"/>
                <path id="Path_2294" data-name="Path 2294" d="M1043.967,878.918a6.069,6.069,0,0,0-5.912,4.636c-.184.756-.453,1.672-.741,2.658a54.31,54.31,0,0,0-1.719,7.058c-.031.213-.041.452-.063.677a17.013,17.013,0,0,0,2.247,6.548,21.334,21.334,0,0,1-.184-6.225,54.31,54.31,0,0,1,1.719-7.058c.288-.986.557-1.9.741-2.658a6.075,6.075,0,0,1,7.568-4.4A6.062,6.062,0,0,0,1043.967,878.918Z" fill="#d1e2ed"/>
                <path id="Path_2295" data-name="Path 2295" d="M1036.252,845.118a6.794,6.794,0,0,1-1.646-1.724c-.014-.023-.029-.045-.044-.069a6.563,6.563,0,0,0-1.449-.258A6.717,6.717,0,0,0,1036.252,845.118Z" fill="#d1e2ed"/>
              </g>
            </g>
            <path id="Path_2296" data-name="Path 2296" d="M1060.609,901.942c-2.595-4.228-6.044-10.206-10.626-18.605l-.686-1.257a6.082,6.082,0,0,0-11.242,1.473c-.185.757-.454,1.673-.741,2.659a54.178,54.178,0,0,0-1.719,7.057,21.374,21.374,0,0,0,.184,6.226,15.886,15.886,0,0,1-2.294-7.514v-29.99c0-1.407-.482-2.694-1.538-5.513-3.649-9.747-3.835-13.224-3.29-14.4a3.315,3.315,0,0,1,.833-.083,10.02,10.02,0,0,1,3.072.325l.045.068a6.771,6.771,0,0,0,10.351,1.139,5.207,5.207,0,0,1,3.616-1.532,12,12,0,0,1,6.118,2.313,6.886,6.886,0,0,0,6.473.674c.189.687.411,2.6-.66,7.147-.355,1.508-.845,3.073-1.318,4.586a47.276,47.276,0,0,0-1.461,5.365c-.647,3.508-.441,9.577-.242,15.447.082,2.417.159,4.7.159,6.452C1055.643,888.885,1057.78,895.265,1060.609,901.942Z" fill="#ebf2f7"/>
            <path id="Path_2297" data-name="Path 2297" d="M1037.6,909.955m-3.017-17.635a9.831,9.831,0,0,1-.094-1.339v-29.99c0-1.588-.535-3.017-1.6-5.864-2.514-6.714-3.657-11.12-3.407-13.127h.013a12.066,12.066,0,0,1,2.451.19,7.772,7.772,0,0,0,11.71,1.063,4.226,4.226,0,0,1,2.923-1.253,11.012,11.012,0,0,1,5.558,2.141,7.881,7.881,0,0,0,6.184,1.16,23.087,23.087,0,0,1-.785,5.6c-.346,1.473-.83,3.02-1.3,4.517a48.166,48.166,0,0,0-1.49,5.482c-.666,3.614-.458,9.739-.258,15.662.082,2.408.159,4.683.159,6.418a30.57,30.57,0,0,0,1.307,8.04c-1.515-2.673-3.2-5.713-5.089-9.166l-.687-1.258a7.082,7.082,0,0,0-13.09,1.716c-.182.745-.447,1.646-.73,2.617a54.893,54.893,0,0,0-1.749,7.194C1034.6,892.191,1034.587,892.255,1034.579,892.32Z" fill="url(#linear-gradient)"/>
            <g id="Group_1318" data-name="Group 1318">
              <g id="Group_1317" data-name="Group 1317">
                <path id="Path_2298" data-name="Path 2298" d="M1052.692,844.313a6.873,6.873,0,0,0,3.866,1.187,6.943,6.943,0,0,0,.763-.047,5.873,5.873,0,0,0-.155-1.466,6.919,6.919,0,0,1-2.608.513,6.84,6.84,0,0,1-2.085-.328C1052.546,844.221,1052.62,844.264,1052.692,844.313Z" fill="#fff"/>
                <path id="Path_2299" data-name="Path 2299" d="M1038.25,845.431a6.76,6.76,0,0,0,4.708-1.9,5.211,5.211,0,0,1,3.616-1.531,8.874,8.874,0,0,1,3.242.759,11.1,11.1,0,0,0-5.242-1.759,5.211,5.211,0,0,0-3.616,1.531,6.713,6.713,0,0,1-6.706,1.587A6.742,6.742,0,0,0,1038.25,845.431Z" fill="#fff"/>
                <path id="Path_2300" data-name="Path 2300" d="M1033.532,892.947c-.03-.324-.047-.646-.047-.966v-29.99c0-1.407-.482-2.694-1.538-5.513-3.649-9.747-3.835-13.224-3.29-14.4a3.315,3.315,0,0,1,.833-.083c.662,0,1.192.027,1.623.067a7.167,7.167,0,0,1-.507-.673c-.014-.023-.029-.045-.044-.069a10.056,10.056,0,0,0-3.072-.325,3.315,3.315,0,0,0-.833.083c-.545,1.171-.359,4.648,3.29,14.4,1.056,2.819,1.538,4.106,1.538,5.513v29.99a15.889,15.889,0,0,0,2.294,7.514A22.331,22.331,0,0,1,1033.532,892.947Z" fill="#fff"/>
                <path id="Path_2301" data-name="Path 2301" d="M1049.983,883.337l-.686-1.257a6.075,6.075,0,0,0-3.674-2.929,6.07,6.07,0,0,1,1.674,1.929l.686,1.257c4.581,8.4,8.031,14.377,10.626,18.605-1-2.364-1.908-4.685-2.672-6.922C1054.2,890.986,1052.23,887.456,1049.983,883.337Z" fill="#fff"/>
              </g>
            </g>
            <path id="Path_2302" data-name="Path 2302" d="M1046.574,838c3.421,0,6.707,1.88,8.362,3a2.881,2.881,0,0,0,1.622.5,2.928,2.928,0,0,0,1.464-.4,2.469,2.469,0,0,1,1.256-.331,3.511,3.511,0,0,1,1.061.179c3.114.992,3.768,4.836,2.059,12.1-.387,1.648-.9,3.283-1.393,4.864a44.475,44.475,0,0,0-1.345,4.9c-.568,3.081-.361,9.193-.179,14.587.083,2.452.162,4.768.162,6.586,0,6.7,5.3,18.07,7.846,23.535.617,1.323,1.1,2.367,1.258,2.795.523,1.457,1.058,3.224.543,3.956-.337.478-1.275.731-2.713.731-.267,0-.551-.008-.852-.026s-2.207-.662-8.855-11.475c-3.95-6.425-7.986-13.825-10.4-18.247l-.684-1.253a2.049,2.049,0,0,0-1.821-1.081,2.08,2.08,0,0,0-2.027,1.585c-.193.8-.482,1.784-.786,2.83a51.448,51.448,0,0,0-1.6,6.505,19.971,19.971,0,0,0,1.054,8.48,44.843,44.843,0,0,1,1.954,7.74c.137,1.634-.157,2.191-.241,2.248a.148.148,0,0,1-.051.006c-.208,0-1.04-.149-3.046-2.062-2.285-2.178-9.739-9.932-9.739-18.269v-29.99a16.455,16.455,0,0,0-1.284-4.111c-1.885-5.035-5.4-14.408-2.771-18.192.787-1.136,2.115-1.688,4.06-1.688,5.011,0,5.846,1.267,6.456,2.192a2.752,2.752,0,0,0,2.3,1.239,2.78,2.78,0,0,0,1.936-.783,9.276,9.276,0,0,1,6.388-2.648m0-1a10.206,10.206,0,0,0-7.081,2.928,1.789,1.789,0,0,1-1.243.5,1.752,1.752,0,0,1-1.469-.789c-.767-1.164-1.858-2.642-7.291-2.642-12.864,0-1.005,22.592-1.005,24.991v29.99c0,7.2,5.225,14.395,10.049,18.993,1.788,1.7,2.968,2.338,3.736,2.338,1.3,0,1.416-1.828,1.289-3.337a45.058,45.058,0,0,0-2.01-8,18.934,18.934,0,0,1-1.005-8c.419-2.916,1.78-6.831,2.368-9.24a1.069,1.069,0,0,1,1.055-.822,1.057,1.057,0,0,1,.943.561c4.183,7.649,16.872,31.271,20.757,31.494q.483.027.91.027c4.678,0,4.392-2.458,3.11-6.025-.83-2.312-9.044-17.862-9.044-25.992,0-5.847-.8-16.656,0-20.992.487-2.646,1.892-6.157,2.729-9.712,1.394-5.924,1.8-11.838-2.729-13.28a4.48,4.48,0,0,0-1.365-.226,3.46,3.46,0,0,0-1.758.466,1.917,1.917,0,0,1-.962.261,1.884,1.884,0,0,1-1.061-.327c-1.729-1.171-5.226-3.173-8.923-3.173Z" fill="#7aabcc"/>
          </g>
          <g id="Group_1320" data-name="Group 1320">
            <path id="Path_2303" data-name="Path 2303" d="M1047.534,888a5.61,5.61,0,0,1-.9-1.055,7.287,7.287,0,0,1-.681-1.215c-.186-.473-.329-1-.489-1.519a25.771,25.771,0,0,1-.73-2.886c-.147-.8-.216-1.333-.216-1.333l.1-.022s.167.511.456,1.259.686,1.735,1.14,2.7l.7,1.394a9.9,9.9,0,0,1,.447,1.287,7.641,7.641,0,0,1,.27,1.351Z" fill="#7aabcc"/>
          </g>
          <g id="Group_1321" data-name="Group 1321">
            <path id="Path_2304" data-name="Path 2304" d="M1040.518,893.814s-.006-.349.027-.958.111-1.474.231-2.508.338-2.228.609-3.5c.3-1.266.677-2.6,1.074-3.929.785-2.652,1.542-5.291,1.917-7.318a24.482,24.482,0,0,0,.342-2.466c.047-.6.06-.944.06-.944h.1s.012.346.009.953a24.829,24.829,0,0,1-.165,2.509,65.363,65.363,0,0,1-1.489,7.468c-.306,1.34-.569,2.692-.832,3.953-.291,1.256-.569,2.426-.839,3.425s-.49,1.833-.669,2.413-.276.916-.276.916Z" fill="#7aabcc"/>
          </g>
          <g id="Group_1322" data-name="Group 1322">
            <path id="Path_2305" data-name="Path 2305" d="M1039.922,862.433s.1-.058.291-.145a3.564,3.564,0,0,1,.839-.245,4.029,4.029,0,0,1,2.664.472,4.467,4.467,0,0,1,1.15.978,4.686,4.686,0,0,1,.673,1.14,3.723,3.723,0,0,1,.168.505.715.715,0,0,1-.053.426.838.838,0,0,1-.2.281.622.622,0,0,1-.11.1,1.7,1.7,0,0,1-.392-.257.722.722,0,0,1-.206-.29c-.04-.117-.074-.253-.129-.4a3.946,3.946,0,0,0-.505-.92,3.72,3.72,0,0,0-.848-.862,4.427,4.427,0,0,0-3.022-.815C1040.04,862.413,1039.922,862.433,1039.922,862.433Z" fill="#7aabcc"/>
          </g>
          <g id="Group_1323" data-name="Group 1323">
            <path id="Path_2306" data-name="Path 2306" d="M1055.36,861.936l.429.053a5.932,5.932,0,0,1,1.119.283,5.59,5.59,0,0,1,.716.32,6.339,6.339,0,0,1,.724.484,5.548,5.548,0,0,1,1.294,1.463,8.08,8.08,0,0,1,.459.886,6.115,6.115,0,0,1,.3.911,6.014,6.014,0,0,1,.1,1.658,6.428,6.428,0,0,1-.284,1.581l-.1,0a12.786,12.786,0,0,1-.414-1.526c-.094-.439-.2-.951-.32-1.5-.046-.27-.111-.542-.171-.822a5.359,5.359,0,0,0-.278-.815,5.467,5.467,0,0,0-.426-.749,5.705,5.705,0,0,0-.531-.643c-.217-.2-.411-.384-.61-.536a5.144,5.144,0,0,0-.607-.4,5.738,5.738,0,0,0-1.013-.438l-.409-.119Z" fill="#7aabcc"/>
          </g>
          <g id="Group_1324" data-name="Group 1324">
            <path id="Path_2307" data-name="Path 2307" d="M1044.589,863.741a1.811,1.811,0,0,1,.368.059c.112,0,.2-.01.313-.02a1.987,1.987,0,0,0,.367-.078,10.167,10.167,0,0,0,1.025-.352l1.331-.5a11.947,11.947,0,0,1,2.644-.645c.367-.048.674-.062.888-.069l.336-.015.012.1-.323.083a8.71,8.71,0,0,0-.838.243,15.864,15.864,0,0,0-2.4,1.037c-.424.222-.835.466-1.262.67a5.259,5.259,0,0,1-.657.255,1.98,1.98,0,0,1-.684.1,1.532,1.532,0,0,1-.616-.151,1.3,1.3,0,0,1-.391-.307,1.771,1.771,0,0,1-.172-.332Z" fill="#7aabcc"/>
          </g>
        </g>
      </g>
    </g>
  </g>
</svg>
