<svg xmlns="http://www.w3.org/2000/svg" xmlns:xlink="http://www.w3.org/1999/xlink" width="58" height="103" viewBox="0 0 58 103">
  <defs>
    <clipPath id="clip-path">
      <path id="SVGID" d="M985.656,756.925,986,757c0-6.875-6-37.25-6-45,0-16.25,2.375-27-1-27-5.263,0-13.625,38.5-15,43s-1,24-1,24l.4.087c-2.5,4.607-4.4,9.758-4.4,14.913,0,7.875,2.677,7.418,5,10,1.125,1.25,4,3,9,3a7.943,7.943,0,0,0,7-4s7-1.125,7-11A29.318,29.318,0,0,0,985.656,756.925Z" fill="none"/>
    </clipPath>
    <linearGradient id="linear-gradient" x1="0.5" y1="1" x2="0.5" gradientUnits="objectBoundingBox">
      <stop offset="0" stop-color="#fff"/>
      <stop offset="0.25" stop-color="#f2f7fa"/>
    </linearGradient>
  </defs>
  <g id="Regular13" transform="translate(-944 -685)">
    <rect id="Rectangle_257" data-name="Rectangle 257" width="58" height="103" transform="translate(944 685)" fill="none"/>
    <g id="Group_1451" data-name="Group 1451" transform="translate(0 2)">
      <g id="Group_1450" data-name="Group 1450" transform="translate(0 2)">
        <g id="Group_1449" data-name="Group 1449" clip-path="url(#clip-path)">
          <g id="Group_1447" data-name="Group 1447">
            <path id="Path_2413" data-name="Path 2413" d="M973,779.5c-4.481,0-7.4-1.464-8.628-2.834A12.23,12.23,0,0,0,962.6,775.1c-1.733-1.329-3.1-2.379-3.1-8.1,0-4.435,1.46-9.372,4.34-14.674l.318-.586-.665-.144c-.043-2.785-.244-19.426.985-23.45.254-.832.732-2.759,1.392-5.427,2.28-9.205,9.216-37.219,13.13-37.219a.711.711,0,0,1,.56.235c1.051,1.112.8,5.535.452,11.656-.228,4.017-.512,9.016-.512,14.609,0,4.031,1.6,14.057,3.141,23.753,1.385,8.7,2.7,16.944,2.845,20.624l-.548-.12.238.809A28.675,28.675,0,0,1,986.5,765c0,9.3-6.312,10.462-6.581,10.507l-.249.041-.117.227A7.38,7.38,0,0,1,973,779.5Z" fill="#ebf2f7"/>
            <g id="Group_1444" data-name="Group 1444">
              <g id="Group_1443" data-name="Group 1443">
                <path id="Path_2414" data-name="Path 2414" d="M969.95,748.394c0,.188,0,.377,0,.565l.75.163.275-.505Z" fill="#d1e2ed"/>
                <path id="Path_2415" data-name="Path 2415" d="M982.859,759.337l-2.381-8.09,1.884.41c-.555-4.089-1.391-9.334-2.165-14.2-1.644-10.322-3.2-20.073-3.2-24.46,0-2.349.048-4.587.122-6.691-.649,2.254-1.337,4.75-2.058,7.461.3,4.925,1.682,13.582,3.133,22.69.774,4.863,1.61,10.108,2.165,14.2l-1.884-.41,2.381,8.09A24.3,24.3,0,0,1,982,765c0,4.767-2.083,5.837-2.871,6.069l-2.942.243-.649,2.416A2.937,2.937,0,0,1,973,775a12.078,12.078,0,0,1-3.359-.423c.023.025.045.044.067.069S971.142,776,975,776a2.937,2.937,0,0,0,2.538-1.272l.649-2.416,2.942-.243c.788-.232,2.871-1.3,2.871-6.069A24.3,24.3,0,0,0,982.859,759.337Z" fill="#d1e2ed"/>
              </g>
            </g>
            <path id="Path_2416" data-name="Path 2416" d="M973,775c-3.858,0-5.279-1.341-5.292-1.354a16.544,16.544,0,0,0-2.369-2.113c-.974-.748-1.339-1.027-1.339-4.533,0-3.677,1.277-7.891,3.795-12.526l3.181-5.857-3.025-.658c-.044-8.047.226-16.519.831-18.5.289-.948.754-2.822,1.456-5.66q2.709-10.943,4.884-18.493c-.074,2.105-.122,4.344-.122,6.692,0,4.387,1.553,14.137,3.2,24.46.774,4.863,1.61,10.108,2.165,14.2l-1.884-.41,2.381,8.09A24.3,24.3,0,0,1,982,765c0,4.767-2.083,5.837-2.871,6.07l-2.941.242-.65,2.416A2.937,2.937,0,0,1,973,775Z" fill="#ebf2f7"/>
            <path id="Path_2417" data-name="Path 2417" d="M973,773c-2.789,0-4.267-.777-4.6-1.077a17.153,17.153,0,0,0-2.451-2.184c-.21-.161-.487-.373-.613-.488A9.94,9.94,0,0,1,965,766c0-3.508,1.236-7.562,3.673-12.049l3.818-7.028-3.542-.77c-.02-7.694.249-15.556.79-17.4.283-.927.7-2.595,1.47-5.709q1.49-6.015,2.815-11c.2,4.832,1.653,13.956,3.185,23.575.688,4.314,1.423,8.932,1.966,12.757l-2.133-.463,2.858,9.708A23.321,23.321,0,0,1,981,764c0,4.407-1.933,5.073-1.952,5.076l-3.367.541-1.01,2.6A1.957,1.957,0,0,1,973,773Z" fill="url(#linear-gradient)"/>
            <g id="Group_1446" data-name="Group 1446">
              <g id="Group_1445" data-name="Group 1445">
                <path id="Path_2418" data-name="Path 2418" d="M967.95,747.394c-.029-7.875.241-16,.832-17.933.289-.947.754-2.822,1.456-5.66,1-4.026,1.938-7.7,2.826-11.031-.041-.658-.064-1.254-.064-1.77,0-2.349.048-4.587.122-6.691q-2.172,7.543-4.884,18.492c-.7,2.838-1.167,4.713-1.456,5.66-.6,1.978-.875,10.451-.831,18.5Z" fill="#fff"/>
                <path id="Path_2419" data-name="Path 2419" d="M965.339,771.533c-.974-.748-1.339-1.027-1.339-4.533,0-3.677,1.277-7.891,3.794-12.526l3.182-5.857-2.275-.495-2.907,5.352C963.277,758.109,962,762.323,962,766c0,3.506.365,3.785,1.339,4.533a16.544,16.544,0,0,1,2.369,2.113,4.935,4.935,0,0,0,1.933.931A16.818,16.818,0,0,0,965.339,771.533Z" fill="#fff"/>
              </g>
            </g>
            <path id="Path_2420" data-name="Path 2420" d="M979,686a.222.222,0,0,1,.2.078c.9.955.63,5.742.316,11.285-.229,4.023-.513,9.03-.513,14.637,0,4.07,1.6,14.116,3.147,23.831,1.251,7.856,2.54,15.948,2.8,19.916l-.731-.159.476,1.619A28.168,28.168,0,0,1,986,765c0,8.847-5.913,9.97-6.159,10.013l-.5.085-.231.451A6.905,6.905,0,0,1,973,779c-5.572,0-7.855-2.224-8.257-2.669a12.905,12.905,0,0,0-1.838-1.625C961.282,773.462,960,772.479,960,767c0-4.351,1.44-9.207,4.28-14.436l.636-1.171-.929-.2c-.05-3.68-.191-19.1.97-22.9.257-.845.736-2.777,1.4-5.452,1.508-6.089,3.787-15.29,6.276-23.18C976.821,686.384,978.79,686,979,686m0-1c-5.263,0-13.625,38.5-15,43s-1,24-1,24l.4.087c-2.5,4.607-4.4,9.758-4.4,14.913,0,7.875,2.677,7.418,5,10,1.125,1.25,4,3,9,3a7.943,7.943,0,0,0,7-4s7-1.125,7-11a29.318,29.318,0,0,0-1.344-8.075L986,757c0-6.875-6-37.25-6-45,0-16.25,2.375-27-1-27Z" fill="#7aabcc"/>
          </g>
          <g id="Group_1448" data-name="Group 1448">
            <path id="Path_2421" data-name="Path 2421" d="M979,742a36.793,36.793,0,0,1,2.634,4.088c.415.7.775,1.426,1.15,2.146.356.729.708,1.461,1.034,2.206s.633,1.5.933,2.253.564,1.527.848,2.29c.254.775.507,1.551.736,2.335.2.794.453,1.571.6,2.381a21.965,21.965,0,0,1,.419,2.429,20.944,20.944,0,0,1,.194,2.472l.014.31,0,.078,0,.1-.007.151-.028.6a11.994,11.994,0,0,1-.083,1.221l-.18,1.261c-.085.413-.2.818-.3,1.226a11.611,11.611,0,0,1-.954,2.349,10.234,10.234,0,0,1-1.489,2.076,9.978,9.978,0,0,1-2.009,1.594,8.027,8.027,0,0,1-2.428.952l.391-.286a8.421,8.421,0,0,1-6.362,4.2,12.953,12.953,0,0,1-1.919.047c-.632-.027-1.275-.084-1.9-.164a14.66,14.66,0,0,1-3.694-.985,8.7,8.7,0,0,1-3.192-2.191c-.784-.843-1.868-1.437-2.818-2.4a7.016,7.016,0,0,1-1.76-3.528,18.918,18.918,0,0,1-.38-3.785,24.99,24.99,0,0,1,.247-3.769,27.545,27.545,0,0,1,.794-3.693,29.756,29.756,0,0,1,1.238-3.547c.471-1.158,1-2.292,1.578-3.4.278-.558.577-1.1.888-1.644s.615-1.083.944-1.611c.636-1.069,1.332-2.1,2.054-3.109s1.494-1.982,2.3-2.926c.787-.957,1.637-1.862,2.51-2.741-.673,1.042-1.358,2.068-2.046,3.089-.343.512-.683,1.023-1.009,1.545-.341.51-.678,1.022-1,1.543q-1,1.539-1.933,3.122-.476.785-.906,1.593c-.3.533-.584,1.071-.849,1.621q-.828,1.63-1.5,3.33a35.88,35.88,0,0,0-1.178,3.441,26.485,26.485,0,0,0-.767,3.531,24.032,24.032,0,0,0-.244,3.6,17.879,17.879,0,0,0,.331,3.566A5.94,5.94,0,0,0,961.362,774c.776.811,1.892,1.443,2.8,2.409A7.642,7.642,0,0,0,967,778.391a13.673,13.673,0,0,0,3.429.934,17.557,17.557,0,0,0,1.784.154,11.9,11.9,0,0,0,1.775-.052,7.415,7.415,0,0,0,3.214-1.184,7.535,7.535,0,0,0,2.319-2.481l.129-.232.262-.054a7.141,7.141,0,0,0,2.049-.832,8.9,8.9,0,0,0,1.762-1.416,9.136,9.136,0,0,0,1.31-1.854,10.616,10.616,0,0,0,.849-2.129c.09-.376.2-.749.274-1.125l.161-1.135a11.175,11.175,0,0,0,.079-1.192l.027-.605.007-.15c0-.014,0-.078,0-.05l0-.073-.015-.294a20.174,20.174,0,0,0-.188-2.35c-.083-.784-.24-1.561-.4-2.339-.128-.782-.371-1.545-.551-2.319-.213-.768-.451-1.53-.689-2.291-.27-.752-.507-1.515-.8-2.259s-.572-1.495-.89-2.23c-.6-1.487-1.263-2.947-1.9-4.423Z" fill="#7aabcc"/>
          </g>
        </g>
      </g>
    </g>
  </g>
</svg>
