<svg xmlns="http://www.w3.org/2000/svg" xmlns:xlink="http://www.w3.org/1999/xlink" width="58" height="97" viewBox="0 0 58 97">
  <defs>
    <clipPath id="clip-path">
      <path id="SVGID" d="M595,871.583a61.566,61.566,0,0,1-1.346-7.663A117.2,117.2,0,0,1,593,850c0-4.429,1.88-8,4-8a4.038,4.038,0,0,1,3,1,4.38,4.38,0,0,1,3-1c2,0,2,1,2,1s0-1,2-1,2,1,2,1a2.625,2.625,0,0,1,2-1,2.04,2.04,0,0,1,2,2v14c0,2.5-1.463,6.7-3.136,10.691C609.281,877.547,607,889.141,607,894c0,5.571-2,37-8,37s-4-23.571-4-27Z" fill="none"/>
    </clipPath>
    <linearGradient id="linear-gradient" x1="-1020.532" y1="1" x2="-1020.532" gradientUnits="objectBoundingBox">
      <stop offset="0" stop-color="#fff"/>
      <stop offset="0.25" stop-color="#f2f7fa"/>
    </linearGradient>
  </defs>
  <g id="Regular25" transform="translate(-574 -836)">
    <rect id="Rectangle_268" data-name="Rectangle 268" width="58" height="97" transform="translate(574 836)" fill="none"/>
    <g id="Group_1596" data-name="Group 1596" transform="translate(0 -2)">
      <g id="Group_1595" data-name="Group 1595">
        <g id="Group_1594" data-name="Group 1594" clip-path="url(#clip-path)">
          <g id="Group_1592" data-name="Group 1592">
            <path id="Path_2552" data-name="Path 2552" d="M599,930.5a1.774,1.774,0,0,1-1.317-.617c-3.163-3.306-2.515-17.921-2.271-23.422.05-1.128.088-1.986.088-2.461V872.583a12.524,12.524,0,0,0-.211-2.08c-.009-.041-.849-4.15-1.139-6.641a114.889,114.889,0,0,1-.651-13.388V850c0-4.42,1.844-7.5,3.5-7.5a7.839,7.839,0,0,1,2.035.155,1.428,1.428,0,0,0,2.022-.005s0,0,0,0A8.237,8.237,0,0,1,603,842.5h2l-.088-.087h.175L605,842.5h3.577a.679.679,0,0,0,.64.475.911.911,0,0,0,.692-.39A4.613,4.613,0,0,1,611,842.5a1.545,1.545,0,0,1,1.5,1.5v14c0,2.383-2.718,9.507-2.745,9.578a10.993,10.993,0,0,0-.525,2.034c-.111.8-2.73,19.55-2.73,24.388C606.5,901.486,604.175,930.5,599,930.5Z" fill="#ebf2f7"/>
            <g id="Group_1589" data-name="Group 1589">
              <g id="Group_1588" data-name="Group 1588">
                <path id="Path_2553" data-name="Path 2553" d="M605.82,846.181l-.319.319.5.5h.062c.058-.053.117-.107.176-.166-.057.057-.116.111-.175.166h1.023a5.159,5.159,0,0,0,.676.238l.058-.057a5.364,5.364,0,0,1-1.806-3.769h-1.838A5.268,5.268,0,0,0,605.82,846.181Z" fill="#d1e2ed"/>
                <path id="Path_2554" data-name="Path 2554" d="M609.086,848H608v10a47.725,47.725,0,0,1-2.448,7.97,15.614,15.614,0,0,0-.779,3.017C604.491,871.015,602,888.938,602,894v11c0,.514-.039,1.441-.092,2.66-.2,4.389-.241,7.845-.19,10.567A131.766,131.766,0,0,0,604,895c0-5.062,2.49-22.985,2.773-25.013a15.614,15.614,0,0,1,.779-3.017A47.725,47.725,0,0,0,610,859V848.322A5.127,5.127,0,0,1,609.086,848Z" fill="#d1e2ed"/>
              </g>
            </g>
            <path id="Path_2555" data-name="Path 2555" d="M599.719,917.227c-.051-2.722-.005-6.178.19-10.567.054-1.219.092-2.147.092-2.66V872.583a16.786,16.786,0,0,0-.3-2.983c-.008-.039-.81-3.964-1.077-6.259A109.124,109.124,0,0,1,598,850.482V850a9.122,9.122,0,0,1,.375-2.668,5.937,5.937,0,0,0,4.2-.325c.116,0,.257-.007.426-.007h2l-.97-.969c.07-.064.139-.13.207-.2-.069.069-.139.134-.208.2l-3.617-3.617h3.6a5.359,5.359,0,0,0,1.806,3.767L605,847h2.085a5.325,5.325,0,0,0,.915.323V858a47.725,47.725,0,0,1-2.448,7.97,15.528,15.528,0,0,0-.778,3.018C604.491,871.015,602,888.939,602,894A131.756,131.756,0,0,1,599.719,917.227Z" fill="#ebf2f7"/>
            <path id="Path_2556" data-name="Path 2556" d="M601,871.583a17.641,17.641,0,0,0-.323-3.184c-.222-1.083-.846-4.3-1.064-6.173A108.231,108.231,0,0,1,599,849.484V849a8.836,8.836,0,0,1,.121-1.49A6.938,6.938,0,0,0,602.8,847H605l-.808-.807a7.212,7.212,0,0,0,.65-.552,6.041,6.041,0,0,0,.816.7L605,847h1.836c.054.023.109.045.164.066v9.848a48.852,48.852,0,0,1-2.382,7.7,16.486,16.486,0,0,0-.835,3.237C603.5,869.883,601,887.871,601,893Z" fill="url(#linear-gradient)"/>
            <g id="Group_1591" data-name="Group 1591">
              <g id="Group_1590" data-name="Group 1590">
                <path id="Path_2557" data-name="Path 2557" d="M606,846.322c-.082-.019-.158-.059-.239-.084L605,847h1Z" fill="#fff"/>
                <path id="Path_2558" data-name="Path 2558" d="M600.413,842.412h1.763a5.736,5.736,0,0,1-.162-1h-3.6l3.617,3.617c.069-.061.138-.126.208-.2-.068.067-.136.133-.207.2l.97.97.5-.5Z" fill="#fff"/>
                <path id="Path_2559" data-name="Path 2559" d="M600,872.583a16.786,16.786,0,0,0-.3-2.983c-.008-.039-.81-3.964-1.077-6.259A109.116,109.116,0,0,1,598,850.482V850a9.165,9.165,0,0,1,.374-2.668,5.94,5.94,0,0,0,4.2-.325c.116,0,.257-.007.426-.007h2l-.97-.97.032-.03h0a.416.416,0,0,1-.032.029L604,846h-3c-.169,0-.31,0-.426.007a5.937,5.937,0,0,1-4.2.325A9.127,9.127,0,0,0,596,849v.482a108.9,108.9,0,0,0,.621,12.859c.268,2.295,1.069,6.22,1.077,6.259a16.786,16.786,0,0,1,.3,2.983V903c0,.514-.039,1.441-.092,2.66-.2,4.389-.241,7.845-.19,10.567A131.766,131.766,0,0,0,600,893Z" fill="#fff"/>
              </g>
            </g>
            <path id="Path_2560" data-name="Path 2560" d="M611,843a1.053,1.053,0,0,1,1,1v14c0,1.9-1.957,7.429-2.711,9.4a11.588,11.588,0,0,0-.553,2.143c-.112.8-2.736,19.585-2.736,24.458a179.709,179.709,0,0,1-1.739,20.445C602.1,929.25,599.5,930,599,930a1.258,1.258,0,0,1-.955-.462c-3.015-3.152-2.373-17.612-2.132-23.055.051-1.155.088-1.99.088-2.483V872.583a12.9,12.9,0,0,0-.222-2.18c-.008-.041-.843-4.13-1.132-6.6A112.787,112.787,0,0,1,594,850.479V850c0-4.273,1.776-7,3-7a9.809,9.809,0,0,1,1.792.109,1.926,1.926,0,0,0,2.472.028A7.232,7.232,0,0,1,603,843h5.282a1.179,1.179,0,0,0,.936.475,1.323,1.323,0,0,0,.95-.431A5.839,5.839,0,0,1,611,843m0-1c-1.279,0-1.415.188-1.415.188-.139.193-.267.287-.367.287-.133,0-.218-.162-.218-.475h-4v0h-2c-2,0-2.292.293-2.292.293a.929.929,0,0,1-1.368-.044S599.121,842,597,842s-4,3.571-4,8a117.366,117.366,0,0,0,.653,13.92c.3,2.541,1.146,6.684,1.146,6.684a11.964,11.964,0,0,1,.2,1.979V904c0,3.429-2,27,4,27s8-31.429,8-37c0-4.859,2.726-24.319,2.726-24.319a10.66,10.66,0,0,1,.5-1.924S613,860.5,613,858V844a2.039,2.039,0,0,0-2-2Z" fill="#7aabcc"/>
          </g>
          <g id="Group_1593" data-name="Group 1593">
            <path id="Path_2561" data-name="Path 2561" d="M605,879c.636-1.644,1.331-3.25,2-4.866l2.049-4.821c.676-1.607,1.324-3.226,1.885-4.867.3-.817.536-1.646.79-2.472.215-.831.427-1.663.558-2.495a13.975,13.975,0,0,0,.153-2.529l0-2.627.008-5.255.008-2.627c0-.859.016-1.789,0-2.59a1.533,1.533,0,0,0-1.22-1.3c-.066-.02-.183-.012-.219-.022a2.368,2.368,0,0,0-.291.022,1.762,1.762,0,0,0-.48.137,2.244,2.244,0,0,0-.817.617l-.947-.3c0,.067-.005-.019-.025-.037a.415.415,0,0,0-.086-.108.98.98,0,0,0-.343-.194,3.2,3.2,0,0,0-1.024-.146l-.286.008c-.1,0-.171.018-.257.024a2.431,2.431,0,0,0-.482.107,1,1,0,0,0-.348.193.432.432,0,0,0-.09.11c-.021.02-.032.105-.029.043h-1.015c.006.062-.012-.037-.037-.062a.59.59,0,0,0-.12-.131,1.234,1.234,0,0,0-.457-.205,2.922,2.922,0,0,0-.6-.092l-.308-.009-.349.014a4.642,4.642,0,0,0-1.23.26,3.95,3.95,0,0,0-.568.259c-.089.052-.176.1-.258.163a2.476,2.476,0,0,0-.207.163l-.368.346-.375-.37a2.842,2.842,0,0,0-1.023-.575,4.6,4.6,0,0,0-1.278-.233c-.088,0-.274-.006-.28-.009l-.36.038a2.292,2.292,0,0,0-.467.2,3.212,3.212,0,0,0-.91.833A7.624,7.624,0,0,0,594.119,846a12.875,12.875,0,0,0-.514,2.723c-.081.914-.051,1.876-.051,2.844l.042,2.883c.035,1.922.142,3.839.274,5.753.089.954.148,1.913.263,2.863.1.953.2,1.907.342,2.853.119.951.278,1.893.456,2.833.15.946.389,1.87.6,2.8s.515,1.833.752,2.756c.339.885.577,1.816.967,2.68l.546,1.319c.183.44.443.836.662,1.26A20.827,20.827,0,0,0,600,882a13.315,13.315,0,0,1-1.958-2.165c-.27-.406-.584-.793-.82-1.222l-.7-1.293a29.1,29.1,0,0,1-1.147-2.706c-.286-.932-.612-1.859-.836-2.808s-.48-1.892-.644-2.851c-.193-.955-.368-1.913-.5-2.875-.16-.96-.269-1.926-.383-2.891s-.176-1.933-.267-2.9c-.13-1.936-.234-3.874-.267-5.812-.023-.968-.029-1.938-.028-2.905s-.02-1.931.073-2.941a13.96,13.96,0,0,1,.576-2.949,8.668,8.668,0,0,1,1.375-2.745,4.278,4.278,0,0,1,1.224-1.091,2.936,2.936,0,0,1,.874-.325l.361-.037c.234-.006.289.005.442.008a4.61,4.61,0,0,1,3.011,1.17l-.742-.023a2.826,2.826,0,0,1,.346-.277c.112-.078.226-.147.342-.214a5.088,5.088,0,0,1,.72-.324,5.608,5.608,0,0,1,1.534-.311l.358-.013.4.008a4.067,4.067,0,0,1,.8.119,2.23,2.23,0,0,1,.82.383,1.567,1.567,0,0,1,.355.389,1.177,1.177,0,0,1,.194.6h-1.015a1.137,1.137,0,0,1,.153-.533,1.425,1.425,0,0,1,.285-.364,2,2,0,0,1,.7-.412,3.437,3.437,0,0,1,.7-.163c.115-.011.246-.028.349-.032l.32-.011a4.2,4.2,0,0,1,1.375.2,2.009,2.009,0,0,1,.7.41,1.456,1.456,0,0,1,.29.366,1.158,1.158,0,0,1,.155.539l-.946-.306a3.223,3.223,0,0,1,1.243-.97,2.791,2.791,0,0,1,.779-.222,3.115,3.115,0,0,1,.363-.03,2.581,2.581,0,0,1,.434.031,2.435,2.435,0,0,1,1.444.779,2.642,2.642,0,0,1,.686,1.495c.029.949.013,1.772.021,2.664l.008,2.627.008,5.255,0,2.627a15.191,15.191,0,0,1-.162,2.707,24.069,24.069,0,0,1-.613,2.624c-.271.845-.529,1.7-.841,2.523-.594,1.666-1.27,3.293-1.972,4.907s-1.474,3.194-2.3,4.747S605.985,877.537,605,879Z" fill="#7aabcc"/>
          </g>
        </g>
      </g>
    </g>
  </g>
</svg>
