<svg xmlns="http://www.w3.org/2000/svg" xmlns:xlink="http://www.w3.org/1999/xlink" width="58" height="76" viewBox="0 0 58 76">
  <defs>
    <clipPath id="clip-path">
      <path id="SVGID" d="M107.5,846c0-3.571-3.989-9-8.975-9a13,13,0,0,0-7.252,2.592,3.53,3.53,0,0,1-3.674.285A14.6,14.6,0,0,0,81.573,838c-2.252,0-5,1.3-6.611,2.19a3.369,3.369,0,0,1-2.679.25c-2.022-.659-5.668-.945-5.668,5.56,0,8.571,2.784,12.659,4.986,17,1.55,3.056.712,17.571,0,21s-8.833,13.714-8.975,16-.76,4,2.991,4c5.015,0,12.559-8.568,15.606-12.3a.636.636,0,0,1,1.123.485A20.387,20.387,0,0,1,81.573,896c-.713,2-6.126,9-1.995,9s13.391-9,15.956-13,6.98-14.857,6.98-31C102.514,854.571,107.5,851.286,107.5,846Z" fill="none"/>
    </clipPath>
    <linearGradient id="linear-gradient" x1="-246.639" y1="1" x2="-246.639" gradientUnits="objectBoundingBox">
      <stop offset="0" stop-color="#fff"/>
      <stop offset="0.25" stop-color="#f2f7fa"/>
    </linearGradient>
  </defs>
  <g id="Regular32" transform="translate(-56 -836)">
    <rect id="Rectangle_261" data-name="Rectangle 261" width="58" height="76" transform="translate(56 836)" fill="none"/>
    <g id="Group_1544" data-name="Group 1544" transform="translate(0 3)">
      <g id="Group_1543" data-name="Group 1543">
        <g id="Group_1542" data-name="Group 1542" clip-path="url(#clip-path)">
          <g id="Group_1534" data-name="Group 1534">
            <path id="Path_2506" data-name="Path 2506" d="M79.578,904.5c-.5,0-.811-.113-.94-.337-.552-.957,1.165-3.921,2.191-5.692a17.7,17.7,0,0,0,1.215-2.3,20.07,20.07,0,0,0,.8-3.919,1.12,1.12,0,0,0-.269-.893,1.157,1.157,0,0,0-.866-.391,1.11,1.11,0,0,0-.873.42C77.86,895.028,70.422,903.5,65.617,903.5a3.264,3.264,0,0,1-2.321-.559c-.383-.419-.316-1.188-.23-2.161.021-.241.043-.492.059-.749.061-.977,2.153-4.193,4-7.031,2.252-3.461,4.58-7.04,4.966-8.9.7-3.375,1.593-18.1-.043-21.328-.271-.533-.549-1.061-.831-1.594-2.016-3.825-4.1-7.779-4.1-15.18,0-3.574,1.109-5.386,3.3-5.386a5.586,5.586,0,0,1,1.716.3,3.876,3.876,0,0,0,3.076-.287c1.442-.795,4.187-2.128,6.369-2.128a14.127,14.127,0,0,1,5.8,1.821,3.954,3.954,0,0,0,1.817.443A4.092,4.092,0,0,0,91.562,840a12.481,12.481,0,0,1,6.963-2.5c4.678,0,8.475,5.143,8.475,8.5,0,2.386-1.092,4.383-2.249,6.5-1.346,2.46-2.737,5-2.737,8.5,0,19.4-6.195,29.628-6.9,30.73C92.555,895.719,83.374,904.5,79.578,904.5Z" fill="#ebf2f7"/>
            <g id="Group_1531" data-name="Group 1531">
              <g id="Group_1530" data-name="Group 1530">
                <path id="Path_2507" data-name="Path 2507" d="M81.708,886.465a5.593,5.593,0,0,0-3.857,1.542,61.6,61.6,0,0,1-4.955,8.447l-.02.03a64.261,64.261,0,0,0,6.474-6.945,5.608,5.608,0,0,1,4.358-2.074,5.691,5.691,0,0,1,1.48.2A5.659,5.659,0,0,0,81.708,886.465Z" fill="#d1e2ed"/>
                <path id="Path_2508" data-name="Path 2508" d="M100.688,843.015A5.527,5.527,0,0,1,102.5,846c0,1.174-.645,2.412-1.7,4.336-1.465,2.679-3.289,6.013-3.289,10.662,0,14.719-3.891,24.715-6.19,28.3a21.779,21.779,0,0,1-2.1,2.645,5.669,5.669,0,0,1,.078,1.867q-.088.7-.188,1.32a31.149,31.149,0,0,0,4.2-4.832c2.3-3.587,6.19-13.583,6.19-28.3,0-4.649,1.824-7.983,3.289-10.662,1.052-1.924,1.7-3.162,1.7-4.336C104.475,845.942,102.624,843.166,100.688,843.015Z" fill="#d1e2ed"/>
              </g>
            </g>
            <path id="Path_2509" data-name="Path 2509" d="M70.9,895.454c3.137-4.822,5.079-7.93,5.6-10.437.4-1.926,2.2-19.071-.436-24.279-.281-.553-.571-1.1-.863-1.658-1.922-3.645-3.582-6.793-3.582-13.08,0-.211.005-.4.014-.568a8.369,8.369,0,0,0,5.746-.863,10.858,10.858,0,0,1,4.2-1.569,10.043,10.043,0,0,1,3.721,1.314,8.47,8.47,0,0,0,3.892.95,8.569,8.569,0,0,0,4.976-1.591A8.277,8.277,0,0,1,98.525,842c1.993,0,3.949,2.912,3.975,4,0,1.174-.645,2.412-1.7,4.336-1.465,2.678-3.289,6.012-3.289,10.662,0,14.719-3.891,24.715-6.19,28.3a31.19,31.19,0,0,1-4.2,4.832q.1-.624.187-1.32a5.635,5.635,0,0,0-9.957-4.275,64.278,64.278,0,0,1-6.474,6.946Z" fill="#ebf2f7"/>
            <path id="Path_2510" data-name="Path 2510" d="M88.322,890.473a6.635,6.635,0,0,0-11.747-3.567l-.053.066a12.89,12.89,0,0,0,.953-2.751c.425-2.047,2.279-19.41-.523-24.935-.284-.558-.576-1.113-.871-1.672-1.8-3.413-3.362-6.375-3.461-12.033q.357.027.719.027a9.389,9.389,0,0,0,4.519-1.163A10.637,10.637,0,0,1,81.573,843a9.584,9.584,0,0,1,3.26,1.2,9.47,9.47,0,0,0,4.353,1.063,9.567,9.567,0,0,0,5.554-1.775A7.118,7.118,0,0,1,98.525,842c1.168,0,2.852,2.061,2.978,3.078,0,.854-.6,1.995-1.577,3.78-1.44,2.632-3.412,6.237-3.412,11.142,0,14.488-3.791,24.267-6.032,27.762A21.749,21.749,0,0,1,88.322,890.473Z" fill="url(#linear-gradient)"/>
            <g id="Group_1533" data-name="Group 1533">
              <g id="Group_1532" data-name="Group 1532">
                <path id="Path_2511" data-name="Path 2511" d="M75.851,887.007a10.965,10.965,0,0,0,.645-1.99c.4-1.926,2.2-19.071-.436-24.279-.281-.553-.571-1.1-.863-1.657-1.923-3.645-3.583-6.794-3.583-13.081,0-.211.006-.4.015-.567a8.382,8.382,0,0,0,5.746-.864,10.861,10.861,0,0,1,4.2-1.569,10.019,10.019,0,0,1,3.722,1.314,8.47,8.47,0,0,0,3.892.95,8.569,8.569,0,0,0,4.976-1.591A8.274,8.274,0,0,1,98.525,842c.055,0,.11.01.163.015A3.377,3.377,0,0,0,96.525,841a8.274,8.274,0,0,0-4.363,1.673,8.569,8.569,0,0,1-4.976,1.591,8.47,8.47,0,0,1-3.892-.95A10.019,10.019,0,0,0,79.572,842a10.861,10.861,0,0,0-4.2,1.569,8.382,8.382,0,0,1-5.746.864c-.009.168-.015.356-.015.567,0,6.287,1.66,9.436,3.583,13.081.292.554.582,1.1.863,1.657,2.641,5.208.836,22.353.436,24.279-.52,2.506-2.463,5.615-5.6,10.437l-.02.03a64.261,64.261,0,0,0,6.474-6.945A5.619,5.619,0,0,1,75.851,887.007Z" fill="#fff"/>
                <path id="Path_2512" data-name="Path 2512" d="M85.949,888.381a5.646,5.646,0,0,0-2.761-1.711,5.555,5.555,0,0,1,.761.711,5.63,5.63,0,0,1,1.358,4.433q-.088.7-.188,1.32c.752-.732,1.466-1.472,2.11-2.187A5.6,5.6,0,0,0,85.949,888.381Z" fill="#fff"/>
              </g>
            </g>
            <path id="Path_2513" data-name="Path 2513" d="M98.525,838c4.326,0,7.975,4.914,7.975,8,0,2.258-1.062,4.2-2.187,6.258-1.313,2.4-2.8,5.115-2.8,8.742a75.484,75.484,0,0,1-2.493,19.791,39.258,39.258,0,0,1-4.33,10.669C92.165,895.4,83.1,904,79.578,904a.979.979,0,0,1-.506-.086c-.436-.659,1.54-4.071,2.19-5.191a17.563,17.563,0,0,0,1.253-2.388,20.548,20.548,0,0,0,.824-4.024,1.614,1.614,0,0,0-.391-1.286,1.651,1.651,0,0,0-1.24-.56,1.627,1.627,0,0,0-1.26.6C74.346,898.54,68.8,903,65.617,903c-1.433,0-1.843-.278-1.952-.4-.234-.257-.17-1-.1-1.779.023-.246.044-.5.061-.762.053-.845,2.287-4.28,3.919-6.788,2.382-3.662,4.632-7.12,5.037-9.071.73-3.516,1.627-18.274-.088-21.655-.27-.535-.551-1.066-.833-1.6-1.989-3.77-4.045-7.669-4.045-14.946,0-4.886,2.107-4.886,2.8-4.886a5.088,5.088,0,0,1,1.561.277,4.41,4.41,0,0,0,1.366.217,4.364,4.364,0,0,0,2.1-.543c1.4-.771,4.059-2.065,6.128-2.065a13.684,13.684,0,0,1,5.566,1.764,4.462,4.462,0,0,0,2.049.5,4.589,4.589,0,0,0,2.664-.857A12,12,0,0,1,98.525,838m0-1a13,13,0,0,0-7.252,2.592,3.618,3.618,0,0,1-2.086.673,3.429,3.429,0,0,1-1.587-.388A14.61,14.61,0,0,0,81.572,838c-2.251,0-5,1.3-6.61,2.189a3.345,3.345,0,0,1-1.622.419,3.4,3.4,0,0,1-1.057-.169,6.189,6.189,0,0,0-1.87-.325c-1.842,0-3.8,1.121-3.8,5.886,0,8.571,2.784,12.659,4.987,17,1.549,3.056.712,17.571,0,21s-8.832,13.714-8.975,16-.76,4,2.991,4c5.016,0,12.559-8.568,15.606-12.3a.615.615,0,0,1,.485-.236.637.637,0,0,1,.639.721A20.383,20.383,0,0,1,81.572,896c-.712,2-6.125,9-1.994,9s13.392-9,15.955-13,6.981-14.857,6.981-31c0-6.429,4.986-9.714,4.986-15,0-3.571-3.989-9-8.975-9Z" fill="#7aabcc"/>
          </g>
          <g id="Group_1535" data-name="Group 1535">
            <path id="Path_2514" data-name="Path 2514" d="M81.529,897.976s.113-.321.339-.867.563-1.316.965-2.237l.676-1.472c.245-.517.5-1.063.773-1.628.566-1.113,1.169-2.3,1.716-3.515a37.225,37.225,0,0,0,1.407-3.642c.193-.592.359-1.171.5-1.724.161-.55.242-1.083.354-1.571.065-.492.155-.944.182-1.348s.071-.758.067-1.05c0-.584,0-.918,0-.918l.1-.008s.026.336.072.924c.027.3.007.654.013,1.066s-.054.875-.084,1.383c-.075.5-.118,1.054-.24,1.623-.1.575-.243,1.171-.4,1.786a37.847,37.847,0,0,1-1.224,3.782c-.472,1.267-.976,2.525-1.52,3.668-.561,1.135-1.142,2.163-1.679,3.021-.26.433-.532.812-.755,1.157s-.43.638-.609.874c-.345.479-.559.744-.559.744Z" fill="#7aabcc"/>
          </g>
          <g id="Group_1536" data-name="Group 1536">
            <path id="Path_2515" data-name="Path 2515" d="M79.544,892.963a16.5,16.5,0,0,1,1.152-1.61c.366-.462.806-.984,1.311-1.511l1.649-1.587c.55-.551,1.1-1.108,1.585-1.647s.943-1.046,1.306-1.5c.192-.221.331-.443.473-.634a4.91,4.91,0,0,0,.31-.518,1.492,1.492,0,0,0,.135-.355l.041-.13.1,0s-.009.05-.024.144a1.652,1.652,0,0,1-.1.4,5.032,5.032,0,0,1-.253.579c-.117.21-.235.463-.4.709a31.382,31.382,0,0,1-2.586,3.485c-.5.607-.991,1.228-1.49,1.77a15.434,15.434,0,0,1-1.5,1.355,10.853,10.853,0,0,1-1.65,1.119Z" fill="#7aabcc"/>
          </g>
          <g id="Group_1537" data-name="Group 1537">
            <path id="Path_2516" data-name="Path 2516" d="M89.574,862.044a3.114,3.114,0,0,1-.25.278c-.088.085-.162.2-.256.308s-.192.245-.3.386c-.221.283-.451.626-.709.987a9.376,9.376,0,0,0-.8,1.166,6.66,6.66,0,0,0-.759,2.571,3.8,3.8,0,0,0,.038.9c.043.217.067.341.067.341l-.093.036-.137-.333a4.04,4.04,0,0,1-.225-.932,5.013,5.013,0,0,1,0-1.368,7.869,7.869,0,0,1,.37-1.535,6.984,6.984,0,0,1,.681-1.45,3.752,3.752,0,0,1,1.022-.978,2.681,2.681,0,0,1,.929-.409,3.2,3.2,0,0,1,.369-.057Z" fill="#7aabcc"/>
          </g>
          <g id="Group_1538" data-name="Group 1538">
            <path id="Path_2517" data-name="Path 2517" d="M86.51,867.01c0,.005-.071-.107-.191-.251-.119-.127-.293-.334-.491-.56s-.428-.491-.665-.774a7.368,7.368,0,0,0-.725-.916,5.266,5.266,0,0,0-.913-.745,6.51,6.51,0,0,0-.935-.467,4.383,4.383,0,0,0-.73-.2l-.287-.052v-.1l.3-.016a4.489,4.489,0,0,1,.8.023,4.617,4.617,0,0,1,1.115.29,5.939,5.939,0,0,1,1.166.649,5.394,5.394,0,0,1,1.023.879,3.289,3.289,0,0,1,.554,1.04,2.428,2.428,0,0,1,.13.856,1.191,1.191,0,0,1-.052.319Z" fill="#7aabcc"/>
          </g>
          <g id="Group_1539" data-name="Group 1539">
            <path id="Path_2518" data-name="Path 2518" d="M72.548,872s-.053-.159-.113-.436a4.576,4.576,0,0,1-.114-1.186,4.706,4.706,0,0,1,.064-.8,5.231,5.231,0,0,1,.2-.873,6.451,6.451,0,0,1,.395-.874c.15-.29.328-.571.505-.849a7.278,7.278,0,0,1,2.609-2.423,6.519,6.519,0,0,1,1.061-.47l.414-.139.036.094-.381.2a6.256,6.256,0,0,0-.94.608,8.145,8.145,0,0,0-1.134,1.068,7.915,7.915,0,0,0-.974,1.466,10.775,10.775,0,0,0-.6,1.641c-.161.531-.339,1.024-.461,1.465s-.247.818-.325,1.079-.139.427-.139.427Z" fill="#7aabcc"/>
          </g>
          <g id="Group_1540" data-name="Group 1540">
            <path id="Path_2519" data-name="Path 2519" d="M78.589,839.049l-.11.056a2.081,2.081,0,0,0-.3.153,3.17,3.17,0,0,0-.313.313,3.084,3.084,0,0,0-.363.478c-.132.169-.236.408-.375.618-.107.243-.257.469-.38.734-.148.248-.281.518-.429.791s-.268.566-.4.852a20.683,20.683,0,0,0-1.031,3.361A12.311,12.311,0,0,0,74.642,848h-.1a12.379,12.379,0,0,1,0-1.641,16.674,16.674,0,0,1,.622-3.578,11.568,11.568,0,0,1,.666-1.862,5.2,5.2,0,0,1,.5-.786,4.237,4.237,0,0,1,.589-.622,2.51,2.51,0,0,1,.616-.417,1.759,1.759,0,0,1,.58-.18,1.383,1.383,0,0,1,.343.018l.121.019Z" fill="#7aabcc"/>
          </g>
          <g id="Group_1541" data-name="Group 1541">
            <path id="Path_2520" data-name="Path 2520" d="M95.54,838.05s-.165.077-.458.181a2.068,2.068,0,0,0-.439.259,3.821,3.821,0,0,0-.488.392c-.166.163-.335.355-.508.558-.154.227-.343.436-.5.7-.191.234-.349.509-.535.778s-.333.57-.487.868a18.159,18.159,0,0,0-1.238,3.525A10.367,10.367,0,0,0,90.6,847h-.1a10.528,10.528,0,0,1,.041-1.749,13.74,13.74,0,0,1,.275-1.78,16.259,16.259,0,0,1,.571-2,9.1,9.1,0,0,1,.9-1.927,4.23,4.23,0,0,1,1.4-1.314,2.834,2.834,0,0,1,.748-.289,1.69,1.69,0,0,1,.6-.059c.309.032.487.068.487.068Z" fill="#7aabcc"/>
          </g>
        </g>
      </g>
    </g>
  </g>
</svg>
