<svg xmlns="http://www.w3.org/2000/svg" xmlns:xlink="http://www.w3.org/1999/xlink" width="58" height="105" viewBox="0 0 58 105">
  <defs>
    <clipPath id="clip-path">
      <path id="SVGID" d="M588.351,757.548c.173-15.548,2-23.079,2-28.6,0-4.353-3.525-24.985-.492-35.964,1-3.631,2.724-7.986,5.527-7.986,12.686,0,16.109,52.341,16.109,61.93l-.1.057c5.284,7.837,10.141,19.347,8.156,28.91-.678,3.27-2.276,4.773-4.027,4.773a7.033,7.033,0,0,1-3.948-.936,1.082,1.082,0,0,0-1.463.249c-.888,1.225-3.224,2.017-5.664,2.017-2.47,0-3.315-.455-4.259-1.34a1.694,1.694,0,0,0-1.769-.308,7.826,7.826,0,0,1-3.034.433C589.311,780.785,582.229,774.724,588.351,757.548Z" fill="none"/>
    </clipPath>
    <linearGradient id="linear-gradient" x1="-370.739" y1="1" x2="-370.739" gradientUnits="objectBoundingBox">
      <stop offset="0" stop-color="#fff"/>
      <stop offset="0.25" stop-color="#f2f7fa"/>
    </linearGradient>
  </defs>
  <g id="Regular8" transform="translate(-574 -683)">
    <rect id="Rectangle_252" data-name="Rectangle 252" width="58" height="105" transform="translate(574 683)" fill="none"/>
    <g id="Group_1605" data-name="Group 1605" transform="translate(0 2)">
      <g id="Group_1604" data-name="Group 1604">
        <g id="Group_1603" data-name="Group 1603" clip-path="url(#clip-path)">
          <g id="Group_1601" data-name="Group 1601">
            <path id="Path_2562" data-name="Path 2562" d="M604.444,781.5c-2.449,0-3.141-.477-3.916-1.205a2.127,2.127,0,0,0-1.461-.565,2.3,2.3,0,0,0-.831.155,7.382,7.382,0,0,1-2.854.4,8.264,8.264,0,0,1-6.84-3.533c-1.971-2.8-3.523-8.366.28-19.036l.028-.078v-.084a192.506,192.506,0,0,1,1.379-20.92,72.939,72.939,0,0,0,.617-7.684c0-1.105-.22-3.218-.5-5.893-.848-8.143-2.268-21.771-.012-29.938,1.377-4.984,3.122-7.619,5.045-7.619,11.447,0,15.547,48.183,15.609,61.137l-.319.179.3.45c2.512,3.725,10.518,16.791,8.082,28.53-.577,2.78-1.867,4.374-3.538,4.374a6.642,6.642,0,0,1-3.683-.86,1.66,1.66,0,0,0-.879-.254,1.532,1.532,0,0,0-1.254.634C608.93,780.756,606.767,781.5,604.444,781.5Z" fill="#ebf2f7"/>
            <g id="Group_1598" data-name="Group 1598">
              <g id="Group_1597" data-name="Group 1597">
                <path id="Path_2563" data-name="Path 2563" d="M599.067,775.229a6.794,6.794,0,0,0-2.447.456,3.5,3.5,0,0,1-1.238.1,4.14,4.14,0,0,1-.664-.055,3.827,3.827,0,0,0,2.664,1.055,3.493,3.493,0,0,0,1.238-.1,6.794,6.794,0,0,1,2.447-.456,6.668,6.668,0,0,1,1.941.291A6.623,6.623,0,0,0,599.067,775.229Z" fill="#d1e2ed"/>
                <path id="Path_2564" data-name="Path 2564" d="M609.244,750.782l-3.035-4.5,2.218-1.244a259.01,259.01,0,0,0-2.856-28.977c-2.774-17.31-6.116-22.789-7.573-24.425-.154.308-.331.708-.521,1.2,1.68,3.091,4.042,9.417,6.094,22.221a259.01,259.01,0,0,1,2.856,28.977l-2.218,1.244,3.035,4.5c4.664,6.916,9.058,17.142,7.406,25.1a6.449,6.449,0,0,1-.183.7.788.788,0,0,1-.244-.088,6.159,6.159,0,0,0-3.266-.939,6.066,6.066,0,0,0-4.6,2.121,5.2,5.2,0,0,1-1.91.323c-.1,0-.188,0-.272,0a6.565,6.565,0,0,1,1.379.964,8.31,8.31,0,0,0,.893.039,5.2,5.2,0,0,0,1.91-.323,6.066,6.066,0,0,1,4.6-2.121,6.159,6.159,0,0,1,3.266.939.788.788,0,0,0,.244.088,6.449,6.449,0,0,0,.183-.7C618.3,767.924,613.908,757.7,609.244,750.782Z" fill="#d1e2ed"/>
              </g>
            </g>
            <path id="Path_2565" data-name="Path 2565" d="M604.444,777a8.044,8.044,0,0,1-.894-.039,6.608,6.608,0,0,0-4.483-1.731,6.789,6.789,0,0,0-2.447.455,3.493,3.493,0,0,1-1.238.1,3.784,3.784,0,0,1-3.163-1.626c-.9-1.269-2.6-5.264.842-14.932l.28-.787.01-.836a188.513,188.513,0,0,1,1.351-20.47,75.643,75.643,0,0,0,.645-8.184c0-1.338-.219-3.445-.523-6.359-.761-7.313-2.179-20.926-.149-28.274A20.859,20.859,0,0,1,596,690.634c1.457,1.637,4.8,7.116,7.573,24.425a259.022,259.022,0,0,1,2.856,28.978l-2.218,1.244,3.035,4.5c4.664,6.916,9.058,17.141,7.407,25.1a6.587,6.587,0,0,1-.184.7.827.827,0,0,1-.244-.088,6.159,6.159,0,0,0-3.266-.939,6.07,6.07,0,0,0-4.6,2.121A5.211,5.211,0,0,1,604.444,777Z" fill="#ebf2f7"/>
            <path id="Path_2566" data-name="Path 2566" d="M604.444,775c-.2,0-.365,0-.491-.011a7.636,7.636,0,0,0-4.886-1.759,7.77,7.77,0,0,0-2.806.522h0a6.963,6.963,0,0,1-.879.034,2.764,2.764,0,0,1-2.345-1.2c-.629-.89-2.415-4.534.966-14.019l.336-.945.012-1a185.259,185.259,0,0,1,1.345-20.37,76.381,76.381,0,0,0,.651-8.295c0-1.39-.221-3.518-.528-6.463-.755-7.247-2.16-20.737-.18-27.9.211-.765.413-1.4.6-1.928,1.589,2.631,4.238,8.941,6.5,23.574a261.221,261.221,0,0,1,2.66,27.235l-2.63,1.476,3.642,5.4c4.443,6.589,8.643,16.218,7.359,23.794a7.087,7.087,0,0,0-8,1.686A4.783,4.783,0,0,1,604.444,775Z" fill="url(#linear-gradient)"/>
            <g id="Group_1600" data-name="Group 1600">
              <g id="Group_1599" data-name="Group 1599">
                <path id="Path_2567" data-name="Path 2567" d="M592.22,774.159c-.9-1.269-2.6-5.264.841-14.931l.281-.789.009-.835a188.513,188.513,0,0,1,1.351-20.47,75.691,75.691,0,0,0,.646-8.184c0-1.339-.22-3.444-.524-6.359-.761-7.314-2.179-20.926-.149-28.274.284-1.028.555-1.837.8-2.478a11.731,11.731,0,0,0-1.479-2.2,20.806,20.806,0,0,0-1.323,3.682c-2.03,7.348-.612,20.96.149,28.274.3,2.915.524,5.02.524,6.359a75.691,75.691,0,0,1-.646,8.184,188.513,188.513,0,0,0-1.351,20.47l-.009.835-.281.789c-3.446,9.667-1.737,13.662-.841,14.931a3.712,3.712,0,0,0,2.5,1.571A3.859,3.859,0,0,1,592.22,774.159Z" fill="#fff"/>
                <path id="Path_2568" data-name="Path 2568" d="M601.008,775.52a6.464,6.464,0,0,1,.542.441c.128.015.329.029.621.036A6.475,6.475,0,0,0,601.008,775.52Z" fill="#fff"/>
              </g>
            </g>
            <path id="Path_2569" data-name="Path 2569" d="M595.382,686c4.7,0,8.9,9.425,11.826,26.537a256.879,256.879,0,0,1,3.28,33.813l-.531.3.6.9c5.119,7.592,9.91,18.973,8.006,28.148-.517,2.49-1.656,3.976-3.048,3.976a5.99,5.99,0,0,1-3.418-.783,2.152,2.152,0,0,0-1.144-.331,2.028,2.028,0,0,0-1.659.84c-.578.8-2.431,1.6-4.854,1.6-2.318,0-2.868-.406-3.574-1.069a2.627,2.627,0,0,0-1.8-.7,2.8,2.8,0,0,0-1.009.189,6.877,6.877,0,0,1-2.675.367,7.771,7.771,0,0,1-6.432-3.32c-1.9-2.7-3.387-8.112.343-18.58l.056-.157,0-.168a191.832,191.832,0,0,1,1.376-20.87,73.469,73.469,0,0,0,.621-7.74c0-1.131-.21-3.15-.5-5.945-.844-8.108-2.258-21.677-.027-29.752,1.292-4.678,2.912-7.253,4.563-7.253m0-1c-2.8,0-4.524,4.354-5.527,7.986-3.033,10.979.493,31.611.493,35.964,0,5.519-1.824,13.05-2,28.6-6.122,17.176.96,23.236,7.031,23.236a7.83,7.83,0,0,0,3.034-.433,1.81,1.81,0,0,1,.65-.123,1.625,1.625,0,0,1,1.12.431c.943.886,1.788,1.34,4.258,1.34,2.44,0,4.776-.792,5.664-2.017a1.035,1.035,0,0,1,.849-.427,1.161,1.161,0,0,1,.614.178,7.027,7.027,0,0,0,3.948.936c1.751,0,3.349-1.5,4.027-4.773,1.985-9.563-2.872-21.073-8.156-28.91l.1-.057c0-9.589-3.423-61.93-16.109-61.93Z" fill="#7aabcc"/>
          </g>
          <g id="Group_1602" data-name="Group 1602">
            <path id="Path_2570" data-name="Path 2570" d="M602.43,737.94l.325.085a4.286,4.286,0,0,1,.92.368,13.455,13.455,0,0,1,3.02,2.229,42.973,42.973,0,0,1,7.953,10.681,52.763,52.763,0,0,1,3.679,8.132,41.067,41.067,0,0,1,1.364,4.7,31.465,31.465,0,0,1,.775,5.062,26.434,26.434,0,0,1-.135,5.317,10.312,10.312,0,0,1-1.9,5.235,3.834,3.834,0,0,1-2.678,1.436,9.555,9.555,0,0,1-2.871-.314,6.132,6.132,0,0,1-1.37-.575l-.285-.167a.7.7,0,0,0-.164-.05.561.561,0,0,0-.353.048c-.108.046-.155.121-.329.332a3.859,3.859,0,0,1-.581.549,5.8,5.8,0,0,1-1.3.735,11.553,11.553,0,0,1-5.633.693,4.819,4.819,0,0,1-2.749-1.138,4.276,4.276,0,0,0-.455-.38,1.093,1.093,0,0,0-.432-.147,2.256,2.256,0,0,0-1.091.239,9.411,9.411,0,0,1-2.853.308l-1.328-.1c-.465-.092-.937-.212-1.4-.323a9.531,9.531,0,0,1-4.508-3.076l-.786-1.1c-.232-.381-.392-.8-.588-1.194a12.118,12.118,0,0,1-.82-2.47,21.9,21.9,0,0,1-.358-2.5c-.082-.826,0-1.641-.01-2.446a33.945,33.945,0,0,1,1.742-8.787,65.377,65.377,0,0,1,2.734-7.018c.5-1,.973-1.936,1.422-2.793s.853-1.649,1.29-2.323c.83-1.373,1.511-2.433,1.983-3.15s.729-1.1.729-1.1-.176.426-.543,1.2-.891,1.918-1.608,3.341-1.428,3.225-2.388,5.218a71.956,71.956,0,0,0-2.6,6.938,34.888,34.888,0,0,0-1.634,8.517,13.35,13.35,0,0,0,2.3,8.969,8.433,8.433,0,0,0,3.951,2.732l1.176.288,1.328.108a8.49,8.49,0,0,0,2.466-.254c.2-.054.348-.129.662-.217a2.321,2.321,0,0,1,.868-.05,2.119,2.119,0,0,1,.838.294,4.559,4.559,0,0,1,.589.481,3.764,3.764,0,0,0,2.2.91,10.571,10.571,0,0,0,5.118-.593,4.849,4.849,0,0,0,1.076-.612,2.771,2.771,0,0,0,.412-.39,1.944,1.944,0,0,1,.655-.6,1.584,1.584,0,0,1,.977-.147,1.628,1.628,0,0,1,.484.158l.306.176a5.012,5.012,0,0,0,1.144.473,8.563,8.563,0,0,0,2.522.263,2.777,2.777,0,0,0,1.939-1.077,9.334,9.334,0,0,0,1.638-4.7,25.231,25.231,0,0,0,.1-5.09,36.972,36.972,0,0,0-2.1-9.466,57.145,57.145,0,0,0-3.552-7.991,58.621,58.621,0,0,0-7.47-10.742,18.275,18.275,0,0,0-2.675-2.5A5.635,5.635,0,0,0,602.43,737.94Z" fill="#7aabcc"/>
          </g>
        </g>
      </g>
    </g>
  </g>
</svg>
