<svg xmlns="http://www.w3.org/2000/svg" xmlns:xlink="http://www.w3.org/1999/xlink" width="58" height="97" viewBox="0 0 58 97">
  <defs>
    <clipPath id="clip-path">
      <path id="SVGID" d="M685,871.583a61.566,61.566,0,0,0,1.346-7.663A117.2,117.2,0,0,0,687,850c0-4.429-1.88-8-4-8a4.038,4.038,0,0,0-3,1,4.38,4.38,0,0,0-3-1c-2,0-2,1-2,1s0-1-2-1-2,1-2,1a2.625,2.625,0,0,0-2-1,2.04,2.04,0,0,0-2,2v14c0,2.5,1.463,6.7,3.136,10.691C670.719,877.547,673,889.141,673,894c0,5.571,2,37,8,37s4-23.571,4-27Z" fill="none"/>
    </clipPath>
    <linearGradient id="linear-gradient" x1="0.5" y1="1" x2="0.5" gradientUnits="objectBoundingBox">
      <stop offset="0" stop-color="#fff"/>
      <stop offset="0.25" stop-color="#f2f7fa"/>
    </linearGradient>
  </defs>
  <g id="Regular24" transform="translate(-648 -836)">
    <rect id="Rectangle_269" data-name="Rectangle 269" width="58" height="97" transform="translate(648 836)" fill="none"/>
    <g id="Group_1404" data-name="Group 1404" transform="translate(0 -2)">
      <g id="Group_1403" data-name="Group 1403">
        <g id="Group_1402" data-name="Group 1402" clip-path="url(#clip-path)">
          <g id="Group_1400" data-name="Group 1400">
            <path id="Path_2368" data-name="Path 2368" d="M681,930.5c-5.174,0-7.5-29.014-7.5-36.5,0-4.838-2.619-23.592-2.73-24.388a10.993,10.993,0,0,0-.525-2.034c-.027-.071-2.745-7.2-2.745-9.578V844a1.545,1.545,0,0,1,1.5-1.5,4.613,4.613,0,0,1,1.091.085.911.911,0,0,0,.692.39.679.679,0,0,0,.64-.475H677a5.338,5.338,0,0,1,2.009.2,1.334,1.334,0,0,0,.948.37,1.439,1.439,0,0,0,1.008-.417A7.839,7.839,0,0,1,683,842.5c1.656,0,3.5,3.08,3.5,7.5v.474a114.889,114.889,0,0,1-.651,13.388c-.29,2.491-1.13,6.6-1.139,6.641a12.524,12.524,0,0,0-.211,2.08V904c0,.475.038,1.333.088,2.461.244,5.5.892,20.116-2.271,23.422A1.774,1.774,0,0,1,681,930.5Z" fill="#ebf2f7"/>
            <g id="Group_1398" data-name="Group 1398">
              <path id="Path_2369" data-name="Path 2369" d="M684,851.482V851a9.16,9.16,0,0,0-.375-2.668,5.906,5.906,0,0,1-1.668.24c-.021,0-.041,0-.061,0A9.988,9.988,0,0,1,682,850v.482a109.116,109.116,0,0,1-.621,12.859c-.223,1.909-.853,5.165-1.077,6.259a16.785,16.785,0,0,0-.3,2.983V895a131.771,131.771,0,0,0,2.281,23.227c.051-2.722.005-6.178-.19-10.567-.053-1.219-.091-2.146-.091-2.66V873.583a16.785,16.785,0,0,1,.3-2.983c.224-1.094.854-4.35,1.077-6.259A109.116,109.116,0,0,0,684,851.482Z" fill="#d1e2ed"/>
            </g>
            <path id="Path_2370" data-name="Path 2370" d="M680.281,917.227A131.756,131.756,0,0,1,678,894c0-5.061-2.49-22.985-2.774-25.012a15.556,15.556,0,0,0-.778-3.019A46.523,46.523,0,0,1,672,857.947V847.323a5.325,5.325,0,0,0,.915-.323H677c.169,0,.31,0,.426.007a5.937,5.937,0,0,0,4.2.325A9.122,9.122,0,0,1,682,850v.482a109.124,109.124,0,0,1-.621,12.859c-.223,1.91-.853,5.165-1.077,6.259a16.786,16.786,0,0,0-.3,2.983V904c0,.513.038,1.441.092,2.66C680.286,911.049,680.332,914.505,680.281,917.227Z" fill="#ebf2f7"/>
            <path id="Path_2371" data-name="Path 2371" d="M679,893c0-5.129-2.5-23.117-2.783-25.151a16.447,16.447,0,0,0-.836-3.238,48.893,48.893,0,0,1-2.381-7.7v-9.848c.055-.021.11-.043.164-.066H677.2a6.938,6.938,0,0,0,3.682.509A8.836,8.836,0,0,1,681,849v.484a108.231,108.231,0,0,1-.614,12.742c-.219,1.874-.842,5.091-1.064,6.173a17.641,17.641,0,0,0-.323,3.184Z" fill="url(#linear-gradient)"/>
            <g id="Group_1399" data-name="Group 1399">
              <path id="Path_2372" data-name="Path 2372" d="M678,903v-9c0-5.062-2.491-22.985-2.774-25.012a15.633,15.633,0,0,0-.779-3.019A46.523,46.523,0,0,1,672,857.947V847.322a5.156,5.156,0,0,0,.915-.322H677c.168,0,.309,0,.425.007a5.882,5.882,0,0,0,2.471.561,8.469,8.469,0,0,0-.271-1.236,5.94,5.94,0,0,1-4.2-.325c-.116,0-.257-.007-.425-.007h-4.086a5.156,5.156,0,0,1-.915.322v10.625a46.523,46.523,0,0,0,2.449,8.022,15.633,15.633,0,0,1,.779,3.019C673.509,870.015,676,887.938,676,893a131.771,131.771,0,0,0,2.281,23.227c.051-2.722.005-6.178-.19-10.567C678.038,904.441,678,903.514,678,903Z" fill="#fff"/>
            </g>
            <path id="Path_2373" data-name="Path 2373" d="M683,843c1.223,0,3,2.727,3,7v.474a114.367,114.367,0,0,1-.648,13.33c-.288,2.469-1.123,6.558-1.131,6.6a12.867,12.867,0,0,0-.221,2.18V904c0,.493.037,1.328.088,2.483.241,5.443.882,19.9-2.133,23.055A1.257,1.257,0,0,1,681,930c-.5,0-3.1-.75-5.261-15.555A179.709,179.709,0,0,1,674,894c0-4.873-2.624-23.66-2.736-24.458a11.588,11.588,0,0,0-.553-2.143c-.754-1.97-2.711-7.5-2.711-9.4V844a1.053,1.053,0,0,1,1-1,5.839,5.839,0,0,1,.832.044,1.323,1.323,0,0,0,.95.431,1.179,1.179,0,0,0,.936-.475H677a7.232,7.232,0,0,1,1.736.137,1.926,1.926,0,0,0,2.472-.028A9.809,9.809,0,0,1,683,843m0-1c-2.121,0-2.34.249-2.34.249a.929.929,0,0,1-1.368.044S679,842,677,842h-2v0h-4c0,.313-.085.475-.218.475-.1,0-.228-.094-.367-.287,0,0-.136-.188-1.415-.188a2.039,2.039,0,0,0-2,2v14c0,2.5,2.777,9.757,2.777,9.757a10.66,10.66,0,0,1,.5,1.924S673,889.141,673,894c0,5.571,2,37,8,37s4-23.571,4-27V872.583a11.963,11.963,0,0,1,.2-1.979s.849-4.143,1.145-6.684A117.268,117.268,0,0,0,687,850c0-4.429-1.881-8-4-8Z" fill="#7aabcc"/>
          </g>
          <g id="Group_1401" data-name="Group 1401">
            <path id="Path_2374" data-name="Path 2374" d="M675,879c-.985-1.463-1.847-2.995-2.683-4.542s-1.594-3.133-2.3-4.747-1.378-3.241-1.972-4.907c-.312-.826-.57-1.678-.841-2.523a24.069,24.069,0,0,1-.613-2.624,15.191,15.191,0,0,1-.162-2.707l0-2.627.008-5.255.008-2.627c.008-.892-.008-1.715.021-2.664a2.642,2.642,0,0,1,.686-1.495,2.435,2.435,0,0,1,1.444-.779,2.581,2.581,0,0,1,.434-.031,3.115,3.115,0,0,1,.363.03,2.791,2.791,0,0,1,.779.222,3.223,3.223,0,0,1,1.243.97l-.946.306a1.158,1.158,0,0,1,.155-.539,1.478,1.478,0,0,1,.29-.366,2.009,2.009,0,0,1,.7-.41,4.2,4.2,0,0,1,1.375-.2l.32.011c.1,0,.234.021.349.032a3.437,3.437,0,0,1,.7.163,2,2,0,0,1,.7.412,1.425,1.425,0,0,1,.285.364,1.137,1.137,0,0,1,.153.533h-1.015a1.177,1.177,0,0,1,.194-.6,1.567,1.567,0,0,1,.355-.389,2.23,2.23,0,0,1,.82-.383,4.067,4.067,0,0,1,.8-.119l.4-.008.358.013a5.608,5.608,0,0,1,1.534.311,5.088,5.088,0,0,1,.72.324c.116.067.23.136.342.214a2.826,2.826,0,0,1,.346.277l-.742.023a4.61,4.61,0,0,1,3.011-1.17c.153,0,.208-.014.442-.008l.361.037a2.936,2.936,0,0,1,.874.325,4.278,4.278,0,0,1,1.224,1.091,8.668,8.668,0,0,1,1.375,2.745,13.96,13.96,0,0,1,.576,2.949c.093,1.01.066,1.981.073,2.941s-.005,1.937-.028,2.905c-.033,1.938-.137,3.876-.267,5.812-.091.966-.143,1.936-.267,2.9s-.223,1.931-.383,2.891c-.133.962-.308,1.92-.5,2.875-.164.959-.42,1.9-.644,2.851s-.55,1.876-.836,2.808a29.1,29.1,0,0,1-1.147,2.706l-.7,1.293c-.236.429-.55.816-.82,1.222A13.315,13.315,0,0,1,680,882a20.827,20.827,0,0,0,1.546-2.428c.219-.424.479-.82.662-1.26l.546-1.319c.39-.864.628-1.795.967-2.68.237-.923.541-1.825.752-2.756s.446-1.856.6-2.8c.178-.94.337-1.882.456-2.833.145-.946.242-1.9.342-2.853.115-.95.174-1.909.263-2.863.132-1.914.239-3.831.274-5.753l.042-2.883c0-.968.03-1.93-.051-2.844a12.875,12.875,0,0,0-.514-2.723,7.624,7.624,0,0,0-1.181-2.413,3.212,3.212,0,0,0-.91-.833,2.292,2.292,0,0,0-.467-.2l-.36-.038c-.006,0-.192.006-.28.009a4.6,4.6,0,0,0-1.278.233,2.842,2.842,0,0,0-1.023.575l-.375.37-.368-.346a2.476,2.476,0,0,0-.207-.163c-.082-.058-.169-.111-.258-.163a3.95,3.95,0,0,0-.568-.259,4.642,4.642,0,0,0-1.23-.26l-.349-.014-.308.009a2.922,2.922,0,0,0-.6.092,1.234,1.234,0,0,0-.457.205.59.59,0,0,0-.12.131c-.025.025-.043.124-.037.062h-1.015c0,.062-.008-.023-.029-.043a.432.432,0,0,0-.09-.11,1,1,0,0,0-.348-.193,2.431,2.431,0,0,0-.482-.107c-.086-.006-.156-.02-.257-.024l-.286-.008a3.2,3.2,0,0,0-1.024.146.98.98,0,0,0-.343.194.415.415,0,0,0-.086.108c-.02.018-.029.1-.025.037l-.947.3a2.244,2.244,0,0,0-.817-.617,1.762,1.762,0,0,0-.48-.137,2.368,2.368,0,0,0-.291-.022c-.036.01-.153,0-.219.022a1.533,1.533,0,0,0-1.22,1.3c-.018.8,0,1.731,0,2.59l.008,2.627.008,5.255,0,2.627a13.975,13.975,0,0,0,.153,2.529c.131.832.343,1.664.558,2.495.254.826.493,1.655.79,2.472.561,1.641,1.209,3.26,1.885,4.867L673,874.134C673.669,875.75,674.364,877.356,675,879Z" fill="#7aabcc"/>
          </g>
        </g>
      </g>
    </g>
  </g>
</svg>
