<svg xmlns="http://www.w3.org/2000/svg" xmlns:xlink="http://www.w3.org/1999/xlink" width="58" height="100" viewBox="0 0 58 100">
  <defs>
    <clipPath id="clip-path">
      <path id="SVGID" d="M913.5,846.974c0-1.982-3.571-5.043-7.639-7.252C904.35,837.007,900.638,836,896.5,836a5.582,5.582,0,0,0-4.375,1.979c-4.034,1.424-7.625,4.3-7.625,8a39.7,39.7,0,0,0,4.985,19.347c-.036,8.708-.008,38.868,2.015,49.49a28.125,28.125,0,0,0,5.791,12.542c1.1,1.285,2.209.522,2.209-1.171V914.813c0-5.238,6.386-13.343,8-23.943,1.147-7.536,1.976-26.622,2-29.791A31.818,31.818,0,0,0,913.5,846.974Z" fill="none"/>
    </clipPath>
    <linearGradient id="linear-gradient" x1="0.5" y1="1" x2="0.5" gradientUnits="objectBoundingBox">
      <stop offset="0" stop-color="#fff"/>
      <stop offset="0.25" stop-color="#f2f7fa"/>
    </linearGradient>
    <clipPath id="clip-path-3">
      <rect id="SVGID-3" data-name="SVGID" width="31" height="28.931" transform="translate(883.5 840.988)" fill="none"/>
    </clipPath>
  </defs>
  <g id="Regular21" transform="translate(-870 -836)">
    <rect id="Rectangle_272" data-name="Rectangle 272" width="58" height="100" transform="translate(870 836)" fill="none"/>
    <g id="Group_1382" data-name="Group 1382" transform="translate(0 4)">
      <g id="Group_1379" data-name="Group 1379">
        <g id="Group_1378" data-name="Group 1378" clip-path="url(#clip-path)">
          <g id="Group_1374" data-name="Group 1374">
            <path id="Path_2346" data-name="Path 2346" d="M898.393,927.5a1.128,1.128,0,0,1-.723-.47,27.829,27.829,0,0,1-5.679-12.311c-2.008-10.543-2.043-40.472-2.006-49.394v-.139l-.071-.119A39.376,39.376,0,0,1,885,845.976c0-3.65,3.767-6.281,7.292-7.525l.124-.044.086-.1a5.1,5.1,0,0,1,4-1.809c3.191,0,7.33.6,8.925,3.465l.07.127.128.069c4.205,2.284,7.377,5.213,7.377,6.813a31.436,31.436,0,0,1-3.938,13.862l-.062.112v.128c-.025,3.379-.873,22.357-1.993,29.718-.856,5.62-3.035,10.455-4.957,14.72-1.636,3.63-3.049,6.764-3.049,9.3v11.371a2.059,2.059,0,0,1-.239,1.058A.452.452,0,0,1,898.393,927.5Z" fill="#ebf2f7"/>
            <g id="Group_1372" data-name="Group 1372">
              <path id="Path_2347" data-name="Path 2347" d="M905.475,845.115l-1.276-.693-.706-1.269a3.389,3.389,0,0,0-1.925-.864l.631,1.133,1.276.693a19.28,19.28,0,0,1,5,3.656,27.933,27.933,0,0,1-3.342,10.87l-.626,1.119-.009,1.283c-.024,3.316-.851,21.906-1.942,29.074-.763,5.01-2.807,9.546-4.611,13.548-.2.447-.4.887-.593,1.321.117,1.763.245,3.41.389,4.879.6-1.653,1.38-3.371,2.2-5.2,1.8-4,3.848-8.538,4.611-13.548,1.091-7.168,1.918-25.758,1.942-29.074l.009-1.283.626-1.119a27.933,27.933,0,0,0,3.342-10.87A19.28,19.28,0,0,0,905.475,845.115Z" fill="#d1e2ed"/>
            </g>
            <path id="Path_2348" data-name="Path 2348" d="M895.742,908.865c-1-10.227-1.32-28.315-1.257-43.522l.006-1.384-.707-1.19a34.619,34.619,0,0,1-4.284-16.793c0-.741,1.491-2.294,4.29-3.282l1.236-.436.864-.987a.628.628,0,0,1,.61-.271c3.612,0,4.857.91,4.993,1.154l.706,1.268,1.276.693a19.229,19.229,0,0,1,5,3.656,27.913,27.913,0,0,1-3.341,10.87l-.626,1.119-.009,1.283c-.024,3.316-.851,21.906-1.942,29.074-.763,5.01-2.807,9.546-4.611,13.548C897.122,905.494,896.347,907.212,895.742,908.865Z" fill="#ebf2f7"/>
            <path id="Path_2349" data-name="Path 2349" d="M896.4,903.674c-.732-10.472-.967-26-.912-39.326l.007-1.662-.848-1.428a33.566,33.566,0,0,1-4.144-16.282c.1-.26,1.167-1.472,3.623-2.339l1.484-.524.97-1.11c2.555.015,3.786.519,4.1.741l.79,1.418,1.531.832a20.255,20.255,0,0,1,4.449,3.143,27.184,27.184,0,0,1-3.186,10.016l-.751,1.343-.011,1.539c-.021,2.939-.851,21.837-1.931,28.932-.742,4.874-2.756,9.344-4.534,13.287Q896.71,902.974,896.4,903.674Z" fill="url(#linear-gradient)"/>
            <g id="Group_1373" data-name="Group 1373">
              <path id="Path_2350" data-name="Path 2350" d="M894.485,865.343l.006-1.384-.707-1.19a34.618,34.618,0,0,1-4.284-16.792c0-.742,1.491-2.294,4.29-3.283l1.236-.436.864-.987a.63.63,0,0,1,.61-.271,14.239,14.239,0,0,1,3.068.289l-.075-.136c-.136-.243-1.381-1.153-4.993-1.153a.63.63,0,0,0-.61.271l-.864.987-1.236.436c-2.8.989-4.29,2.541-4.29,3.283a34.618,34.618,0,0,0,4.284,16.792l.707,1.19-.006,1.384c-.063,15.207.253,33.295,1.257,43.522.457-1.249,1.011-2.535,1.611-3.879C894.657,893.484,894.431,878.365,894.485,865.343Z" fill="#fff"/>
            </g>
            <path id="Path_2351" data-name="Path 2351" d="M896.5,837c2.5,0,6.934.417,8.488,3.208l.141.254.255.139c4.4,2.386,7.116,5.167,7.116,6.373a30.908,30.908,0,0,1-3.874,13.618l-.125.224,0,.256c-.025,3.374-.871,22.313-1.988,29.647-.845,5.552-3.009,10.353-4.918,14.59-1.66,3.682-3.093,6.861-3.093,9.5v11.371a1.592,1.592,0,0,1-.158.785,1.283,1.283,0,0,1-.293-.265,27.307,27.307,0,0,1-5.567-12.078c-2-10.5-2.034-40.388-2-49.3v-.277l-.141-.238a38.851,38.851,0,0,1-4.845-18.835c0-3.391,3.594-5.868,6.958-7.054l.248-.088.172-.2A4.561,4.561,0,0,1,896.5,837m0-1a5.579,5.579,0,0,0-4.375,1.979c-4.034,1.424-7.625,4.3-7.625,8a39.694,39.694,0,0,0,4.985,19.346c-.036,8.708-.008,38.868,2.015,49.49a28.136,28.136,0,0,0,5.791,12.542,1.535,1.535,0,0,0,1.1.645c.635,0,1.107-.709,1.107-1.816V914.813c0-5.238,6.386-13.343,8-23.943,1.147-7.536,1.976-26.622,2-29.79a31.826,31.826,0,0,0,4-14.106c0-1.983-3.571-5.043-7.639-7.252C904.35,837.007,900.639,836,896.5,836Z" fill="#7aabcc"/>
          </g>
          <g id="Group_1377" data-name="Group 1377">
            <g id="Group_1376" data-name="Group 1376" clip-path="url(#clip-path-3)">
              <g id="Group_1375" data-name="Group 1375">
                <path id="Path_2352" data-name="Path 2352" d="M892.5,868.922a5.711,5.711,0,0,1-.808-.508,10.392,10.392,0,0,1-1.9-1.971,22.6,22.6,0,0,1-2.167-3.63,39.666,39.666,0,0,1-1.943-5.112,39.042,39.042,0,0,1-1.372-6.322c-.168-1.137-.25-2.316-.323-3.521a10.46,10.46,0,0,1,.271-3.8,8.2,8.2,0,0,1,2.2-3.34,14.079,14.079,0,0,1,3.283-2.289,17.807,17.807,0,0,1,7.83-1.928,13.619,13.619,0,0,1,4.008.771,27.7,27.7,0,0,1,3.686,1.542,28.722,28.722,0,0,1,6.439,4.328,7.6,7.6,0,0,1,2.262,3.192,3.14,3.14,0,0,1,.079,1.039c-.01.295-.021.587-.031.878-.066.6-.093,1.207-.194,1.772a33.5,33.5,0,0,1-3.887,11.27,18.365,18.365,0,0,1-2.511,3.414,11.574,11.574,0,0,1-2.1,1.744c-.538.327-.831.477-.831.477s.239-.241.7-.646a17.908,17.908,0,0,0,1.729-2,31.892,31.892,0,0,0,4.281-8.331,34.389,34.389,0,0,0,1.5-6.09c.1-.552.12-1.094.187-1.653a7.4,7.4,0,0,0-.011-1.6,6.8,6.8,0,0,0-1.932-2.661,27.664,27.664,0,0,0-6.156-4.2,18.468,18.468,0,0,0-7.252-2.255,16.847,16.847,0,0,0-7.313,1.867c-2.2,1.151-4.208,2.862-4.906,5.014-.056.266-.153.489-.19.783l-.069.863q.025.9.05,1.778c.075,1.171.155,2.318.322,3.424a43.849,43.849,0,0,0,1.278,6.168,40.627,40.627,0,0,0,3.633,8.679,15.715,15.715,0,0,0,1.486,2.17,5.07,5.07,0,0,0,.493.506Z" fill="#7aabcc"/>
              </g>
            </g>
          </g>
        </g>
      </g>
    </g>
  </g>
</svg>
