<svg xmlns="http://www.w3.org/2000/svg" xmlns:xlink="http://www.w3.org/1999/xlink" width="58" height="101" viewBox="0 0 58 101">
  <defs>
    <clipPath id="clip-path">
      <path id="SVGID" d="M758.753,871.536a55.433,55.433,0,0,0,1.357-6.77A111.752,111.752,0,0,0,761,849c0-4.429-1.88-8-4-8a4.038,4.038,0,0,0-3,1,4.38,4.38,0,0,0-3-1,10.343,10.343,0,0,0-4,1,7.642,7.642,0,0,0-3-1c-1.28,0-3,1.143-3,2v14a34.771,34.771,0,0,0,1.434,8.548,52.95,52.95,0,0,0,1.9,5.622C745.118,879.6,747,889.582,747,894c0,5.571,2,40,8,40s1.5-18.75,4-30c.592-2.661,0-23.865,0-32.417Z" fill="none"/>
    </clipPath>
    <linearGradient id="linear-gradient" x1="0.5" y1="1" x2="0.5" gradientUnits="objectBoundingBox">
      <stop offset="0" stop-color="#fff"/>
      <stop offset="0.25" stop-color="#f2f7fa"/>
    </linearGradient>
  </defs>
  <g id="Regular23" transform="translate(-722 -836)">
    <rect id="Rectangle_270" data-name="Rectangle 270" width="58" height="101" transform="translate(722 836)" fill="none"/>
    <g id="Group_1397" data-name="Group 1397" transform="translate(0 -1)">
      <g id="Group_1396" data-name="Group 1396">
        <g id="Group_1395" data-name="Group 1395" clip-path="url(#clip-path)">
          <g id="Group_1393" data-name="Group 1393">
            <path id="Path_2361" data-name="Path 2361" d="M755,933.5c-4.84,0-7.5-29.667-7.5-39.5,0-4.4-2.421-21.2-2.524-21.912a11.991,11.991,0,0,0-.515-2.029c-.011-.028-1.033-2.8-1.545-4.645A34.368,34.368,0,0,1,741.5,857V843c0-.483,1.4-1.5,2.5-1.5a4.151,4.151,0,0,1,1.886.431,2.427,2.427,0,0,0,1.2.291,2.329,2.329,0,0,0,1.035-.222,7.183,7.183,0,0,1,2.882-.5,5.338,5.338,0,0,1,2.009.2,1.334,1.334,0,0,0,.948.37,1.439,1.439,0,0,0,1.008-.417A7.839,7.839,0,0,1,757,841.5c1.656,0,3.5,3.08,3.5,7.5v.481a108.872,108.872,0,0,1-.885,15.215c-.316,2.233-1.116,5.718-1.124,5.753-.246,1.067-.122,1.258-.047,1.372l.015.024a4.955,4.955,0,0,1,.06.748c.2,9.925.45,29.24-.008,31.3-1.023,4.6-.888,10.5-.768,15.7.138,5.98.268,11.627-1.435,13.37A1.742,1.742,0,0,1,755,933.5Z" fill="#ebf2f7"/>
            <g id="Group_1391" data-name="Group 1391">
              <path id="Path_2362" data-name="Path 2362" d="M757.159,865.066A104.514,104.514,0,0,0,758,850.489V850a9.165,9.165,0,0,0-.374-2.668,5.906,5.906,0,0,1-1.668.24c-.021,0-.041,0-.061,0A10,10,0,0,1,756,849v.489a104.514,104.514,0,0,1-.841,14.577c-.288,2.038-1.046,5.34-1.054,5.373a6.847,6.847,0,0,0-.082,3.388c.216,10.918.318,22.95.184,28.025.2,3.437.541,7.5.993,11.528a46.118,46.118,0,0,1,.894-8.354c.285-2.289.189-17.056-.071-30.2a6.847,6.847,0,0,1,.082-3.388C756.113,870.406,756.871,867.1,757.159,865.066Z" fill="#d1e2ed"/>
            </g>
            <path id="Path_2363" data-name="Path 2363" d="M753.2,911.381c-.755-6.722-1.2-13.564-1.2-17.381,0-4.643-2.307-20.736-2.571-22.556a16.253,16.253,0,0,0-.747-2.944c-.268-.726-1.047-2.914-1.43-4.291A30.393,30.393,0,0,1,746,857V846.642a7.317,7.317,0,0,0,1.083.08,6.9,6.9,0,0,0,2.836-.6A3.908,3.908,0,0,1,751,846c.169,0,.31,0,.426.007a5.937,5.937,0,0,0,4.2.325A9.122,9.122,0,0,1,756,849v.489a104.514,104.514,0,0,1-.841,14.577c-.288,2.038-1.046,5.34-1.054,5.373a6.847,6.847,0,0,0-.082,3.388c.26,13.143.356,27.91.071,30.2A46.222,46.222,0,0,0,753.2,911.381Z" fill="#ebf2f7"/>
            <path id="Path_2364" data-name="Path 2364" d="M753.223,899.17c-.145-2.376-.224-4.5-.224-6.17,0-4.713-2.317-20.872-2.581-22.7a17.23,17.23,0,0,0-.8-3.147c-.264-.716-1.031-2.869-1.405-4.213A29.47,29.47,0,0,1,747,856v-9.278h.083a7.923,7.923,0,0,0,3.17-.65A3.3,3.3,0,0,1,751,846h.2a6.938,6.938,0,0,0,3.682.509A8.836,8.836,0,0,1,755,848v.491a103.6,103.6,0,0,1-.831,14.436c-.234,1.654-.829,4.378-1.038,5.288a7.926,7.926,0,0,0-.108,3.736C753.23,882.406,753.333,893.838,753.223,899.17Z" fill="url(#linear-gradient)"/>
            <g id="Group_1392" data-name="Group 1392">
              <path id="Path_2365" data-name="Path 2365" d="M752,894c0-4.644-2.308-20.736-2.57-22.556a16.342,16.342,0,0,0-.748-2.944c-.268-.726-1.047-2.914-1.43-4.291A30.393,30.393,0,0,1,746,857V846.643a7.319,7.319,0,0,0,1.083.079,6.886,6.886,0,0,0,2.836-.6A3.908,3.908,0,0,1,751,846c.169,0,.31,0,.426.007a5.882,5.882,0,0,0,2.471.561,8.469,8.469,0,0,0-.271-1.236,5.94,5.94,0,0,1-4.2-.325c-.116,0-.257-.007-.426-.007a3.908,3.908,0,0,0-1.081.126,6.886,6.886,0,0,1-2.836.6,7.319,7.319,0,0,1-1.083-.079V856a30.393,30.393,0,0,0,1.252,7.209c.383,1.377,1.162,3.565,1.43,4.291a16.342,16.342,0,0,1,.748,2.944c.262,1.82,2.57,17.912,2.57,22.556,0,3.817.446,10.659,1.2,17.38a46.118,46.118,0,0,1,.894-8.354c.048-.387.085-1.14.113-2.174C752.072,897.552,752,895.53,752,894Z" fill="#fff"/>
            </g>
            <path id="Path_2366" data-name="Path 2366" d="M757,842c1.223,0,3,2.727,3,7v.479a108.451,108.451,0,0,1-.88,15.147c-.313,2.211-1.108,5.676-1.117,5.71-.246,1.07-.164,1.437-.023,1.686a5.289,5.289,0,0,1,.039.582c.229,11.51.419,29.312,0,31.179-1.036,4.665-.9,10.591-.779,15.82.129,5.613.262,11.417-1.294,13.009A1.232,1.232,0,0,1,755,933c-.3,0-3.034-.478-5.259-17.044A210.013,210.013,0,0,1,748,894c0-4.438-2.427-21.269-2.53-21.983a12.431,12.431,0,0,0-.541-2.132c-.011-.028-1.026-2.782-1.532-4.6A33.871,33.871,0,0,1,742,857V843.051A2.888,2.888,0,0,1,744,842a3.709,3.709,0,0,1,1.632.361h0a2.922,2.922,0,0,0,1.45.361,2.852,2.852,0,0,0,1.251-.271A6.762,6.762,0,0,1,751,842a7.232,7.232,0,0,1,1.736.137,1.926,1.926,0,0,0,2.472-.028A9.818,9.818,0,0,1,757,842m0-1c-2.121,0-2.34.249-2.34.249a.929.929,0,0,1-1.368.044S753,841,751,841a7.493,7.493,0,0,0-3.106.553,1.865,1.865,0,0,1-.812.169,1.941,1.941,0,0,1-.947-.225A4.6,4.6,0,0,0,744,841c-1.281,0-3,1.143-3,2v14a34.722,34.722,0,0,0,1.434,8.548c.523,1.885,1.557,4.683,1.557,4.683a11.549,11.549,0,0,1,.489,1.929S747,889.583,747,894c0,5.571,2,40,8,40s1.5-18.75,4-30c.591-2.662.019-31.417.019-31.417a2.358,2.358,0,0,0-.143-1.023,2.093,2.093,0,0,1,.1-1s.81-3.514,1.132-5.795A111.8,111.8,0,0,0,761,849c0-4.429-1.881-8-4-8Z" fill="#7aabcc"/>
          </g>
          <g id="Group_1394" data-name="Group 1394">
            <path id="Path_2367" data-name="Path 2367" d="M749,879a11.339,11.339,0,0,1-1.978-2.026,22.344,22.344,0,0,1-1.57-2.37c-.223-.416-.458-.829-.672-1.25l-.6-1.284q-.567-1.3-1.049-2.63c-.329-.884-.623-1.781-.9-2.682s-.524-1.813-.764-2.727c-.216-.919-.433-1.84-.594-2.775s-.291-1.877-.37-2.831-.069-1.922-.063-2.844l0-2.8.018-5.605.009-2.8.012-1.461a2.279,2.279,0,0,1,.981-1.471,5.017,5.017,0,0,1,1.378-.741,4,4,0,0,1,.785-.186,3.123,3.123,0,0,1,.437-.024c.114.006.229.01.382.032a8.37,8.37,0,0,1,2.811,1.045l-.479-.015a12.148,12.148,0,0,1,1.814-.677,9.3,9.3,0,0,1,1.913-.359c.165-.016.332-.014.5-.022.191.008.3,0,.49.02a5.662,5.662,0,0,1,1.01.165,4.959,4.959,0,0,1,.962.353,4.374,4.374,0,0,1,.455.257,3.012,3.012,0,0,1,.45.347l-.757.024a4.405,4.405,0,0,1,2.608-1.139c.228-.025.455-.042.681-.045a2.578,2.578,0,0,1,.736.089,3.118,3.118,0,0,1,1.328.75,6.706,6.706,0,0,1,1.534,2.249,12.06,12.06,0,0,1,.775,2.515,14.438,14.438,0,0,1,.28,2.593c.017.861.01,1.685.009,2.531-.011,1.684-.041,3.369-.122,5.053a86.453,86.453,0,0,1-1.055,10.067,38.094,38.094,0,0,1-1.173,4.937c-.251.809-.545,1.6-.862,2.389a23.6,23.6,0,0,1-1.107,2.279c.2-.827.5-1.6.665-2.428.221-.8.418-1.614.572-2.434.194-.808.323-1.632.489-2.446s.274-1.641.419-2.46a90.474,90.474,0,0,0,.921-9.955c.082-1.667.114-3.337.128-5.008,0-.83.012-1.685,0-2.5a13.257,13.257,0,0,0-.244-2.4A10.856,10.856,0,0,0,759.5,844a5.69,5.69,0,0,0-1.256-1.894,2.2,2.2,0,0,0-.825-.5,1.686,1.686,0,0,0-.505-.072c-.193,0-.384.015-.574.033a3.546,3.546,0,0,0-1.951.778l-.389.371-.368-.347a2.246,2.246,0,0,0-.281-.213,3.48,3.48,0,0,0-.348-.2,3.969,3.969,0,0,0-.765-.287,4.72,4.72,0,0,0-.808-.138c-.119-.016-.316-.014-.431-.021-.142.006-.283,0-.425.016a8.415,8.415,0,0,0-1.71.311,10.256,10.256,0,0,0-1.639.615l-.242.115-.237-.13a7.522,7.522,0,0,0-2.416-.9,3.121,3.121,0,0,0-2.227.724c-.312.243-.586.562-.576.765l0,1.341.009,2.8.019,5.605,0,2.8c-.005.944-.006,1.862.064,2.756a39.842,39.842,0,0,0,.912,5.434c.222.9.447,1.794.712,2.681s.536,1.772.846,2.642c.295.878.648,1.732.976,2.6.358.851.715,1.7,1.107,2.539s.788,1.669,1.262,2.462c.221.412.482.777.724,1.177S748.732,878.613,749,879Z" fill="#7aabcc"/>
          </g>
        </g>
      </g>
    </g>
  </g>
</svg>
