<svg xmlns="http://www.w3.org/2000/svg" xmlns:xlink="http://www.w3.org/1999/xlink" width="58" height="110" viewBox="0 0 58 110">
  <defs>
    <linearGradient id="linear-gradient" x1="0.5" y1="1" x2="0.5" gradientUnits="objectBoundingBox">
      <stop offset="0" stop-color="#fff"/>
      <stop offset="0.25" stop-color="#f2f7fa"/>
    </linearGradient>
    <clipPath id="clip-path">
      <path id="SVGID" d="M908.968,755.018h.833c-.4-8.09-1.986-25.11-1.986-34.98,0-4.365-3.478-9.312-4.963-11.993-3.6-6.5-1.466-22.976-4.963-24.985-1.5-.861-5.665,7.579-7.941,21.987-2.5,15.83-2.227,39.519-2.054,47.345-3.312,4.484-4.894,10.044-4.894,19.616,0,5.5,8.189,12.992,13.9,12.992a10.983,10.983,0,0,0,8.182-4.007c4.4-.1,5.889-2.888,7.7-3.988C917.519,774,913.929,762.592,908.968,755.018Z" fill="none"/>
    </clipPath>
    <linearGradient id="linear-gradient-2" x1="0.5" y1="1" x2="0.5" y2="0" xlink:href="#linear-gradient"/>
  </defs>
  <g id="Regular12" transform="translate(-870 -678)">
    <rect id="Rectangle_256" data-name="Rectangle 256" width="58" height="110" transform="translate(870 678)" fill="none"/>
    <g id="Group_1442" data-name="Group 1442" transform="translate(0 -1)">
      <g id="Group_1440" data-name="Group 1440">
        <g id="Group_1433" data-name="Group 1433">
          <path id="Path_2400" data-name="Path 2400" d="M900.177,718.535c-1.936-3.917-3.165-12.877-2.782-17.444.432-5.161,4.592-14.533,6.45-14.533,1.652,0,4.286,9.8,4.728,13.62.641,5.528.478,13.584-2.042,18.352-.637-.017-1.49-.023-2.374-.023C902.558,718.507,900.86,718.526,900.177,718.535Z" fill="#ebf2f7"/>
          <g id="Group_1431" data-name="Group 1431">
            <path id="Path_2401" data-name="Path 2401" d="M906.1,701.7a39.5,39.5,0,0,0-.9-4.458,28.961,28.961,0,0,0-1.077,3.7,45.066,45.066,0,0,1,.105,8.513,43.308,43.308,0,0,0,1.071,5.557h.171A38.9,38.9,0,0,0,906.1,701.7Z" fill="#d1e2ed"/>
          </g>
          <path id="Path_2402" data-name="Path 2402" d="M903.3,714.009a44.553,44.553,0,0,1-1.423-12.542,22.738,22.738,0,0,1,1.324-5.229,36.416,36.416,0,0,1,.27,17.77Z" fill="#ebf2f7"/>
          <path id="Path_2403" data-name="Path 2403" d="M903.283,707.778a35.547,35.547,0,0,1-.407-7.227,11.061,11.061,0,0,1,.173-1.192c.024.161.044.313.06.452A42.975,42.975,0,0,1,903.283,707.778Z" fill="url(#linear-gradient)"/>
          <g id="Group_1432" data-name="Group 1432">
            <path id="Path_2404" data-name="Path 2404" d="M901.879,701.467a12.8,12.8,0,0,1,.247-1.528c-.009-.079-.014-.165-.023-.243a39.5,39.5,0,0,0-.9-4.458,22.738,22.738,0,0,0-1.324,5.229,44.557,44.557,0,0,0,1.423,12.542h.171a26.3,26.3,0,0,0,.758-4.556A36.227,36.227,0,0,1,901.879,701.467Z" fill="#fff"/>
          </g>
          <path id="Path_2405" data-name="Path 2405" d="M903.817,687.067c.181.114,1.166.924,2.569,5.648a55.1,55.1,0,0,1,1.69,7.52c.62,5.352.486,13.091-1.847,17.788-.542-.01-1.235-.015-2.072-.015-1.39,0-2.857.013-3.666.023-1.825-3.977-2.967-12.5-2.6-16.9.437-5.211,4.478-13.666,5.924-14.067m.028-1.008c-2.375,0-6.531,10.006-6.949,14.991-.378,4.519.839,14,2.979,17.989,0,0,2.224-.031,4.282-.031,1.03,0,2.018.008,2.666.031,2.764-4.921,2.887-13.39,2.246-18.919-.326-2.814-2.85-14.061-5.224-14.061Z" fill="#7aabcc"/>
        </g>
        <g id="Group_1439" data-name="Group 1439">
          <g id="Group_1438" data-name="Group 1438" clip-path="url(#clip-path)">
            <g id="Group_1436" data-name="Group 1436">
              <path id="Path_2406" data-name="Path 2406" d="M896.9,784.5c-5.509,0-13.4-7.355-13.4-12.492,0-9.11,1.39-14.707,4.8-19.319l.1-.138,0-.171c-.156-7.057-.469-31.321,2.048-47.255,2.215-14.022,6.114-21.614,7.22-21.625,1.523.881,1.861,5.847,2.189,10.649.346,5.083.739,10.844,2.564,14.139.256.461.57.99.915,1.571,1.587,2.666,3.985,6.7,3.985,10.179,0,6.566.713,16.469,1.286,24.426.273,3.789.531,7.381.673,10.054h-1.231l.506.774c3.639,5.556,6.785,13.67,5.758,18.427a4.282,4.282,0,0,1-1.8,2.864,10.757,10.757,0,0,0-1.533,1.23,8.293,8.293,0,0,1-5.909,2.68l-.248.006-.146.2A10.4,10.4,0,0,1,896.9,784.5Z" fill="#ebf2f7"/>
              <g id="Group_1434" data-name="Group 1434">
                <path id="Path_2407" data-name="Path 2407" d="M906.785,758.757l-5.069-7.739h4.767c-.112-1.642-.239-3.414-.37-5.231-.609-8.447-1.3-18.021-1.3-24.749,0-2.245-2.1-5.771-3.352-7.879-.372-.625-.709-1.194-.984-1.691-1.5-2.715-2.2-6.214-2.617-9.932-.326,1.535-.636,3.206-.924,4.99a17.925,17.925,0,0,0,1.541,3.942c.275.5.612,1.066.984,1.691,1.254,2.108,3.352,5.634,3.352,7.879,0,6.728.689,16.3,1.3,24.749.131,1.817.258,3.589.37,5.231h-4.767l5.069,7.739c4.373,6.678,5.741,13.425,5.1,15.164a15.647,15.647,0,0,0-1.92,1.553c-1.132,1.022-1.649,1.489-3,1.52l-2.477.058-1.455,2.006A6.159,6.159,0,0,1,896.9,780a4.174,4.174,0,0,1-1.3-.241A6.725,6.725,0,0,0,898.9,781a6.159,6.159,0,0,0,4.135-1.942l1.455-2.006,2.477-.058c1.349-.031,1.866-.5,3-1.52a15.647,15.647,0,0,1,1.92-1.553C912.526,772.182,911.158,765.435,906.785,758.757Z" fill="#d1e2ed"/>
              </g>
              <path id="Path_2408" data-name="Path 2408" d="M896.9,780c-3.221,0-8.9-5.516-8.9-7.992,0-8.057,1.135-12.88,3.916-16.646l1.014-1.374-.037-1.707c-.154-6.962-.465-30.889,1.994-46.454.3-1.9.63-3.667.975-5.291.414,3.718,1.113,7.217,2.616,9.932.276.5.613,1.066.985,1.692,1.254,2.107,3.352,5.633,3.352,7.878,0,6.728.69,16.3,1.3,24.75.13,1.816.258,3.588.371,5.23h-4.768l5.069,7.739c4.373,6.677,5.741,13.424,5.1,15.164a15.66,15.66,0,0,0-1.92,1.552c-1.132,1.023-1.649,1.49-3,1.521l-2.478.058-1.455,2.006A6.157,6.157,0,0,1,896.9,780Z" fill="#ebf2f7"/>
              <path id="Path_2409" data-name="Path 2409" d="M896.9,778c-2.225,0-7.737-4.525-7.9-7.008,0-9.664,1.788-13.42,3.72-16.036l1.218-1.648-.045-2.049c-.153-6.9-.46-30.5,1.936-45.985a19.561,19.561,0,0,0,1.775,4.679c.279.505.622,1.083,1,1.718,1.2,2.019,3.211,5.4,3.211,7.367,0,6.764.691,16.357,1.3,24.821.1,1.428.2,2.828.3,4.159h-5.546l6.082,9.287c3.97,6.061,5.326,12.074,5.035,14.021a18.758,18.758,0,0,0-1.692,1.405c-1.134,1.024-1.407,1.242-2.351,1.263l-2.973.069-1.745,2.408A5.218,5.218,0,0,1,896.9,778Z" fill="url(#linear-gradient-2)"/>
              <g id="Group_1435" data-name="Group 1435">
                <path id="Path_2410" data-name="Path 2410" d="M888,772.008c0-8.057,1.135-12.88,3.916-16.646l1.015-1.374-.038-1.707c-.154-6.963-.465-30.889,1.994-46.454.016-.1.035-.2.051-.3a39.279,39.279,0,0,1-1.076-5.99c-.345,1.624-.675,3.389-.975,5.291-2.459,15.565-2.148,39.491-1.994,46.454l.038,1.707-1.015,1.374c-2.781,3.766-3.916,8.589-3.916,16.646,0,2.167,4.347,6.662,7.591,7.751C890.806,776.986,888,773.749,888,772.008Z" fill="#fff"/>
              </g>
              <path id="Path_2411" data-name="Path 2411" d="M897.614,684.107c1.132,1.2,1.466,6.093,1.738,10.077.367,5.385.747,10.955,2.626,14.346.257.465.573,1,.921,1.582,1.56,2.62,3.916,6.58,3.916,9.926,0,6.586.714,16.5,1.288,24.469.255,3.54.5,6.908.644,9.511h-1.629l1.013,1.547c4.732,7.226,6.443,14.549,5.687,18.048a3.8,3.8,0,0,1-1.559,2.537,11.03,11.03,0,0,0-1.617,1.292,7.869,7.869,0,0,1-5.586,2.551l-.5.012-.291.4A10.007,10.007,0,0,1,896.9,784c-5.182,0-12.9-7.173-12.9-11.992,0-8.992,1.361-14.5,4.7-19.023l.2-.274-.007-.342c-.156-7.046-.469-31.272,2.042-47.166,2.047-12.954,5.416-19.973,6.678-21.1m.048-1.107c-1.658,0-5.544,8.313-7.714,22.047-2.5,15.83-2.227,39.518-2.054,47.345-3.311,4.484-4.894,10.044-4.894,19.616,0,5.5,8.189,12.992,13.9,12.992a10.987,10.987,0,0,0,8.183-4.007c4.4-.1,5.888-2.888,7.7-3.988,4.741-3.009,1.151-14.412-3.81-21.987h.833c-.4-8.09-1.986-25.111-1.986-34.98,0-4.365-3.478-9.312-4.963-11.992-3.6-6.5-1.466-22.977-4.963-24.985a.452.452,0,0,0-.227-.061Z" fill="#7aabcc"/>
            </g>
            <g id="Group_1437" data-name="Group 1437">
              <path id="Path_2412" data-name="Path 2412" d="M900.867,748.022s.176-.034.5-.067a3.628,3.628,0,0,1,1.458.248,7,7,0,0,1,1.974,1.129,17.739,17.739,0,0,1,2.087,2.016,25.3,25.3,0,0,1,2.092,2.68,36.667,36.667,0,0,1,1.979,3.221,42.573,42.573,0,0,1,3.251,7.521,27.29,27.29,0,0,1,1.046,4.056,15.534,15.534,0,0,1,.227,4.115,6.451,6.451,0,0,1-1.469,3.73,7.751,7.751,0,0,1-1.425,1.149c-.4.3-.8.669-1.193,1.01a10.866,10.866,0,0,1-2.406,1.69,6.134,6.134,0,0,1-2.205.613,5.675,5.675,0,0,1-1.449-.039c-.329-.05-.5-.092-.5-.092s.174-.056.491-.13.775-.193,1.327-.379a9.9,9.9,0,0,0,1.886-.833,11.247,11.247,0,0,0,2.143-1.627c.38-.349.757-.72,1.241-1.108a8.483,8.483,0,0,0,1.253-1.013,5.432,5.432,0,0,0,1.2-3.088,14.474,14.474,0,0,0-.165-3.824,26.309,26.309,0,0,0-.955-3.921,41.618,41.618,0,0,0-3.269-7.289,38.865,38.865,0,0,0-3.911-5.739,19.822,19.822,0,0,0-1.9-1.97,13.765,13.765,0,0,0-1.635-1.283,4.7,4.7,0,0,0-.658-.381,2.62,2.62,0,0,0-.532-.237C901.034,748.087,900.867,748.022,900.867,748.022Z" fill="#7aabcc"/>
            </g>
          </g>
        </g>
      </g>
    </g>
  </g>
</svg>
