<svg xmlns="http://www.w3.org/2000/svg" xmlns:xlink="http://www.w3.org/1999/xlink" width="58" height="93" viewBox="0 0 58 93">
  <defs>
    <linearGradient id="linear-gradient" x1="0.5" y1="1" x2="0.5" gradientUnits="objectBoundingBox">
      <stop offset="0" stop-color="#fff"/>
      <stop offset="0.25" stop-color="#f2f7fa"/>
    </linearGradient>
    <clipPath id="clip-path">
      <path id="SVGID" d="M1209.961,755.053l.039-.015c0-3-5-22.971-5-27.965s5.429-14.411,3-19.975c-.756-1.733-2.317-1.666-4.163-.495.628-2.554.812-4.773-.837-5.5-2.272-1-6.91,5.332-9.988,10.073,0-.026-.007-.064-.012-.085-.429-1.855-6-.428-9,6.991s-6,14.7-6,23.97c0,8.923.923,11.65.993,18.2-1.725,2.654-2.993,5.454-2.993,7.771v3c0,5.849,4,9.987,10,9.987,3.919,0,6.776-3.34,8.409-5.948a1.5,1.5,0,0,1,2.658.226c1.183,2.913,3.405,6.721,6.933,6.721,5.714,0,10-5.707,10-10.986C1214,767.667,1214.051,760.12,1209.961,755.053Z" fill="none"/>
    </clipPath>
    <linearGradient id="linear-gradient-2" x1="0.5" x2="0.5" y2="0" xlink:href="#linear-gradient"/>
  </defs>
  <g id="Regular16" transform="translate(-1166 -695)">
    <rect id="Rectangle_260" data-name="Rectangle 260" width="58" height="93" transform="translate(1166 695)" fill="none"/>
    <g id="Group_1502" data-name="Group 1502" transform="translate(0 -2)">
      <g id="Group_1500" data-name="Group 1500">
        <g id="Group_1488" data-name="Group 1488">
          <path id="Path_2455" data-name="Path 2455" d="M1198,785.5c-6.312,0-8.908-6.757-9.42-8.306l8.436-6.553,9.433,6.6C1206.129,778.783,1204.373,785.5,1198,785.5Z" fill="#ebf2f7"/>
          <g id="Group_1486" data-name="Group 1486">
            <path id="Path_2456" data-name="Path 2456" d="M1199.156,777.229l-.27.21,2.2,1.537A3.862,3.862,0,0,1,1198,781a3.673,3.673,0,0,1-.6-.052A3.917,3.917,0,0,0,1200,782a3.862,3.862,0,0,0,3.084-2.024Z" fill="#d1e2ed"/>
          </g>
          <path id="Path_2457" data-name="Path 2457" d="M1198,781a4.77,4.77,0,0,1-3.819-2.459l2.975-2.311,3.928,2.746A3.865,3.865,0,0,1,1198,781Z" fill="#ebf2f7"/>
          <path id="Path_2458" data-name="Path 2458" d="M1198,779a3.28,3.28,0,0,1-2.422-1.278l1.609-1.25,2.463,1.722A2.211,2.211,0,0,1,1198,779Z" fill="url(#linear-gradient)"/>
          <g id="Group_1487" data-name="Group 1487">
            <path id="Path_2459" data-name="Path 2459" d="M1194.181,778.541l2.7-2.1-1.73-1.21-2.975,2.312a5.1,5.1,0,0,0,3.218,2.407A7.114,7.114,0,0,1,1194.181,778.541Z" fill="#fff"/>
          </g>
          <path id="Path_2460" data-name="Path 2460" d="M1197.031,771.262l8.857,6.192c-.45,1.9-2.263,7.546-7.888,7.546-5.686,0-8.16-5.693-8.836-7.627l7.867-6.111M1197,770.02l-9,6.991s2.429,8.989,10,8.989,9-8.989,9-8.989l-10-6.991Z" fill="#7aabcc"/>
        </g>
        <g id="Group_1499" data-name="Group 1499">
          <g id="Group_1498" data-name="Group 1498" clip-path="url(#clip-path)">
            <g id="Group_1493" data-name="Group 1493">
              <path id="Path_2461" data-name="Path 2461" d="M1204,781.505c-3.2,0-5.282-3.485-6.469-6.409a2,2,0,0,0-3.546-.3c-1.632,2.606-4.343,5.713-7.985,5.713-5.682,0-9.5-3.813-9.5-9.487v-3c0-1.975,1.007-4.567,2.912-7.5l.083-.127,0-.151c-.031-2.942-.233-5.114-.448-7.413a102.762,102.762,0,0,1-.545-10.779c0-9.038,2.831-16.039,5.829-23.451l.135-.332c2.183-5.4,5.653-7.412,7.328-7.412.239,0,.651.045.721.346l.208,1.277.711-1.032c4.1-6.323,7.4-9.95,9.048-9.95a.779.779,0,0,1,.319.063c1.115.49,1.28,1.961.553,4.921l-.3,1.208,1.05-.667a4.155,4.155,0,0,1,2.061-.77c.4,0,.968.108,1.376,1.043,1.434,3.287-.075,8.182-1.406,12.5a28.242,28.242,0,0,0-1.636,7.274c0,2.866,1.586,10.427,2.984,17.1.959,4.574,1.869,8.912,2,10.53l-.305.117.393.55c3.93,4.869,3.929,12.069,3.928,15.529v.123C1213.5,775.969,1209.437,781.505,1204,781.505Z" fill="#ebf2f7"/>
              <g id="Group_1490" data-name="Group 1490">
                <g id="Group_1489" data-name="Group 1489">
                  <path id="Path_2462" data-name="Path 2462" d="M1198.674,715.8l.032-.129-.12.186Z" fill="#d1e2ed"/>
                  <path id="Path_2463" data-name="Path 2463" d="M1208.07,759.194l-4.282-5.368,2.668-1.02c-.394-2.031-.932-4.593-1.376-6.712-1.86-8.872-3.08-14.92-3.08-18.021,0-2.644.892-5.537,1.836-8.6a57.693,57.693,0,0,0,1.527-5.649l-2.649,1.682c-.29,1.048-.6,2.075-.878,2.967-.944,3.062-1.836,5.955-1.836,8.6,0,3.1,1.22,9.149,3.08,18.021.444,2.119.982,4.681,1.376,6.712l-2.668,1.02,4.282,5.368c2.931,3.631,2.93,9.757,2.93,12.7v.123c0,2.36-1.771,5.176-4.021,5.839a3.78,3.78,0,0,0,1.063,1.147c2.674-.034,4.958-3.306,4.958-5.986V771.9C1211,768.951,1211,762.825,1208.07,759.194Z" fill="#d1e2ed"/>
                  <path id="Path_2464" data-name="Path 2464" d="M1190.163,724.753l1.467-2.261-.446-2.735c-.188.365-.372.764-.549,1.2l-.134.333q-.324.8-.643,1.595Z" fill="#d1e2ed"/>
                  <path id="Path_2465" data-name="Path 2465" d="M1195.68,769.354a6.462,6.462,0,0,0-5.508,3.05c-1.413,2.255-2.973,3.6-4.172,3.6a6.587,6.587,0,0,1-1.544-.189,5.114,5.114,0,0,0,3.544,1.189c1.2,0,2.759-1.347,4.172-3.6a6.462,6.462,0,0,1,5.508-3.05,6.545,6.545,0,0,1,1.846.27A6.474,6.474,0,0,0,1195.68,769.354Z" fill="#d1e2ed"/>
                </g>
              </g>
              <path id="Path_2466" data-name="Path 2466" d="M1204.041,777.005c-.27-.132-1.292-1.018-2.341-3.6a6.5,6.5,0,0,0-11.528-1c-1.413,2.256-2.973,3.6-4.172,3.6-3.178,0-5-1.818-5-4.987v-3c0-.281.1-1.846,2.185-5.045l.824-1.268-.016-1.511c-.034-3.127-.254-5.494-.467-7.782a98.766,98.766,0,0,1-.526-10.362c0-8.163,2.672-14.769,5.5-21.763l.134-.333c.177-.436.361-.836.549-1.2l.979,6,6.542-10.081-.692,2.817,7.35-4.664a57.252,57.252,0,0,1-1.527,5.648c-.944,3.063-1.836,5.956-1.836,8.6,0,3.1,1.22,9.148,3.08,18.021.445,2.119.982,4.681,1.375,6.712l-2.667,1.02,4.282,5.368c2.932,3.631,2.931,9.757,2.93,12.7v.124C1209,773.7,1206.716,776.971,1204.041,777.005Z" fill="#ebf2f7"/>
              <path id="Path_2467" data-name="Path 2467" d="M1204.346,774.98a9.114,9.114,0,0,1-1.72-2.954,7.5,7.5,0,0,0-13.3-1.153c-1.348,2.153-2.668,3.133-3.324,3.133-3.306,0-4-2.168-4-3.987v-3c0-.48.423-2.038,2.024-4.5l.988-1.521-.019-1.814c-.034-3.168-.256-5.555-.471-7.864a97.883,97.883,0,0,1-.522-10.269c0-7.322,2.226-13.42,4.753-19.716l.838,5.134,5.211-8.03,7.018-4.453c-.318,1.173-.669,2.312-.94,3.19-.967,3.136-1.88,6.1-1.88,8.894,0,3.2,1.228,9.292,3.1,18.226.386,1.837.842,4.011,1.211,5.872l-3.167,1.211,5.147,6.44c2.71,3.356,2.708,9.244,2.708,12.073v.124C1208,772.1,1206.318,774.7,1204.346,774.98Z" fill="url(#linear-gradient-2)"/>
              <g id="Group_1492" data-name="Group 1492">
                <g id="Group_1491" data-name="Group 1491">
                  <path id="Path_2468" data-name="Path 2468" d="M1189.63,721.492l.533,3.261,6.422-9.9-2.572,1.632.692-2.817Z" fill="#fff"/>
                  <path id="Path_2469" data-name="Path 2469" d="M1196.013,717.489l4.7-2.982c.249-.9.482-1.818.649-2.682l-4.689,2.976Z" fill="#fff"/>
                  <path id="Path_2470" data-name="Path 2470" d="M1181,771.019v-3c0-.281.1-1.846,2.185-5.045l.824-1.268-.016-1.512c-.034-3.126-.254-5.493-.467-7.781a99.031,99.031,0,0,1-.526-10.361c0-7.54,2.281-13.753,4.858-20.169l-.674-4.129c-.188.365-.372.764-.549,1.2l-.134.333c-2.829,6.994-5.5,13.6-5.5,21.764a99.031,99.031,0,0,0,.526,10.361c.213,2.288.433,4.655.467,7.781l.016,1.512-.824,1.268c-2.08,3.2-2.185,4.764-2.185,5.045v3c0,2.607,1.25,4.28,3.456,4.8A4.907,4.907,0,0,1,1181,771.019Z" fill="#fff"/>
                  <path id="Path_2471" data-name="Path 2471" d="M1201.7,773.4a6.457,6.457,0,0,0-4.174-3.778,6.461,6.461,0,0,1,2.174,2.778c1.05,2.585,2.071,3.471,2.342,3.6a3.459,3.459,0,0,0,.937-.147A12.75,12.75,0,0,1,1201.7,773.4Z" fill="#fff"/>
                </g>
              </g>
              <path id="Path_2472" data-name="Path 2472" d="M1202.48,702a.294.294,0,0,1,.118.021c.517.227,1.108.925.268,4.343l-.593,2.415,2.1-1.332a3.54,3.54,0,0,1,1.793-.692c.308,0,.633.09.917.743,1.361,3.117-.119,7.918-1.425,12.153a28.536,28.536,0,0,0-1.658,7.422c0,2.917,1.591,10.505,2.995,17.2.856,4.082,1.737,8.286,1.954,10.109l-.617.247.851,1.054C1213,760.413,1213,767.494,1213,770.9v.123c0,4.713-3.849,9.986-9,9.986-3.071,0-5.082-3.82-6.006-6.1a2.5,2.5,0,0,0-4.432-.382c-1.566,2.5-4.148,5.48-7.562,5.48-5.383,0-9-3.611-9-8.987v-3c0-1.877.979-4.376,2.832-7.226l.165-.253,0-.3c-.032-2.962-.235-5.143-.45-7.453a102.345,102.345,0,0,1-.543-10.732c0-8.943,2.814-15.9,5.793-23.266l.134-.33c2.169-5.365,5.562-7.1,6.865-7.1a.935.935,0,0,1,.24.027l.367,2.576,1.452-2.238c6.006-9.254,8.242-9.723,8.629-9.723h0m0-1c-2.4,0-6.609,5.774-9.468,10.179,0-.028-.007-.066-.012-.086-.109-.475-.555-.735-1.208-.735-1.9,0-5.559,2.2-7.792,7.726-3,7.419-6,14.7-6,23.971,0,8.923.923,11.649.993,18.2-1.725,2.653-2.993,5.454-2.993,7.771v3c0,5.849,4,9.987,10,9.987,3.918,0,6.775-3.34,8.409-5.948a1.5,1.5,0,0,1,2.658.226c1.183,2.913,3.405,6.721,6.933,6.721,5.714,0,10-5.707,10-10.986,0-3.352.051-10.9-4.039-15.965l.039-.016c0-3-5-22.972-5-27.965s5.429-14.411,3-19.975a1.935,1.935,0,0,0-1.834-1.343,4.588,4.588,0,0,0-2.329.848c.628-2.554.812-4.773-.837-5.5a1.283,1.283,0,0,0-.52-.1Z" fill="#7aabcc"/>
            </g>
            <g id="Group_1494" data-name="Group 1494">
              <path id="Path_2473" data-name="Path 2473" d="M1210,755.038l-.176-.82c-.136-.523-.336-1.289-.59-2.264-.52-1.952-1.131-4.77-1.865-8.159s-1.591-7.341-2.316-11.634c-.178-1.075-.35-2.168-.465-3.3-.075-.557-.094-1.145-.12-1.732a11.694,11.694,0,0,1,.17-1.763,57.272,57.272,0,0,1,1.852-6.722,38.333,38.333,0,0,0,1.512-6.618,11.107,11.107,0,0,0-.076-3.213,7.7,7.7,0,0,0-.421-1.474,1.7,1.7,0,0,0-.791-.906,2.932,2.932,0,0,0-2.475.585,13.414,13.414,0,0,0-2.278,1.835,33.245,33.245,0,0,0-3.554,4.18,48.171,48.171,0,0,0-4.157,7.133c-.436.9-.738,1.631-.949,2.132-.18.509-.3.779-.3.779s.017-.291.094-.835a15.333,15.333,0,0,1,.547-2.314,28.446,28.446,0,0,1,3.893-7.513,29.839,29.839,0,0,1,3.64-4.374,14.45,14.45,0,0,1,2.478-1.981,6.761,6.761,0,0,1,1.569-.724,2.855,2.855,0,0,1,1.958.088,1.542,1.542,0,0,1,.453.28,1.587,1.587,0,0,1,.384.379,3.5,3.5,0,0,1,.5.821,8.707,8.707,0,0,1,.48,1.715,12.183,12.183,0,0,1,.06,3.52,39.291,39.291,0,0,1-1.6,6.8,57.068,57.068,0,0,0-1.762,6.575,10.561,10.561,0,0,0-.147,1.614c.03.54.049,1.073.128,1.622.118,1.086.3,2.169.482,3.229.736,4.249,1.614,8.2,2.27,11.6.69,3.4,1.26,6.233,1.467,8.258a22.871,22.871,0,0,1,.157,2.37A7.621,7.621,0,0,1,1210,755.038Z" fill="#7aabcc"/>
            </g>
            <g id="Group_1495" data-name="Group 1495">
              <path id="Path_2474" data-name="Path 2474" d="M1194,744.052s-.208-.287-.556-.845c-.168-.285-.355-.65-.588-1.08-.182-.444-.426-.948-.621-1.539a30.348,30.348,0,0,1-1.462-10.128c-.022-2.119.05-4.412.266-6.822s.51-4.943.875-7.546c.176-1.3.385-2.628.523-3.94a5.668,5.668,0,0,0,.04-.885c0-.006-.007-.085,0-.031l-.04-.121a.352.352,0,0,1-.033-.033.408.408,0,0,0-.2-.124,2.647,2.647,0,0,0-1.633.2,8.909,8.909,0,0,0-3.146,2.289,14.988,14.988,0,0,0-2.286,3.336c-.611,1.2-1.078,2.535-1.607,3.823-.512,1.295-1.015,2.585-1.481,3.873a64.154,64.154,0,0,0-2.33,7.676,44.022,44.022,0,0,0-1.078,7.386c-.123,2.361-.09,4.641-.034,6.723.132,4.17.581,7.643.549,10.119.021,1.232-.029,2.2-.079,2.859s-.088,1.008-.088,1.008-.06-.349-.127-1-.2-1.606-.342-2.822c-.319-2.415-.8-5.892-.983-10.119a67.864,67.864,0,0,1-.024-6.833,43.925,43.925,0,0,1,1.126-7.57,65.109,65.109,0,0,1,2.42-7.788c.48-1.3.995-2.594,1.518-3.89.538-1.287,1.007-2.6,1.667-3.9a12.629,12.629,0,0,1,5.94-6.156,3.568,3.568,0,0,1,2.379-.224,1.471,1.471,0,0,1,.648.428,1.37,1.37,0,0,1,.242.394l.041.121a.934.934,0,0,1,.043.219,6.044,6.044,0,0,1-.026,1.142c-.137,1.375-.335,2.686-.5,3.989a110.08,110.08,0,0,0-1.171,14.213,44.4,44.4,0,0,0,1.006,9.952,26.344,26.344,0,0,0,.786,2.7C1193.888,743.716,1194,744.052,1194,744.052Z" fill="#7aabcc"/>
            </g>
            <g id="Group_1496" data-name="Group 1496">
              <path id="Path_2475" data-name="Path 2475" d="M1187,757.036s-1.3,1.022-3.433,2.924a43.38,43.38,0,0,0-3.573,3.661,14.255,14.255,0,0,0-3.187,5.578,7.848,7.848,0,0,0-.251,1.733c-.011.258.024.626.034.938.01.332.078.612.113.924a9.812,9.812,0,0,0,1.333,3.611,8.988,8.988,0,0,0,7,4c.358.01.759.047,1.085.038l.582-.03.508-.081a7.3,7.3,0,0,0,2.047-.749,11.713,11.713,0,0,0,3.433-3.01c.507-.622.912-1.234,1.4-1.962a2,2,0,0,1,3.422.407l.245.577c.159.365.325.722.505,1.082a14.763,14.763,0,0,0,1.228,2.037,6.4,6.4,0,0,0,3.577,2.66,4.248,4.248,0,0,0,1.072.1,7.737,7.737,0,0,0,1.184-.117,6.233,6.233,0,0,0,1.09-.268,6.72,6.72,0,0,0,1.063-.417,10.974,10.974,0,0,0,5.549-6.805,13.5,13.5,0,0,0,.407-4.334,40.448,40.448,0,0,0-.263-4.274,22.664,22.664,0,0,0-2.073-7.435,13.555,13.555,0,0,0-4.13-4.89l-1.2-.714a5.273,5.273,0,0,0-1.171-.575,12.153,12.153,0,0,0-2.182-.783c-.685-.162-1.292-.366-1.839-.444l-1.4-.2c-.762-.1-1.173-.181-1.173-.181s.409-.027,1.185-.033l1.435-.02c.566.011,1.2.162,1.931.257a9.928,9.928,0,0,1,2.354.62,13.017,13.017,0,0,1,2.6,1.267,14.185,14.185,0,0,1,4.536,5.2,22.637,22.637,0,0,1,2.245,7.79,41.717,41.717,0,0,1,.264,4.395,14.371,14.371,0,0,1-.465,4.658,12.873,12.873,0,0,1-2.262,4.316,10.831,10.831,0,0,1-3.9,3.133,7.729,7.729,0,0,1-1.2.463,7.28,7.28,0,0,1-1.279.3,8.511,8.511,0,0,1-1.246.116,5.16,5.16,0,0,1-1.362-.13,7.39,7.39,0,0,1-4.157-3.072,15.622,15.622,0,0,1-1.326-2.169c-.19-.374-.372-.759-.542-1.145l-.238-.553a.984.984,0,0,0-.234-.323,1,1,0,0,0-1.412.111c-.412.626-.9,1.374-1.417,2.007a12.738,12.738,0,0,1-3.737,3.3,8.367,8.367,0,0,1-2.367.878l-.648.1-.584.033c-.45.014-.821-.023-1.233-.033a10.083,10.083,0,0,1-7.861-4.5,10.444,10.444,0,0,1-1.485-4.056,12.742,12.742,0,0,1-.136-2.038,8.916,8.916,0,0,1,.308-1.986,14.894,14.894,0,0,1,3.489-5.954,25.517,25.517,0,0,1,3.9-3.515,27.8,27.8,0,0,1,2.8-1.86C1186.623,757.208,1187,757.036,1187,757.036Z" fill="#7aabcc"/>
            </g>
            <g id="Group_1497" data-name="Group 1497">
              <path id="Path_2476" data-name="Path 2476" d="M1188,751.043l-.22.1a2.325,2.325,0,0,0-.584.343,7.423,7.423,0,0,0-.817.647c-.316.251-.628.595-1,.928-.708.7-1.493,1.566-2.294,2.52-.818.94-1.614,2.006-2.379,3.086a32.192,32.192,0,0,0-2.06,3.276c-.279.547-.6,1.05-.818,1.564a15.65,15.65,0,0,0-.645,1.431c-.09.225-.177.441-.26.646-.067.208-.109.411-.176.6-.11.373-.277.69-.346.963a4.238,4.238,0,0,1-.405.878,3.354,3.354,0,0,1-.244-.958,3.2,3.2,0,0,1,.051-1.11,6.971,6.971,0,0,1,.361-1.381,9.983,9.983,0,0,1,.608-1.561,15.844,15.844,0,0,1,.857-1.648,33.1,33.1,0,0,1,2.276-3.292c.857-1.055,1.74-2.084,2.635-2.985a30.4,30.4,0,0,1,2.557-2.34c.407-.308.759-.608,1.115-.824a7.4,7.4,0,0,1,.921-.555,2.144,2.144,0,0,1,.632-.258Z" fill="#7aabcc"/>
            </g>
          </g>
        </g>
      </g>
    </g>
  </g>
</svg>
