<svg xmlns="http://www.w3.org/2000/svg" xmlns:xlink="http://www.w3.org/1999/xlink" width="58" height="100" viewBox="0 0 58 100">
  <defs>
    <clipPath id="clip-path">
      <path id="SVGID" d="M764.183,756.622c-.118-14.379-.975-18.223-.975-23.622,0-4.358-.473-44.991-5.938-44.991-12.468,0-14.843,49.39-14.843,58.989l.592.353c-4.686,7.63-8.873,18.567-7.1,27.685.618,3.191,2.074,3.658,3.671,3.658,1.713,0,3.6.086,3.6.086s1.026-.211,1.334.243c.809,1.2,2.939.968,5.163.968,2.251,0,7-.186,8.26-.186C763.531,779.8,770.072,773.779,764.183,756.622Z" fill="none"/>
    </clipPath>
    <linearGradient id="linear-gradient" x1="0.5" y1="1" x2="0.5" gradientUnits="objectBoundingBox">
      <stop offset="0" stop-color="#fff"/>
      <stop offset="0.25" stop-color="#f2f7fa"/>
    </linearGradient>
  </defs>
  <g id="Regular10" transform="translate(-722 -688)">
    <rect id="Rectangle_254" data-name="Rectangle 254" width="58" height="100" transform="translate(722 688)" fill="none"/>
    <g id="Group_1422" data-name="Group 1422" transform="translate(0 4)">
      <g id="Group_1421" data-name="Group 1421">
        <g id="Group_1420" data-name="Group 1420" clip-path="url(#clip-path)">
          <g id="Group_1418" data-name="Group 1418">
            <path id="Path_2384" data-name="Path 2384" d="M747.892,779.509c-1.466,0-2.531-.131-2.961-.766a1.38,1.38,0,0,0-1.228-.512,3.508,3.508,0,0,0-.554.047c-.33-.014-2.026-.084-3.564-.084-1.29,0-2.6-.251-3.181-3.253-2.169-11.19,4.841-23.746,7.041-27.328l.265-.432-.783-.467c.041-15.845,3.465-58.205,14.343-58.205,2.193,0,5.438,14.14,5.438,44.491,0,2.148.134,4.044.3,6.444.254,3.584.6,8.493.672,17.182v.082l.026.077c3.774,11,2.216,16.6.245,19.356a7.345,7.345,0,0,1-6.015,3.164c-.541,0-1.723.034-3.077.074-1.829.052-3.9.112-5.183.112C749.367,779.491,748.171,779.509,747.892,779.509Z" fill="#ebf2f7"/>
            <g id="Group_1415" data-name="Group 1415">
              <g id="Group_1414" data-name="Group 1414">
                <path id="Path_2385" data-name="Path 2385" d="M743.7,773.731c-.269,0-.519.015-.741.036l-.329-.012c.036.318.067.638.12.95.9.015,1.724.043,2.209.062.222-.021.472-.036.741-.036a6.583,6.583,0,0,1,1.817.265A6.1,6.1,0,0,0,743.7,773.731Z" fill="#d1e2ed"/>
                <path id="Path_2386" data-name="Path 2386" d="M761.454,759.245l-.264-.768-.006-.814c-.071-8.548-.4-13.181-.662-16.9-.175-2.489-.314-4.454-.314-6.761,0-12.252-.97-30.049-2.611-37.837a22.561,22.561,0,0,0-1.352,2.817A288.647,288.647,0,0,1,758.208,733c0,2.307.139,4.272.314,6.761.264,3.721.591,8.354.662,16.9l.006.814.264.768c3.539,10.312,1.537,14.3.838,15.281a2.807,2.807,0,0,1-2.352,1.28c-.564,0-1.8.034-3.207.075-1.71.049-3.837.11-5.053.11-.335,0-1.53.018-1.788.018-.13,0-.239,0-.336,0a5.761,5.761,0,0,1,1.976,1c.1,0,.221,0,.36,0,.258,0,1.453-.018,1.788-.018,1.216,0,3.343-.061,5.053-.11,1.411-.041,2.643-.075,3.207-.075a2.807,2.807,0,0,0,2.352-1.28C762.991,773.549,764.993,769.557,761.454,759.245Z" fill="#d1e2ed"/>
              </g>
            </g>
            <path id="Path_2387" data-name="Path 2387" d="M747.532,775.005a6.087,6.087,0,0,0-3.829-1.274c-.269,0-.519.015-.741.036-.485-.019-1.309-.047-2.209-.062-1.282-7.569,2.5-17.187,6.527-23.737l2.65-4.315-2.456-1.466a251.227,251.227,0,0,1,2.357-27.668c1.88-12.753,4.2-18.663,5.766-21.356,1.641,7.788,2.611,25.585,2.611,37.837,0,2.307.139,4.273.315,6.761.263,3.722.59,8.354.661,16.9l.006.813.264.769c3.539,10.312,1.537,14.3.838,15.281a2.811,2.811,0,0,1-2.352,1.279c-.563,0-1.8.035-3.207.076-1.709.049-3.837.11-5.053.11-.335,0-1.53.018-1.788.018C747.753,775.009,747.634,775.007,747.532,775.005Z" fill="#ebf2f7"/>
            <path id="Path_2388" data-name="Path 2388" d="M747.873,773.009a7.133,7.133,0,0,0-4.17-1.278c-.275,0-.534.014-.766.034-.329-.012-.789-.028-1.315-.042-.847-7.164,2.726-16.072,6.51-22.232l3.18-5.177-2.821-1.684a252.8,252.8,0,0,1,2.18-25.931c1.418-10.032,3.1-15.9,4.474-19.306,1.242,8.238,2.063,22.657,2.063,34.607,0,2.342.147,4.423.317,6.831.262,3.708.588,8.323.659,16.841l.008.975.316.923c2.689,7.835,2.265,12.563.971,14.375a1.841,1.841,0,0,1-1.539.86c-.569,0-1.812.035-3.236.076-1.7.049-3.822.11-5.024.11-.34,0-.678,0-1.01.01-.265,0-.525.008-.778.008Z" fill="url(#linear-gradient)"/>
            <g id="Group_1417" data-name="Group 1417">
              <g id="Group_1416" data-name="Group 1416">
                <path id="Path_2389" data-name="Path 2389" d="M747.279,749.968l2.651-4.315-2.456-1.465a251.188,251.188,0,0,1,2.357-27.668c1.392-9.443,3.024-15.127,4.414-18.54-.2-1.437-.419-2.728-.648-3.817-1.567,2.693-3.886,8.6-5.766,21.357a251.188,251.188,0,0,0-2.357,27.668l2.456,1.465-2.651,4.315c-4.023,6.55-7.807,16.169-6.526,23.737.726.012,1.392.032,1.88.05C739.8,765.345,743.422,756.248,747.279,749.968Z" fill="#fff"/>
                <path id="Path_2390" data-name="Path 2390" d="M745.52,774l.012.009h.024A.365.365,0,0,1,745.52,774Z" fill="#fff"/>
              </g>
            </g>
            <path id="Path_2391" data-name="Path 2391" d="M757.271,689.009c.025,0,2.545.227,4.02,19.936.892,11.909.917,23.937.917,24.055,0,2.166.134,4.069.3,6.479.253,3.578.6,8.478.671,17.151v.163l.053.153c2.89,8.423,3,15.137.309,18.905a6.847,6.847,0,0,1-5.607,2.955c-.552,0-1.729.034-3.091.073-1.826.053-3.9.112-5.169.112-.316,0-.63,0-.939.009-.289,0-.573.009-.849.009-1.077,0-2.221-.066-2.547-.546a1.837,1.837,0,0,0-1.643-.732,3.96,3.96,0,0,0-.582.045c-.431-.018-2.034-.082-3.536-.082-1,0-2.136,0-2.688-2.848-.541-2.784-1.633-12.959,6.975-26.971l.53-.863-.869-.519-.1-.061c.085-15.363,3.537-57.423,13.843-57.423m0-1c-12.469,0-14.844,49.39-14.844,58.989l.592.354c-4.686,7.628-8.873,18.566-7.1,27.684.618,3.191,2.074,3.658,3.67,3.658,1.714,0,3.6.086,3.6.086a2.881,2.881,0,0,1,.519-.049.976.976,0,0,1,.815.292c.587.867,1.867.986,3.375.986.571,0,1.176-.018,1.788-.018,2.252,0,7-.185,8.26-.185,5.59,0,12.132-6.027,6.244-23.184-.119-14.379-.976-18.224-.976-23.622,0-4.357-.473-44.991-5.937-44.991Z" fill="#7aabcc"/>
          </g>
          <g id="Group_1419" data-name="Group 1419">
            <path id="Path_2392" data-name="Path 2392" d="M751.516,738a8.527,8.527,0,0,0-2.469,1.966,27.7,27.7,0,0,0-2.038,2.429,62.307,62.307,0,0,0-3.572,5.253,57.316,57.316,0,0,0-2.983,5.615,58.638,58.638,0,0,0-2.35,5.9c-.335,1-.639,2.016-.9,3.04s-.494,2.053-.667,3.092c-.093.519-.177,1.039-.235,1.561-.074.521-.129,1.044-.161,1.569a24.989,24.989,0,0,0-.069,3.143,22.73,22.73,0,0,0,.324,3.116c.034.259.1.492.152.766.069.24.121.47.212.7a3.793,3.793,0,0,0,.671,1.226,2.98,2.98,0,0,0,2.552.809l3.209.086-.114.01a2.878,2.878,0,0,1,1.119-.005,1.211,1.211,0,0,1,.665.376,1.959,1.959,0,0,0,.271.308,2.555,2.555,0,0,0,1.385.485c1.125.113,2.361.031,3.58.027l7.281-.184.455-.012c.063,0,.278-.022.41-.031l.906-.079c.275-.061.529-.143.794-.209l.4-.1.384-.177.768-.354c.236-.153.461-.326.692-.486a6.962,6.962,0,0,0,1.244-1.147,12.51,12.51,0,0,0,.981-1.395c.269-.5.466-1.052.707-1.574a14.644,14.644,0,0,0,.7-3.42l.1-.875-.014-.888-.033-1.776c-.173-1.179-.24-2.37-.494-3.54L765,761.467a14.43,14.43,0,0,0-.438-1.743c-.359-1.146-.652-2.314-1.065-3.444l-1.268-3.385c-.446-1.121-.958-2.215-1.409-3.337l-.691-1.678-.754-1.653c-.506-1.1-.977-2.222-1.435-3.354.656,1.023,1.3,2.059,1.909,3.114a34.626,34.626,0,0,1,1.741,3.215c.535,1.1,1.069,2.195,1.56,3.313l1.329,3.419c.432,1.144.746,2.334,1.125,3.5a14.608,14.608,0,0,1,.469,1.78l.405,1.8a13.638,13.638,0,0,1,.293,1.827l.225,1.841.033,1.864.012.933-.1.934a15.79,15.79,0,0,1-.765,3.688c-.264.58-.489,1.18-.794,1.74a13.566,13.566,0,0,1-1.116,1.571,8.042,8.042,0,0,1-1.43,1.3c-.268.184-.528.379-.8.551l-.886.407-.446.2-.485.126c-.323.08-.653.172-.971.234l-.908.074c-.17.01-.257.029-.5.032l-.455.01-7.281.144a35.98,35.98,0,0,1-3.7-.054,3.445,3.445,0,0,1-1.973-.757,2.8,2.8,0,0,1-.333-.371.331.331,0,0,0-.122-.046,1.923,1.923,0,0,0-.69.014l-.061.012h-.054l-3.209-.068a7.08,7.08,0,0,1-1.717-.159,3.166,3.166,0,0,1-1.6-.991,6.559,6.559,0,0,1-1.3-3.2,23.594,23.594,0,0,1-.358-3.262,26.042,26.042,0,0,1,.053-3.27c.031-.545.085-1.086.158-1.625.057-.542.141-1.078.237-1.613.177-1.072.41-2.133.681-3.182s.573-2.09.915-3.117a50.462,50.462,0,0,1,2.43-6.009,58.641,58.641,0,0,1,3.1-5.683,39.47,39.47,0,0,1,3.824-5.23,25.323,25.323,0,0,1,2.32-2.278A7.3,7.3,0,0,1,751.516,738Z" fill="#7aabcc"/>
          </g>
        </g>
      </g>
    </g>
  </g>
</svg>
