<svg xmlns="http://www.w3.org/2000/svg" xmlns:xlink="http://www.w3.org/1999/xlink" width="58" height="100" viewBox="0 0 58 100">
  <defs>
    <clipPath id="clip-path">
      <path id="SVGID" d="M366.5,846.974c0-1.982,3.571-5.043,7.639-7.252,1.511-2.715,5.223-3.722,9.361-3.722a5.582,5.582,0,0,1,4.375,1.979c4.034,1.424,7.625,4.3,7.625,8a39.7,39.7,0,0,1-4.985,19.347c.036,8.708.008,38.868-2.015,49.49a28.125,28.125,0,0,1-5.791,12.542c-1.1,1.285-2.209.522-2.209-1.171V914.813c0-5.238-6.386-13.343-8-23.943-1.147-7.536-1.976-26.622-2-29.791A31.818,31.818,0,0,1,366.5,846.974Z" fill="none"/>
    </clipPath>
    <linearGradient id="linear-gradient" x1="-455.101" y1="1" x2="-455.101" gradientUnits="objectBoundingBox">
      <stop offset="0" stop-color="#fff"/>
      <stop offset="0.25" stop-color="#f2f7fa"/>
    </linearGradient>
    <clipPath id="clip-path-3">
      <rect id="SVGID-3" data-name="SVGID" width="31" height="28.931" transform="translate(365.5 840.988)" fill="none"/>
    </clipPath>
  </defs>
  <g id="Regular28" transform="translate(-352 -836)">
    <rect id="Rectangle_265" data-name="Rectangle 265" width="58" height="100" transform="translate(352 836)" fill="none"/>
    <g id="Group_1572" data-name="Group 1572" transform="translate(0 4)">
      <g id="Group_1569" data-name="Group 1569">
        <g id="Group_1568" data-name="Group 1568" clip-path="url(#clip-path)">
          <g id="Group_1564" data-name="Group 1564">
            <path id="Path_2528" data-name="Path 2528" d="M381.607,927.5c-.346,0-.607-.566-.607-1.316V914.813c0-2.535-1.413-5.669-3.049-9.3-1.922-4.265-4.1-9.1-4.957-14.72-1.12-7.361-1.968-26.339-1.993-29.718v-.128l-.062-.112A31.436,31.436,0,0,1,367,846.974c0-1.6,3.172-4.529,7.377-6.813l.128-.069.07-.127c1.6-2.864,5.734-3.465,8.925-3.465a5.1,5.1,0,0,1,4,1.809l.086.1.124.044c3.525,1.244,7.292,3.875,7.292,7.525a39.376,39.376,0,0,1-4.915,19.091l-.071.119v.139c.037,8.922,0,38.851-2.006,49.394a27.829,27.829,0,0,1-5.679,12.311A1.128,1.128,0,0,1,381.607,927.5Z" fill="#ebf2f7"/>
            <g id="Group_1561" data-name="Group 1561">
              <g id="Group_1560" data-name="Group 1560">
                <path id="Path_2529" data-name="Path 2529" d="M384.974,842.258l1.236.436c.147.052.276.112.416.166l-.516-.589a.629.629,0,0,0-.61-.271c-.265,0-.491.014-.731.023Z" fill="#d1e2ed"/>
                <path id="Path_2530" data-name="Path 2530" d="M392.5,846.977c0-.706-1.362-2.139-3.9-3.127,1.241.8,1.9,1.638,1.9,2.127a34.618,34.618,0,0,1-4.284,16.792l-.707,1.19.006,1.384c.057,13.756-.2,29.85-.991,40.37.646,1.441,1.246,2.819,1.734,4.152,1-10.227,1.32-28.315,1.257-43.522l-.006-1.384.707-1.19A34.618,34.618,0,0,0,392.5,846.977Z" fill="#d1e2ed"/>
              </g>
            </g>
            <path id="Path_2531" data-name="Path 2531" d="M384.258,908.865c-.6-1.653-1.38-3.371-2.2-5.2-1.8-4-3.848-8.538-4.611-13.548-1.091-7.168-1.918-25.758-1.942-29.074l-.009-1.283-.626-1.119a27.913,27.913,0,0,1-3.341-10.87,19.231,19.231,0,0,1,5-3.656l1.276-.693.706-1.268c.136-.244,1.381-1.154,4.993-1.154a.628.628,0,0,1,.61.271l.864.987,1.236.436c2.8.988,4.29,2.541,4.29,3.282a34.619,34.619,0,0,1-4.284,16.793l-.707,1.19.006,1.384C385.578,880.55,385.262,898.638,384.258,908.865Z" fill="#ebf2f7"/>
            <path id="Path_2532" data-name="Path 2532" d="M382.966,902.254c-1.778-3.943-3.792-8.413-4.534-13.287-1.08-7.095-1.91-25.993-1.931-28.932l-.011-1.539-.751-1.343a27.184,27.184,0,0,1-3.186-10.016A20.254,20.254,0,0,1,377,843.994l1.531-.832.79-1.418a8.252,8.252,0,0,1,4.094-.744l.942,1.077,1.518.56c2.456.867,3.523,2.079,3.634,2.422a33.587,33.587,0,0,1-4.155,16.2l-.848,1.428.007,1.662c.055,13.322-.18,28.854-.912,39.326Q383.291,902.973,382.966,902.254Z" fill="url(#linear-gradient)"/>
            <g id="Group_1563" data-name="Group 1563">
              <g id="Group_1562" data-name="Group 1562">
                <path id="Path_2533" data-name="Path 2533" d="M382.054,903.665c-1.8-4-3.848-8.538-4.611-13.548-1.091-7.168-1.918-25.758-1.942-29.074l-.01-1.283-.625-1.119a27.932,27.932,0,0,1-3.342-10.87,19.242,19.242,0,0,1,5-3.656l1.276-.693.706-1.269c.126-.225,1.23-1.014,4.262-1.13l-.659-.752a.629.629,0,0,0-.61-.271c-3.612,0-4.857.91-4.993,1.153l-.706,1.269-1.276.693a19.242,19.242,0,0,0-5,3.656,27.932,27.932,0,0,0,3.342,10.87l.625,1.119.01,1.283c.024,3.316.851,21.906,1.942,29.074.763,5.01,2.807,9.546,4.611,13.548.825,1.829,1.6,3.547,2.2,5.2.1-.976.183-2.043.266-3.152C382.369,904.367,382.214,904.02,382.054,903.665Z" fill="#fff"/>
                <path id="Path_2534" data-name="Path 2534" d="M386.6,842.85a11.182,11.182,0,0,0-1.973-.99l.348.4,1.236.436C386.348,842.743,386.467,842.8,386.6,842.85Z" fill="#fff"/>
              </g>
            </g>
            <path id="Path_2535" data-name="Path 2535" d="M383.5,837a4.564,4.564,0,0,1,3.622,1.638l.173.2.247.088c3.364,1.186,6.958,3.663,6.958,7.054a38.854,38.854,0,0,1-4.845,18.835l-.141.238v.277c.037,8.91,0,38.8-2,49.3A27.3,27.3,0,0,1,381.95,926.7a1.33,1.33,0,0,1-.292.266,1.6,1.6,0,0,1-.158-.786V914.813c0-2.643-1.434-5.822-3.093-9.5-1.909-4.236-4.073-9.038-4.919-14.59-1.116-7.334-1.962-26.273-1.987-29.647l0-.256-.125-.224a30.905,30.905,0,0,1-3.874-13.618c0-1.206,2.721-3.987,7.116-6.373l.255-.139.142-.254C376.566,837.417,381,837,383.5,837m0-1c-4.139,0-7.85,1.007-9.361,3.722-4.068,2.209-7.639,5.269-7.639,7.252a31.813,31.813,0,0,0,4,14.106c.023,3.168.852,22.254,2,29.79,1.613,10.6,8,18.705,8,23.943v11.371c0,1.107.472,1.816,1.107,1.816a1.539,1.539,0,0,0,1.1-.645,28.125,28.125,0,0,0,5.791-12.542c2.022-10.622,2.051-40.782,2.015-49.49a39.694,39.694,0,0,0,4.985-19.346c0-3.7-3.591-6.574-7.625-8A5.579,5.579,0,0,0,383.5,836Z" fill="#7aabcc"/>
          </g>
          <g id="Group_1567" data-name="Group 1567">
            <g id="Group_1566" data-name="Group 1566" clip-path="url(#clip-path-3)">
              <g id="Group_1565" data-name="Group 1565">
                <path id="Path_2536" data-name="Path 2536" d="M387.5,868.922l.176-.17a5.07,5.07,0,0,0,.493-.506,15.707,15.707,0,0,0,1.486-2.17,40.622,40.622,0,0,0,3.633-8.679,43.854,43.854,0,0,0,1.278-6.168c.167-1.106.247-2.253.322-3.424q.024-.88.05-1.778l-.069-.863c-.037-.294-.134-.517-.19-.783-.7-2.152-2.709-3.863-4.906-5.014a16.847,16.847,0,0,0-7.313-1.867,18.468,18.468,0,0,0-7.252,2.255,27.666,27.666,0,0,0-6.156,4.2,6.8,6.8,0,0,0-1.932,2.661,7.4,7.4,0,0,0-.011,1.6c.067.559.086,1.1.187,1.653a34.389,34.389,0,0,0,1.5,6.09,31.893,31.893,0,0,0,4.281,8.331,17.911,17.911,0,0,0,1.729,2c.459.4.7.646.7.646s-.293-.15-.831-.477a11.572,11.572,0,0,1-2.1-1.744,18.366,18.366,0,0,1-2.511-3.414,33.5,33.5,0,0,1-3.887-11.27c-.1-.565-.128-1.175-.194-1.772-.01-.291-.021-.583-.031-.878a3.141,3.141,0,0,1,.079-1.039,7.6,7.6,0,0,1,2.262-3.192,28.722,28.722,0,0,1,6.439-4.328,27.7,27.7,0,0,1,3.686-1.542,13.619,13.619,0,0,1,4.008-.771,17.807,17.807,0,0,1,7.83,1.928,14.077,14.077,0,0,1,3.283,2.289,8.2,8.2,0,0,1,2.2,3.34,10.46,10.46,0,0,1,.271,3.8c-.073,1.205-.155,2.384-.323,3.521a39.049,39.049,0,0,1-1.372,6.322,39.662,39.662,0,0,1-1.943,5.112,22.606,22.606,0,0,1-2.167,3.63,10.392,10.392,0,0,1-1.9,1.971A5.712,5.712,0,0,1,387.5,868.922Z" fill="#7aabcc"/>
              </g>
            </g>
          </g>
        </g>
      </g>
    </g>
  </g>
</svg>
