<svg xmlns="http://www.w3.org/2000/svg" xmlns:xlink="http://www.w3.org/1999/xlink" width="58" height="100" viewBox="0 0 58 100">
  <defs>
    <clipPath id="clip-path">
      <path id="SVGID" d="M515.817,756.622c.118-14.379.975-18.223.975-23.622,0-4.358.473-44.991,5.938-44.991,12.468,0,14.843,49.39,14.843,58.989l-.592.353c4.686,7.63,8.873,18.567,7.1,27.685-.618,3.191-2.074,3.658-3.671,3.658-1.713,0-3.6.086-3.6.086s-1.026-.211-1.334.243c-.809,1.2-2.939.968-5.163.968-2.251,0-7-.186-8.26-.186C516.469,779.8,509.928,773.779,515.817,756.622Z" fill="none"/>
    </clipPath>
    <linearGradient id="linear-gradient" x1="-421.756" y1="1" x2="-421.756" gradientUnits="objectBoundingBox">
      <stop offset="0" stop-color="#fff"/>
      <stop offset="0.25" stop-color="#f2f7fa"/>
    </linearGradient>
  </defs>
  <g id="Regular7" transform="translate(-500 -688)">
    <rect id="Rectangle_251" data-name="Rectangle 251" width="58" height="100" transform="translate(500 688)" fill="none"/>
    <g id="Group_1612" data-name="Group 1612" transform="translate(0 4)">
      <g id="Group_1611" data-name="Group 1611">
        <g id="Group_1610" data-name="Group 1610" clip-path="url(#clip-path)">
          <g id="Group_1608" data-name="Group 1608">
            <path id="Path_2571" data-name="Path 2571" d="M530.32,779.491c-1.281,0-3.354-.06-5.183-.112-1.354-.04-2.536-.074-3.077-.074a7.345,7.345,0,0,1-6.015-3.164c-1.971-2.761-3.529-8.361.245-19.356l.026-.077v-.082c.071-8.689.418-13.6.672-17.182.169-2.4.3-4.3.3-6.444,0-30.351,3.245-44.491,5.438-44.491,10.878,0,14.3,42.36,14.343,58.205l-.783.467.265.432c2.2,3.582,9.21,16.138,7.041,27.328-.582,3-1.891,3.253-3.181,3.253-1.538,0-3.234.07-3.564.084a3.508,3.508,0,0,0-.554-.047,1.38,1.38,0,0,0-1.228.512c-.43.635-1.495.766-2.961.766C531.829,779.509,530.634,779.491,530.32,779.491Z" fill="#ebf2f7"/>
            <g id="Group_1606" data-name="Group 1606">
              <path id="Path_2572" data-name="Path 2572" d="M534.721,750.968l-2.651-4.315,2.455-1.465a250.9,250.9,0,0,0-2.356-27.668c-1.88-12.754-4.2-18.664-5.766-21.357-.149.709-.293,1.5-.43,2.365,1.34,3.463,2.876,9.035,4.2,17.992a250.9,250.9,0,0,1,2.356,27.668l-2.455,1.465,2.651,4.315c4.022,6.55,7.807,16.169,6.526,23.737-.9.015-1.724.043-2.209.062-.222-.021-.472-.036-.741-.036a6.093,6.093,0,0,0-3.829,1.274c-.1,0-.221,0-.36,0-.257,0-1.453-.018-1.788-.018-1.216,0-3.343-.061-5.053-.11-1.411-.041-2.644-.075-3.206-.075-.042,0-.088,0-.131-.006a2.764,2.764,0,0,0,2.131,1.006c.562,0,1.8.034,3.206.075,1.71.049,3.837.11,5.053.11.335,0,1.531.018,1.788.018.139,0,.258,0,.36,0a6.093,6.093,0,0,1,3.829-1.274c.269,0,.519.015.741.036.485-.019,1.309-.047,2.209-.062C542.528,767.137,538.743,757.518,534.721,750.968Z" fill="#d1e2ed"/>
            </g>
            <path id="Path_2573" data-name="Path 2573" d="M530.32,774.991c-1.216,0-3.344-.061-5.053-.11-1.411-.041-2.644-.076-3.207-.076a2.811,2.811,0,0,1-2.352-1.279c-.7-.978-2.7-4.969.838-15.281l.264-.769.006-.813c.071-8.548.4-13.18.661-16.9.176-2.488.315-4.454.315-6.761,0-12.252.97-30.049,2.611-37.837,1.567,2.693,3.886,8.6,5.766,21.356a251.227,251.227,0,0,1,2.357,27.668l-2.456,1.466,2.65,4.315c4.024,6.55,7.809,16.168,6.527,23.737-.9.015-1.724.043-2.209.062-.222-.021-.472-.036-.741-.036a6.087,6.087,0,0,0-3.829,1.274c-.1,0-.221,0-.36,0C531.85,775.009,530.655,774.991,530.32,774.991Z" fill="#ebf2f7"/>
            <path id="Path_2574" data-name="Path 2574" d="M531.33,773c-.332-.005-.67-.01-1.01-.01-1.2,0-3.321-.061-5.024-.11-1.424-.041-2.667-.076-3.236-.076a1.841,1.841,0,0,1-1.539-.86c-1.294-1.812-1.718-6.54.971-14.375l.316-.923.008-.975c.071-8.518.4-13.133.659-16.841.17-2.408.317-4.489.317-6.831,0-11.95.821-26.369,2.063-34.607,1.375,3.4,3.056,9.274,4.474,19.306a252.8,252.8,0,0,1,2.18,25.931l-2.821,1.684,3.18,5.177c3.784,6.16,7.357,15.068,6.51,22.232-.527.014-.987.03-1.315.042-.232-.02-.491-.034-.766-.034a7.133,7.133,0,0,0-4.17,1.278h-.019C531.855,773.009,531.595,773.005,531.33,773Z" fill="url(#linear-gradient)"/>
            <g id="Group_1607" data-name="Group 1607">
              <path id="Path_2575" data-name="Path 2575" d="M519.708,773.526c-.7-.977-2.7-4.969.838-15.281l.264-.768.006-.814c.071-8.548.4-13.181.662-16.9.175-2.489.314-4.454.314-6.761,0-11.137.8-26.854,2.181-35.472a24.09,24.09,0,0,0-1.57-3.365c-1.64,7.788-2.611,25.585-2.611,37.837,0,2.307-.139,4.272-.314,6.761-.263,3.721-.591,8.354-.662,16.9l-.006.814-.264.768c-3.539,10.312-1.536,14.3-.838,15.281a2.808,2.808,0,0,0,2.222,1.274A3.108,3.108,0,0,1,519.708,773.526Z" fill="#fff"/>
            </g>
            <path id="Path_2576" data-name="Path 2576" d="M522.729,689.009c10.307,0,13.758,42.063,13.842,57.423l-.1.061-.869.52.529.862c8.608,14.013,7.516,24.187,6.975,26.971-.551,2.848-1.687,2.848-2.689,2.848-1.5,0-3.1.064-3.534.082a3.987,3.987,0,0,0-.583-.045,1.841,1.841,0,0,0-1.643.731c-.326.481-1.47.547-2.547.547-.276,0-.56,0-.849-.009-.309,0-.623-.009-.939-.009-1.274,0-3.342-.059-5.169-.112-1.362-.039-2.539-.073-3.091-.073a6.85,6.85,0,0,1-5.608-2.955c-2.69-3.769-2.58-10.482.311-18.905l.052-.153v-.163c.073-8.672.418-13.571.671-17.15.17-2.41.3-4.314.3-6.48,0-.118.025-12.144.917-24.055,1.475-19.709,3.995-19.936,4.02-19.936m0-1c-5.464,0-5.937,40.634-5.937,44.991,0,5.4-.856,9.243-.976,23.622-5.888,17.157.654,23.184,6.244,23.184,1.258,0,6.008.185,8.26.185.612,0,1.216.018,1.788.018,1.507,0,2.788-.119,3.375-.986a.976.976,0,0,1,.815-.292,2.881,2.881,0,0,1,.519.049s1.885-.086,3.6-.086c1.6,0,3.053-.467,3.671-3.658,1.768-9.118-2.418-20.056-7.1-27.684l.592-.354c0-9.6-2.375-58.989-14.844-58.989Z" fill="#7aabcc"/>
          </g>
          <g id="Group_1609" data-name="Group 1609">
            <path id="Path_2577" data-name="Path 2577" d="M528.484,738a7.3,7.3,0,0,1,2.807,1.6,25.323,25.323,0,0,1,2.32,2.278,39.47,39.47,0,0,1,3.824,5.23,58.641,58.641,0,0,1,3.1,5.683,50.462,50.462,0,0,1,2.43,6.009c.342,1.027.651,2.066.915,3.117s.5,2.11.681,3.182c.1.535.18,1.071.237,1.613.073.539.127,1.08.158,1.625a26.042,26.042,0,0,1,.053,3.27,23.594,23.594,0,0,1-.358,3.262,6.559,6.559,0,0,1-1.3,3.2,3.166,3.166,0,0,1-1.6.991,7.08,7.08,0,0,1-1.717.159l-3.209.068h-.054l-.061-.012a1.923,1.923,0,0,0-.69-.014.331.331,0,0,0-.122.046,2.8,2.8,0,0,1-.333.371,3.445,3.445,0,0,1-1.973.757,35.98,35.98,0,0,1-3.7.054l-7.281-.144-.455-.01c-.241,0-.328-.022-.5-.032l-.908-.074c-.318-.062-.648-.154-.971-.234l-.485-.126-.446-.2-.886-.407c-.274-.172-.534-.367-.8-.551a8.042,8.042,0,0,1-1.43-1.3,13.566,13.566,0,0,1-1.116-1.571c-.3-.56-.53-1.16-.794-1.74a15.79,15.79,0,0,1-.765-3.688l-.1-.934.012-.933.033-1.864.225-1.841a13.638,13.638,0,0,1,.293-1.827l.405-1.8a14.608,14.608,0,0,1,.469-1.78c.379-1.165.693-2.355,1.125-3.5l1.329-3.419c.491-1.118,1.025-2.216,1.56-3.313a34.626,34.626,0,0,1,1.741-3.215c.609-1.055,1.253-2.091,1.909-3.114-.458,1.132-.929,2.253-1.435,3.354l-.754,1.653-.691,1.678c-.451,1.122-.963,2.216-1.409,3.337L516.5,756.28c-.413,1.13-.706,2.3-1.065,3.444a14.43,14.43,0,0,0-.438,1.743l-.374,1.756c-.254,1.17-.321,2.361-.494,3.54l-.033,1.776-.014.888.1.875a14.644,14.644,0,0,0,.7,3.42c.241.522.438,1.07.707,1.574a12.51,12.51,0,0,0,.981,1.395,6.962,6.962,0,0,0,1.244,1.147c.231.16.456.333.692.486l.768.354.384.177.4.1c.265.066.519.148.794.209l.906.079c.132.009.347.034.41.031l.455.012,7.281.184c1.219,0,2.455.086,3.58-.027a2.555,2.555,0,0,0,1.385-.485,1.959,1.959,0,0,0,.271-.308,1.211,1.211,0,0,1,.665-.376,2.878,2.878,0,0,1,1.119.005l-.114-.01,3.209-.086a2.98,2.98,0,0,0,2.552-.809,3.793,3.793,0,0,0,.671-1.226c.091-.232.143-.462.212-.7.057-.274.118-.507.152-.766a22.73,22.73,0,0,0,.324-3.116,24.989,24.989,0,0,0-.069-3.143c-.032-.525-.087-1.048-.161-1.569-.058-.522-.142-1.042-.235-1.561-.173-1.039-.4-2.07-.667-3.092s-.562-2.037-.9-3.04a58.638,58.638,0,0,0-2.35-5.9,57.316,57.316,0,0,0-2.983-5.615,62.307,62.307,0,0,0-3.572-5.253,27.7,27.7,0,0,0-2.038-2.429A8.527,8.527,0,0,0,528.484,738Z" fill="#7aabcc"/>
          </g>
        </g>
      </g>
    </g>
  </g>
</svg>
