<svg xmlns="http://www.w3.org/2000/svg" xmlns:xlink="http://www.w3.org/1999/xlink" width="58" height="98" viewBox="0 0 58 98">
  <defs>
    <linearGradient id="linear-gradient" x1="0.5" y1="1" x2="0.5" gradientUnits="objectBoundingBox">
      <stop offset="0" stop-color="#fff"/>
      <stop offset="0.25" stop-color="#f2f7fa"/>
    </linearGradient>
    <clipPath id="clip-path">
      <path id="SVGID" d="M1136.926,753.635c-.4-1.83-1.884-8.807-1.884-12.5,0-4.272,3.972-10.253,3.972-20.932,0-4.531-1.76-9.023-3.972-12.958a7.18,7.18,0,0,0-.8-1.04c-1.138-4.72-3.292-7.714-5.071-8.626.158-1.515.715-3.68-.091-4.288-1.393-1.052-4.249.908-7.492,3.037-7.846.984-17.333,22.918-17.333,30.852,0,8.116.993,11.819.993,15.948a100.048,100.048,0,0,1-.993,10.964l.134-.067a17.306,17.306,0,0,0-1.35,7.045c0,2.976-2.946,5.6-1.763,9.967,1.458,5.385,6.579,9.06,10.923,8.971,1.872-.039,6.021-1.994,8.319-3.152a2.844,2.844,0,0,1,2.843.175,13.853,13.853,0,0,0,7.7,1.98c6.887,0,9.93-6.408,9.93-13.954C1141,761.177,1139.2,756.973,1136.926,753.635Z" transform="translate(-1101 -693)" fill="none"/>
    </clipPath>
  </defs>
  <g id="Regular15" transform="translate(-1092 -668)">
    <path id="Path_5187" data-name="Path 5187" d="M0,1H58V99H0Z" transform="translate(1092 667)" fill="none"/>
    <g id="Group_1484" data-name="Group 1484" transform="translate(1101 672)">
      <g id="Group_1482" data-name="Group 1482">
        <g id="Group_1468" data-name="Group 1468" transform="translate(15.175 81.029)">
          <ellipse id="Ellipse_36" data-name="Ellipse 36" cx="6.451" cy="3.985" rx="6.451" ry="3.985" transform="translate(0.5 0.5)" fill="#ebf2f7"/>
          <path id="Path_2438" data-name="Path 2438" d="M1123.126,775.029c3.226,0,5.951,1.6,5.951,3.486s-2.725,3.485-5.951,3.485-5.951-1.6-5.951-3.485,2.725-3.486,5.951-3.486m0-1c-3.839,0-6.951,2.008-6.951,4.486s3.112,4.485,6.951,4.485,6.951-2.008,6.951-4.485-3.112-4.486-6.951-4.486Z" transform="translate(-1116.175 -774.029)" fill="#7aabcc"/>
        </g>
        <g id="Group_1471" data-name="Group 1471" transform="translate(23.119 72.059)">
          <ellipse id="Ellipse_37" data-name="Ellipse 37" cx="7.94" cy="7.972" rx="7.94" ry="7.972" transform="translate(0.5 0.5)" fill="#ebf2f7"/>
          <g id="Group_1469" data-name="Group 1469" transform="translate(7.986 6.045)">
            <path id="Path_2439" data-name="Path 2439" d="M1135.014,771.1a3.474,3.474,0,0,1-2.454,5.9,3.24,3.24,0,0,1-.455-.046A3.409,3.409,0,0,0,1134.56,778a3.466,3.466,0,0,0,.454-6.9Z" transform="translate(-1132.105 -771.104)" fill="#d1e2ed"/>
          </g>
          <ellipse id="Ellipse_38" data-name="Ellipse 38" cx="3.44" cy="3.472" rx="3.44" ry="3.472" transform="translate(5 5)" fill="#ebf2f7"/>
          <ellipse id="Ellipse_39" data-name="Ellipse 39" cx="2.44" cy="2.472" rx="2.44" ry="2.472" transform="translate(6 5)" fill="url(#linear-gradient)"/>
          <g id="Group_1470" data-name="Group 1470" transform="translate(3 4)">
            <path id="Path_2440" data-name="Path 2440" d="M1129.119,773.531a3.46,3.46,0,0,1,3.441-3.472,3.585,3.585,0,0,1,.454.045,3.414,3.414,0,0,0-2.454-1.045,3.466,3.466,0,0,0-.455,6.9A3.475,3.475,0,0,1,1129.119,773.531Z" transform="translate(-1127.119 -769.059)" fill="#fff"/>
          </g>
          <path id="Path_2441" data-name="Path 2441" d="M1132.56,766.059a7.472,7.472,0,1,1-7.441,7.472,7.465,7.465,0,0,1,7.441-7.472m0-1a8.472,8.472,0,1,0,8.44,8.472,8.456,8.456,0,0,0-8.44-8.472Z" transform="translate(-1124.119 -765.059)" fill="#7aabcc"/>
        </g>
        <g id="Group_1481" data-name="Group 1481">
          <g id="Group_1480" data-name="Group 1480" clip-path="url(#clip-path)">
            <g id="Group_1476" data-name="Group 1476" transform="translate(0 0)">
              <path id="Path_2442" data-name="Path 2442" d="M1112.048,779.511c-3.826,0-8.847-3.289-10.285-8.6-.678-2.5.083-4.385.82-6.205a9.765,9.765,0,0,0,.96-3.631,16.979,16.979,0,0,1,1.308-6.844l.557-1.27-.523.263a90.681,90.681,0,0,0,.867-10.091,50.551,50.551,0,0,0-.376-5.337,93.284,93.284,0,0,1-.617-10.611c0-7.764,9.389-29.414,16.9-30.356l.115-.014.485-.319c2.341-1.539,4.552-2.993,5.873-2.993a1.048,1.048,0,0,1,.655.192c.4.3.179,1.8.034,2.792-.054.364-.106.719-.14,1.045l-.035.341.305.156c1.6.818,3.7,3.7,4.813,8.3l.029.119.08.092a6.851,6.851,0,0,1,.737.957c2.593,4.612,3.908,8.889,3.908,12.713a46.436,46.436,0,0,1-2.623,14.874,21.761,21.761,0,0,0-1.349,6.058c0,3.707,1.451,10.586,1.9,12.606l.021.094.054.079c2.535,3.724,3.988,7.785,3.988,11.143,0,6.5-2.477,13.454-9.43,13.454a13.342,13.342,0,0,1-7.431-1.9,3.375,3.375,0,0,0-1.854-.557,3.318,3.318,0,0,0-1.488.354c-3.856,1.942-6.81,3.071-8.1,3.1Z" transform="translate(-1101 -693)" fill="#ebf2f7"/>
              <g id="Group_1473" data-name="Group 1473" transform="translate(10.06 8.629)">
                <g id="Group_1472" data-name="Group 1472">
                  <path id="Path_2443" data-name="Path 2443" d="M1126.1,772.849a7.839,7.839,0,0,0-7.83-.456,30.81,30.81,0,0,1-6.26,2.618,3.851,3.851,0,0,1-.952-.164,5.64,5.64,0,0,0,2.952,1.164,30.81,30.81,0,0,0,6.26-2.618,7.7,7.7,0,0,1,6.117-.372C1126.28,772.961,1126.184,772.9,1126.1,772.849Z" transform="translate(-1111.06 -701.629)" fill="#d1e2ed"/>
                  <path id="Path_2444" data-name="Path 2444" d="M1112.246,744.49c-.007.646-.029,1.327-.069,2.038l1.235-.62,1.127-2.569Z" transform="translate(-1111.06 -701.629)" fill="#d1e2ed"/>
                  <path id="Path_2445" data-name="Path 2445" d="M1134.792,757.448l-.542-.8-.208-.941c-.6-2.732-2-9.525-2-13.573a25.047,25.047,0,0,1,1.554-7.4,42.6,42.6,0,0,0,2.418-13.534c0-3.011-1.1-6.5-3.262-10.386-.077-.1-.173-.21-.279-.332l-.8-.922-.286-1.186c-.84-3.482-2.192-5.09-2.562-5.384l-2.666-1.366-.021.015.687.351c.37.294,1.722,1.9,2.562,5.384l.286,1.186.8.922c.106.122.2.233.279.332,2.165,3.882,3.262,7.375,3.262,10.386a42.6,42.6,0,0,1-2.418,13.534,25.047,25.047,0,0,0-1.554,7.4c0,4.048,1.4,10.841,2,13.573l.208.941.542.8c2.009,2.951,3.208,6.17,3.208,8.611,0,2.692-.48,8.954-4.93,8.954a11.088,11.088,0,0,1-3.65-.543,7.736,7.736,0,0,1,.682.379,9.013,9.013,0,0,0,4.968,1.164c4.45,0,4.93-6.262,4.93-8.954C1138,763.618,1136.8,760.4,1134.792,757.448Z" transform="translate(-1111.06 -701.629)" fill="#d1e2ed"/>
                </g>
              </g>
              <path id="Path_2446" data-name="Path 2446" d="M1112.012,775.011c-1.888-.025-5.026-2.029-5.906-5.278-.259-.958-.041-1.639.648-3.343a13.8,13.8,0,0,0,1.289-5.318,12.532,12.532,0,0,1,.929-5.037l5.567-12.7-4.362,2.189c.047-.841.075-1.654.075-2.4a54.735,54.735,0,0,0-.4-5.8,88.127,88.127,0,0,1-.593-10.143c0-2.628,1.76-8.936,5.022-15.451,3.7-7.394,6.958-10.229,7.954-10.443l1.151-.144.772-.515,2.666,1.366c.37.294,1.722,1.9,2.562,5.384l.286,1.187.8.921c.106.122.2.233.279.332,2.164,3.882,3.262,7.376,3.262,10.386a42.582,42.582,0,0,1-2.419,13.535,25.062,25.062,0,0,0-1.553,7.4c0,4.047,1.4,10.84,2,13.573l.207.941.542.8c2.009,2.952,3.208,6.171,3.208,8.611,0,2.692-.48,8.954-4.93,8.954a9,9,0,0,1-4.968-1.165,7.84,7.84,0,0,0-7.829-.455A30.83,30.83,0,0,1,1112.012,775.011Z" transform="translate(-1101 -693)" fill="#ebf2f7"/>
              <path id="Path_2447" data-name="Path 2447" d="M1111.923,773.008c-1.545-.092-4.121-1.839-4.851-4.537-.166-.611-.075-1.015.609-2.706a14.632,14.632,0,0,0,1.362-5.693,11.558,11.558,0,0,1,.845-4.636l6.68-15.235-5.324,2.673c.005-.254.008-.5.008-.744a55.4,55.4,0,0,0-.406-5.909,87.455,87.455,0,0,1-.587-10.039c0-6.709,8.169-23.364,12.2-24.913l1.265-.159.5-.326,2.033,1.041a10.865,10.865,0,0,1,2.162,4.789l.344,1.424s1.1,1.268,1.162,1.341c2.054,3.7,3.1,7.006,3.1,9.826a41.186,41.186,0,0,1-2.373,13.237,26.159,26.159,0,0,0-1.6,7.7c0,4.145,1.415,11.023,2.024,13.788l.249,1.13.65.956c1.9,2.792,3.035,5.8,3.035,8.048,0,1.866-.283,7.954-3.93,7.954a8.1,8.1,0,0,1-4.421-1,8.836,8.836,0,0,0-8.826-.512A33.227,33.227,0,0,1,1111.923,773.008Z" transform="translate(-1101 -693)" fill="url(#linear-gradient)"/>
              <g id="Group_1475" data-name="Group 1475" transform="translate(3 6.629)">
                <g id="Group_1474" data-name="Group 1474">
                  <path id="Path_2448" data-name="Path 2448" d="M1106.106,769.732c-.259-.957-.041-1.638.648-3.341a13.816,13.816,0,0,0,1.288-5.32,12.529,12.529,0,0,1,.93-5.036l5.567-12.7-3.127,1.569-4.44,10.127a12.529,12.529,0,0,0-.93,5.036,13.816,13.816,0,0,1-1.288,5.32c-.689,1.7-.907,2.384-.648,3.341a7.6,7.6,0,0,0,4.954,5.115A7.568,7.568,0,0,1,1106.106,769.732Z" transform="translate(-1104 -699.629)" fill="#fff"/>
                  <path id="Path_2449" data-name="Path 2449" d="M1125.42,772.47a7.906,7.906,0,0,0-1.031-.449A6.707,6.707,0,0,0,1125.42,772.47Z" transform="translate(-1104 -699.629)" fill="#fff"/>
                  <path id="Path_2450" data-name="Path 2450" d="M1108.252,742.13c0,.744-.028,1.558-.075,2.4l2.069-1.038c0-.119.006-.245.006-.36a54.735,54.735,0,0,0-.4-5.8,88.142,88.142,0,0,1-.593-10.143c0-2.627,1.76-8.936,5.022-15.451,3.7-7.394,6.958-10.229,7.954-10.443l1.152-.144.75-.5-1.979-1.015-.771.515-1.152.144c-1,.214-4.251,3.049-7.954,10.443-3.262,6.515-5.022,12.824-5.022,15.451a88.142,88.142,0,0,0,.593,10.143A54.735,54.735,0,0,1,1108.252,742.13Z" transform="translate(-1104 -699.629)" fill="#fff"/>
                </g>
              </g>
              <path id="Path_2451" data-name="Path 2451" d="M1128.127,694a.61.61,0,0,1,.321.068,7.34,7.34,0,0,1-.126,2.343c-.054.371-.108.734-.142,1.066l-.072.681.61.313c1.5.766,3.485,3.528,4.556,7.97l.057.238.16.184a6.563,6.563,0,0,1,.679.874c2.551,4.536,3.844,8.731,3.844,12.468a46.039,46.039,0,0,1-2.6,14.726,22.044,22.044,0,0,0-1.372,6.206c0,3.757,1.46,10.68,1.907,12.713l.042.188.108.159c2.479,3.645,3.9,7.6,3.9,10.862a17.37,17.37,0,0,1-2.226,9.269,7.527,7.527,0,0,1-6.7,3.685,12.861,12.861,0,0,1-7.157-1.817,3.879,3.879,0,0,0-2.128-.638,3.818,3.818,0,0,0-1.713.407c-3.738,1.883-6.687,3.02-7.889,3.045l-.135,0c-3.642,0-8.426-3.149-9.8-8.235-.634-2.34.095-4.143.8-5.887a10.267,10.267,0,0,0,1-3.819,16.48,16.48,0,0,1,1.267-6.642l1.116-2.544-.922.464a84.66,84.66,0,0,0,.749-9.219,51,51,0,0,0-.378-5.388,92.786,92.786,0,0,1-.615-10.56c0-7.442,9.33-28.965,16.458-29.86l.23-.029.194-.127.388-.255c2.176-1.431,4.427-2.911,5.6-2.911m0-1c-1.547,0-3.915,1.609-6.535,3.33-7.846.984-17.333,22.918-17.333,30.852,0,8.117.993,11.819.993,15.948a100.047,100.047,0,0,1-.993,10.965l.134-.068a17.3,17.3,0,0,0-1.351,7.044c0,2.977-2.944,5.6-1.762,9.968,1.44,5.32,6.458,8.973,10.768,8.973l.155,0c1.872-.038,6.021-1.994,8.319-3.152a2.8,2.8,0,0,1,1.263-.3,2.885,2.885,0,0,1,1.58.475,13.862,13.862,0,0,0,7.7,1.98c6.887,0,9.93-6.408,9.93-13.954,0-3.882-1.8-8.085-4.074-11.424-.4-1.83-1.884-8.807-1.884-12.5,0-4.272,3.972-10.252,3.972-20.932,0-4.531-1.76-9.023-3.972-12.958a7.18,7.18,0,0,0-.8-1.04c-1.138-4.72-3.292-7.714-5.072-8.626.159-1.516.716-3.681-.09-4.288a1.542,1.542,0,0,0-.957-.293Z" transform="translate(-1101 -693)" fill="#7aabcc"/>
            </g>
            <g id="Group_1477" data-name="Group 1477" transform="translate(20.557 3.763)">
              <path id="Path_2452" data-name="Path 2452" d="M1121.557,731.045s.266-1.263.869-3.416c.3-1.078.678-2.379,1.128-3.864s.959-3.159,1.405-5a22.866,22.866,0,0,0,.541-2.861c.023-.235.029-.49.039-.7-.015-.258-.012-.537-.035-.783a10.984,10.984,0,0,0-.223-1.513,25.642,25.642,0,0,0-.982-3.158,10.242,10.242,0,0,1-.731-3.636,17.96,17.96,0,0,1,.522-3.716,13.87,13.87,0,0,1,1.356-3.634,4.588,4.588,0,0,1,1.389-1.6,2.4,2.4,0,0,1,1.146-.388l.078-.009c.042,0-.039-.009.1,0l.03,0,.118.017.235.033a2.7,2.7,0,0,1,.558.172,5.258,5.258,0,0,1,1.731,1.224,6.544,6.544,0,0,1,.672.756,7.26,7.26,0,0,1,.59.807,20.208,20.208,0,0,1,2.864,7.229,33.049,33.049,0,0,1,.616,7.46,102.252,102.252,0,0,1-1.262,13.094c-.567,3.8-1.121,6.943-1.582,9.128-.223,1.094-.4,1.954-.518,2.54-.1.593-.151.909-.151.909s-.045-.319-.063-.925a25.915,25.915,0,0,1,.085-2.614c.149-2.245.646-5.4,1.17-9.189a126.323,126.323,0,0,0,1.211-12.961,31.974,31.974,0,0,0-.54-7.231,19.239,19.239,0,0,0-2.657-6.879,6.518,6.518,0,0,0-.545-.734,5.677,5.677,0,0,0-.6-.669,4.371,4.371,0,0,0-1.36-.976c-.121-.03-.167-.108-.346-.118l-.237-.031-.117-.016-.03,0c.122.007.022,0,.045.008l-.04.008a1.358,1.358,0,0,0-.628.226,3.6,3.6,0,0,0-1.045,1.254,12.812,12.812,0,0,0-1.217,3.357,16.841,16.841,0,0,0-.468,3.5c-.021,2.18,1.265,4.273,1.71,6.523a11.977,11.977,0,0,1,.25,1.7c.026.285.022.536.031.8-.012.313-.026.579-.056.857a24.123,24.123,0,0,1-.612,3,67.031,67.031,0,0,1-2.949,8.823c-.431,1.036-.814,1.832-1.078,2.374S1121.557,731.045,1121.557,731.045Z" transform="translate(-1121.557 -696.763)" fill="#7aabcc"/>
            </g>
            <g id="Group_1478" data-name="Group 1478" transform="translate(2.696 2.745)">
              <path id="Path_2453" data-name="Path 2453" d="M1104.259,754.094s.017-.4.048-1.153.088-1.852.175-3.246c.065-1.4.177-3.089.243-5.018a40.018,40.018,0,0,0-.346-6.457c-.265-2.382-.549-4.991-.627-7.758-.028-1.392-.106-2.782-.01-4.276a27.039,27.039,0,0,1,.807-4.45,60.7,60.7,0,0,1,3.083-8.8,62.44,62.44,0,0,1,4.45-8.526,25.143,25.143,0,0,1,6.35-7.327,7.8,7.8,0,0,1,2.248-1.109l.625-.157.651-.059.163-.014.186.009.29.019a2.916,2.916,0,0,1,.653.107,2.455,2.455,0,0,1,1.932,1.939,6.16,6.16,0,0,1-.049,2.484,23.789,23.789,0,0,1-1.408,4.3c-.558,1.348-1.152,2.637-1.73,3.886a62.247,62.247,0,0,0-3,7.046,6.7,6.7,0,0,0-.3,1.593c-.014.528.02,1.119.058,1.623.086,1.066.243,2.083.383,3.037.309,1.907.623,3.571.873,4.946.544,2.74.811,4.329.811,4.329s-.16-.37-.411-1.08-.625-1.749-1.017-3.1a46.319,46.319,0,0,1-1.213-4.931c-.186-.967-.341-2-.45-3.116-.049-.584-.089-1.114-.082-1.734a7.719,7.719,0,0,1,.323-1.863,55.111,55.111,0,0,1,3-7.227c.579-1.245,1.169-2.522,1.717-3.84a23.5,23.5,0,0,0,1.358-4.08,5.157,5.157,0,0,0,.071-2.014,1.387,1.387,0,0,0-1.111-1.14,5.015,5.015,0,0,0-3.978,1.023,24.248,24.248,0,0,0-6.1,6.986,61.469,61.469,0,0,0-4.326,8.41,59.533,59.533,0,0,0-2.977,8.655,27.362,27.362,0,0,0-.76,4.233c-.091,1.388-.012,2.826.018,4.18.1,2.731.321,5.3.562,7.688a38.384,38.384,0,0,1,.256,6.61,48.143,48.143,0,0,1-.579,5.044c-.214,1.388-.433,2.47-.6,3.206S1104.259,754.094,1104.259,754.094Z" transform="translate(-1103.696 -695.745)" fill="#7aabcc"/>
            </g>
            <g id="Group_1479" data-name="Group 1479" transform="translate(-0.558 54.784)">
              <path id="Path_2454" data-name="Path 2454" d="M1109.994,748.114a8.52,8.52,0,0,0-1.057.663,12.263,12.263,0,0,0-2.456,2.442,14.351,14.351,0,0,0-2.286,4.779c-.127.5-.222,1.023-.346,1.555q-.1.818-.214,1.68-.031.872-.065,1.788a7.113,7.113,0,0,1-.339,2.042c-.41,1.316-1.021,2.521-1.369,3.819a8.8,8.8,0,0,0-.29,1.981,7.956,7.956,0,0,0,.249,2.01,12.17,12.17,0,0,0,5.3,7.044,9.844,9.844,0,0,0,4.408,1.529,5.67,5.67,0,0,0,2.305-.3c.787-.239,1.574-.538,2.357-.86s1.562-.672,2.339-1.036l1.162-.558.579-.286a3.388,3.388,0,0,1,3.58.337,10.7,10.7,0,0,0,2.259,1.037,15.891,15.891,0,0,0,4.957.719c.429-.031.874-.043,1.29-.09.389-.091.781-.125,1.166-.25a7.444,7.444,0,0,0,2.18-1.018,9.051,9.051,0,0,0,3.057-3.652,16.5,16.5,0,0,0,1.384-4.592,23.057,23.057,0,0,0,.256-4.688,16.6,16.6,0,0,0-.928-4.332,26.824,26.824,0,0,0-3.925-7.234,16.789,16.789,0,0,0-2.458-2.685,6.027,6.027,0,0,0-2.833-1.152,16.438,16.438,0,0,0-5.3.368c-1.476.323-2.637.632-3.433.824s-1.222.295-1.222.295.4-.189,1.154-.5a33.189,33.189,0,0,1,3.342-1.236,13.836,13.836,0,0,1,5.586-.715,6.677,6.677,0,0,1,3.377,1.338,17.747,17.747,0,0,1,2.631,2.808,26.5,26.5,0,0,1,4.147,7.518,17.634,17.634,0,0,1,.982,4.658,23.435,23.435,0,0,1-.283,4.908,17.525,17.525,0,0,1-1.509,4.9,10.123,10.123,0,0,1-3.441,4.05,8.488,8.488,0,0,1-2.484,1.143,13.381,13.381,0,0,1-1.372.279c-.444.046-.869.055-1.3.084a16.8,16.8,0,0,1-5.332-.795,11.721,11.721,0,0,1-2.487-1.129,2.451,2.451,0,0,0-2.076-.461,2.4,2.4,0,0,0-.5.188l-.585.293-1.175.571c-.787.374-1.578.733-2.379,1.069s-1.612.649-2.453.908a6.8,6.8,0,0,1-2.689.359,10.935,10.935,0,0,1-4.917-1.666,13.25,13.25,0,0,1-5.8-7.645,8.5,8.5,0,0,1,.041-4.631c.4-1.425,1.049-2.663,1.424-3.841a5.987,5.987,0,0,0,.312-1.726q.045-.96.089-1.874.126-.909.246-1.77c.134-.566.245-1.121.4-1.645a12.5,12.5,0,0,1,2.731-4.922,9.871,9.871,0,0,1,2.836-2.215A5.114,5.114,0,0,1,1109.994,748.114Z" transform="translate(-1100.442 -747.784)" fill="#7aabcc"/>
            </g>
          </g>
        </g>
      </g>
    </g>
  </g>
</svg>
