<svg xmlns="http://www.w3.org/2000/svg" xmlns:xlink="http://www.w3.org/1999/xlink" width="58" height="87" viewBox="0 0 58 87">
  <defs>
    <clipPath id="clip-path">
      <path id="SVGID" d="M-1028.485,561.991c0-2.4,11.859-24.991-1.005-24.991-5.433,0-6.524,1.477-7.291,2.642a1.772,1.772,0,0,1-2.712.286,10.206,10.206,0,0,0-7.081-2.928c-3.7,0-7.194,2-8.923,3.173a1.892,1.892,0,0,1-2.022.066,3.744,3.744,0,0,0-3.124-.24c-4.527,1.443-4.123,7.356-2.729,13.281.837,3.554,2.241,7.065,2.729,9.711.8,4.336,0,15.145,0,20.993,0,8.129-8.214,23.679-9.044,25.991-1.36,3.784-1.6,6.32,4.019,6,3.886-.222,16.575-23.843,20.758-31.493a1.082,1.082,0,0,1,2,.261c.588,2.41,1.949,6.324,2.368,9.24a18.91,18.91,0,0,1-1.005,8,45.2,45.2,0,0,0-2.01,8c-.2,2.4.2,5.6,5.025,1s10.049-11.8,10.049-18.993Z" fill="none"/>
    </clipPath>
    <linearGradient id="linear-gradient" x1="-168.373" y1="1" x2="-168.373" gradientUnits="objectBoundingBox">
      <stop offset="0" stop-color="#fff"/>
      <stop offset="0.25" stop-color="#f2f7fa"/>
    </linearGradient>
  </defs>
  <g id="_30Regular" data-name="30Regular" transform="translate(1076 -536)">
    <rect id="Rectangle_52" data-name="Rectangle 52" width="58" height="87" transform="translate(-1076 536)" fill="none"/>
    <g id="Group_370" data-name="Group 370">
      <g id="Group_369" data-name="Group 369" clip-path="url(#clip-path)">
        <g id="Group_368" data-name="Group 368">
          <path id="Path_614" data-name="Path 614" d="M-1066.577,615.5c-1.654,0-2.675-.309-3.122-.944-.642-.912-.147-2.66.482-4.412.161-.449.653-1.5,1.274-2.837,2.532-5.433,7.8-16.736,7.8-23.323,0-1.828.079-4.148.162-6.6.182-5.368.388-11.452-.17-14.48a44.444,44.444,0,0,0-1.33-4.836c-.5-1.589-1.012-3.233-1.4-4.9-1.782-7.569-1.021-11.6,2.394-12.69a4.023,4.023,0,0,1,1.212-.2,2.967,2.967,0,0,1,1.509.4,2.427,2.427,0,0,0,1.213.328,2.384,2.384,0,0,0,1.341-.413c1.7-1.153,5.088-3.087,8.642-3.087a9.781,9.781,0,0,1,6.735,2.788,2.281,2.281,0,0,0,1.589.643,2.25,2.25,0,0,0,1.886-1.014c.672-1.02,1.593-2.417,6.874-2.417,2.121,0,3.583.623,4.471,1.9,2.773,4-.8,13.531-2.714,18.652a17.281,17.281,0,0,0-1.252,3.936v29.99c0,8.536-7.573,16.419-9.894,18.631-2.007,1.914-2.986,2.2-3.39,2.2h0a.539.539,0,0,1-.429-.176,3.97,3.97,0,0,1-.363-2.62,44.746,44.746,0,0,1,1.982-7.868,19.381,19.381,0,0,0,1.03-8.239,51.081,51.081,0,0,0-1.586-6.438c-.307-1.057-.594-2.039-.792-2.85a1.559,1.559,0,0,0-1.54-1.2,1.554,1.554,0,0,0-1.382.82l-.684,1.253c-4.018,7.367-16.248,29.785-19.663,29.981C-1066.008,615.491-1066.3,615.5-1066.577,615.5Z" fill="#ebf2f7"/>
          <g id="Group_365" data-name="Group 365">
            <g id="Group_364" data-name="Group 364">
              <path id="Path_615" data-name="Path 615" d="M-1043.968,578.918a6.075,6.075,0,0,0-5.329,3.162l-.685,1.257c-1.712,3.138-3.266,5.937-4.676,8.434a81.619,81.619,0,0,1-3.951,11.171c2.595-4.228,6.045-10.207,10.627-18.605l.685-1.257a6.075,6.075,0,0,1,5.329-3.162,6.081,6.081,0,0,1,1.713.263A6.075,6.075,0,0,0-1043.968,578.918Z" fill="#d1e2ed"/>
              <path id="Path_616" data-name="Path 616" d="M-1042.958,543.531a6.777,6.777,0,0,0,2.735,1.607,6.814,6.814,0,0,1-.735-.607,5.458,5.458,0,0,0-2.456-1.391C-1043.247,543.271-1043.092,543.4-1042.958,543.531Z" fill="#d1e2ed"/>
              <path id="Path_617" data-name="Path 617" d="M-1026.657,543.083a3.312,3.312,0,0,0-.832-.083c-.359,0-.668.01-.956.023.138,1.772-.543,5.552-3.5,13.455-1.056,2.819-1.537,4.106-1.537,5.513v29.99a11.141,11.141,0,0,1-.177,1.917c.019.123.049.25.066.372a21.367,21.367,0,0,1-.184,6.225,15.891,15.891,0,0,0,2.3-7.514v-29.99c0-1.407.481-2.694,1.537-5.513C-1026.3,547.731-1026.112,544.254-1026.657,543.083Z" fill="#d1e2ed"/>
            </g>
          </g>
          <path id="Path_618" data-name="Path 618" d="M-1060.609,601.942c2.829-6.677,4.966-13.057,4.966-17.958,0-1.752.077-4.035.159-6.452.2-5.87.405-11.939-.242-15.447a47.276,47.276,0,0,0-1.461-5.365c-.473-1.513-.963-3.078-1.318-4.586-1.071-4.549-.849-6.46-.66-7.147a6.911,6.911,0,0,0,2.608.513,6.873,6.873,0,0,0,3.865-1.187,12,12,0,0,1,6.118-2.313,5.207,5.207,0,0,1,3.616,1.532,6.765,6.765,0,0,0,4.709,1.9,6.743,6.743,0,0,0,5.643-3.038l.044-.068a10.02,10.02,0,0,1,3.072-.325,3.315,3.315,0,0,1,.833.083c.545,1.171.359,4.648-3.29,14.4-1.056,2.819-1.538,4.106-1.538,5.513v29.99a15.886,15.886,0,0,1-2.294,7.514,21.374,21.374,0,0,0,.184-6.226,54.178,54.178,0,0,0-1.719-7.057c-.287-.986-.556-1.9-.741-2.659a6.069,6.069,0,0,0-5.912-4.634,6.074,6.074,0,0,0-5.33,3.161l-.686,1.257C-1054.565,591.736-1058.014,597.714-1060.609,601.942Z" fill="#ebf2f7"/>
          <path id="Path_619" data-name="Path 619" d="M-1034.6,592.127a54.893,54.893,0,0,0-1.749-7.194c-.283-.971-.548-1.872-.73-2.617a7.065,7.065,0,0,0-6.883-5.4,7.072,7.072,0,0,0-6.207,3.681l-.687,1.258c-1.884,3.453-3.574,6.493-5.089,9.166a30.57,30.57,0,0,0,1.307-8.04c0-1.735.077-4.01.159-6.418.2-5.923.408-12.048-.258-15.662a48.166,48.166,0,0,0-1.49-5.482c-.469-1.5-.953-3.044-1.3-4.517a23.087,23.087,0,0,1-.785-5.6,7.928,7.928,0,0,0,1.759.2,7.859,7.859,0,0,0,4.425-1.359,11.012,11.012,0,0,1,5.558-2.141,4.226,4.226,0,0,1,2.923,1.253,7.759,7.759,0,0,0,5.4,2.178,7.737,7.737,0,0,0,6.308-3.241,12.066,12.066,0,0,1,2.451-.19h.013c.25,2.007-.893,6.413-3.407,13.127-1.066,2.847-1.6,4.276-1.6,5.864v29.99a9.831,9.831,0,0,1-.094,1.339C-1034.587,592.255-1034.6,592.191-1034.6,592.127Z" fill="url(#linear-gradient)"/>
          <g id="Group_367" data-name="Group 367">
            <g id="Group_366" data-name="Group 366">
              <path id="Path_620" data-name="Path 620" d="M-1035.661,592.9a57.752,57.752,0,0,0-1.653-6.686c-.288-.986-.556-1.9-.741-2.659a6.046,6.046,0,0,0-4.2-4.372,6.054,6.054,0,0,1,2.2,3.372c.185.757.453,1.673.741,2.659a54.152,54.152,0,0,1,1.719,7.058,21.367,21.367,0,0,1-.184,6.225A18.186,18.186,0,0,0-1035.661,592.9Z" fill="#fff"/>
              <path id="Path_621" data-name="Path 621" d="M-1038.249,545.431a6.741,6.741,0,0,0,5.643-3.037c.014-.023.029-.045.043-.069a8.055,8.055,0,0,1,2.118-.3,2.8,2.8,0,0,0-.212-.94,3.312,3.312,0,0,0-.832-.083,10.068,10.068,0,0,0-3.074.325c-.014.024-.029.046-.043.069a6.741,6.741,0,0,1-5.643,3.037,6.827,6.827,0,0,1-1.974-.293A6.753,6.753,0,0,0-1038.249,545.431Z" fill="#fff"/>
              <path id="Path_622" data-name="Path 622" d="M-1057.643,582.983c0,4.9-2.137,11.282-4.966,17.959,1.626-2.648,3.587-5.984,5.951-10.171a27.943,27.943,0,0,0,1.015-6.788c0-1.751.078-4.034.16-6.451.2-5.87.4-11.939-.243-15.447a47.276,47.276,0,0,0-1.461-5.365c-.473-1.513-.962-3.078-1.318-4.586-1.071-4.549-.849-6.46-.66-7.147a6.911,6.911,0,0,0,2.608.513,6.873,6.873,0,0,0,3.865-1.187,11.992,11.992,0,0,1,6.118-2.313,4.845,4.845,0,0,1,1.16.14,5.046,5.046,0,0,0-3.16-1.14,11.992,11.992,0,0,0-6.118,2.313,6.873,6.873,0,0,1-3.865,1.187,6.911,6.911,0,0,1-2.608-.513c-.189.687-.411,2.6.66,7.147.356,1.508.845,3.073,1.318,4.586a47.276,47.276,0,0,1,1.461,5.365c.647,3.508.441,9.577.243,15.447C-1057.565,578.949-1057.643,581.232-1057.643,582.983Z" fill="#fff"/>
            </g>
          </g>
          <path id="Path_623" data-name="Path 623" d="M-1029.489,538c1.944,0,3.272.552,4.059,1.688,2.624,3.784-.885,13.157-2.771,18.192a16.433,16.433,0,0,0-1.283,4.111v29.99c0,8.336-7.455,16.091-9.741,18.269-2.005,1.913-2.838,2.062-3.045,2.062a.267.267,0,0,1-.048,0h0c-.086-.059-.381-.616-.245-2.25a44.963,44.963,0,0,1,1.955-7.74,19.954,19.954,0,0,0,1.054-8.48,51.347,51.347,0,0,0-1.6-6.509c-.3-1.045-.591-2.032-.785-2.826a2.08,2.08,0,0,0-2.028-1.585,2.047,2.047,0,0,0-1.819,1.081l-.679,1.243c-2.412,4.422-6.448,11.821-10.4,18.249-6.653,10.821-8.548,11.464-8.861,11.483s-.585.026-.851.026c-1.438,0-2.376-.253-2.713-.731-.515-.732.02-2.5.544-3.956.153-.427.64-1.471,1.256-2.792,2.547-5.466,7.847-16.838,7.847-23.538,0-1.818.079-4.134.162-6.586.182-5.394.389-11.506-.178-14.588a44.736,44.736,0,0,0-1.345-4.892c-.495-1.582-1.007-3.218-1.394-4.867-1.71-7.262-1.056-11.106,2.059-12.1a3.511,3.511,0,0,1,1.061-.179,2.475,2.475,0,0,1,1.257.331,2.924,2.924,0,0,0,1.463.4,2.881,2.881,0,0,0,1.622-.5c1.655-1.121,4.942-3,8.363-3a9.135,9.135,0,0,1,6.387,2.648,2.78,2.78,0,0,0,1.936.783,2.752,2.752,0,0,0,2.3-1.239c.61-.925,1.445-2.192,6.457-2.192m0-1c-5.434,0-6.525,1.478-7.292,2.642a1.752,1.752,0,0,1-1.469.789,1.785,1.785,0,0,1-1.242-.5,10.213,10.213,0,0,0-7.081-2.928c-3.7,0-7.195,2-8.923,3.173a1.887,1.887,0,0,1-1.062.327,1.917,1.917,0,0,1-.962-.261,3.469,3.469,0,0,0-1.758-.466,4.48,4.48,0,0,0-1.365.226c-4.527,1.442-4.124,7.356-2.729,13.28.837,3.555,2.241,7.066,2.729,9.712.8,4.336,0,15.145,0,20.992,0,8.13-8.213,23.68-9.045,25.992-1.281,3.567-1.567,6.025,3.111,6.025.285,0,.587-.009.909-.027,3.886-.223,16.575-23.845,20.758-31.494a1.057,1.057,0,0,1,.942-.561,1.071,1.071,0,0,1,1.056.822c.589,2.409,1.949,6.324,2.368,9.24a18.917,18.917,0,0,1-1.005,8,45.144,45.144,0,0,0-2.01,8c-.127,1.509-.013,3.337,1.289,3.337.768,0,1.949-.634,3.736-2.338,4.823-4.6,10.05-11.8,10.05-18.993v-29.99c0-2.4,11.858-24.991-1.005-24.991Z" fill="#7aabcc"/>
        </g>
        <path id="Path_624" data-name="Path 624" d="M-1047.579,587.982a36.672,36.672,0,0,0,3.015-8" fill="none" stroke="#7aabcc" stroke-miterlimit="10" stroke-width="1" fill-rule="evenodd"/>
        <path id="Path_625" data-name="Path 625" d="M-1040.568,593.822c-.444-2.9-1.264-6.716-1.842-9.082-1.038-4.25-2.418-8.359-2.418-12.547" fill="none" stroke="#7aabcc" stroke-miterlimit="10" stroke-width="1" fill-rule="evenodd"/>
        <path id="Path_626" data-name="Path 626" d="M-1039.922,562.433a4.182,4.182,0,0,0-3.574.435,4.135,4.135,0,0,0-1.85,3.072" fill="none" stroke="#7aabcc" stroke-miterlimit="10" stroke-width="1" fill-rule="evenodd"/>
        <path id="Path_627" data-name="Path 627" d="M-1055.351,561.985l-.137.026a5.549,5.549,0,0,0-2.254.947c-2.272,1.663-2.37,4.217-2.427,6.618" fill="none" stroke="#7aabcc" stroke-miterlimit="10" stroke-width="1" fill-rule="evenodd"/>
        <path id="Path_628" data-name="Path 628" d="M-1044.56,563.782c-1.5,1.318-3.081-1.119-7.307-1.61" fill="none" stroke="#7aabcc" stroke-miterlimit="10" stroke-width="1" fill-rule="evenodd"/>
      </g>
    </g>
  </g>
</svg>
