<svg xmlns="http://www.w3.org/2000/svg" xmlns:xlink="http://www.w3.org/1999/xlink" width="58" height="110" viewBox="0 0 58 110">
  <defs>
    <linearGradient id="linear-gradient" x1="-13507.483" y1="1" x2="-13507.483" gradientUnits="objectBoundingBox">
      <stop offset="0" stop-color="#fff"/>
      <stop offset="0.25" stop-color="#f2f7fa"/>
    </linearGradient>
    <clipPath id="clip-path">
      <path id="SVGID" d="M367.222,777.005c1.81,1.1,3.3,3.886,7.7,3.988A10.983,10.983,0,0,0,383.1,785c5.708,0,13.9-7.5,13.9-12.992,0-9.572-1.582-15.132-4.894-19.616.173-7.826.446-31.515-2.054-47.345-2.276-14.408-6.442-22.848-7.941-21.987-3.5,2.009-1.365,18.489-4.963,24.985-1.485,2.681-4.963,7.628-4.963,11.993,0,9.87-1.586,26.89-1.986,34.98h.833C366.071,762.592,362.481,774,367.222,777.005Z" fill="none"/>
    </clipPath>
    <linearGradient id="linear-gradient-2" x1="-385.396" y1="1" x2="-385.396" y2="0" xlink:href="#linear-gradient"/>
  </defs>
  <g id="Regular5" transform="translate(-352 -678)">
    <rect id="Rectangle_249" data-name="Rectangle 249" width="58" height="110" transform="translate(352 678)" fill="none"/>
    <g id="Group_1636" data-name="Group 1636" transform="translate(0 -1)">
      <g id="Group_1634" data-name="Group 1634">
        <g id="Group_1625" data-name="Group 1625">
          <path id="Path_2587" data-name="Path 2587" d="M379.823,718.535c-.683-.009-2.381-.028-3.98-.028-.884,0-1.737.006-2.374.023-2.52-4.768-2.683-12.824-2.042-18.352.442-3.815,3.076-13.62,4.728-13.62,1.858,0,6.018,9.372,6.45,14.533C382.988,705.658,381.759,714.618,379.823,718.535Z" fill="#ebf2f7"/>
          <g id="Group_1623" data-name="Group 1623">
            <path id="Path_2588" data-name="Path 2588" d="M380.121,702.467a22.688,22.688,0,0,0-1.324-5.229c-.326,1.3-.6,2.565-.77,3.565.034.224.077.46.094.664a38.016,38.016,0,0,1-.441,7.639,28.641,28.641,0,0,0,.847,5.9h.17A44.526,44.526,0,0,0,380.121,702.467Z" fill="#d1e2ed"/>
          </g>
          <path id="Path_2589" data-name="Path 2589" d="M376.527,714.008a36.417,36.417,0,0,1,.27-17.77,22.739,22.739,0,0,1,1.324,5.229,44.555,44.555,0,0,1-1.423,12.542Z" fill="#ebf2f7"/>
          <path id="Path_2590" data-name="Path 2590" d="M376.717,707.778a42.974,42.974,0,0,1,.174-7.967c.016-.139.036-.291.06-.453a11.106,11.106,0,0,1,.173,1.193A35.547,35.547,0,0,1,376.717,707.778Z" fill="url(#linear-gradient)"/>
          <g id="Group_1624" data-name="Group 1624">
            <path id="Path_2591" data-name="Path 2591" d="M375.9,700.7c.031-.263.075-.563.13-.893a25.309,25.309,0,0,0-1.23-4.565,39.5,39.5,0,0,0-.9,4.458,38.9,38.9,0,0,0,.63,13.312h.17a41.56,41.56,0,0,0,.983-4.9A45.563,45.563,0,0,1,375.9,700.7Z" fill="#fff"/>
          </g>
          <path id="Path_2592" data-name="Path 2592" d="M376.181,687.068c.437.148,1.749,1.546,3.355,5.22a31.834,31.834,0,0,1,2.571,8.846c.369,4.4-.772,12.92-2.6,16.9-.81-.01-2.276-.023-3.666-.023-.837,0-1.531.005-2.073.015-2.332-4.7-2.467-12.435-1.847-17.788a55.1,55.1,0,0,1,1.69-7.52c1.4-4.711,2.382-5.529,2.567-5.647m-.026-1.009c-2.375,0-4.9,11.247-5.224,14.061-.641,5.529-.519,14,2.247,18.919.648-.023,1.635-.031,2.666-.031,2.058,0,4.282.031,4.282.031,2.139-3.992,3.356-13.47,2.978-17.989-.418-4.985-4.575-14.991-6.949-14.991Z" fill="#7aabcc"/>
        </g>
        <g id="Group_1633" data-name="Group 1633">
          <g id="Group_1632" data-name="Group 1632" clip-path="url(#clip-path)">
            <g id="Group_1630" data-name="Group 1630">
              <path id="Path_2593" data-name="Path 2593" d="M383.1,784.5a10.4,10.4,0,0,1-7.777-3.8l-.146-.2-.248-.006a8.293,8.293,0,0,1-5.909-2.68,10.79,10.79,0,0,0-1.542-1.236,4.278,4.278,0,0,1-1.788-2.858c-1.027-4.757,2.119-12.871,5.758-18.427l.506-.774h-1.231c.142-2.673.4-6.265.673-10.054.573-7.957,1.286-17.86,1.286-24.426,0-3.482,2.4-7.513,3.985-10.179.345-.581.659-1.11.915-1.571,1.825-3.3,2.218-9.056,2.564-14.139.328-4.8.666-9.768,2.211-10.655,1.084.017,4.983,7.609,7.2,21.631,2.517,15.934,2.2,40.2,2.048,47.255l0,.171.1.138c3.406,4.612,4.8,10.209,4.8,19.319C396.5,777.145,388.612,784.5,383.1,784.5Z" fill="#ebf2f7"/>
              <g id="Group_1627" data-name="Group 1627">
                <g id="Group_1626" data-name="Group 1626">
                  <path id="Path_2594" data-name="Path 2594" d="M377.514,776.052l-2.478-.058c-.159,0-.306-.015-.444-.03a3.363,3.363,0,0,0,2.444,1.03l1.181.027Z" fill="#d1e2ed"/>
                  <path id="Path_2595" data-name="Path 2595" d="M377.587,750.018c-.024.331-.049.677-.07,1h2.112l.655-1Z" fill="#d1e2ed"/>
                  <path id="Path_2596" data-name="Path 2596" d="M390.084,756.362l-1.015-1.374.038-1.707c.154-6.963.464-30.889-1.994-46.454-.3-1.9-.631-3.667-.974-5.291a42.129,42.129,0,0,1-.881,5.256c2.3,15.571,2,38.668,1.849,45.489l-.038,1.707,1.015,1.374c2.781,3.766,3.916,8.589,3.916,16.646,0,2.476-5.676,7.992-8.9,7.992a4.886,4.886,0,0,1-1.426-.261A6.518,6.518,0,0,0,385.1,781c3.22,0,8.9-5.516,8.9-7.992C394,764.951,392.865,760.128,390.084,756.362Z" fill="#d1e2ed"/>
                </g>
              </g>
              <path id="Path_2597" data-name="Path 2597" d="M383.1,780a6.157,6.157,0,0,1-4.134-1.942l-1.455-2.006-2.478-.058c-1.348-.031-1.865-.5-3-1.521a16.005,16.005,0,0,0-1.919-1.55c-.647-1.734.72-8.485,5.1-15.166l5.069-7.739h-4.768c.113-1.642.241-3.414.371-5.23.608-8.448,1.3-18.022,1.3-24.75,0-2.245,2.1-5.771,3.352-7.878.372-.626.709-1.195.985-1.692,1.5-2.715,2.2-6.214,2.616-9.932.345,1.624.674,3.389.975,5.291,2.459,15.565,2.148,39.492,1.994,46.454l-.037,1.707,1.014,1.374c2.781,3.766,3.916,8.589,3.916,16.646C392,774.484,386.324,780,383.1,780Z" fill="#ebf2f7"/>
              <path id="Path_2598" data-name="Path 2598" d="M383.1,778a5.218,5.218,0,0,1-3.325-1.529l-1.745-2.408-2.973-.069c-.944-.021-1.217-.239-2.351-1.263a18.759,18.759,0,0,0-1.692-1.405c-.291-1.947,1.065-7.96,5.035-14.021l6.082-9.287h-5.546c.093-1.331.194-2.731.3-4.159.609-8.464,1.3-18.057,1.3-24.821,0-1.97,2.01-5.348,3.211-7.367.378-.635.721-1.213,1-1.718a19.562,19.562,0,0,0,1.775-4.679c2.4,15.488,2.089,39.087,1.936,45.985l-.045,2.049,1.218,1.648c1.932,2.616,3.72,6.372,3.72,16.052C390.84,773.475,385.328,778,383.1,778Z" fill="url(#linear-gradient-2)"/>
              <g id="Group_1629" data-name="Group 1629">
                <g id="Group_1628" data-name="Group 1628">
                  <path id="Path_2599" data-name="Path 2599" d="M375.888,744.787c.607-8.447,1.3-18.021,1.3-24.749,0-2.245,2.1-5.771,3.352-7.879.372-.625.709-1.194.984-1.691a18.839,18.839,0,0,0,1.737-4.676c-.048-.323-.1-.648-.145-.965-.3-1.9-.631-3.667-.974-5.291-.414,3.718-1.114,7.217-2.618,9.932-.275.5-.612,1.066-.984,1.691-1.254,2.108-3.352,5.634-3.352,7.879,0,6.728-.69,16.3-1.3,24.749-.131,1.817-.259,3.589-.371,5.231h2.07Q375.73,746.979,375.888,744.787Z" fill="#fff"/>
                  <path id="Path_2600" data-name="Path 2600" d="M378.969,778.058l-1.455-2.006-1.3-.031.752,1.037a5.741,5.741,0,0,0,2.709,1.681A3.36,3.36,0,0,1,378.969,778.058Z" fill="#fff"/>
                  <path id="Path_2601" data-name="Path 2601" d="M372.039,774.474a15.9,15.9,0,0,0-1.919-1.55c-.647-1.736.72-8.486,5.1-15.167l5.069-7.739h-2.655l-4.414,6.739c-4.375,6.681-5.742,13.431-5.1,15.167a15.9,15.9,0,0,1,1.919,1.55,4.3,4.3,0,0,0,2.553,1.49C372.421,774.815,372.242,774.656,372.039,774.474Z" fill="#fff"/>
                </g>
              </g>
              <path id="Path_2602" data-name="Path 2602" d="M382.386,684.107c1.262,1.123,4.632,8.142,6.678,21.1,2.511,15.893,2.2,40.12,2.042,47.166l-.006.342.2.274c3.337,4.519,4.7,10.031,4.7,19.023,0,4.819-7.714,11.992-12.9,11.992a10.009,10.009,0,0,1-7.374-3.594l-.291-.4-.495-.012a7.87,7.87,0,0,1-5.587-2.552,11.123,11.123,0,0,0-1.6-1.281,3.8,3.8,0,0,1-1.575-2.547c-.756-3.5.954-10.822,5.686-18.048l1.014-1.547h-1.629c.145-2.606.389-5.978.643-9.522.574-7.964,1.288-17.875,1.288-24.458,0-3.345,2.355-7.305,3.915-9.924.347-.586.665-1.118.922-1.584,1.879-3.391,2.259-8.962,2.626-14.347.272-3.983.606-8.88,1.738-10.076M382.338,683a.456.456,0,0,0-.228.061c-3.5,2.008-1.364,18.488-4.963,24.985-1.484,2.68-4.962,7.627-4.962,11.992,0,9.869-1.586,26.89-1.986,34.98h.833c-4.961,7.575-8.551,18.978-3.81,21.987,1.81,1.1,3.3,3.886,7.7,3.988A10.986,10.986,0,0,0,383.1,785c5.707,0,13.9-7.495,13.9-12.992,0-9.572-1.582-15.132-4.894-19.616.173-7.827.447-31.515-2.054-47.345-2.17-13.734-6.057-22.046-7.714-22.047Z" fill="#7aabcc"/>
            </g>
            <g id="Group_1631" data-name="Group 1631">
              <path id="Path_2603" data-name="Path 2603" d="M379.133,748.022s-.167.065-.484.158a2.62,2.62,0,0,0-.532.237,4.7,4.7,0,0,0-.658.381,13.758,13.758,0,0,0-1.635,1.283,19.822,19.822,0,0,0-1.9,1.97,38.865,38.865,0,0,0-3.911,5.739,41.615,41.615,0,0,0-3.269,7.289,26.316,26.316,0,0,0-.955,3.921,14.475,14.475,0,0,0-.165,3.824,5.433,5.433,0,0,0,1.2,3.088,8.485,8.485,0,0,0,1.253,1.013c.484.388.861.759,1.241,1.108a11.244,11.244,0,0,0,2.143,1.627,9.9,9.9,0,0,0,1.886.833c.552.186,1.011.306,1.327.379s.491.13.491.13-.172.042-.5.092a5.675,5.675,0,0,1-1.449.039,6.134,6.134,0,0,1-2.205-.613,10.867,10.867,0,0,1-2.406-1.69c-.39-.341-.8-.711-1.193-1.01a7.751,7.751,0,0,1-1.425-1.149,6.451,6.451,0,0,1-1.469-3.73,15.537,15.537,0,0,1,.227-4.115,27.294,27.294,0,0,1,1.046-4.056,42.575,42.575,0,0,1,3.251-7.521,36.674,36.674,0,0,1,1.979-3.221,25.308,25.308,0,0,1,2.092-2.68,17.739,17.739,0,0,1,2.087-2.016,7,7,0,0,1,1.974-1.129,3.628,3.628,0,0,1,1.458-.248C378.957,747.988,379.133,748.022,379.133,748.022Z" fill="#7aabcc"/>
            </g>
          </g>
        </g>
      </g>
    </g>
  </g>
</svg>
