<svg xmlns="http://www.w3.org/2000/svg" xmlns:xlink="http://www.w3.org/1999/xlink" width="58" height="110" viewBox="0 0 58 110">
  <defs>
    <clipPath id="clip-path">
      <path id="SVGID" d="M445.432,753.352c.121-2.874.568-14.413.568-28.352,0-13.984,2.375-25.5-1-35-.956-2.691.982-4,2-4s4.054,3.639,5,5c4.372,6.288,12.863,39.638,12.863,43.656,0,8.25.621,20.177.751,22.594,2.6,4.9,4.386,10.115,4.386,12.75a8.989,8.989,0,0,1-4.935,8.111C464.076,784.355,461.09,788,455,788a5.024,5.024,0,0,1-5-4,14.22,14.22,0,0,1-10-14A29.615,29.615,0,0,1,445.432,753.352Z" fill="none"/>
    </clipPath>
    <linearGradient id="linear-gradient" x1="-436.944" y1="1" x2="-436.944" gradientUnits="objectBoundingBox">
      <stop offset="0" stop-color="#fff"/>
      <stop offset="0.25" stop-color="#f2f7fa"/>
    </linearGradient>
  </defs>
  <g id="Regular6" transform="translate(-426 -678)">
    <rect id="Rectangle_250" data-name="Rectangle 250" width="58" height="110" transform="translate(426 678)" fill="none"/>
    <g id="Group_1621" data-name="Group 1621" transform="translate(0 -4)">
      <g id="Group_1620" data-name="Group 1620">
        <g id="Group_1619" data-name="Group 1619" clip-path="url(#clip-path)">
          <g id="Group_1617" data-name="Group 1617">
            <path id="Path_2578" data-name="Path 2578" d="M455,787.5a4.5,4.5,0,0,1-4.509-3.594l-.059-.306-.3-.083A13.6,13.6,0,0,1,440.5,770a29.358,29.358,0,0,1,5.345-16.366l.08-.118.006-.143c.134-3.162.569-14.552.569-28.373,0-4.295.223-8.319.438-12.211.484-8.741.9-16.289-1.467-22.956a2.668,2.668,0,0,1,.162-2.505A1.909,1.909,0,0,1,447,686.5c.673.052,3.394,3.066,4.589,4.785,4.174,6,12.774,39.237,12.774,43.371,0,8.279.626,20.3.752,22.621l.006.11.052.1c2.548,4.8,4.327,9.944,4.327,12.515a8.463,8.463,0,0,1-4.677,7.674l-.214.118-.038.241C463.548,784.492,460.507,787.5,455,787.5Z" fill="#ebf2f7"/>
            <g id="Group_1614" data-name="Group 1614">
              <g id="Group_1613" data-name="Group 1613">
                <path id="Path_2579" data-name="Path 2579" d="M454.6,779.6l-3.311-.431c-.064-.02-.149-.046-.247-.08a8.883,8.883,0,0,0,2.247,1.08l1.379.179Z" fill="#d1e2ed"/>
                <path id="Path_2580" data-name="Path 2580" d="M463.2,760.595l-.517-.974-.06-1.1c-.126-2.345-.758-14.469-.757-22.806-.142-2.989-4.368-19.873-8.058-31.174-.011,1.641-.067,3.308-.142,4.993,3.121,10.526,6.081,22.687,6.2,25.181,0,8.337.631,20.461.757,22.806l.06,1.1.517.974c2.594,4.884,3.8,9.1,3.8,10.405a3.921,3.921,0,0,1-2.355,3.736l-2.137,1.182-.382,2.412c-.6,3.815-1.819,5.075-3.326,5.482l.1,1.158.014.028.082,0c2.313,0,4.3-.427,5.126-5.67l.382-2.412,2.137-1.182A3.921,3.921,0,0,0,467,771C467,769.691,465.792,765.479,463.2,760.595Z" fill="#d1e2ed"/>
              </g>
            </g>
            <path id="Path_2581" data-name="Path 2581" d="M454.918,783l-.013-.028L454.6,779.6l-3.311-.43c-1-.3-6.288-2.212-6.288-9.169a24.324,24.324,0,0,1,4.562-13.829l.8-1.18.06-1.428c.135-3.184.573-14.653.573-28.563,0-4.171.219-8.132.431-11.962.179-3.237.355-6.409.374-9.5,3.691,11.3,7.917,28.185,8.059,31.174,0,8.336.631,20.46.758,22.806l.059,1.1.517.974c2.594,4.884,3.8,9.1,3.8,10.405a3.921,3.921,0,0,1-2.355,3.736l-2.137,1.182-.382,2.412c-.83,5.243-2.813,5.67-5.126,5.67Z" fill="#ebf2f7"/>
            <path id="Path_2582" data-name="Path 2582" d="M455.175,778.043l-3.629-.84c-.852-.26-5.546-2-5.546-8.2a23.345,23.345,0,0,1,4.387-13.265l.967-1.417.072-1.713c.135-3.189.574-14.676.574-28.6,0-4.143.218-8.09.43-11.907q.1-1.818.192-3.608c.48,1.606.987,3.358,1.52,5.268,2.959,10.6,4.609,18.463,4.721,19.979,0,8.417.634,20.5.76,22.841l.071,1.322.621,1.169c2.592,4.881,3.679,8.88,3.685,9.936a2.953,2.953,0,0,1-1.839,2.861l-2.564,1.418-.459,2.894c-.656,4.146-1.957,4.731-3.411,4.813Z" fill="url(#linear-gradient)"/>
            <g id="Group_1616" data-name="Group 1616">
              <g id="Group_1615" data-name="Group 1615">
                <path id="Path_2583" data-name="Path 2583" d="M445,770a24.324,24.324,0,0,1,4.562-13.829l.8-1.181.061-1.427c.134-3.184.572-14.654.572-28.563,0-4.171.219-8.132.432-11.962.084-1.517.165-3.018.232-4.505-.62-2.092-1.247-4.12-1.858-5.993-.02,3.089-.2,6.261-.374,9.5-.213,3.83-.432,7.791-.432,11.962,0,13.909-.438,25.379-.572,28.563l-.061,1.427-.8,1.181A24.324,24.324,0,0,0,443,769c0,6.506,4.623,8.6,6.041,9.089A9.109,9.109,0,0,1,445,770Z" fill="#fff"/>
                <path id="Path_2584" data-name="Path 2584" d="M454.6,779.6l-1.932-.252.237,2.622.014.028.082,0a6.941,6.941,0,0,0,1.8-.188Z" fill="#fff"/>
              </g>
            </g>
            <path id="Path_2585" data-name="Path 2585" d="M446.937,687.006c.751.328,3.088,2.905,4.242,4.565,4.144,5.961,12.684,38.977,12.684,43.085,0,8.328.627,20.327.753,22.648l.012.22.1.2C467.2,762.378,469,767.542,469,770a7.983,7.983,0,0,1-4.419,7.236l-.428.237-.076.482C463.1,784.126,460.216,787,455,787a3.959,3.959,0,0,1-4.018-3.185l-.117-.616-.6-.165A13.127,13.127,0,0,1,441,770a28.245,28.245,0,0,1,5.258-16.084l.161-.235.012-.286c.133-3.169.569-14.584.569-28.4,0-4.282.223-8.3.438-12.184.486-8.794.907-16.389-1.5-23.151a2.2,2.2,0,0,1,.1-2.049,1.481,1.481,0,0,1,.9-.61M447,686c-1.018,0-2.956,1.309-2,4,3.375,9.5,1,21.016,1,35,0,13.939-.447,25.479-.568,28.353A29.609,29.609,0,0,0,440,770a14.22,14.22,0,0,0,10,14,5.024,5.024,0,0,0,5,4c6.09,0,9.076-3.646,10.064-9.889A8.986,8.986,0,0,0,470,770c0-2.635-1.783-7.849-4.386-12.75-.131-2.417-.751-14.344-.751-22.594,0-4.017-8.491-37.368-12.863-43.656-.946-1.361-3.982-5-5-5Z" fill="#7aabcc"/>
          </g>
          <g id="Group_1618" data-name="Group 1618">
            <path id="Path_2586" data-name="Path 2586" d="M457.574,747.059a7.46,7.46,0,0,1,1.417.66,11.325,11.325,0,0,1,1.421,1.14,21.1,21.1,0,0,1,1.551,1.729,26.678,26.678,0,0,1,1.642,2.19c.52.817,1.088,1.668,1.593,2.594.532.91,1.021,1.883,1.516,2.872s.946,2.018,1.379,3.054a37.9,37.9,0,0,1,2.149,6.268,11.382,11.382,0,0,1,.3,3.12,8.731,8.731,0,0,1-.618,2.8,7.214,7.214,0,0,1-2.527,3.354,5.612,5.612,0,0,1-1.024.572,4.111,4.111,0,0,1-.392.143s.087-.122.26-.321l.712-.873c.3-.367.639-.824,1-1.354a8.615,8.615,0,0,0,.973-1.9,9.2,9.2,0,0,0,.489-2.457,10.654,10.654,0,0,0-.255-2.847,36.9,36.9,0,0,0-1.984-6.112c-.444-1.009-.911-2.006-1.4-2.973s-1-1.907-1.534-2.788c-.51-.9-1.059-1.726-1.57-2.518-.551-.763-1.027-1.518-1.542-2.154-.478-.671-1-1.208-1.418-1.721-.433-.5-.818-.9-1.114-1.287-.331-.36-.6-.646-.766-.858S457.574,747.059,457.574,747.059Z" fill="#7aabcc"/>
          </g>
        </g>
      </g>
    </g>
  </g>
</svg>
