<svg xmlns="http://www.w3.org/2000/svg" xmlns:xlink="http://www.w3.org/1999/xlink" width="58" height="103" viewBox="0 0 58 103">
  <defs>
    <clipPath id="clip-path">
      <path id="SVGID" d="M294.344,756.925,294,757c0-6.875,6-37.25,6-45,0-16.25-2.375-27,1-27,5.263,0,13.625,38.5,15,43s1,24,1,24l-.4.087c2.5,4.607,4.4,9.758,4.4,14.913,0,7.875-2.677,7.418-5,10-1.125,1.25-4,3-9,3a7.943,7.943,0,0,1-7-4s-7-1.125-7-11A29.317,29.317,0,0,1,294.344,756.925Z" fill="none"/>
    </clipPath>
    <linearGradient id="linear-gradient" x1="-473.125" y1="1" x2="-473.125" gradientUnits="objectBoundingBox">
      <stop offset="0" stop-color="#fff"/>
      <stop offset="0.25" stop-color="#f2f7fa"/>
    </linearGradient>
  </defs>
  <g id="Regular4" transform="translate(-278 -685)">
    <rect id="Rectangle_248" data-name="Rectangle 248" width="58" height="103" transform="translate(278 685)" fill="none"/>
    <g id="Group_1645" data-name="Group 1645" transform="translate(0 4)">
      <g id="Group_1644" data-name="Group 1644">
        <g id="Group_1643" data-name="Group 1643" clip-path="url(#clip-path)">
          <g id="Group_1641" data-name="Group 1641">
            <path id="Path_2604" data-name="Path 2604" d="M307,779.5a7.38,7.38,0,0,1-6.553-3.725l-.115-.226-.251-.042c-.269-.045-6.581-1.2-6.581-10.507a28.674,28.674,0,0,1,1.324-7.934l.238-.809-.548.12c.146-3.68,1.46-11.925,2.845-20.624,1.544-9.7,3.141-19.722,3.141-23.753,0-5.593-.284-10.592-.512-14.609-.347-6.121-.6-10.544.452-11.656a.711.711,0,0,1,.56-.235c3.914,0,10.85,28.014,13.13,37.219.66,2.668,1.138,4.6,1.392,5.427,1.229,4.024,1.028,20.665.985,23.45l-.665.144.318.586c2.88,5.3,4.34,10.239,4.34,14.674,0,5.725-1.368,6.775-3.1,8.1a12.23,12.23,0,0,0-1.771,1.562C314.395,778.036,311.481,779.5,307,779.5Z" fill="#ebf2f7"/>
            <g id="Group_1638" data-name="Group 1638">
              <g id="Group_1637" data-name="Group 1637">
                <path id="Path_2605" data-name="Path 2605" d="M303.294,770.973l-1.917.069a3.172,3.172,0,0,0,1.467,1.02l.9-.033Z" fill="#d1e2ed"/>
                <path id="Path_2606" data-name="Path 2606" d="M314.2,755.474l-3.181-5.857,3.025-.658c.044-8.047-.226-16.52-.83-18.5-.29-.947-.754-2.822-1.457-5.66q-2.709-10.941-4.884-18.492c.073,2.1.122,4.342.122,6.691v.008q1.3,4.91,2.762,10.793c.7,2.838,1.167,4.713,1.457,5.66.6,1.978.874,10.451.83,18.5l-3.025.658,3.181,5.857c2.519,4.635,3.8,8.849,3.8,12.526,0,3.506-.364,3.785-1.34,4.533a16.669,16.669,0,0,0-2.377,2.122S310.857,775,307,775c-.124,0-.234-.015-.348-.025A2.962,2.962,0,0,0,309,776c3.857,0,5.279-1.341,5.283-1.345a16.669,16.669,0,0,1,2.377-2.122c.976-.748,1.34-1.027,1.34-4.533C318,764.323,316.724,760.109,314.2,755.474Z" fill="#d1e2ed"/>
              </g>
            </g>
            <path id="Path_2607" data-name="Path 2607" d="M307,775a2.928,2.928,0,0,1-2.553-1.3l-1.153-2.731-2.45.089c-.807-.25-2.844-1.349-2.844-6.062a24.3,24.3,0,0,1,1.141-6.663l2.381-8.09-1.884.41c.555-4.089,1.391-9.334,2.165-14.2,1.644-10.323,3.2-20.073,3.2-24.46,0-2.348-.048-4.587-.122-6.692q2.172,7.545,4.884,18.493c.7,2.838,1.167,4.712,1.456,5.66.605,1.979.875,10.451.831,18.5l-3.025.658,3.181,5.857c2.518,4.635,3.8,8.849,3.8,12.526,0,3.506-.365,3.785-1.339,4.533a16.561,16.561,0,0,0-2.377,2.122C312.279,773.659,310.858,775,307,775Z" fill="#ebf2f7"/>
            <path id="Path_2608" data-name="Path 2608" d="M307,773a1.955,1.955,0,0,1-1.673-.783l-1.374-3.464-2.912.313C300.39,768.8,299,767.784,299,764a23.32,23.32,0,0,1,1.1-6.38l2.858-9.708-2.133.463c.543-3.825,1.278-8.443,1.966-12.757,1.532-9.619,2.985-18.743,3.185-23.575q1.324,4.981,2.815,11c.771,3.114,1.187,4.782,1.471,5.712.54,1.845.809,9.706.789,17.4l-3.542.77,3.818,7.028C313.764,758.438,315,762.492,315,766a9.943,9.943,0,0,1-.335,3.251c-.126.115-.4.327-.613.488a17.551,17.551,0,0,0-2.512,2.247C311.267,772.223,309.789,773,307,773Z" fill="url(#linear-gradient)"/>
            <g id="Group_1640" data-name="Group 1640">
              <g id="Group_1639" data-name="Group 1639">
                <path id="Path_2609" data-name="Path 2609" d="M304.446,773.7l-1.152-2.73-1.554.056.706,1.674a2.9,2.9,0,0,0,2.206,1.272A2.95,2.95,0,0,1,304.446,773.7Z" fill="#fff"/>
                <path id="Path_2610" data-name="Path 2610" d="M298,765a24.3,24.3,0,0,1,1.141-6.663l2.381-8.09-1.884.41c.555-4.089,1.39-9.334,2.165-14.2,1.643-10.317,3.195-20.063,3.2-24.452-.745-2.8-1.453-5.379-2.122-7.7.073,2.1.122,4.342.122,6.691,0,4.387-1.553,14.138-3.2,24.46-.775,4.863-1.61,10.108-2.165,14.2l1.884-.41-2.381,8.09A24.3,24.3,0,0,0,296,764c0,4.713,2.037,5.813,2.844,6.062l.533-.02C298.659,769.191,298,767.682,298,765Z" fill="#fff"/>
              </g>
            </g>
            <path id="Path_2611" data-name="Path 2611" d="M301,686c.211,0,2.18.384,6.369,13.66,2.489,7.89,4.768,17.091,6.276,23.18.662,2.675,1.14,4.607,1.4,5.452,1.159,3.8,1.019,19.218.969,22.9l-.93.2.637,1.172C318.56,757.792,320,762.649,320,767c0,5.479-1.282,6.462-2.9,7.706a12.9,12.9,0,0,0-1.838,1.625c-.4.445-2.685,2.669-8.257,2.669a6.9,6.9,0,0,1-6.105-3.447l-.233-.453-.5-.086C299.913,774.97,294,773.847,294,765a28.23,28.23,0,0,1,1.3-7.793l.476-1.62-.73.16c.264-3.968,1.553-12.06,2.8-19.916C299.4,726.116,301,716.07,301,712c0-5.607-.284-10.614-.513-14.637-.314-5.543-.587-10.33.317-11.285A.22.22,0,0,1,301,686m0-1c-3.375,0-1,10.75-1,27,0,7.75-6,38.125-6,45l.344-.075A29.355,29.355,0,0,0,293,765c0,9.875,7,11,7,11a7.943,7.943,0,0,0,7,4c5,0,7.875-1.75,9-3,2.323-2.582,5-2.125,5-10,0-5.155-1.9-10.306-4.4-14.913L317,752s.375-19.5-1-24-9.736-43-15-43Z" fill="#7aabcc"/>
          </g>
          <g id="Group_1642" data-name="Group 1642">
            <path id="Path_2612" data-name="Path 2612" d="M301,742l-2,4.41c-.639,1.476-1.3,2.936-1.9,4.423-.318.735-.6,1.483-.89,2.23s-.534,1.507-.8,2.259c-.238.761-.476,1.523-.689,2.291-.18.774-.423,1.537-.551,2.319-.156.778-.313,1.555-.4,2.339a20.181,20.181,0,0,0-.188,2.35l-.015.294,0,.073c0-.028,0,.036,0,.05l.007.15.027.605a11.168,11.168,0,0,0,.079,1.192l.161,1.135c.077.376.184.749.274,1.125a10.614,10.614,0,0,0,.849,2.129,9.136,9.136,0,0,0,1.31,1.854,8.9,8.9,0,0,0,1.762,1.416,7.14,7.14,0,0,0,2.049.832l.262.054.129.232a7.534,7.534,0,0,0,2.319,2.481,7.415,7.415,0,0,0,3.214,1.184,11.9,11.9,0,0,0,1.775.052,17.555,17.555,0,0,0,1.784-.154,13.674,13.674,0,0,0,3.429-.934,7.642,7.642,0,0,0,2.843-1.979c.907-.966,2.023-1.6,2.8-2.409a5.941,5.941,0,0,0,1.462-3.017,17.877,17.877,0,0,0,.331-3.566,24.032,24.032,0,0,0-.244-3.6,26.485,26.485,0,0,0-.767-3.531,35.881,35.881,0,0,0-1.178-3.441q-.666-1.7-1.5-3.33c-.265-.55-.551-1.088-.849-1.621s-.589-1.07-.906-1.593q-.93-1.581-1.933-3.122c-.324-.521-.661-1.033-1-1.543-.326-.522-.666-1.033-1.009-1.545-.688-1.021-1.373-2.047-2.046-3.089.873.879,1.723,1.784,2.51,2.741.8.944,1.578,1.914,2.3,2.926s1.418,2.04,2.054,3.109q.494.792.944,1.611c.311.539.61,1.086.888,1.644.578,1.1,1.107,2.238,1.578,3.4a29.772,29.772,0,0,1,1.238,3.547,27.559,27.559,0,0,1,.794,3.693,24.994,24.994,0,0,1,.247,3.769,18.918,18.918,0,0,1-.38,3.785,7.016,7.016,0,0,1-1.76,3.528c-.95.959-2.034,1.553-2.818,2.4a8.7,8.7,0,0,1-3.192,2.191,14.659,14.659,0,0,1-3.694.985c-.625.08-1.268.137-1.9.164a12.953,12.953,0,0,1-1.919-.047,8.421,8.421,0,0,1-6.362-4.2l.391.286a8.027,8.027,0,0,1-2.428-.952,9.977,9.977,0,0,1-2.009-1.594,10.233,10.233,0,0,1-1.489-2.076,11.611,11.611,0,0,1-.954-2.349c-.1-.408-.214-.813-.3-1.226l-.18-1.261a12,12,0,0,1-.083-1.221l-.028-.6-.007-.151,0-.1,0-.078.014-.31a20.938,20.938,0,0,1,.194-2.472,21.972,21.972,0,0,1,.419-2.429c.145-.81.4-1.587.6-2.381.229-.784.482-1.56.736-2.335.284-.763.537-1.539.848-2.29s.6-1.512.933-2.253.678-1.477,1.034-2.206c.375-.72.735-1.447,1.15-2.146A36.8,36.8,0,0,1,301,742Z" fill="#7aabcc"/>
          </g>
        </g>
      </g>
    </g>
  </g>
</svg>
