<svg xmlns="http://www.w3.org/2000/svg" xmlns:xlink="http://www.w3.org/1999/xlink" width="58" height="98" viewBox="0 0 58 98">
  <defs>
    <linearGradient id="linear-gradient" x1="-1486.681" y1="1" x2="-1486.681" gradientUnits="objectBoundingBox">
      <stop offset="0" stop-color="#fff"/>
      <stop offset="0.25" stop-color="#f2f7fa"/>
    </linearGradient>
    <clipPath id="clip-path">
      <path id="SVGID" d="M139,765.059c0,7.546,3.043,13.954,9.93,13.954a13.853,13.853,0,0,0,7.705-1.98,2.844,2.844,0,0,1,2.843-.175c2.3,1.158,6.447,3.113,8.319,3.152,4.344.089,9.465-3.586,10.923-8.971,1.183-4.369-1.763-6.991-1.763-9.967a17.3,17.3,0,0,0-1.35-7.045l.134.067a100.04,100.04,0,0,1-.993-10.964c0-4.129.993-7.832.993-15.948,0-7.934-9.487-29.868-17.333-30.852-3.243-2.129-6.1-4.089-7.492-3.037-.806.608-.249,2.773-.091,4.288-1.779.912-3.933,3.906-5.071,8.626a7.185,7.185,0,0,0-.8,1.04c-2.212,3.935-3.972,8.427-3.972,12.958,0,10.679,3.972,16.66,3.972,20.932,0,3.691-1.481,10.668-1.884,12.5C140.8,756.973,139,761.177,139,765.059Z" fill="none"/>
    </clipPath>
    <linearGradient id="linear-gradient-2" x1="-259.575" y1="1" x2="-259.575" y2="0" xlink:href="#linear-gradient"/>
  </defs>
  <g id="Regular2" transform="translate(-130 -690)">
    <rect id="Rectangle_246" data-name="Rectangle 246" width="58" height="98" transform="translate(130 690)" fill="none"/>
    <g id="Group_1678" data-name="Group 1678" transform="translate(0 1)">
      <g id="Group_1676" data-name="Group 1676">
        <g id="Group_1662" data-name="Group 1662">
          <ellipse id="Ellipse_41" data-name="Ellipse 41" cx="6.451" cy="3.985" rx="6.451" ry="3.985" transform="translate(150.423 774.529)" fill="#ebf2f7"/>
          <path id="Path_2631" data-name="Path 2631" d="M156.874,775.029c3.226,0,5.951,1.6,5.951,3.486S160.1,782,156.874,782s-5.951-1.6-5.951-3.485,2.725-3.486,5.951-3.486m0-1c-3.839,0-6.951,2.008-6.951,4.486S153.035,783,156.874,783s6.951-2.008,6.951-4.485-3.112-4.486-6.951-4.486Z" fill="#7aabcc"/>
        </g>
        <g id="Group_1665" data-name="Group 1665">
          <ellipse id="Ellipse_42" data-name="Ellipse 42" cx="7.94" cy="7.972" rx="7.94" ry="7.972" transform="translate(139.5 765.559)" fill="#ebf2f7"/>
          <g id="Group_1663" data-name="Group 1663">
            <path id="Path_2632" data-name="Path 2632" d="M149.9,771.1a3.475,3.475,0,0,1-2.456,5.9,3.269,3.269,0,0,1-.455-.046A3.413,3.413,0,0,0,149.44,778a3.466,3.466,0,0,0,.456-6.9Z" fill="#d1e2ed"/>
          </g>
          <ellipse id="Ellipse_43" data-name="Ellipse 43" cx="3.44" cy="3.472" rx="3.44" ry="3.472" transform="translate(144 770.059)" fill="#ebf2f7"/>
          <ellipse id="Ellipse_44" data-name="Ellipse 44" cx="2.44" cy="2.472" rx="2.44" ry="2.472" transform="translate(145 770.059)" fill="url(#linear-gradient)"/>
          <g id="Group_1664" data-name="Group 1664">
            <path id="Path_2633" data-name="Path 2633" d="M144,773.531a3.46,3.46,0,0,1,3.44-3.472,3.615,3.615,0,0,1,.456.045,3.417,3.417,0,0,0-2.456-1.045,3.466,3.466,0,0,0-.455,6.9A3.479,3.479,0,0,1,144,773.531Z" fill="#fff"/>
          </g>
          <path id="Path_2634" data-name="Path 2634" d="M147.44,766.059a7.472,7.472,0,1,1-7.44,7.472,7.465,7.465,0,0,1,7.44-7.472m0-1a8.472,8.472,0,1,0,8.441,8.472,8.456,8.456,0,0,0-8.441-8.472Z" fill="#7aabcc"/>
        </g>
        <g id="Group_1675" data-name="Group 1675">
          <g id="Group_1674" data-name="Group 1674" clip-path="url(#clip-path)">
            <g id="Group_1670" data-name="Group 1670">
              <path id="Path_2635" data-name="Path 2635" d="M167.807,779.51c-1.294-.027-4.248-1.156-8.1-3.1a3.319,3.319,0,0,0-1.488-.354,3.375,3.375,0,0,0-1.854.557,13.343,13.343,0,0,1-7.431,1.9c-6.953,0-9.43-6.95-9.43-13.454,0-3.358,1.453-7.419,3.988-11.143l.054-.079.021-.094c.444-2.02,1.895-8.9,1.895-12.606a21.761,21.761,0,0,0-1.349-6.058,46.439,46.439,0,0,1-2.623-14.874c0-3.824,1.315-8.1,3.908-12.713a6.86,6.86,0,0,1,.737-.957l.08-.092.029-.119c1.109-4.6,3.216-7.48,4.813-8.3l.305-.156-.035-.341c-.034-.326-.086-.681-.14-1.045-.145-.992-.365-2.491.034-2.792a1.048,1.048,0,0,1,.655-.192c1.321,0,3.532,1.454,5.873,2.993l.485.319.115.014c7.507.942,16.9,22.592,16.9,30.356a93.285,93.285,0,0,1-.617,10.611,50.559,50.559,0,0,0-.376,5.337,90.676,90.676,0,0,0,.867,10.091l-.523-.263.557,1.27a16.978,16.978,0,0,1,1.308,6.844,9.766,9.766,0,0,0,.96,3.631c.737,1.82,1.5,3.7.82,6.205-1.438,5.314-6.459,8.6-10.285,8.6Z" fill="#ebf2f7"/>
              <g id="Group_1667" data-name="Group 1667">
                <g id="Group_1666" data-name="Group 1666">
                  <path id="Path_2636" data-name="Path 2636" d="M165.719,711.731c3.261,6.515,5.022,12.824,5.022,15.451a88.16,88.16,0,0,1-.593,10.143,54.719,54.719,0,0,0-.4,5.8c0,.742.027,1.555.075,2.394l2,1c-.047-.84-.075-1.654-.075-2.4a54.719,54.719,0,0,1,.4-5.8,88.16,88.16,0,0,0,.593-10.143c0-2.627-1.761-8.936-5.022-15.451-3.7-7.394-6.957-10.229-7.934-10.44l-.587-.073C160.722,703.575,163.106,706.515,165.719,711.731Z" fill="#d1e2ed"/>
                  <path id="Path_2637" data-name="Path 2637" d="M175.246,767.391a13.814,13.814,0,0,1-1.289-5.32,12.513,12.513,0,0,0-.93-5.036l-5.563-12.691-2-1.005,5.566,12.7a12.513,12.513,0,0,1,.93,5.036,13.814,13.814,0,0,0,1.289,5.32c.689,1.7.906,2.384.648,3.341-.88,3.25-4.018,5.253-5.906,5.279a30.813,30.813,0,0,1-6.26-2.618,7.838,7.838,0,0,0-7.83.456,9.016,9.016,0,0,1-4.968,1.164,4.271,4.271,0,0,1-.685-.062,3.724,3.724,0,0,0,2.685,1.062,9.016,9.016,0,0,0,4.968-1.164,7.838,7.838,0,0,1,7.83-.456,30.813,30.813,0,0,0,6.26,2.618c1.888-.026,5.026-2.029,5.906-5.279C176.152,769.775,175.935,769.094,175.246,767.391Z" fill="#d1e2ed"/>
                </g>
              </g>
              <path id="Path_2638" data-name="Path 2638" d="M167.988,775.011a30.813,30.813,0,0,1-6.26-2.618,7.841,7.841,0,0,0-7.83.455,9,9,0,0,1-4.968,1.165c-4.45,0-4.93-6.262-4.93-8.954,0-2.44,1.2-5.659,3.208-8.611l.542-.8.207-.941c.6-2.733,2-9.526,2-13.573a25.062,25.062,0,0,0-1.553-7.4,42.582,42.582,0,0,1-2.419-13.535c0-3.01,1.1-6.5,3.262-10.386.077-.1.173-.21.279-.332l.8-.921.286-1.187c.84-3.481,2.192-5.09,2.562-5.384l2.668-1.367.79.519,1.151.144c.976.211,4.231,3.046,7.934,10.44,3.262,6.515,5.022,12.823,5.022,15.451a88.145,88.145,0,0,1-.593,10.143,54.719,54.719,0,0,0-.4,5.8c0,.744.028,1.557.075,2.4l-4.362-2.189,5.567,12.7a12.533,12.533,0,0,1,.929,5.037,13.8,13.8,0,0,0,1.289,5.318c.689,1.7.907,2.385.648,3.343C173.014,772.982,169.876,774.986,167.988,775.011Z" fill="#ebf2f7"/>
              <path id="Path_2639" data-name="Path 2639" d="M168.077,773.008a33.23,33.23,0,0,1-5.9-2.508,8.839,8.839,0,0,0-8.826.511,8.084,8.084,0,0,1-4.421,1c-3.647,0-3.93-6.088-3.93-7.954,0-2.248,1.134-5.256,3.035-8.048l.65-.956.249-1.13c.609-2.765,2.024-9.643,2.024-13.788a26.16,26.16,0,0,0-1.6-7.7,41.187,41.187,0,0,1-2.373-13.237c0-2.82,1.041-6.125,3.1-9.826.059-.073,1.162-1.341,1.162-1.341l.344-1.424a10.865,10.865,0,0,1,2.162-4.789l2.033-1.041.5.326,1.265.159c4.028,1.549,12.2,18.2,12.2,24.913a87.431,87.431,0,0,1-.587,10.039,55.43,55.43,0,0,0-.406,5.909c0,.241,0,.49.008.744l-5.324-2.673,6.68,15.235a11.557,11.557,0,0,1,.845,4.636,14.631,14.631,0,0,0,1.362,5.693c.684,1.691.775,2.095.609,2.706C172.2,771.169,169.622,772.916,168.077,773.008Z" fill="url(#linear-gradient-2)"/>
              <g id="Group_1669" data-name="Group 1669">
                <g id="Group_1668" data-name="Group 1668">
                  <path id="Path_2640" data-name="Path 2640" d="M167.823,744.524l-2.362-1.186,0,0,2.359,1.185Z" fill="#fff"/>
                  <path id="Path_2641" data-name="Path 2641" d="M144,765.059c0-2.441,1.2-5.66,3.208-8.611l.542-.8.207-.941c.6-2.732,2-9.525,2-13.573a25.046,25.046,0,0,0-1.554-7.4,42.6,42.6,0,0,1-2.418-13.534c0-3.011,1.1-6.5,3.262-10.386.076-.1.173-.21.279-.332l.8-.922.286-1.186c.84-3.482,2.192-5.09,2.562-5.384l2.668-1.366.79.517.564.072a3.9,3.9,0,0,0-1.413-.927l-1.151-.145-.79-.517-2.668,1.366c-.37.294-1.722,1.9-2.562,5.384l-.286,1.186-.8.922c-.106.122-.2.233-.279.332-2.164,3.882-3.262,7.375-3.262,10.386a42.6,42.6,0,0,0,2.418,13.534,25.046,25.046,0,0,1,1.554,7.4c0,4.048-1.4,10.841-2,13.573l-.207.941-.542.8C143.2,758.4,142,761.618,142,764.059c0,2.545.435,8.277,4.245,8.892C144.27,771.049,144,767.064,144,765.059Z" fill="#fff"/>
                </g>
              </g>
              <path id="Path_2642" data-name="Path 2642" d="M151.873,694c1.172,0,3.422,1.48,5.6,2.911l.387.255.195.127.23.029c7.127.895,16.458,22.418,16.458,29.86a93.078,93.078,0,0,1-.614,10.56,51.012,51.012,0,0,0-.379,5.388,84.429,84.429,0,0,0,.75,9.225l-.92-.459,1.112,2.534a16.438,16.438,0,0,1,1.267,6.641,10.278,10.278,0,0,0,1,3.82c.705,1.743,1.435,3.546.8,5.886-1.377,5.086-6.161,8.235-9.8,8.235l-.134,0c-1.2-.025-4.152-1.162-7.888-3.045a3.825,3.825,0,0,0-1.714-.407,3.874,3.874,0,0,0-2.127.638,12.867,12.867,0,0,1-7.158,1.817,7.526,7.526,0,0,1-6.7-3.685A17.369,17.369,0,0,1,140,765.059c0-3.259,1.422-7.217,3.9-10.862l.109-.159.041-.188c.447-2.03,1.907-8.947,1.907-12.713a22.044,22.044,0,0,0-1.372-6.206,46.042,46.042,0,0,1-2.6-14.726c0-3.736,1.293-7.932,3.844-12.468a6.531,6.531,0,0,1,.678-.874l.161-.183.057-.239c1.072-4.442,3.06-7.2,4.555-7.97l.61-.313-.072-.68c-.034-.333-.087-.7-.141-1.068a7.271,7.271,0,0,1-.125-2.342.6.6,0,0,1,.32-.068m0-1a1.542,1.542,0,0,0-.957.293c-.806.607-.249,2.772-.091,4.288-1.779.912-3.932,3.906-5.071,8.626a7.185,7.185,0,0,0-.8,1.04c-2.212,3.935-3.972,8.427-3.972,12.958,0,10.68,3.972,16.66,3.972,20.932,0,3.691-1.48,10.668-1.884,12.5C140.8,756.974,139,761.177,139,765.059c0,7.546,3.043,13.954,9.93,13.954a13.862,13.862,0,0,0,7.705-1.98,2.885,2.885,0,0,1,1.58-.475,2.8,2.8,0,0,1,1.264.3c2.3,1.158,6.446,3.114,8.318,3.152l.154,0c4.312,0,9.328-3.652,10.769-8.973,1.182-4.369-1.763-6.991-1.763-9.968a17.285,17.285,0,0,0-1.351-7.044l.135.068a100.039,100.039,0,0,1-.993-10.965c0-4.129.993-7.831.993-15.948,0-7.934-9.487-29.868-17.334-30.852-2.62-1.72-4.987-3.33-6.534-3.33Z" fill="#7aabcc"/>
            </g>
            <g id="Group_1671" data-name="Group 1671">
              <path id="Path_2643" data-name="Path 2643" d="M158.443,731.045s-.16-.28-.416-.825-.647-1.338-1.078-2.374A67.028,67.028,0,0,1,154,719.023a24.1,24.1,0,0,1-.612-3c-.03-.278-.044-.544-.056-.857.009-.267.005-.518.031-.8a11.986,11.986,0,0,1,.25-1.7c.445-2.25,1.731-4.343,1.71-6.523a16.839,16.839,0,0,0-.468-3.5,12.815,12.815,0,0,0-1.217-3.357,3.6,3.6,0,0,0-1.045-1.254,1.358,1.358,0,0,0-.628-.226l-.04-.008c.023,0-.077,0,.045-.008l-.03,0-.117.016-.237.031c-.179.01-.225.088-.346.118a4.37,4.37,0,0,0-1.36.976,5.68,5.68,0,0,0-.6.669,6.518,6.518,0,0,0-.545.734,19.238,19.238,0,0,0-2.657,6.879,31.977,31.977,0,0,0-.54,7.231,126.326,126.326,0,0,0,1.211,12.961c.524,3.787,1.021,6.944,1.17,9.189a25.886,25.886,0,0,1,.085,2.614c-.018.606-.063.925-.063.925s-.053-.316-.151-.909c-.12-.586-.295-1.446-.518-2.54-.461-2.185-1.015-5.329-1.582-9.128a102.247,102.247,0,0,1-1.262-13.094,33.052,33.052,0,0,1,.616-7.46,20.21,20.21,0,0,1,2.864-7.229,7.262,7.262,0,0,1,.59-.807,6.549,6.549,0,0,1,.672-.756,5.258,5.258,0,0,1,1.731-1.224,2.7,2.7,0,0,1,.558-.172l.235-.033.118-.017.03,0c.142-.011.061,0,.1,0l.078.009a2.4,2.4,0,0,1,1.146.388,4.588,4.588,0,0,1,1.389,1.6,13.873,13.873,0,0,1,1.356,3.634,17.957,17.957,0,0,1,.522,3.716,10.241,10.241,0,0,1-.731,3.636,25.644,25.644,0,0,0-.982,3.158,10.975,10.975,0,0,0-.223,1.513c-.023.246-.02.525-.035.783.01.211.016.466.039.7a22.886,22.886,0,0,0,.541,2.861c.446,1.842.959,3.516,1.4,5s.828,2.786,1.128,3.864C158.177,729.782,158.443,731.045,158.443,731.045Z" fill="#7aabcc"/>
            </g>
            <g id="Group_1672" data-name="Group 1672">
              <path id="Path_2644" data-name="Path 2644" d="M175.741,754.094s-.112-.388-.264-1.124-.385-1.818-.6-3.206a48.129,48.129,0,0,1-.579-5.044,38.385,38.385,0,0,1,.256-6.61c.241-2.389.465-4.957.562-7.688.03-1.354.109-2.792.018-4.18a27.354,27.354,0,0,0-.76-4.233,59.538,59.538,0,0,0-2.977-8.655,61.478,61.478,0,0,0-4.326-8.41,24.249,24.249,0,0,0-6.1-6.986A5.016,5.016,0,0,0,157,696.935a1.387,1.387,0,0,0-1.111,1.14,5.157,5.157,0,0,0,.071,2.014,23.5,23.5,0,0,0,1.358,4.08c.548,1.318,1.138,2.595,1.717,3.84a55.119,55.119,0,0,1,3,7.227,7.723,7.723,0,0,1,.323,1.863c.007.62-.033,1.15-.082,1.734-.109,1.113-.264,2.149-.45,3.116a46.327,46.327,0,0,1-1.213,4.931c-.392,1.35-.756,2.392-1.017,3.1s-.411,1.08-.411,1.08.267-1.589.811-4.329c.25-1.375.564-3.039.873-4.946.14-.954.3-1.971.383-3.037.038-.5.072-1.1.058-1.623a6.7,6.7,0,0,0-.3-1.593,62.24,62.24,0,0,0-3-7.046c-.578-1.249-1.172-2.538-1.73-3.886a23.793,23.793,0,0,1-1.408-4.3,6.159,6.159,0,0,1-.049-2.484,2.455,2.455,0,0,1,1.932-1.939,2.915,2.915,0,0,1,.653-.107l.29-.019.186-.009.163.014.651.059.625.157a7.8,7.8,0,0,1,2.248,1.109,25.143,25.143,0,0,1,6.35,7.327,62.432,62.432,0,0,1,4.45,8.526,60.7,60.7,0,0,1,3.083,8.8,27.03,27.03,0,0,1,.807,4.45c.1,1.494.018,2.884-.01,4.276-.078,2.767-.362,5.376-.627,7.758a40.01,40.01,0,0,0-.346,6.457c.066,1.929.178,3.621.243,5.018.087,1.394.145,2.494.175,3.246S175.741,754.094,175.741,754.094Z" fill="#7aabcc"/>
            </g>
            <g id="Group_1673" data-name="Group 1673">
              <path id="Path_2645" data-name="Path 2645" d="M170.006,748.114a5.114,5.114,0,0,1,1.171.478,9.871,9.871,0,0,1,2.836,2.215,12.5,12.5,0,0,1,2.731,4.922c.156.524.267,1.079.4,1.645q.12.861.246,1.77.043.914.089,1.874a5.989,5.989,0,0,0,.312,1.726c.375,1.178,1.019,2.416,1.424,3.841a8.5,8.5,0,0,1,.041,4.631,13.25,13.25,0,0,1-5.8,7.645,10.935,10.935,0,0,1-4.917,1.666,6.8,6.8,0,0,1-2.689-.359c-.841-.259-1.651-.573-2.453-.908s-1.592-.7-2.379-1.069l-1.175-.571-.585-.293a2.4,2.4,0,0,0-.5-.188,2.452,2.452,0,0,0-2.076.461,11.72,11.72,0,0,1-2.487,1.129,16.8,16.8,0,0,1-5.332.795c-.436-.029-.861-.038-1.305-.084a13.375,13.375,0,0,1-1.372-.279,8.488,8.488,0,0,1-2.484-1.143,10.124,10.124,0,0,1-3.441-4.05,17.524,17.524,0,0,1-1.509-4.9,23.428,23.428,0,0,1-.283-4.908,17.633,17.633,0,0,1,.982-4.658,26.494,26.494,0,0,1,4.147-7.518,17.756,17.756,0,0,1,2.631-2.808,6.677,6.677,0,0,1,3.377-1.338,13.836,13.836,0,0,1,5.586.715,33.19,33.19,0,0,1,3.342,1.236c.758.309,1.154.5,1.154.5s-.43-.089-1.222-.295-1.957-.5-3.433-.824a16.437,16.437,0,0,0-5.3-.368,6.027,6.027,0,0,0-2.833,1.152,16.784,16.784,0,0,0-2.458,2.685,26.823,26.823,0,0,0-3.925,7.234,16.6,16.6,0,0,0-.928,4.332,23.058,23.058,0,0,0,.256,4.688,16.5,16.5,0,0,0,1.384,4.592,9.051,9.051,0,0,0,3.057,3.652,7.444,7.444,0,0,0,2.18,1.018c.385.125.777.159,1.166.25.416.047.861.059,1.29.09a15.891,15.891,0,0,0,4.957-.719,10.706,10.706,0,0,0,2.259-1.037,3.49,3.49,0,0,1,2.862-.6,3.527,3.527,0,0,1,.718.264l.579.286,1.162.558c.777.364,1.556.713,2.339,1.036s1.57.621,2.357.86a5.67,5.67,0,0,0,2.3.3,9.844,9.844,0,0,0,4.408-1.529,12.17,12.17,0,0,0,5.3-7.044,7.958,7.958,0,0,0,.249-2.01,8.8,8.8,0,0,0-.29-1.981c-.348-1.3-.959-2.5-1.369-3.819a7.117,7.117,0,0,1-.339-2.042q-.033-.917-.065-1.788-.109-.862-.214-1.68c-.124-.532-.219-1.057-.346-1.555a14.349,14.349,0,0,0-2.286-4.779,12.263,12.263,0,0,0-2.456-2.442A8.517,8.517,0,0,0,170.006,748.114Z" fill="#7aabcc"/>
            </g>
          </g>
        </g>
      </g>
    </g>
  </g>
</svg>
