<svg xmlns="http://www.w3.org/2000/svg" xmlns:xlink="http://www.w3.org/1999/xlink" width="58" height="105" viewBox="0 0 58 105">
  <defs>
    <clipPath id="clip-path">
      <path id="SVGID" d="M691.649,757.548c-.173-15.548-2-23.079-2-28.6,0-4.353,3.525-24.985.492-35.964-1-3.631-2.724-7.986-5.527-7.986-12.686,0-16.109,52.341-16.109,61.93l.1.057c-5.284,7.837-10.141,19.347-8.156,28.91.678,3.27,2.276,4.773,4.027,4.773a7.033,7.033,0,0,0,3.948-.936,1.082,1.082,0,0,1,1.463.249c.888,1.225,3.224,2.017,5.664,2.017,2.47,0,3.315-.455,4.259-1.34a1.694,1.694,0,0,1,1.769-.308,7.826,7.826,0,0,0,3.034.433C690.689,780.785,697.771,774.724,691.649,757.548Z" fill="none"/>
    </clipPath>
    <linearGradient id="linear-gradient" x1="0.5" y1="1" x2="0.5" gradientUnits="objectBoundingBox">
      <stop offset="0" stop-color="#fff"/>
      <stop offset="0.25" stop-color="#f2f7fa"/>
    </linearGradient>
  </defs>
  <g id="Regular9" transform="translate(-648 -683)">
    <rect id="Rectangle_253" data-name="Rectangle 253" width="58" height="105" transform="translate(648 683)" fill="none"/>
    <g id="Group_1413" data-name="Group 1413" transform="translate(0 2)">
      <g id="Group_1412" data-name="Group 1412">
        <g id="Group_1411" data-name="Group 1411" clip-path="url(#clip-path)">
          <g id="Group_1409" data-name="Group 1409">
            <path id="Path_2375" data-name="Path 2375" d="M675.556,781.5c-2.323,0-4.486-.744-5.259-1.81a1.532,1.532,0,0,0-1.254-.634,1.66,1.66,0,0,0-.879.254,6.642,6.642,0,0,1-3.683.86c-1.671,0-2.961-1.594-3.538-4.374-2.436-11.739,5.57-24.8,8.082-28.53l.3-.45-.319-.179c.062-12.954,4.162-61.137,15.609-61.137,1.923,0,3.668,2.635,5.045,7.619,2.256,8.167.836,21.795-.012,29.938-.278,2.675-.5,4.788-.5,5.893a72.939,72.939,0,0,0,.617,7.684,192.506,192.506,0,0,1,1.379,20.92v.084l.028.078c3.8,10.67,2.251,16.241.28,19.036a8.264,8.264,0,0,1-6.84,3.533,7.382,7.382,0,0,1-2.854-.4,2.3,2.3,0,0,0-.831-.155,2.127,2.127,0,0,0-1.461.565C678.7,781.023,678.005,781.5,675.556,781.5Z" fill="#ebf2f7"/>
            <g id="Group_1406" data-name="Group 1406">
              <g id="Group_1405" data-name="Group 1405">
                <path id="Path_2376" data-name="Path 2376" d="M669.043,774.556a6.1,6.1,0,0,0-1.856.3c.048.343.092.69.163,1.027a6.449,6.449,0,0,0,.183.7.8.8,0,0,0,.244-.088,6.159,6.159,0,0,1,3.266-.939,6.008,6.008,0,0,1,1.678.247A6.066,6.066,0,0,0,669.043,774.556Z" fill="#d1e2ed"/>
                <path id="Path_2377" data-name="Path 2377" d="M688.939,760.228l-.28-.789-.01-.835a188.513,188.513,0,0,0-1.351-20.47,75.941,75.941,0,0,1-.646-8.184c0-1.339.22-3.444.524-6.359.762-7.314,2.179-20.926.149-28.274A20.806,20.806,0,0,0,686,691.635a10.067,10.067,0,0,0-1.044,1.446c.12.373.242.784.367,1.236,2.03,7.348.613,20.96-.149,28.274-.3,2.915-.524,5.02-.524,6.359a75.941,75.941,0,0,0,.646,8.184,188.513,188.513,0,0,1,1.351,20.47l.01.835.28.789c3.446,9.667,1.737,13.662.842,14.931a3.787,3.787,0,0,1-3.163,1.626,3.507,3.507,0,0,1-1.239-.1,6.779,6.779,0,0,0-2.445-.456,6.607,6.607,0,0,0-4.484,1.732,8.31,8.31,0,0,1-.893.039,6.383,6.383,0,0,1-.64-.032,5.885,5.885,0,0,1,.73.709,5.2,5.2,0,0,0,1.91.323,8.31,8.31,0,0,0,.893-.039,6.607,6.607,0,0,1,4.484-1.732,6.779,6.779,0,0,1,2.445.456,3.507,3.507,0,0,0,1.239.1,3.787,3.787,0,0,0,3.163-1.626C690.676,773.89,692.385,769.9,688.939,760.228Z" fill="#d1e2ed"/>
              </g>
            </g>
            <path id="Path_2378" data-name="Path 2378" d="M675.556,777a5.211,5.211,0,0,1-1.908-.323,6.07,6.07,0,0,0-4.6-2.121,6.152,6.152,0,0,0-3.266.94.839.839,0,0,1-.244.087,6.587,6.587,0,0,1-.184-.7c-1.651-7.958,2.743-18.183,7.407-25.1l3.035-4.5-2.218-1.244a259.022,259.022,0,0,1,2.856-28.978c2.774-17.309,6.116-22.788,7.573-24.425a20.859,20.859,0,0,1,1.323,3.683c2.03,7.348.612,20.961-.149,28.274-.3,2.914-.523,5.021-.523,6.359a75.643,75.643,0,0,0,.645,8.184,188.513,188.513,0,0,1,1.351,20.47l.01.836.28.787c3.446,9.668,1.737,13.663.842,14.932a3.784,3.784,0,0,1-3.163,1.626,3.507,3.507,0,0,1-1.239-.1,6.78,6.78,0,0,0-2.446-.455,6.608,6.608,0,0,0-4.483,1.731A8.044,8.044,0,0,1,675.556,777Z" fill="#ebf2f7"/>
            <path id="Path_2379" data-name="Path 2379" d="M675.556,775a4.783,4.783,0,0,1-1.331-.179,7.087,7.087,0,0,0-8-1.686c-1.284-7.575,2.916-17.205,7.359-23.794l3.642-5.4-2.63-1.476a261.221,261.221,0,0,1,2.66-27.235c2.265-14.633,4.914-20.943,6.5-23.574.188.527.39,1.163.6,1.928,1.98,7.166.575,20.656-.18,27.9-.307,2.945-.528,5.073-.528,6.463a76.381,76.381,0,0,0,.651,8.295,185.259,185.259,0,0,1,1.345,20.37l.012,1,.336.945c3.381,9.485,1.595,13.129.966,14.019a2.764,2.764,0,0,1-2.345,1.2,5.725,5.725,0,0,1-.906-.04,7.7,7.7,0,0,0-7.67,1.245C675.917,775,675.757,775,675.556,775Z" fill="url(#linear-gradient)"/>
            <g id="Group_1408" data-name="Group 1408">
              <g id="Group_1407" data-name="Group 1407">
                <path id="Path_2380" data-name="Path 2380" d="M672.756,749.782l3.035-4.5-2.218-1.244a259.01,259.01,0,0,1,2.856-28.977c2.236-13.953,4.84-20.215,6.529-22.979a17.264,17.264,0,0,0-.956-2.446c-1.457,1.636-4.8,7.115-7.573,24.425a259.01,259.01,0,0,0-2.856,28.977l2.218,1.244-3.035,4.5c-4.663,6.916-9.058,17.142-7.406,25.1a6.449,6.449,0,0,0,.183.7.8.8,0,0,0,.244-.088,6.154,6.154,0,0,1,1.41-.641C664.085,766.058,668.29,756.405,672.756,749.782Z" fill="#fff"/>
                <path id="Path_2381" data-name="Path 2381" d="M670.721,774.8a5.98,5.98,0,0,1,.926.874,4.658,4.658,0,0,0,1.27.291A6.052,6.052,0,0,0,670.721,774.8Z" fill="#fff"/>
              </g>
            </g>
            <path id="Path_2382" data-name="Path 2382" d="M684.618,686c1.651,0,3.271,2.575,4.563,7.253,2.231,8.075.818,21.644-.027,29.752-.291,2.795-.5,4.814-.5,5.945a73.191,73.191,0,0,0,.621,7.739,192.088,192.088,0,0,1,1.376,20.871l0,.168.056.157c3.731,10.467,2.246,15.881.343,18.579a7.769,7.769,0,0,1-6.432,3.321,6.877,6.877,0,0,1-2.675-.367,2.8,2.8,0,0,0-1.009-.189,2.622,2.622,0,0,0-1.8.7c-.706.663-1.256,1.069-3.574,1.069-2.423,0-4.276-.807-4.854-1.6a2.028,2.028,0,0,0-1.659-.84,2.158,2.158,0,0,0-1.145.331,5.984,5.984,0,0,1-3.417.783c-1.392,0-2.531-1.486-3.048-3.976-1.9-9.175,2.887-20.556,8.006-28.148l.6-.9-.531-.3a256.879,256.879,0,0,1,3.28-33.813C675.717,695.425,679.917,686,684.618,686m0-1c-12.686,0-16.109,52.341-16.109,61.93l.1.057c-5.284,7.837-10.141,19.347-8.156,28.91.678,3.27,2.276,4.773,4.027,4.773a7.027,7.027,0,0,0,3.948-.936,1.161,1.161,0,0,1,.614-.178,1.035,1.035,0,0,1,.849.427c.888,1.225,3.224,2.017,5.664,2.017,2.47,0,3.315-.454,4.258-1.34a1.625,1.625,0,0,1,1.12-.431,1.81,1.81,0,0,1,.65.123,7.83,7.83,0,0,0,3.034.433c6.071,0,13.153-6.06,7.031-23.236-.173-15.549-2-23.08-2-28.6,0-4.353,3.526-24.985.493-35.964-1-3.632-2.724-7.986-5.527-7.986Z" fill="#7aabcc"/>
          </g>
          <g id="Group_1410" data-name="Group 1410">
            <path id="Path_2383" data-name="Path 2383" d="M677.57,737.94a5.635,5.635,0,0,0-1.133.64,18.275,18.275,0,0,0-2.675,2.5,58.621,58.621,0,0,0-7.47,10.742,57.145,57.145,0,0,0-3.552,7.991,36.972,36.972,0,0,0-2.1,9.466,25.231,25.231,0,0,0,.1,5.09,9.334,9.334,0,0,0,1.638,4.7,2.777,2.777,0,0,0,1.939,1.077,8.563,8.563,0,0,0,2.522-.263,5.012,5.012,0,0,0,1.144-.473l.306-.176a1.628,1.628,0,0,1,.484-.158,1.584,1.584,0,0,1,.977.147,1.944,1.944,0,0,1,.655.6,2.771,2.771,0,0,0,.412.39,4.849,4.849,0,0,0,1.076.612,10.571,10.571,0,0,0,5.118.593,3.764,3.764,0,0,0,2.2-.91,4.559,4.559,0,0,1,.589-.481,2.119,2.119,0,0,1,.838-.294,2.321,2.321,0,0,1,.868.05c.314.088.46.163.662.217a8.49,8.49,0,0,0,2.466.254l1.328-.108,1.176-.288a8.433,8.433,0,0,0,3.951-2.732,13.35,13.35,0,0,0,2.3-8.969,34.888,34.888,0,0,0-1.634-8.517,71.956,71.956,0,0,0-2.6-6.938c-.96-1.993-1.685-3.788-2.388-5.218s-1.252-2.56-1.608-3.341-.543-1.2-.543-1.2.267.372.729,1.1,1.153,1.777,1.983,3.15c.437.674.847,1.463,1.29,2.323s.923,1.791,1.422,2.793a65.377,65.377,0,0,1,2.734,7.018,33.945,33.945,0,0,1,1.742,8.787c-.008.8.072,1.62-.01,2.446a21.9,21.9,0,0,1-.358,2.5,12.118,12.118,0,0,1-.82,2.47c-.2.4-.356.813-.588,1.194l-.786,1.1a9.531,9.531,0,0,1-4.508,3.076c-.465.111-.937.231-1.4.323l-1.328.1a9.411,9.411,0,0,1-2.853-.308,2.256,2.256,0,0,0-1.091-.239,1.093,1.093,0,0,0-.432.147,4.276,4.276,0,0,0-.455.38,4.819,4.819,0,0,1-2.749,1.138,11.553,11.553,0,0,1-5.633-.693,5.8,5.8,0,0,1-1.3-.735,3.859,3.859,0,0,1-.581-.549c-.174-.211-.221-.286-.329-.332a.561.561,0,0,0-.353-.048.7.7,0,0,0-.164.05l-.285.167a6.132,6.132,0,0,1-1.37.575,9.555,9.555,0,0,1-2.871.314,3.834,3.834,0,0,1-2.678-1.436,10.312,10.312,0,0,1-1.9-5.235,26.434,26.434,0,0,1-.135-5.317,31.465,31.465,0,0,1,.775-5.062,41.067,41.067,0,0,1,1.364-4.7,52.763,52.763,0,0,1,3.679-8.132,42.973,42.973,0,0,1,7.953-10.681,13.455,13.455,0,0,1,3.02-2.229,4.286,4.286,0,0,1,.92-.368Z" fill="#7aabcc"/>
          </g>
        </g>
      </g>
    </g>
  </g>
</svg>
