<svg xmlns="http://www.w3.org/2000/svg" xmlns:xlink="http://www.w3.org/1999/xlink" width="58" height="93" viewBox="0 0 58 93">
  <defs>
    <linearGradient id="linear-gradient" x1="-1750.181" y1="1" x2="-1750.181" gradientUnits="objectBoundingBox">
      <stop offset="0" stop-color="#fff"/>
      <stop offset="0.25" stop-color="#f2f7fa"/>
    </linearGradient>
    <clipPath id="clip-path">
      <path id="SVGID" d="M70.039,755.053,70,755.038c0-3,5-22.971,5-27.965s-5.429-14.411-3-19.975c.756-1.733,2.317-1.666,4.163-.495-.628-2.554-.812-4.773.837-5.5,2.272-1,6.91,5.332,9.988,10.073,0-.026.007-.064.012-.085.429-1.855,6-.428,9,6.991s6,14.7,6,23.97c0,8.923-.923,11.65-.993,18.2,1.725,2.654,2.993,5.454,2.993,7.771v3c0,5.849-4,9.987-10,9.987-3.919,0-6.776-3.34-8.409-5.948a1.5,1.5,0,0,0-2.658.226c-1.183,2.913-3.4,6.721-6.933,6.721-5.714,0-10-5.707-10-10.986C66,767.667,65.949,760.12,70.039,755.053Z" fill="none"/>
    </clipPath>
    <linearGradient id="linear-gradient-2" x1="-273.885" y1="1" x2="-273.885" y2="0" xlink:href="#linear-gradient"/>
  </defs>
  <g id="Regular1" transform="translate(-56 -695)">
    <rect id="Rectangle_245" data-name="Rectangle 245" width="58" height="93" transform="translate(56 695)" fill="none"/>
    <g id="Group_1696" data-name="Group 1696" transform="translate(0 -2)">
      <g id="Group_1694" data-name="Group 1694">
        <g id="Group_1682" data-name="Group 1682">
          <path id="Path_2646" data-name="Path 2646" d="M82,785.5c-6.373,0-8.129-6.717-8.449-8.264l9.433-6.6,8.436,6.553C90.908,778.743,88.312,785.5,82,785.5Z" fill="#ebf2f7"/>
          <g id="Group_1680" data-name="Group 1680">
            <path id="Path_2647" data-name="Path 2647" d="M84.844,777.229l-.375.263,1.35,1.05A4.768,4.768,0,0,1,82,781c-.02,0-.117-.006-.248-.023A3.623,3.623,0,0,0,84,782a4.768,4.768,0,0,0,3.819-2.458Z" fill="#d1e2ed"/>
          </g>
          <path id="Path_2648" data-name="Path 2648" d="M82,781a3.856,3.856,0,0,1-3.078-2.028l3.922-2.742,2.976,2.312A4.774,4.774,0,0,1,82,781Z" fill="#ebf2f7"/>
          <path id="Path_2649" data-name="Path 2649" d="M82,779a2.208,2.208,0,0,1-1.65-.807l2.463-1.721,1.609,1.25A3.281,3.281,0,0,1,82,779Z" fill="url(#linear-gradient)"/>
          <g id="Group_1681" data-name="Group 1681">
            <path id="Path_2650" data-name="Path 2650" d="M78.922,778.972l3.547-2.48-1.625-1.263-3.922,2.743a3.969,3.969,0,0,0,2.83,2.005A4.7,4.7,0,0,1,78.922,778.972Z" fill="#fff"/>
          </g>
          <path id="Path_2651" data-name="Path 2651" d="M82.969,771.262l7.867,6.111C90.159,779.309,87.685,785,82,785c-5.625,0-7.438-5.651-7.889-7.546l8.858-6.192M83,770.02l-10,6.991S74.429,786,82,786s10-8.989,10-8.989l-9-6.991Z" fill="#7aabcc"/>
        </g>
        <g id="Group_1693" data-name="Group 1693">
          <g id="Group_1692" data-name="Group 1692" clip-path="url(#clip-path)">
            <g id="Group_1687" data-name="Group 1687">
              <path id="Path_2652" data-name="Path 2652" d="M76,781.505c-5.437,0-9.5-5.536-9.5-10.486V770.9c0-3.46,0-10.66,3.928-15.529l.432-.535-.344-.132c.131-1.618,1.041-5.956,2-10.53,1.4-6.67,2.984-14.231,2.984-17.1a28.24,28.24,0,0,0-1.636-7.274c-1.331-4.319-2.84-9.214-1.406-12.5.408-.935.981-1.043,1.376-1.043a4.155,4.155,0,0,1,2.061.77l1.05.667-.3-1.208c-.727-2.96-.562-4.431.553-4.921a.78.78,0,0,1,.319-.063c1.646,0,4.944,3.627,9.048,9.95l.705,1.086.208-1.277c.076-.355.488-.4.727-.4,1.675,0,5.145,2.012,7.328,7.412l.135.332c3,7.412,5.829,14.413,5.829,23.451a102.783,102.783,0,0,1-.545,10.779c-.215,2.3-.417,4.471-.448,7.413l0,.151.083.127c1.9,2.931,2.912,5.523,2.912,7.5v3c0,5.674-3.818,9.487-9.5,9.487-3.642,0-6.353-3.107-7.985-5.713a2,2,0,0,0-3.546.3C81.282,778.02,79.2,781.505,76,781.505Z" fill="#ebf2f7"/>
              <g id="Group_1684" data-name="Group 1684">
                <g id="Group_1683" data-name="Group 1683">
                  <path id="Path_2653" data-name="Path 2653" d="M77.586,752.586c-.014.07-.03.15-.043.219l.563.216.145-.18Z" fill="#d1e2ed"/>
                  <path id="Path_2654" data-name="Path 2654" d="M83.987,717.489l-.079-.318-5.271-3.346c.019.1.048.21.069.314Z" fill="#d1e2ed"/>
                  <path id="Path_2655" data-name="Path 2655" d="M85.621,718.257l4.216,6.5.271-1.663-4.813-7.418.692,2.817Z" fill="#d1e2ed"/>
                  <path id="Path_2656" data-name="Path 2656" d="M98.814,763.977l-.823-1.268.016-1.512c.034-3.126.254-5.493.467-7.781A99.046,99.046,0,0,0,99,743.055c0-8.163-2.672-14.77-5.5-21.764l-.135-.333c-.176-.437-.36-.836-.548-1.2l-.442,2.708c2.48,6.213,4.626,12.276,4.626,19.59a99.046,99.046,0,0,1-.526,10.361c-.213,2.288-.433,4.655-.467,7.781l-.016,1.512.823,1.268c2.081,3.2,2.186,4.764,2.186,5.045v3c0,3.169-1.822,4.987-5,4.987-.02,0-.041-.007-.062-.008A3.364,3.364,0,0,0,96,777.006c3.178,0,5-1.818,5-4.987v-3C101,768.741,100.895,767.176,98.814,763.977Z" fill="#d1e2ed"/>
                  <path id="Path_2657" data-name="Path 2657" d="M84.32,769.354A6.469,6.469,0,0,0,78.3,773.4c-1.05,2.584-2.071,3.47-2.341,3.6a3.348,3.348,0,0,1-.575-.062,4.122,4.122,0,0,0,2.575,1.062c.27-.132,1.291-1.018,2.341-3.6a6.467,6.467,0,0,1,7.9-3.762A6.459,6.459,0,0,0,84.32,769.354Z" fill="#d1e2ed"/>
                </g>
              </g>
              <path id="Path_2658" data-name="Path 2658" d="M75.959,777.005C73.284,776.971,71,773.7,71,771.019V770.9c0-2.944,0-9.07,2.93-12.7l4.321-5.353L75.543,751.8c.393-2.02.932-4.588,1.377-6.711,1.86-8.873,3.08-14.92,3.08-18.021,0-2.644-.892-5.537-1.836-8.6a57.231,57.231,0,0,1-1.527-5.648l7.35,4.664-.692-2.817,6.542,10.081.979-6c.188.365.372.765.549,1.2l.134.333c2.829,6.994,5.5,13.6,5.5,21.763a98.775,98.775,0,0,1-.526,10.362c-.213,2.288-.433,4.655-.467,7.782l-.016,1.511.824,1.268c2.08,3.2,2.185,4.764,2.185,5.045v3c0,3.169-1.822,4.987-5,4.987-1.2,0-2.759-1.346-4.172-3.6a6.5,6.5,0,0,0-11.528,1C77.25,775.987,76.229,776.873,75.959,777.005Z" fill="#ebf2f7"/>
              <path id="Path_2659" data-name="Path 2659" d="M75.654,774.98C73.682,774.7,72,772.1,72,770.019V769.9c0-2.829,0-8.717,2.708-12.073l5.186-6.425-3.206-1.226c.369-1.861.825-4.035,1.211-5.872,1.873-8.934,3.1-15.029,3.1-18.226,0-2.795-.913-5.758-1.88-8.894-.271-.878-.622-2.017-.94-3.19l7.018,4.453,5.211,8.03.838-5.134c2.527,6.3,4.753,12.394,4.753,19.716a97.868,97.868,0,0,1-.522,10.269c-.215,2.309-.437,4.7-.471,7.864L94.988,761l.988,1.521c1.6,2.462,2.024,4.02,2.024,4.5v3c0,1.819-.694,3.987-4,3.987-.656,0-1.976-.98-3.324-3.133a7.5,7.5,0,0,0-13.3,1.154A9.1,9.1,0,0,1,75.654,774.98Z" fill="url(#linear-gradient-2)"/>
              <g id="Group_1686" data-name="Group 1686">
                <g id="Group_1685" data-name="Group 1685">
                  <path id="Path_2660" data-name="Path 2660" d="M89.837,724.753l.537-3.288c-.288-.722-.58-1.445-.875-2.174l-.135-.333c-.176-.437-.36-.836-.548-1.2l-.708,4.333Z" fill="#fff"/>
                  <path id="Path_2661" data-name="Path 2661" d="M83.621,717.257l-2.326-3.585.613,2.5Z" fill="#fff"/>
                  <path id="Path_2662" data-name="Path 2662" d="M71,771.019V770.9c0-2.945,0-9.071,2.93-12.7l4.321-5.353-2.145-.82-4.176,5.173C69,760.825,69,766.951,69,769.9v.123c0,2.486,1.965,5.475,4.384,5.924A6.873,6.873,0,0,1,71,771.019Z" fill="#fff"/>
                  <path id="Path_2663" data-name="Path 2663" d="M73.543,750.8l2.043.781c.39-1.985.9-4.441,1.334-6.492,1.86-8.872,3.08-14.92,3.08-18.021,0-2.644-.892-5.537-1.836-8.6-.483-1.568-1.086-3.544-1.458-5.335l-2.069-1.314a57.4,57.4,0,0,0,1.527,5.649c.944,3.062,1.836,5.955,1.836,8.6,0,3.1-1.22,9.149-3.08,18.021C74.475,746.217,73.937,748.785,73.543,750.8Z" fill="#fff"/>
                  <path id="Path_2664" data-name="Path 2664" d="M89.828,772.4a6.452,6.452,0,0,0-3.625-2.763,6.513,6.513,0,0,1,1.625,1.763c1.39,2.218,2.919,3.55,4.11,3.594A11.927,11.927,0,0,1,89.828,772.4Z" fill="#fff"/>
                </g>
              </g>
              <path id="Path_2665" data-name="Path 2665" d="M77.521,702c.386,0,2.623.469,8.627,9.723l1.379,2.125.439-2.462a.884.884,0,0,1,.242-.028c1.3,0,4.695,1.737,6.865,7.1l.133.33c2.98,7.365,5.794,14.323,5.794,23.266a102.335,102.335,0,0,1-.543,10.732c-.215,2.31-.418,4.491-.45,7.453l0,.3.164.253c1.853,2.85,2.832,5.349,2.832,7.226v3c0,5.376-3.617,8.987-9,8.987-3.413,0-6-2.98-7.562-5.48a2.5,2.5,0,0,0-4.432.382c-.924,2.277-2.934,6.1-6.006,6.1-5.151,0-9-5.273-9-9.986V770.9c0-3.4,0-10.483,3.817-15.214l.812-1.07-.578-.231c.217-1.823,1.1-6.027,1.954-10.109,1.4-6.694,3-14.282,3-17.2a28.533,28.533,0,0,0-1.658-7.422c-1.306-4.235-2.786-9.036-1.426-12.153.285-.653.61-.743.919-.743a3.549,3.549,0,0,1,1.793.692l2.1,1.332-.594-2.416c-.84-3.417-.249-4.115.268-4.342a.3.3,0,0,1,.119-.021m0-1a1.284,1.284,0,0,0-.521.1c-1.648.725-1.465,2.944-.837,5.5a4.582,4.582,0,0,0-2.328-.848A1.937,1.937,0,0,0,72,707.1c-2.429,5.564,3,14.981,3,19.975s-5,24.969-5,27.965l.039.016C65.949,760.12,66,767.667,66,771.019c0,5.279,4.286,10.986,10,10.986,3.528,0,5.75-3.808,6.933-6.721a1.5,1.5,0,0,1,2.658-.226c1.634,2.608,4.49,5.948,8.409,5.948,6,0,10-4.138,10-9.987v-3c0-2.317-1.269-5.118-2.993-7.771.07-6.547.993-9.273.993-18.2,0-9.275-3-16.552-6-23.971-2.233-5.522-5.891-7.726-7.792-7.726-.652,0-1.1.26-1.208.735,0,.02-.008.058-.013.086C84.129,706.774,79.925,701,77.521,701Z" fill="#7aabcc"/>
            </g>
            <g id="Group_1688" data-name="Group 1688">
              <path id="Path_2666" data-name="Path 2666" d="M70,755.038a7.61,7.61,0,0,1-.042-.834,22.9,22.9,0,0,1,.157-2.37c.207-2.025.777-4.862,1.467-8.258.656-3.4,1.534-7.351,2.27-11.6.185-1.06.364-2.143.482-3.229.079-.549.1-1.082.128-1.622a10.562,10.562,0,0,0-.147-1.614,57.068,57.068,0,0,0-1.762-6.575,39.282,39.282,0,0,1-1.605-6.8,12.185,12.185,0,0,1,.06-3.52,8.716,8.716,0,0,1,.48-1.715,3.5,3.5,0,0,1,.5-.821,1.587,1.587,0,0,1,.384-.379,1.543,1.543,0,0,1,.453-.28,2.855,2.855,0,0,1,1.958-.088,6.76,6.76,0,0,1,1.569.724,14.449,14.449,0,0,1,2.478,1.981,29.843,29.843,0,0,1,3.64,4.374,28.446,28.446,0,0,1,3.893,7.513,15.323,15.323,0,0,1,.547,2.314c.077.544.094.835.094.835s-.121-.27-.3-.779c-.211-.5-.513-1.23-.949-2.132a48.168,48.168,0,0,0-4.157-7.133,33.253,33.253,0,0,0-3.554-4.18,13.42,13.42,0,0,0-2.278-1.835,2.932,2.932,0,0,0-2.475-.585,1.7,1.7,0,0,0-.791.906,7.7,7.7,0,0,0-.421,1.474A11.1,11.1,0,0,0,72,712.027a38.329,38.329,0,0,0,1.512,6.618,57.26,57.26,0,0,1,1.852,6.722,11.689,11.689,0,0,1,.17,1.763c-.026.587-.045,1.175-.12,1.732-.115,1.131-.287,2.224-.465,3.3-.725,4.293-1.572,8.248-2.316,11.634s-1.345,6.207-1.865,8.159c-.254.975-.454,1.741-.59,2.264Z" fill="#7aabcc"/>
            </g>
            <g id="Group_1689" data-name="Group 1689">
              <path id="Path_2667" data-name="Path 2667" d="M86,744.052s.112-.336.364-.945a26.336,26.336,0,0,0,.786-2.7,44.4,44.4,0,0,0,1.006-9.952,110.09,110.09,0,0,0-1.171-14.213c-.168-1.3-.366-2.614-.5-3.989a6.052,6.052,0,0,1-.026-1.142.938.938,0,0,1,.043-.219l.041-.121a1.372,1.372,0,0,1,.242-.394,1.471,1.471,0,0,1,.648-.428,3.569,3.569,0,0,1,2.379.224,12.629,12.629,0,0,1,5.94,6.156c.66,1.3,1.129,2.609,1.667,3.9s1.038,2.59,1.518,3.89a65.106,65.106,0,0,1,2.42,7.788,43.929,43.929,0,0,1,1.126,7.57,67.872,67.872,0,0,1-.024,6.833c-.185,4.227-.664,7.7-.983,10.119-.147,1.216-.263,2.171-.342,2.822s-.127,1-.127,1-.046-.35-.088-1.008-.1-1.627-.079-2.859c-.032-2.476.417-5.949.549-10.119.056-2.082.089-4.362-.034-6.723a44.018,44.018,0,0,0-1.078-7.386,64.16,64.16,0,0,0-2.33-7.676c-.466-1.288-.969-2.578-1.481-3.873-.529-1.288-1-2.621-1.607-3.823a14.991,14.991,0,0,0-2.286-3.336,8.91,8.91,0,0,0-3.146-2.289,2.647,2.647,0,0,0-1.633-.2.409.409,0,0,0-.2.124.337.337,0,0,1-.033.033l-.04.121c.01-.054,0,.025,0,.031a5.654,5.654,0,0,0,.04.885c.138,1.312.347,2.641.523,3.94.365,2.6.672,5.135.875,7.546s.288,4.7.266,6.822a30.347,30.347,0,0,1-1.462,10.128c-.195.591-.439,1.095-.621,1.539-.233.43-.42.795-.588,1.08C86.208,743.765,86,744.052,86,744.052Z" fill="#7aabcc"/>
            </g>
            <g id="Group_1690" data-name="Group 1690">
              <path id="Path_2668" data-name="Path 2668" d="M93,757.036s.377.172,1.044.567a27.8,27.8,0,0,1,2.8,1.86,25.522,25.522,0,0,1,3.9,3.515,14.9,14.9,0,0,1,3.489,5.954,8.927,8.927,0,0,1,.308,1.986,12.749,12.749,0,0,1-.136,2.038,10.445,10.445,0,0,1-1.485,4.056,10.083,10.083,0,0,1-7.861,4.5c-.412.01-.783.047-1.233.033l-.584-.033-.648-.1a8.367,8.367,0,0,1-2.367-.878,12.739,12.739,0,0,1-3.737-3.3c-.514-.633-1-1.381-1.417-2.007a1,1,0,0,0-1.412-.111.985.985,0,0,0-.234.323l-.238.553c-.17.386-.352.771-.542,1.145a15.623,15.623,0,0,1-1.326,2.169,7.39,7.39,0,0,1-4.157,3.072,5.161,5.161,0,0,1-1.362.13,8.509,8.509,0,0,1-1.246-.116,7.279,7.279,0,0,1-1.279-.3,7.728,7.728,0,0,1-1.2-.463,10.831,10.831,0,0,1-3.9-3.133,12.872,12.872,0,0,1-2.262-4.316,14.373,14.373,0,0,1-.465-4.658,41.719,41.719,0,0,1,.264-4.395,22.64,22.64,0,0,1,2.245-7.79,14.184,14.184,0,0,1,4.536-5.2,13.015,13.015,0,0,1,2.6-1.267,9.927,9.927,0,0,1,2.354-.62c.728-.095,1.365-.246,1.931-.257l1.435.02c.776.006,1.185.033,1.185.033s-.411.079-1.173.181l-1.4.2c-.547.078-1.154.282-1.839.444a12.153,12.153,0,0,0-2.182.783,5.272,5.272,0,0,0-1.171.575l-1.2.714a13.555,13.555,0,0,0-4.13,4.89,22.663,22.663,0,0,0-2.073,7.435,40.448,40.448,0,0,0-.263,4.274,13.5,13.5,0,0,0,.407,4.334,10.974,10.974,0,0,0,5.549,6.805,6.72,6.72,0,0,0,1.063.417,6.233,6.233,0,0,0,1.09.268,7.739,7.739,0,0,0,1.184.117,4.248,4.248,0,0,0,1.072-.1,6.4,6.4,0,0,0,3.577-2.66,14.766,14.766,0,0,0,1.228-2.037c.18-.36.346-.717.505-1.082l.245-.577a2,2,0,0,1,3.422-.407c.487.728.892,1.34,1.4,1.962a11.713,11.713,0,0,0,3.433,3.01,7.3,7.3,0,0,0,2.047.749l.508.081.582.03c.326.009.727-.028,1.085-.038a8.988,8.988,0,0,0,7-4,9.814,9.814,0,0,0,1.333-3.611c.035-.312.1-.592.113-.924.01-.312.045-.68.034-.938a7.853,7.853,0,0,0-.251-1.733,14.254,14.254,0,0,0-3.187-5.578,43.387,43.387,0,0,0-3.573-3.661C94.3,758.058,93,757.036,93,757.036Z" fill="#7aabcc"/>
            </g>
            <g id="Group_1691" data-name="Group 1691">
              <path id="Path_2669" data-name="Path 2669" d="M92,751.043l.231.067a2.144,2.144,0,0,1,.632.258,7.394,7.394,0,0,1,.921.555c.356.216.708.516,1.115.824a30.374,30.374,0,0,1,2.557,2.34c.895.9,1.778,1.93,2.635,2.985a33.114,33.114,0,0,1,2.276,3.292,15.849,15.849,0,0,1,.857,1.648,9.977,9.977,0,0,1,.608,1.561,6.968,6.968,0,0,1,.361,1.381,3.2,3.2,0,0,1,.051,1.11,3.353,3.353,0,0,1-.244.958,4.234,4.234,0,0,1-.4-.878c-.069-.273-.236-.59-.346-.963-.067-.184-.109-.387-.176-.6-.083-.205-.17-.421-.26-.646a15.672,15.672,0,0,0-.645-1.431c-.216-.514-.539-1.017-.818-1.564a32.2,32.2,0,0,0-2.06-3.276c-.765-1.08-1.561-2.146-2.379-3.086-.8-.954-1.586-1.816-2.294-2.52-.368-.333-.68-.677-1-.928a7.431,7.431,0,0,0-.817-.647,2.326,2.326,0,0,0-.584-.343Z" fill="#7aabcc"/>
            </g>
          </g>
        </g>
      </g>
    </g>
  </g>
</svg>
