<svg xmlns="http://www.w3.org/2000/svg" xmlns:xlink="http://www.w3.org/1999/xlink" width="58" height="110" viewBox="0 0 58 110">
  <defs>
    <clipPath id="clip-path">
      <path id="SVGID" d="M834.568,753.352C834.447,750.478,834,738.939,834,725c0-13.984-2.375-25.5,1-35,.956-2.691-.982-4-2-4s-4.054,3.639-5,5c-4.372,6.288-12.863,39.638-12.863,43.656,0,8.25-.621,20.177-.751,22.594-2.6,4.9-4.386,10.115-4.386,12.75a8.989,8.989,0,0,0,4.935,8.111C815.924,784.355,818.91,788,825,788a5.024,5.024,0,0,0,5-4,14.22,14.22,0,0,0,10-14A29.616,29.616,0,0,0,834.568,753.352Z" fill="none"/>
    </clipPath>
    <linearGradient id="linear-gradient" x1="0.5" y1="1" x2="0.5" gradientUnits="objectBoundingBox">
      <stop offset="0" stop-color="#fff"/>
      <stop offset="0.25" stop-color="#f2f7fa"/>
    </linearGradient>
  </defs>
  <g id="Regular11" transform="translate(-796 -678)">
    <g id="Group_1429" data-name="Group 1429" transform="translate(0 -2)">
      <g id="Group_1428" data-name="Group 1428" transform="translate(0 -2)">
        <g id="Group_1427" data-name="Group 1427" clip-path="url(#clip-path)">
          <g id="Group_1425" data-name="Group 1425">
            <path id="Path_2393" data-name="Path 2393" d="M825,787.5c-5.507,0-8.548-3.008-9.571-9.467l-.038-.241-.214-.118A8.463,8.463,0,0,1,810.5,770c0-2.571,1.779-7.717,4.327-12.515l.052-.1.006-.11c.126-2.325.752-14.342.752-22.621,0-4.134,8.6-37.367,12.774-43.371,1.2-1.719,3.916-4.733,4.592-4.785a1.91,1.91,0,0,1,1.364.828,2.668,2.668,0,0,1,.162,2.505c-2.369,6.667-1.951,14.215-1.467,22.956.215,3.892.438,7.916.438,12.211,0,13.821.435,25.211.569,28.373l.006.143.08.118A29.359,29.359,0,0,1,839.5,770a13.6,13.6,0,0,1-9.629,13.517l-.3.081-.06.308A4.5,4.5,0,0,1,825,787.5Z" fill="#ebf2f7"/>
            <g id="Group_1423" data-name="Group 1423">
              <path id="Path_2394" data-name="Path 2394" d="M832.438,757.171l-.8-1.181-.06-1.427C831.438,751.379,831,739.909,831,726c0-4.171-.219-8.132-.431-11.962-.179-3.238-.355-6.41-.374-9.5-.585,1.789-1.183,3.719-1.776,5.71q.072,1.387.15,2.79c.212,3.83.431,7.791.431,11.962,0,13.909.438,25.379.573,28.563l.06,1.427.8,1.181A24.324,24.324,0,0,1,835,770c0,6.957-5.289,8.872-6.349,9.186l-3.375.9-.184,2.892-.009.02L825,783a8.417,8.417,0,0,1-1.345-.09A4.269,4.269,0,0,0,827,784l.083,0,.009-.02.184-2.892,3.375-.9c1.06-.314,6.349-2.229,6.349-9.186A24.324,24.324,0,0,0,832.438,757.171Z" fill="#d1e2ed"/>
            </g>
            <path id="Path_2395" data-name="Path 2395" d="M825,783c-2.313,0-4.3-.427-5.126-5.67l-.382-2.412-2.137-1.182A3.921,3.921,0,0,1,815,770c0-1.309,1.208-5.521,3.8-10.405l.517-.974.059-1.1c.127-2.346.759-14.47.759-22.864.142-2.948,4.367-19.82,8.058-31.118.019,3.09.2,6.262.374,9.5.212,3.83.431,7.791.431,11.962,0,13.91.438,25.379.573,28.563l.06,1.428.8,1.18A24.324,24.324,0,0,1,835,770c0,6.957-5.289,8.872-6.349,9.186l-3.375.9-.184,2.891-.01.021Z" fill="#ebf2f7"/>
            <path id="Path_2396" data-name="Path 2396" d="M824.21,780.983c-1.428-.1-2.7-.724-3.348-4.81l-.459-2.894-2.564-1.418A2.953,2.953,0,0,1,816,769c.006-1.056,1.093-5.055,3.685-9.936l.621-1.169.071-1.322c.126-2.342.756-14.425.76-22.843.2-2.868,3.164-14.97,6.24-25.279.058,1.2.126,2.419.193,3.642.212,3.817.43,7.764.43,11.907,0,13.929.439,25.416.574,28.6l.072,1.713.967,1.417A23.345,23.345,0,0,1,834,769c0,6.207-4.694,7.943-5.635,8.227l-3.817.888Z" fill="url(#linear-gradient)"/>
            <g id="Group_1424" data-name="Group 1424">
              <path id="Path_2397" data-name="Path 2397" d="M819.874,777.33l-.382-2.412-2.137-1.182A3.921,3.921,0,0,1,815,770c0-1.309,1.208-5.521,3.8-10.405l.517-.974.059-1.1c.127-2.345.759-14.469.759-22.864.119-2.481,3.131-14.825,6.282-25.408-.116-2.273-.211-4.514-.224-6.71-3.691,11.3-7.916,28.17-8.058,31.118,0,8.4-.632,20.519-.759,22.864l-.059,1.1-.517.974c-2.594,4.884-3.8,9.1-3.8,10.405a3.921,3.921,0,0,0,2.355,3.736l2.137,1.182.382,2.412c.664,4.191,2.064,5.3,3.781,5.58C820.874,781.106,820.253,779.724,819.874,777.33Z" fill="#fff"/>
            </g>
            <path id="Path_2398" data-name="Path 2398" d="M833.063,687.006a1.477,1.477,0,0,1,.9.61,2.2,2.2,0,0,1,.1,2.049c-2.4,6.762-1.982,14.357-1.5,23.151.216,3.885.438,7.9.438,12.184,0,13.811.436,25.226.569,28.4l.012.286.161.235A28.24,28.24,0,0,1,839,770a13.129,13.129,0,0,1-9.258,13.034l-.609.162-.116.619A3.974,3.974,0,0,1,825,787c-5.216,0-8.1-2.874-9.077-9.045l-.076-.482-.428-.237A7.983,7.983,0,0,1,811,770c0-2.458,1.795-7.622,4.269-12.281l.1-.2.011-.22c.126-2.329.753-14.369.753-22.648,0-4.108,8.539-37.124,12.684-43.086,1.154-1.659,3.491-4.236,4.242-4.564M833,686c-1.018,0-4.054,3.639-5,5-4.372,6.288-12.863,39.639-12.863,43.656,0,8.25-.621,20.177-.751,22.594-2.6,4.9-4.386,10.115-4.386,12.75a8.986,8.986,0,0,0,4.936,8.111C815.924,784.354,818.91,788,825,788a5.024,5.024,0,0,0,5-4,14.22,14.22,0,0,0,10-14,29.609,29.609,0,0,0-5.432-16.647C834.447,750.479,834,738.939,834,725c0-13.984-2.375-25.5,1-35,.956-2.691-.982-4-2-4Z" fill="#7aabcc"/>
          </g>
          <g id="Group_1426" data-name="Group 1426">
            <path id="Path_2399" data-name="Path 2399" d="M822.426,747.059s-.081.123-.252.33-.435.5-.766.858c-.3.388-.681.791-1.114,1.287-.422.513-.94,1.05-1.418,1.721-.515.636-.991,1.391-1.542,2.154-.511.792-1.06,1.622-1.57,2.518-.536.881-1.032,1.827-1.534,2.788s-.959,1.964-1.4,2.973a36.9,36.9,0,0,0-1.984,6.112,10.653,10.653,0,0,0-.255,2.847,9.2,9.2,0,0,0,.489,2.457,8.613,8.613,0,0,0,.973,1.9c.358.53.7.987,1,1.354l.712.873c.173.2.26.321.26.321a4.113,4.113,0,0,1-.392-.143,5.612,5.612,0,0,1-1.024-.572,7.214,7.214,0,0,1-2.527-3.354,8.73,8.73,0,0,1-.618-2.8,11.38,11.38,0,0,1,.3-3.12,37.913,37.913,0,0,1,2.149-6.268c.433-1.036.893-2.061,1.379-3.054s.984-1.962,1.516-2.872c.505-.926,1.073-1.777,1.593-2.594a26.657,26.657,0,0,1,1.642-2.19,21.109,21.109,0,0,1,1.551-1.729,11.325,11.325,0,0,1,1.421-1.14A7.461,7.461,0,0,1,822.426,747.059Z" fill="#7aabcc"/>
          </g>
        </g>
      </g>
    </g>
    <rect id="Rectangle_255" data-name="Rectangle 255" width="58" height="110" transform="translate(796 678)" fill="none"/>
  </g>
</svg>
