<svg xmlns="http://www.w3.org/2000/svg" xmlns:xlink="http://www.w3.org/1999/xlink" width="58" height="76" viewBox="0 0 58 76">
  <defs>
    <clipPath id="clip-path">
      <path id="SVGID" d="M1172.5,846c0-3.571,3.989-9,8.975-9a13.005,13.005,0,0,1,7.252,2.592,3.53,3.53,0,0,0,3.674.285,14.6,14.6,0,0,1,6.026-1.877c2.252,0,5,1.3,6.611,2.19a3.369,3.369,0,0,0,2.679.25c2.022-.659,5.668-.945,5.668,5.56,0,8.571-2.784,12.659-4.986,17-1.55,3.056-.712,17.571,0,21s8.833,13.714,8.975,16,.76,4-2.991,4c-5.015,0-12.559-8.568-15.606-12.3a.636.636,0,0,0-1.123.485,20.377,20.377,0,0,0,.773,3.814c.713,2,6.126,9,1.995,9s-13.391-9-15.956-13-6.98-14.857-6.98-31C1177.486,854.571,1172.5,851.286,1172.5,846Z" fill="none"/>
    </clipPath>
    <linearGradient id="linear-gradient" x1="0.5" y1="1" x2="0.5" gradientUnits="objectBoundingBox">
      <stop offset="0" stop-color="#fff"/>
      <stop offset="0.25" stop-color="#f2f7fa"/>
    </linearGradient>
  </defs>
  <g id="Regular17" transform="translate(-1166 -836)">
    <rect id="Rectangle_276" data-name="Rectangle 276" width="58" height="76" transform="translate(1166 836)" fill="none"/>
    <g id="Group_1356" data-name="Group 1356" transform="translate(0 3)">
      <g id="Group_1355" data-name="Group 1355">
        <g id="Group_1354" data-name="Group 1354" clip-path="url(#clip-path)">
          <g id="Group_1346" data-name="Group 1346">
            <path id="Path_2322" data-name="Path 2322" d="M1200.422,904.5c-3.8,0-12.977-8.781-15.535-12.77-.706-1.1-6.9-11.326-6.9-30.73,0-3.5-1.391-6.043-2.737-8.5-1.157-2.114-2.249-4.111-2.249-6.5,0-3.357,3.8-8.5,8.475-8.5a12.48,12.48,0,0,1,6.963,2.5,4.092,4.092,0,0,0,2.376.764,3.955,3.955,0,0,0,1.817-.443,14.127,14.127,0,0,1,5.8-1.821c2.182,0,4.927,1.333,6.369,2.128a3.876,3.876,0,0,0,3.076.287,5.586,5.586,0,0,1,1.716-.3c2.188,0,3.3,1.812,3.3,5.386,0,7.4-2.085,11.355-4.1,15.18-.282.533-.56,1.061-.831,1.594-1.636,3.226-.744,17.953-.043,21.328.386,1.858,2.714,5.437,4.966,8.9,1.846,2.838,3.938,6.054,4,7.031.016.257.038.508.059.749.086.973.153,1.742-.23,2.161a3.264,3.264,0,0,1-2.321.559c-4.805,0-12.243-8.472-15.218-12.115a1.11,1.11,0,0,0-.873-.42,1.157,1.157,0,0,0-.866.391,1.12,1.12,0,0,0-.269.893,20.066,20.066,0,0,0,.8,3.919,17.68,17.68,0,0,0,1.215,2.3c1.026,1.771,2.743,4.735,2.191,5.692C1201.233,904.387,1200.917,904.5,1200.422,904.5Z" fill="#ebf2f7"/>
            <g id="Group_1343" data-name="Group 1343">
              <g id="Group_1342" data-name="Group 1342">
                <path id="Path_2323" data-name="Path 2323" d="M1185.838,843.673a8.665,8.665,0,0,0,2.182,1.109c-.059-.04-.124-.067-.182-.109a10.565,10.565,0,0,0-2.472-1.315C1185.54,843.469,1185.7,843.577,1185.838,843.673Z" fill="#d1e2ed"/>
                <path id="Path_2324" data-name="Path 2324" d="M1198.292,886.465a5.636,5.636,0,0,0-5.6,6.349l.008.055c.662.739,1.4,1.506,2.179,2.265q-.1-.624-.187-1.32a5.619,5.619,0,0,1,7.072-6.145A5.6,5.6,0,0,0,1198.292,886.465Z" fill="#d1e2ed"/>
                <path id="Path_2325" data-name="Path 2325" d="M1211.1,896.454c-3.137-4.822-5.079-7.931-5.6-10.437-.4-1.926-2.206-19.071.436-24.279.281-.553.571-1.1.863-1.657,1.923-3.645,3.583-6.794,3.583-13.081,0-.211-.006-.4-.015-.567a8.448,8.448,0,0,1-1.709.175c-.1,0-.191-.014-.287-.018-.1,5.892-1.711,8.963-3.572,12.491-.292.554-.582,1.1-.863,1.657-2.642,5.208-.836,22.353-.436,24.279.408,1.965,1.7,4.315,3.749,7.556,1.424,1.577,2.724,2.874,3.873,3.915Z" fill="#d1e2ed"/>
              </g>
            </g>
            <path id="Path_2326" data-name="Path 2326" d="M1209.126,895.488a64.564,64.564,0,0,1-6.476-6.949,5.636,5.636,0,0,0-9.957,4.276q.088.695.187,1.319a31.19,31.19,0,0,1-4.2-4.832c-2.3-3.587-6.19-13.583-6.19-28.3,0-4.65-1.824-7.984-3.289-10.662-1.052-1.924-1.7-3.162-1.7-4.338.026-1.088,1.982-4,3.975-4a8.278,8.278,0,0,1,4.363,1.673,8.569,8.569,0,0,0,4.976,1.591,8.471,8.471,0,0,0,3.892-.95,10.043,10.043,0,0,1,3.721-1.314,10.858,10.858,0,0,1,4.2,1.569,8.369,8.369,0,0,0,5.746.863c.009.168.014.357.014.568,0,6.287-1.66,9.435-3.582,13.08-.292.555-.582,1.1-.863,1.658-2.641,5.208-.836,22.353-.436,24.279.521,2.507,2.463,5.615,5.6,10.437Z" fill="#ebf2f7"/>
            <path id="Path_2327" data-name="Path 2327" d="M1191.678,890.473a21.758,21.758,0,0,1-2.16-2.711c-2.241-3.495-6.032-13.274-6.032-27.762,0-4.905-1.972-8.51-3.412-11.142-.976-1.785-1.574-2.926-1.574-3.858.123-.939,1.807-3,2.975-3a7.118,7.118,0,0,1,3.785,1.489,9.567,9.567,0,0,0,5.554,1.775,9.467,9.467,0,0,0,4.353-1.063,9.578,9.578,0,0,1,3.261-1.2,10.643,10.643,0,0,1,3.714,1.445,9.394,9.394,0,0,0,4.52,1.163c.24,0,.48-.009.718-.027-.1,5.658-1.662,8.62-3.461,12.033-.295.559-.587,1.114-.871,1.672-2.8,5.525-.948,22.888-.523,24.934a12.876,12.876,0,0,0,.953,2.752l-.054-.066a6.635,6.635,0,0,0-11.746,3.567Z" fill="url(#linear-gradient)"/>
            <g id="Group_1345" data-name="Group 1345">
              <g id="Group_1344" data-name="Group 1344">
                <path id="Path_2328" data-name="Path 2328" d="M1190.814,845.264a8.467,8.467,0,0,0,3.892-.95,10.023,10.023,0,0,1,3.721-1.314,10.858,10.858,0,0,1,4.2,1.569,8.368,8.368,0,0,0,3.75,1.021c0-.2.011-.387.011-.59s-.006-.4-.015-.567a8.382,8.382,0,0,1-5.746-.864,10.858,10.858,0,0,0-4.2-1.569,10.023,10.023,0,0,0-3.721,1.314,8.4,8.4,0,0,1-6.686.468A8.558,8.558,0,0,0,1190.814,845.264Z" fill="#fff"/>
                <path id="Path_2329" data-name="Path 2329" d="M1188.676,889.3c-2.3-3.587-6.19-13.583-6.19-28.3,0-4.649-1.824-7.983-3.289-10.662-1.052-1.924-1.7-3.162-1.7-4.338.026-1.088,1.982-4,3.975-4a5.719,5.719,0,0,1,1.891.358,7.712,7.712,0,0,0-3.891-1.358c-1.993,0-3.949,2.912-3.975,4,0,1.176.645,2.414,1.7,4.338,1.465,2.679,3.289,6.013,3.289,10.662,0,14.719,3.891,24.715,6.19,28.3a31.19,31.19,0,0,0,4.2,4.832c-.063-.4-.123-.822-.179-1.265A21.384,21.384,0,0,1,1188.676,889.3Z" fill="#fff"/>
                <path id="Path_2330" data-name="Path 2330" d="M1205.253,891.573q-1.241-1.372-2.6-3.034a5.62,5.62,0,0,0-2.885-1.87,5.681,5.681,0,0,1,.885.87,64.47,64.47,0,0,0,6.476,6.949l-.022-.034C1206.427,893.413,1205.816,892.466,1205.253,891.573Z" fill="#fff"/>
              </g>
            </g>
            <path id="Path_2331" data-name="Path 2331" d="M1181.475,838a11.988,11.988,0,0,1,6.673,2.408,4.594,4.594,0,0,0,2.665.857,4.472,4.472,0,0,0,2.049-.5,13.65,13.65,0,0,1,5.565-1.765c2.071,0,4.728,1.294,6.127,2.065a4.378,4.378,0,0,0,3.473.326,5.077,5.077,0,0,1,1.56-.277c.692,0,2.8,0,2.8,4.886,0,7.278-2.056,11.177-4.044,14.947-.282.535-.562,1.066-.833,1.6-1.716,3.382-.818,18.139-.088,21.656.406,1.95,2.655,5.408,5.037,9.069,1.632,2.508,3.867,5.944,3.919,6.789.017.262.039.517.061.762.068.783.133,1.523-.1,1.779-.109.119-.519.4-1.952.4-3.186,0-8.73-4.46-14.832-11.932a1.623,1.623,0,0,0-1.259-.6,1.655,1.655,0,0,0-1.241.56,1.613,1.613,0,0,0-.39,1.287,20.5,20.5,0,0,0,.824,4.023,17.509,17.509,0,0,0,1.253,2.387c.65,1.121,2.626,4.532,2.193,5.19a.966.966,0,0,1-.509.088c-3.523,0-12.587-8.6-15.114-12.54a39.32,39.32,0,0,1-4.329-10.669A75.487,75.487,0,0,1,1178.486,861c0-3.627-1.487-6.345-2.8-8.742-1.125-2.057-2.187-4-2.187-6.258,0-3.086,3.65-8,7.975-8m0-1c-4.986,0-8.975,5.429-8.975,9,0,5.286,4.986,8.571,4.986,15,0,16.143,4.416,27,6.98,31s11.825,13,15.956,13-1.282-7-1.995-9a20.463,20.463,0,0,1-.774-3.814.637.637,0,0,1,.639-.721.616.616,0,0,1,.485.236c3.047,3.731,10.591,12.3,15.606,12.3,3.751,0,3.134-1.714,2.992-4s-8.263-12.571-8.976-16-1.55-17.944,0-21c2.2-4.341,4.986-8.429,4.986-17,0-4.765-1.956-5.886-3.8-5.886a6.189,6.189,0,0,0-1.87.325,3.4,3.4,0,0,1-1.056.169,3.344,3.344,0,0,1-1.623-.419c-1.613-.888-4.359-2.189-6.611-2.189a14.6,14.6,0,0,0-6.026,1.877,3.433,3.433,0,0,1-1.588.388,3.618,3.618,0,0,1-2.086-.673,13.005,13.005,0,0,0-7.252-2.592Z" fill="#7aabcc"/>
          </g>
          <g id="Group_1347" data-name="Group 1347">
            <path id="Path_2332" data-name="Path 2332" d="M1198.384,898.024s-.214-.265-.559-.744c-.179-.236-.385-.529-.609-.874s-.495-.724-.755-1.157c-.537-.858-1.118-1.886-1.679-3.021-.544-1.143-1.048-2.4-1.52-3.668a37.857,37.857,0,0,1-1.224-3.782c-.159-.615-.3-1.211-.4-1.786-.122-.569-.165-1.122-.24-1.623-.03-.508-.086-.97-.084-1.383s-.014-.771.013-1.066c.046-.588.072-.924.072-.924l.1.008s0,.334,0,.918c0,.292.042.645.067,1.05s.117.856.182,1.348c.112.488.193,1.021.354,1.571.14.553.306,1.132.5,1.724a37.235,37.235,0,0,0,1.407,3.642c.547,1.214,1.15,2.4,1.716,3.515l.773,1.628.676,1.472c.4.921.748,1.685.965,2.237s.339.867.339.867Z" fill="#7aabcc"/>
          </g>
          <g id="Group_1348" data-name="Group 1348">
            <path id="Path_2333" data-name="Path 2333" d="M1200.388,893.037a10.855,10.855,0,0,1-1.65-1.119,15.431,15.431,0,0,1-1.5-1.355c-.5-.542-.989-1.163-1.49-1.77a31.379,31.379,0,0,1-2.586-3.485c-.164-.246-.282-.5-.4-.709a5.026,5.026,0,0,1-.253-.579,1.651,1.651,0,0,1-.1-.4c-.015-.094-.024-.144-.024-.144l.1,0,.041.13a1.487,1.487,0,0,0,.135.355,4.9,4.9,0,0,0,.31.518c.142.191.281.413.473.634.363.454.814.962,1.306,1.5s1.035,1.1,1.585,1.647l1.649,1.587c.505.527.945,1.049,1.311,1.511a16.519,16.519,0,0,1,1.152,1.61Z" fill="#7aabcc"/>
          </g>
          <g id="Group_1349" data-name="Group 1349">
            <path id="Path_2334" data-name="Path 2334" d="M1190.474,861.956a3.194,3.194,0,0,1,.369.057,2.68,2.68,0,0,1,.929.409,3.751,3.751,0,0,1,1.022.978,6.98,6.98,0,0,1,.681,1.45,7.865,7.865,0,0,1,.37,1.535,5.013,5.013,0,0,1,.005,1.368,4.036,4.036,0,0,1-.225.932l-.137.333-.093-.036s.024-.124.067-.341a3.8,3.8,0,0,0,.038-.9,6.659,6.659,0,0,0-.759-2.571,9.37,9.37,0,0,0-.8-1.166c-.258-.361-.488-.7-.709-.987-.112-.141-.209-.283-.3-.386s-.168-.223-.256-.308a3.107,3.107,0,0,1-.25-.278Z" fill="#7aabcc"/>
          </g>
          <g id="Group_1350" data-name="Group 1350">
            <path id="Path_2335" data-name="Path 2335" d="M1193.392,866.99a1.19,1.19,0,0,1-.052-.319,2.431,2.431,0,0,1,.13-.856,3.29,3.29,0,0,1,.554-1.04,5.394,5.394,0,0,1,1.023-.879,5.939,5.939,0,0,1,1.166-.649,4.616,4.616,0,0,1,1.115-.29,4.489,4.489,0,0,1,.8-.023l.3.016v.1l-.287.052a4.382,4.382,0,0,0-.73.2,6.512,6.512,0,0,0-.935.467,5.267,5.267,0,0,0-.913.745,7.366,7.366,0,0,0-.725.916c-.237.283-.457.549-.665.774s-.372.433-.491.56c-.12.144-.187.256-.191.251Z" fill="#7aabcc"/>
          </g>
          <g id="Group_1351" data-name="Group 1351">
            <path id="Path_2336" data-name="Path 2336" d="M1207.352,872s-.062-.155-.139-.427-.191-.633-.325-1.079-.3-.934-.461-1.465a10.787,10.787,0,0,0-.6-1.641,7.919,7.919,0,0,0-.974-1.466,8.148,8.148,0,0,0-1.134-1.068,6.259,6.259,0,0,0-.94-.608l-.381-.2.036-.094.414.139a6.521,6.521,0,0,1,1.061.47,7.278,7.278,0,0,1,2.609,2.423c.177.278.355.559.505.849a6.444,6.444,0,0,1,.4.874,5.228,5.228,0,0,1,.2.873,4.7,4.7,0,0,1,.064.8,4.574,4.574,0,0,1-.114,1.186c-.06.277-.113.436-.113.436Z" fill="#7aabcc"/>
          </g>
          <g id="Group_1352" data-name="Group 1352">
            <path id="Path_2337" data-name="Path 2337" d="M1201.427,838.951l.121-.019a1.384,1.384,0,0,1,.343-.018,1.758,1.758,0,0,1,.58.18,2.51,2.51,0,0,1,.616.417,4.237,4.237,0,0,1,.589.622,5.2,5.2,0,0,1,.5.786,11.564,11.564,0,0,1,.666,1.862,16.683,16.683,0,0,1,.622,3.578,12.392,12.392,0,0,1,0,1.641h-.1a12.306,12.306,0,0,0-.243-1.595,20.678,20.678,0,0,0-1.031-3.361c-.137-.286-.251-.583-.405-.852s-.281-.543-.429-.791c-.123-.265-.273-.491-.38-.734-.139-.21-.243-.449-.375-.618a3.077,3.077,0,0,0-.363-.478,3.164,3.164,0,0,0-.313-.313,2.072,2.072,0,0,0-.3-.153l-.11-.056Z" fill="#7aabcc"/>
          </g>
          <g id="Group_1353" data-name="Group 1353">
            <path id="Path_2338" data-name="Path 2338" d="M1184.473,837.95s.178-.036.487-.068a1.691,1.691,0,0,1,.6.059,2.833,2.833,0,0,1,.748.289,4.229,4.229,0,0,1,1.4,1.314,9.1,9.1,0,0,1,.9,1.927,16.263,16.263,0,0,1,.571,2,13.759,13.759,0,0,1,.275,1.78A10.53,10.53,0,0,1,1189.5,847h-.1a10.356,10.356,0,0,0-.286-1.692,18.162,18.162,0,0,0-1.238-3.525c-.154-.3-.311-.6-.487-.868s-.344-.544-.535-.778c-.16-.261-.349-.47-.5-.7-.173-.2-.342-.4-.508-.558a3.824,3.824,0,0,0-.488-.392,2.07,2.07,0,0,0-.439-.259c-.293-.1-.458-.181-.458-.181Z" fill="#7aabcc"/>
          </g>
        </g>
      </g>
    </g>
  </g>
</svg>
