<svg xmlns="http://www.w3.org/2000/svg" xmlns:xlink="http://www.w3.org/1999/xlink" width="58" height="104" viewBox="0 0 58 104">
  <defs>
    <clipPath id="clip-path">
      <path id="SVGID" d="M839,854c0-3.875-10.75-17-15-17s-13,9-13,17c0,3.464,1.878,7.293,4,10.532A134.658,134.658,0,0,0,820,902c1.294,4.865,2.675,12.746,5,18,3.375,7.625,6.875,13,10,13,2.4,0-1-16.375-1-22,0-5.122,1.658-29.1,1.954-43.922A41.1,41.1,0,0,0,839,854Z" fill="none"/>
    </clipPath>
    <linearGradient id="linear-gradient" x1="0.5" y1="1" x2="0.5" gradientUnits="objectBoundingBox">
      <stop offset="0" stop-color="#fff"/>
      <stop offset="0.25" stop-color="#f2f7fa"/>
    </linearGradient>
  </defs>
  <g id="Regular22" transform="translate(-796 -836)">
    <rect id="Rectangle_271" data-name="Rectangle 271" width="58" height="104" transform="translate(796 836)" fill="none"/>
    <g id="Group_1390" data-name="Group 1390" transform="translate(0 3)">
      <g id="Group_1389" data-name="Group 1389">
        <g id="Group_1388" data-name="Group 1388" clip-path="url(#clip-path)">
          <g id="Group_1385" data-name="Group 1385">
            <path id="Path_2353" data-name="Path 2353" d="M834.995,932.5c-1.789,0-4.9-2.213-9.538-12.7-1.65-3.729-2.811-8.762-3.835-13.2-.4-1.72-.772-3.345-1.139-4.725a133.847,133.847,0,0,1-4.979-37.34v-.149l-.082-.124c-2.6-3.966-3.922-7.417-3.922-10.258,0-7.87,8.774-16.5,12.5-16.5,3.882,0,14.5,12.92,14.5,16.5a40.926,40.926,0,0,1-3.008,12.889l-.036.086,0,.093c-.17,8.5-.788,20.007-1.284,29.255C833.8,903.3,833.5,908.8,833.5,911a86.579,86.579,0,0,0,.873,8.857C834.949,924.371,835.913,931.919,834.995,932.5Z" fill="#ebf2f7"/>
            <g id="Group_1383" data-name="Group 1383">
              <path id="Path_2354" data-name="Path 2354" d="M825.829,843.133c-.117.053-.246.126-.375.2,3.222,2.782,7.837,8.661,8.54,10.935a38.2,38.2,0,0,1-2.667,10.918l-.353.862-.019.931c-.168,8.421-.784,19.889-1.278,29.1-.368,6.84-.659,12.274-.676,14.7a52.494,52.494,0,0,0,2.571,8.191l.038.086A64.614,64.614,0,0,1,831,912c0-2.316.3-7.877.677-14.918.494-9.215,1.11-20.683,1.278-29.1l.019-.931.353-.862a38.2,38.2,0,0,0,2.667-10.918C835.16,852.57,828.815,844.783,825.829,843.133Z" fill="#d1e2ed"/>
            </g>
            <path id="Path_2355" data-name="Path 2355" d="M829.572,917.976c-1.477-3.336-2.586-8.147-3.565-12.392-.406-1.757-.789-3.417-1.175-4.869a129.758,129.758,0,0,1-4.828-36.2l0-1.487-.816-1.243C816.414,857.567,816,855.1,816,854c0-4.855,5.324-10.74,7.829-11.867,2.986,1.65,9.331,9.437,10.165,12.134a38.2,38.2,0,0,1-2.667,10.918l-.353.862-.019.931c-.168,8.421-.784,19.889-1.279,29.1-.377,7.04-.676,12.6-.676,14.918a64.634,64.634,0,0,0,.61,7.062Z" fill="#ebf2f7"/>
            <path id="Path_2356" data-name="Path 2356" d="M828.019,908.744c-.366-1.472-.71-2.96-1.038-4.384-.407-1.766-.792-3.434-1.183-4.9A128.843,128.843,0,0,1,821,863.516L821,861.732l-.979-1.492c-2.726-4.153-3.02-6.447-3.02-7.24,0-4.1,4.365-9.213,6.786-10.7,2.8,1.947,8.19,8.384,9.2,11.119a37.6,37.6,0,0,1-2.585,10.385l-.423,1.034-.023,1.118c-.168,8.4-.783,19.863-1.277,29.07C828.356,901.033,828.091,905.964,828.019,908.744Z" fill="url(#linear-gradient)"/>
            <g id="Group_1384" data-name="Group 1384">
              <path id="Path_2357" data-name="Path 2357" d="M827,909.785c-.349-1.414-.68-2.836-.995-4.2-.4-1.757-.788-3.417-1.174-4.869a129.758,129.758,0,0,1-4.828-36.2l0-1.487-.816-1.243C816.414,857.567,816,855.1,816,854c0-4.627,4.832-10.181,7.454-11.668a10.385,10.385,0,0,0-1.625-1.2C819.325,842.261,814,848.146,814,853c0,1.1.414,3.567,3.184,7.789l.816,1.243,0,1.487a129.758,129.758,0,0,0,4.828,36.2c.386,1.452.769,3.112,1.174,4.869.979,4.245,2.089,9.056,3.566,12.392l.038.086A64.614,64.614,0,0,1,827,910C827,909.934,827,909.856,827,909.785Z" fill="#fff"/>
            </g>
            <path id="Path_2358" data-name="Path 2358" d="M824,838c3.6,0,14,12.656,14,16a40.352,40.352,0,0,1-2.972,12.7l-.07.172,0,.186c-.169,8.488-.787,19.995-1.284,29.24-.374,6.98-.67,12.493-.67,14.7a86.749,86.749,0,0,0,.877,8.92c.509,3.989,1.345,10.535.834,12.057-1.455-.231-4.336-2.3-8.8-12.382-1.632-3.685-2.787-8.693-3.806-13.112-.4-1.724-.774-3.352-1.143-4.74A133.4,133.4,0,0,1,816,864.529v-.3l-.163-.249C813.292,860.1,812,856.742,812,854c0-7.631,8.423-16,12-16m0-1c-4.25,0-13,9-13,17,0,3.463,1.878,7.293,4,10.532A134.658,134.658,0,0,0,820,902c1.294,4.865,2.675,12.746,5,18,3.375,7.625,6.875,13,10,13,2.4,0-1-16.375-1-22,0-5.122,1.658-29.1,1.954-43.922A41.089,41.089,0,0,0,839,854c0-3.875-10.75-17-15-17Z" fill="#7aabcc"/>
          </g>
          <g id="Group_1386" data-name="Group 1386">
            <path id="Path_2359" data-name="Path 2359" d="M821,872s-.292-.214-.788-.67a27.448,27.448,0,0,1-2.081-2.053,32.405,32.405,0,0,1-2.888-3.516,33.09,33.09,0,0,1-3.042-5.095,15.526,15.526,0,0,1-1.751-6.92,12.716,12.716,0,0,1,.2-1.892q.093-.5.187-.995.141-.476.284-.955a19.992,19.992,0,0,1,1.6-3.728,25.868,25.868,0,0,1,5.259-6.564,15.061,15.061,0,0,1,3.62-2.477,5.514,5.514,0,0,1,1.068-.409,4.614,4.614,0,0,1,1.171-.214l.151-.016a1.626,1.626,0,0,1,.178.01l.267.025a6.193,6.193,0,0,1,.63.151,7.54,7.54,0,0,1,1.064.461,27.66,27.66,0,0,1,6.58,5.656,46.512,46.512,0,0,1,5.049,6.659,13.889,13.889,0,0,1,1.708,3.744,3.084,3.084,0,0,1,.087.554c.006.1.019.183.016.3l-.008.239c-.009.318-.02.635-.056.968-.048.663-.141,1.281-.224,1.9a44.168,44.168,0,0,1-1.632,6.811,39.044,39.044,0,0,1-2.22,5.494,22.7,22.7,0,0,1-1.254,2.14c-.214.319-.412.629-.618.913q-.333.41-.637.78a12.5,12.5,0,0,1-1.143,1.252,7.321,7.321,0,0,1-.942.821c-.533.421-.827.623-.827.623s.229-.285.678-.777a7.158,7.158,0,0,0,.767-.956,13.519,13.519,0,0,0,.956-1.341,34.738,34.738,0,0,0,2.149-3.884,42.312,42.312,0,0,0,2.07-5.387A49.286,49.286,0,0,0,838.155,857c.081-.6.173-1.211.217-1.806.034-.295.046-.611.055-.932l.009-.239c0-.043-.01-.121-.013-.179a2.068,2.068,0,0,0-.063-.4,13.38,13.38,0,0,0-1.56-3.412,45.553,45.553,0,0,0-4.885-6.527,26.887,26.887,0,0,0-6.26-5.477,6.839,6.839,0,0,0-.9-.386c-.145-.038-.259-.07-.41-.1l-.267-.023c-.024,0-.134-.013-.088-.006l-.115.016a3.605,3.605,0,0,0-.925.181,4.578,4.578,0,0,0-.921.361,14.09,14.09,0,0,0-3.35,2.333,24.81,24.81,0,0,0-4.989,6.311,19.679,19.679,0,0,0-1.495,3.523c-.088.3-.176.595-.263.891q-.082.438-.163.875a11.682,11.682,0,0,0-.186,1.818,15.282,15.282,0,0,0,1.593,6.394,34.725,34.725,0,0,0,2.873,4.992c.963,1.431,1.846,2.654,2.581,3.661Z" fill="#7aabcc"/>
          </g>
          <g id="Group_1387" data-name="Group 1387">
            <path id="Path_2360" data-name="Path 2360" d="M815,869a2.7,2.7,0,0,1,.2.533c.035.176.113.37.176.587a4.513,4.513,0,0,0,.238.734,7.146,7.146,0,0,0,.379.844c.127.3.344.585.512.9.209.3.4.62.646.914a10.607,10.607,0,0,0,.752.885,15.755,15.755,0,0,0,3.316,2.741,12.16,12.16,0,0,0,1.267.664L823,878l-.531-.136a9.982,9.982,0,0,1-1.348-.536,14.249,14.249,0,0,1-3.574-2.58,11.055,11.055,0,0,1-.816-.892c-.267-.3-.482-.63-.712-.935a8.649,8.649,0,0,1-.544-.963,5.23,5.23,0,0,1-.368-.926,3.819,3.819,0,0,1-.205-.828,1.838,1.838,0,0,1-.024-.647A2.638,2.638,0,0,1,815,869Z" fill="#7aabcc"/>
          </g>
        </g>
      </g>
    </g>
  </g>
</svg>
