<svg xmlns="http://www.w3.org/2000/svg" xmlns:xlink="http://www.w3.org/1999/xlink" width="58" height="101" viewBox="0 0 58 101">
  <defs>
    <clipPath id="clip-path">
      <path id="SVGID" d="M296.538,862.692a35.5,35.5,0,0,1-4.038-15.718c0-1.982,3.571-5.043,7.639-7.252,1.511-2.715,5.223-3.722,9.361-3.722a5.717,5.717,0,0,1,4.972,2.754c3.784,2.081,7.028,5.708,7.028,9.218,0,8.149-1.607,14.523-4.982,18.434.028,9.881-.071,38.187-2.018,48.409-1.164,6.114-5.11,11.585-6.791,13.54-1.1,1.285-2.209.522-2.209-1.171l1-9.376c0-5.238-6.386-16.337-8-26.937C297.48,884.171,296.713,868.348,296.538,862.692Z" fill="none"/>
    </clipPath>
    <linearGradient id="linear-gradient" x1="-446.292" y1="1" x2="-446.292" gradientUnits="objectBoundingBox">
      <stop offset="0" stop-color="#fff"/>
      <stop offset="0.25" stop-color="#f2f7fa"/>
    </linearGradient>
    <clipPath id="clip-path-3">
      <rect id="SVGID-3" data-name="SVGID" width="31" height="30.927" transform="translate(291.5 840.988)" fill="none"/>
    </clipPath>
  </defs>
  <g id="Regular29" transform="translate(-278 -836)">
    <rect id="Rectangle_264" data-name="Rectangle 264" width="58" height="101" transform="translate(278 836)" fill="none"/>
    <g id="Group_1557" data-name="Group 1557" transform="translate(0 4)">
      <g id="Group_1554" data-name="Group 1554">
        <g id="Group_1553" data-name="Group 1553" clip-path="url(#clip-path)">
          <g id="Group_1549" data-name="Group 1549">
            <path id="Path_2521" data-name="Path 2521" d="M306.607,928.5c-.346,0-.607-.566-.607-1.316l1-9.323c0-2.639-1.467-6.519-3.168-11.012-1.874-4.946-4-10.553-4.835-16.053-1.043-6.851-1.8-23.008-1.956-28.119l0-.12-.058-.106A35.155,35.155,0,0,1,293,846.974c0-1.6,3.172-4.529,7.377-6.813l.128-.069.07-.127c1.6-2.864,5.734-3.465,8.925-3.465a5.227,5.227,0,0,1,4.556,2.53l.068.1.107.059c3.369,1.853,6.769,5.286,6.769,8.78,0,8.278-1.635,14.37-4.86,18.108l-.122.141v.187c.025,8.73-.048,38.017-2.009,48.313-1.317,6.916-6.134,12.675-6.679,13.309A1.128,1.128,0,0,1,306.607,928.5Z" fill="#ebf2f7"/>
            <g id="Group_1547" data-name="Group 1547">
              <path id="Path_2522" data-name="Path 2522" d="M318.5,848.972c0-.98-1.58-3.265-4.437-4.836l-1.079-.594-.68-1.026c-.341-.516-.506-.516-.8-.516s-.58.015-.857.027l.341.515,1.079.594c2.857,1.571,4.437,3.856,4.437,4.836,0,7.067-1.3,12.312-3.768,15.168l-1.219,1.413.006,1.867c.019,7.14-.024,28.167-1.108,40.826.61,1.615,1.172,3.127,1.643,4.537,1.432-11.834,1.486-36.508,1.465-44.363l-.006-1.867,1.219-1.413C317.2,861.284,318.5,856.039,318.5,848.972Z" fill="#d1e2ed"/>
            </g>
            <path id="Path_2523" data-name="Path 2523" d="M310.053,910.783c-.565-1.7-1.259-3.53-2.016-5.528-1.795-4.737-3.828-10.107-4.594-15.136-.926-6.081-1.711-21.206-1.907-27.58l-.037-1.2-.581-1.054a30.97,30.97,0,0,1-3.4-12.5,19.177,19.177,0,0,1,5.007-3.664l1.276-.693.706-1.268c.136-.244,1.381-1.154,4.993-1.154.3,0,.462,0,.8.516l.68,1.026,1.079.593c2.857,1.572,4.437,3.857,4.437,4.837,0,7.067-1.3,12.312-3.767,15.168l-1.22,1.413.005,1.867C311.54,874.276,311.486,898.949,310.053,910.783Z" fill="#ebf2f7"/>
            <path id="Path_2524" data-name="Path 2524" d="M308.972,903.9c-1.777-4.691-3.791-10.008-4.54-14.933-.92-6.039-1.7-21.106-1.9-27.46l-.045-1.444-.7-1.265a29.85,29.85,0,0,1-3.255-11.648A20.2,20.2,0,0,1,303,843.994l1.531-.831.79-1.419a8.259,8.259,0,0,1,4.1-.744c.015.02.863,1.3.863,1.3l1.295.712c2.474,1.36,3.867,3.309,3.919,3.973,0,6.713-1.252,11.868-3.524,14.5l-1.464,1.7.006,2.24c.02,6.966-.02,27.188-1.027,39.85Q309.237,904.6,308.972,903.9Z" fill="url(#linear-gradient)"/>
            <g id="Group_1548" data-name="Group 1548">
              <path id="Path_2525" data-name="Path 2525" d="M308.037,905.255c-1.795-4.737-3.828-10.107-4.594-15.136-.925-6.081-1.711-21.206-1.907-27.58l-.037-1.2-.581-1.054a30.947,30.947,0,0,1-3.4-12.5,19.2,19.2,0,0,1,5.006-3.663l1.276-.693.706-1.268c.124-.223,1.2-.995,4.136-1.127l-.339-.511c-.341-.516-.506-.516-.8-.516-3.612,0-4.857.91-4.993,1.154l-.706,1.268-1.276.693a19.2,19.2,0,0,0-5.006,3.663,30.947,30.947,0,0,0,3.4,12.5l.581,1.054.037,1.2c.2,6.374.982,21.5,1.907,27.58.766,5.029,2.8,10.4,4.594,15.136.757,2,1.451,3.831,2.017,5.528.13-1.079.249-2.267.357-3.537Z" fill="#fff"/>
            </g>
            <path id="Path_2526" data-name="Path 2526" d="M309.5,837a4.7,4.7,0,0,1,4.139,2.307l.136.205.215.118c3.833,2.108,6.51,5.539,6.51,8.342,0,8.154-1.6,14.136-4.738,17.781l-.244.283v.373c.024,8.719-.049,37.966-2,48.219-1.292,6.787-6.032,12.452-6.568,13.076a1.33,1.33,0,0,1-.292.266,1.542,1.542,0,0,1-.158-.737l.994-9.319.006-.053v-.053c0-2.677-1.484-6.6-3.2-11.135-1.864-4.923-3.979-10.5-4.808-15.952-1.037-6.812-1.793-22.951-1.95-28.059l-.008-.241-.116-.211a34.6,34.6,0,0,1-3.914-15.235c0-1.207,2.721-3.988,7.116-6.374l.255-.139.142-.254C302.566,837.417,307,837,309.5,837m0-1c-4.139,0-7.85,1.007-9.361,3.722-4.068,2.209-7.639,5.27-7.639,7.253a35.5,35.5,0,0,0,4.038,15.717c.175,5.656.941,21.478,1.962,28.179,1.613,10.6,8,21.7,8,26.937l-1,9.376c0,1.107.472,1.816,1.107,1.816a1.539,1.539,0,0,0,1.1-.645c1.681-1.955,5.627-7.426,6.791-13.54,1.946-10.222,2.046-38.528,2.019-48.409,3.374-3.91,4.981-10.285,4.981-18.434,0-3.51-3.244-7.137-7.027-9.218A5.718,5.718,0,0,0,309.5,836Z" fill="#7aabcc"/>
          </g>
          <g id="Group_1552" data-name="Group 1552">
            <g id="Group_1551" data-name="Group 1551" clip-path="url(#clip-path-3)">
              <g id="Group_1550" data-name="Group 1550">
                <path id="Path_2527" data-name="Path 2527" d="M311.5,869.92s.311-.192.913-.51a16.12,16.12,0,0,0,2.328-1.7,16.572,16.572,0,0,0,2.744-3.459,20.844,20.844,0,0,0,2.193-5.324,37.784,37.784,0,0,0,1.1-6.8c.084-1.226.144-2.488.151-3.782a6.984,6.984,0,0,0-.893-3.557,14.586,14.586,0,0,0-5.724-5.519c-2.411-1.341-5.179-2.227-7.916-1.507a26.736,26.736,0,0,0-7.705,3.411,25.237,25.237,0,0,0-3.321,2.468,12.333,12.333,0,0,0-1.386,1.429,4.26,4.26,0,0,0-.879,1.56,1.745,1.745,0,0,0-.05.356l.016.505c.016.333.01.678.043.995.05.645.1,1.283.189,1.923a36.332,36.332,0,0,0,.661,3.708,35.57,35.57,0,0,0,2.162,6.533,22.756,22.756,0,0,0,2.959,4.964,20.677,20.677,0,0,0,1.575,1.818c.52.531,1.055.958,1.507,1.388a18.152,18.152,0,0,0,2.419,1.587c.6.316.912.51.912.51s-.348-.093-1-.314a7.818,7.818,0,0,1-1.187-.445c-.439-.234-.958-.492-1.515-.822a15.022,15.022,0,0,1-3.469-3.112,22.455,22.455,0,0,1-3.175-5.127,33.318,33.318,0,0,1-2.292-6.727,37.151,37.151,0,0,1-.675-3.823c-.092-.653-.143-1.331-.192-2.016-.035-.345-.027-.671-.04-1.01l-.013-.5a2.744,2.744,0,0,1,.084-.647,5.285,5.285,0,0,1,1.107-1.991,13.344,13.344,0,0,1,1.516-1.546,26.266,26.266,0,0,1,3.482-2.554,27.681,27.681,0,0,1,8.046-3.491c.365-.082.735-.152,1.11-.205a10.261,10.261,0,0,1,1.13-.09c.409.008.77.04,1.157.06l1.118.186a15.44,15.44,0,0,1,4.136,1.609,15.66,15.66,0,0,1,6.186,5.915,5.624,5.624,0,0,1,.459.97,5.142,5.142,0,0,1,.344,1.038,4.905,4.905,0,0,1,.189,1.05l.042.492a4.76,4.76,0,0,1,.006.54c-.006,1.318-.064,2.607-.148,3.862a35.084,35.084,0,0,1-1.2,7,20.983,20.983,0,0,1-2.395,5.551,12.829,12.829,0,0,1-3.168,3.445,10.71,10.71,0,0,1-2.649,1.4C311.854,869.827,311.5,869.92,311.5,869.92Z" fill="#7aabcc"/>
              </g>
            </g>
          </g>
        </g>
      </g>
    </g>
  </g>
</svg>
