<svg xmlns="http://www.w3.org/2000/svg" xmlns:xlink="http://www.w3.org/1999/xlink" width="58" height="101" viewBox="0 0 58 101">
  <defs>
    <clipPath id="clip-path">
      <path id="SVGID" d="M983.462,862.692a35.5,35.5,0,0,0,4.038-15.718c0-1.982-3.571-5.043-7.639-7.252C978.35,837.007,974.638,836,970.5,836a5.717,5.717,0,0,0-4.972,2.754c-3.784,2.081-7.028,5.708-7.028,9.218,0,8.149,1.607,14.523,4.982,18.434-.028,9.881.071,38.187,2.018,48.409,1.164,6.114,5.11,11.585,6.791,13.54,1.1,1.285,2.209.522,2.209-1.171l-1-9.376c0-5.238,6.386-16.337,8-26.937C982.52,884.171,983.287,868.348,983.462,862.692Z" fill="none"/>
    </clipPath>
    <linearGradient id="linear-gradient" x1="0.5" y1="1" x2="0.5" gradientUnits="objectBoundingBox">
      <stop offset="0" stop-color="#fff"/>
      <stop offset="0.25" stop-color="#f2f7fa"/>
    </linearGradient>
    <clipPath id="clip-path-3">
      <rect id="SVGID-3" data-name="SVGID" width="31" height="30.927" transform="translate(957.5 840.988)" fill="none"/>
    </clipPath>
  </defs>
  <g id="Regular20" transform="translate(-944 -836)">
    <rect id="Rectangle_273" data-name="Rectangle 273" width="58" height="101" transform="translate(944 836)" fill="none"/>
    <g id="Group_1369" data-name="Group 1369" transform="translate(0 4)">
      <g id="Group_1366" data-name="Group 1366">
        <g id="Group_1365" data-name="Group 1365" clip-path="url(#clip-path)">
          <g id="Group_1361" data-name="Group 1361">
            <path id="Path_2339" data-name="Path 2339" d="M973.393,928.5a1.128,1.128,0,0,1-.723-.47c-.545-.634-5.362-6.393-6.679-13.309-1.961-10.3-2.034-39.583-2.009-48.313v-.187l-.122-.141c-3.225-3.738-4.86-9.83-4.86-18.108,0-3.494,3.4-6.927,6.769-8.78l.107-.059.068-.1a5.227,5.227,0,0,1,4.556-2.53c3.191,0,7.33.6,8.925,3.465l.07.127.128.069c4.205,2.284,7.377,5.213,7.377,6.813a35.154,35.154,0,0,1-3.976,15.477l-.058.106,0,.12c-.158,5.111-.913,21.268-1.956,28.119-.838,5.5-2.961,11.107-4.835,16.053-1.7,4.493-3.171,8.373-3.171,10.959l1,9.429a2.018,2.018,0,0,1-.242,1.005A.452.452,0,0,1,973.393,928.5Z" fill="#ebf2f7"/>
            <g id="Group_1359" data-name="Group 1359">
              <path id="Path_2340" data-name="Path 2340" d="M979.475,845.115l-1.276-.693-.706-1.268a3.379,3.379,0,0,0-1.925-.865l.631,1.133,1.276.693a19.227,19.227,0,0,1,5.007,3.663,30.949,30.949,0,0,1-3.4,12.5l-.581,1.054-.037,1.2c-.2,6.374-.982,21.5-1.907,27.58-.765,5.029-2.8,10.4-4.594,15.136-.172.456-.341.9-.506,1.34.142,1.9.3,3.654.49,5.188.565-1.7,1.26-3.53,2.016-5.528,1.795-4.737,3.829-10.107,4.594-15.136.925-6.081,1.711-21.206,1.907-27.58l.037-1.2.581-1.054a30.949,30.949,0,0,0,3.4-12.5A19.227,19.227,0,0,0,979.475,845.115Z" fill="#d1e2ed"/>
            </g>
            <path id="Path_2341" data-name="Path 2341" d="M969.947,910.783c-1.433-11.834-1.487-36.507-1.465-44.363l.005-1.867-1.22-1.413c-2.464-2.856-3.767-8.1-3.767-15.168,0-.98,1.58-3.265,4.437-4.837l1.079-.593.68-1.026c.342-.516.506-.516.8-.516,3.612,0,4.857.91,4.993,1.154l.706,1.268,1.276.693a19.177,19.177,0,0,1,5.007,3.664,30.97,30.97,0,0,1-3.4,12.5l-.581,1.054-.037,1.2c-.2,6.374-.981,21.5-1.907,27.58-.766,5.029-2.8,10.4-4.594,15.136C971.206,907.253,970.512,909.087,969.947,910.783Z" fill="#ebf2f7"/>
            <path id="Path_2342" data-name="Path 2342" d="M970.509,905.273c-1.007-12.662-1.047-32.884-1.027-39.85l.006-2.24-1.464-1.7c-2.272-2.634-3.524-7.789-3.524-14.515.052-.651,1.445-2.6,3.919-3.96l1.295-.712s.847-1.278.86-1.3c2.559.015,3.789.518,4.1.74l.79,1.419,1.531.831a20.2,20.2,0,0,1,4.463,3.157,29.85,29.85,0,0,1-3.255,11.648l-.7,1.265-.045,1.444c-.2,6.354-.976,21.421-1.9,27.46-.749,4.925-2.763,10.242-4.54,14.933Q970.764,904.6,970.509,905.273Z" fill="url(#linear-gradient)"/>
            <g id="Group_1360" data-name="Group 1360">
              <path id="Path_2343" data-name="Path 2343" d="M968.482,866.42l.005-1.867-1.219-1.413c-2.465-2.856-3.768-8.1-3.768-15.168,0-.98,1.58-3.265,4.437-4.836l1.079-.594.68-1.026c.342-.516.506-.516.8-.516a14.239,14.239,0,0,1,3.068.289l-.075-.135c-.136-.244-1.381-1.154-4.993-1.154-.3,0-.462,0-.8.516l-.68,1.026-1.079.594c-2.857,1.571-4.437,3.856-4.437,4.836,0,7.067,1.3,12.312,3.768,15.168l1.219,1.413-.005,1.867c-.022,7.855.032,32.529,1.465,44.363.436-1.309.95-2.7,1.51-4.188C968.5,892.832,968.463,873.257,968.482,866.42Z" fill="#fff"/>
            </g>
            <path id="Path_2344" data-name="Path 2344" d="M970.5,837c2.5,0,6.934.417,8.488,3.208l.141.254.255.139c4.4,2.386,7.116,5.167,7.116,6.374a34.581,34.581,0,0,1-3.915,15.235l-.116.211-.007.241c-.157,5.1-.91,21.225-1.951,28.059-.829,5.448-2.943,11.028-4.807,15.951-1.719,4.539-3.2,8.459-3.2,11.136v.053l.006.053.994,9.319a1.535,1.535,0,0,1-.158.736,1.283,1.283,0,0,1-.293-.265c-.536-.624-5.274-6.287-6.567-13.076-1.953-10.256-2.024-39.5-2-48.219v-.373l-.244-.283c-3.145-3.644-4.739-9.627-4.739-17.781,0-2.8,2.677-6.234,6.51-8.342l.216-.118.135-.206A4.7,4.7,0,0,1,970.5,837m0-1a5.715,5.715,0,0,0-4.972,2.754c-3.783,2.081-7.028,5.708-7.028,9.218,0,8.149,1.607,14.524,4.982,18.434-.028,9.881.071,38.187,2.018,48.409,1.165,6.114,5.11,11.585,6.791,13.54a1.535,1.535,0,0,0,1.1.645c.635,0,1.107-.709,1.107-1.816l-1-9.376c0-5.238,6.386-16.337,8-26.937,1.02-6.7,1.788-22.523,1.961-28.179a35.484,35.484,0,0,0,4.039-15.717c0-1.983-3.571-5.044-7.639-7.253C978.35,837.007,974.639,836,970.5,836Z" fill="#7aabcc"/>
          </g>
          <g id="Group_1364" data-name="Group 1364">
            <g id="Group_1363" data-name="Group 1363" clip-path="url(#clip-path-3)">
              <g id="Group_1362" data-name="Group 1362">
                <path id="Path_2345" data-name="Path 2345" d="M968.5,869.92s-.354-.093-1-.31a10.711,10.711,0,0,1-2.649-1.4,12.829,12.829,0,0,1-3.168-3.445,20.982,20.982,0,0,1-2.4-5.551,35.084,35.084,0,0,1-1.2-7c-.084-1.255-.142-2.544-.148-3.862a4.769,4.769,0,0,1,.006-.54l.042-.492a4.905,4.905,0,0,1,.189-1.05,5.138,5.138,0,0,1,.344-1.038,5.622,5.622,0,0,1,.459-.97,15.66,15.66,0,0,1,6.186-5.915,15.44,15.44,0,0,1,4.136-1.609l1.118-.186c.387-.02.748-.052,1.157-.06a10.261,10.261,0,0,1,1.13.09c.375.053.745.123,1.11.205a27.681,27.681,0,0,1,8.046,3.491,26.268,26.268,0,0,1,3.482,2.554,13.346,13.346,0,0,1,1.516,1.546,5.285,5.285,0,0,1,1.107,1.991,2.745,2.745,0,0,1,.084.647l-.013.5c-.013.339-.005.665-.04,1.01-.049.685-.1,1.363-.192,2.016a37.151,37.151,0,0,1-.675,3.823,33.32,33.32,0,0,1-2.292,6.727,22.455,22.455,0,0,1-3.175,5.127,15.023,15.023,0,0,1-3.469,3.112c-.557.33-1.076.588-1.515.822a7.817,7.817,0,0,1-1.187.445c-.65.221-1,.314-1,.314s.316-.194.912-.51a18.154,18.154,0,0,0,2.419-1.587c.452-.43.987-.857,1.507-1.388a20.677,20.677,0,0,0,1.575-1.818,22.756,22.756,0,0,0,2.959-4.964,35.573,35.573,0,0,0,2.162-6.533,36.341,36.341,0,0,0,.661-3.708c.092-.64.139-1.278.189-1.923.033-.317.027-.662.043-.995l.016-.505a1.745,1.745,0,0,0-.05-.356,4.259,4.259,0,0,0-.879-1.56,12.331,12.331,0,0,0-1.386-1.429,25.241,25.241,0,0,0-3.321-2.468,26.736,26.736,0,0,0-7.705-3.411c-2.737-.72-5.505.166-7.916,1.507a14.587,14.587,0,0,0-5.724,5.519,6.985,6.985,0,0,0-.893,3.557c.007,1.294.067,2.556.151,3.782a37.786,37.786,0,0,0,1.1,6.8,20.843,20.843,0,0,0,2.193,5.324,16.571,16.571,0,0,0,2.744,3.459,16.124,16.124,0,0,0,2.328,1.7C968.189,869.728,968.5,869.92,968.5,869.92Z" fill="#7aabcc"/>
              </g>
            </g>
          </g>
        </g>
      </g>
    </g>
  </g>
</svg>
