<svg xmlns="http://www.w3.org/2000/svg" xmlns:xlink="http://www.w3.org/1999/xlink" width="58" height="101" viewBox="0 0 58 101">
  <defs>
    <clipPath id="clip-path">
      <path id="SVGID" d="M521.247,871.536a55.433,55.433,0,0,1-1.357-6.77A111.752,111.752,0,0,1,519,849c0-4.429,1.88-8,4-8a4.038,4.038,0,0,1,3,1,4.38,4.38,0,0,1,3-1,10.343,10.343,0,0,1,4,1,7.642,7.642,0,0,1,3-1c1.28,0,3,1.143,3,2v14a34.771,34.771,0,0,1-1.434,8.548,52.95,52.95,0,0,1-1.9,5.622C534.882,879.6,533,889.582,533,894c0,5.571-2,40-8,40s-1.5-18.75-4-30c-.592-2.661,0-23.865,0-32.417Z" fill="none"/>
    </clipPath>
    <linearGradient id="linear-gradient" x1="-1002.021" y1="1" x2="-1002.021" gradientUnits="objectBoundingBox">
      <stop offset="0" stop-color="#fff"/>
      <stop offset="0.25" stop-color="#f2f7fa"/>
    </linearGradient>
  </defs>
  <g id="Regular26" transform="translate(-500 -836)">
    <g id="Group_1586" data-name="Group 1586" transform="translate(0 -1)">
      <g id="Group_1585" data-name="Group 1585" clip-path="url(#clip-path)">
        <g id="Group_1583" data-name="Group 1583">
          <path id="Path_2545" data-name="Path 2545" d="M525,933.5a1.742,1.742,0,0,1-1.309-.539c-1.7-1.743-1.573-7.39-1.435-13.37.12-5.2.255-11.094-.768-15.7-.458-2.059-.206-21.374-.008-31.3a4.913,4.913,0,0,1,.061-.75l.014-.022c.075-.114.2-.3-.047-1.372-.008-.035-.808-3.52-1.124-5.753a108.872,108.872,0,0,1-.885-15.215V849c0-4.42,1.844-7.5,3.5-7.5a7.839,7.839,0,0,1,2.035.155,1.428,1.428,0,0,0,2.022-.005s0,0,0,0A8.237,8.237,0,0,1,529,841.5a7.179,7.179,0,0,1,2.884.5,2.33,2.33,0,0,0,1.033.221,2.429,2.429,0,0,0,1.2-.292A4.15,4.15,0,0,1,536,841.5c1.1,0,2.5,1.017,2.5,1.5v14a34.368,34.368,0,0,1-1.416,8.414c-.512,1.843-1.534,4.617-1.545,4.645a11.991,11.991,0,0,0-.515,2.029c-.1.713-2.524,17.509-2.524,21.912C532.5,903.833,529.841,933.5,525,933.5Z" fill="#ebf2f7"/>
          <g id="Group_1581" data-name="Group 1581">
            <path id="Path_2546" data-name="Path 2546" d="M534.919,847.722a7.147,7.147,0,0,1-.918-.066V857a30.393,30.393,0,0,1-1.252,7.209c-.384,1.383-1.163,3.566-1.43,4.291a16.424,16.424,0,0,0-.748,2.944c-.262,1.82-2.57,17.912-2.57,22.556,0,1.644-.083,3.85-.237,6.363.027,1.818.073,3.109.142,3.663a46.118,46.118,0,0,1,.894,8.354c.755-6.721,1.2-13.563,1.2-17.38,0-4.644,2.308-20.736,2.57-22.556a16.424,16.424,0,0,1,.748-2.944c.267-.725,1.046-2.908,1.43-4.291A30.393,30.393,0,0,0,536,858V847.643A7.459,7.459,0,0,1,534.919,847.722Z" fill="#d1e2ed"/>
          </g>
          <path id="Path_2547" data-name="Path 2547" d="M526.8,911.381a46.222,46.222,0,0,0-.894-8.355c-.285-2.289-.189-17.056.071-30.2a6.847,6.847,0,0,0-.082-3.388c-.008-.033-.766-3.335-1.054-5.373A104.514,104.514,0,0,1,524,849.489V849a9.122,9.122,0,0,1,.375-2.668,5.937,5.937,0,0,0,4.2-.325c.116,0,.257-.007.426-.007a3.891,3.891,0,0,1,1.08.126,6.91,6.91,0,0,0,2.837.6,7.317,7.317,0,0,0,1.083-.08V857a30.393,30.393,0,0,1-1.252,7.209c-.384,1.383-1.163,3.566-1.43,4.291a16.342,16.342,0,0,0-.748,2.944c-.263,1.82-2.57,17.913-2.57,22.556C528,897.817,527.555,904.659,526.8,911.381Z" fill="#ebf2f7"/>
          <path id="Path_2548" data-name="Path 2548" d="M526.777,899.17c-.11-5.341-.007-16.8.2-27.211a7.931,7.931,0,0,0-.106-3.745c-.209-.909-.8-3.633-1.038-5.287A103.6,103.6,0,0,1,525,848.491V848a8.836,8.836,0,0,1,.121-1.49A6.938,6.938,0,0,0,528.8,846h.2a3.3,3.3,0,0,1,.747.072,7.924,7.924,0,0,0,3.171.65H533V856a29.486,29.486,0,0,1-1.215,6.942c-.374,1.343-1.141,3.5-1.405,4.213a17.2,17.2,0,0,0-.8,3.146C529.318,872.128,527,888.287,527,893,527,894.671,526.922,896.795,526.777,899.17Z" fill="url(#linear-gradient)"/>
          <g id="Group_1582" data-name="Group 1582">
            <path id="Path_2549" data-name="Path 2549" d="M525.977,872.827a6.836,6.836,0,0,0-.082-3.388c-.008-.033-.766-3.335-1.054-5.373A104.514,104.514,0,0,1,524,849.489V849a9.127,9.127,0,0,1,.375-2.668,5.937,5.937,0,0,0,4.2-.325c.116,0,.257-.007.426-.007a3.884,3.884,0,0,1,1.08.126,6.711,6.711,0,0,0,1.92.53v-1.013a7.459,7.459,0,0,1-1.082.079,6.9,6.9,0,0,1-2.838-.6A3.884,3.884,0,0,0,527,845c-.169,0-.31,0-.426.007a5.937,5.937,0,0,1-4.2.325A9.127,9.127,0,0,0,522,848v.489a104.514,104.514,0,0,0,.841,14.577c.288,2.038,1.046,5.34,1.054,5.373a6.836,6.836,0,0,1,.082,3.388c-.26,13.143-.356,27.91-.071,30.2a46.118,46.118,0,0,1,.894,8.354c.429-3.827.759-7.692.964-11.017C525.678,893.675,525.78,882.787,525.977,872.827Z" fill="#fff"/>
          </g>
          <path id="Path_2550" data-name="Path 2550" d="M536,842a2.89,2.89,0,0,1,2,1.051V857a33.917,33.917,0,0,1-1.4,8.28c-.506,1.823-1.521,4.577-1.532,4.6a12.382,12.382,0,0,0-.54,2.132c-.1.714-2.53,17.545-2.53,21.983a210.008,210.008,0,0,1-1.741,21.956C528.034,932.522,525.3,933,525,933a1.234,1.234,0,0,1-.951-.388c-1.556-1.592-1.422-7.4-1.293-13.009.12-5.229.257-11.155-.779-15.82-.415-1.867-.226-19.669,0-31.178a5.451,5.451,0,0,1,.04-.582c.14-.249.223-.615-.023-1.687-.008-.034-.8-3.5-1.116-5.71A108.291,108.291,0,0,1,520,849.482V849c0-4.273,1.776-7,3-7a9.812,9.812,0,0,1,1.791.109,1.926,1.926,0,0,0,2.472.028A7.252,7.252,0,0,1,529,842a6.784,6.784,0,0,1,2.658.447,2.863,2.863,0,0,0,1.259.275,2.915,2.915,0,0,0,1.449-.361A3.711,3.711,0,0,1,536,842m0-1a4.6,4.6,0,0,0-2.136.5,1.939,1.939,0,0,1-.947.225,1.865,1.865,0,0,1-.812-.169A7.485,7.485,0,0,0,529,841c-2,0-2.293.293-2.293.293a.929.929,0,0,1-1.368-.044S525.121,841,523,841s-4,3.571-4,8a111.644,111.644,0,0,0,.89,15.766c.322,2.281,1.131,5.795,1.131,5.795a2.093,2.093,0,0,1,.1,1,2.368,2.368,0,0,0-.144,1.023S520.409,901.338,521,904c2.5,11.25-2,30,4,30s8-34.429,8-40c0-4.417,2.52-21.84,2.52-21.84a11.357,11.357,0,0,1,.489-1.929s1.033-2.8,1.556-4.683A34.729,34.729,0,0,0,539,857V843c0-.857-1.721-2-3-2Z" fill="#7aabcc"/>
        </g>
        <g id="Group_1584" data-name="Group 1584">
          <path id="Path_2551" data-name="Path 2551" d="M531,879c.268-.387.588-.738.835-1.132s.5-.765.724-1.177c.474-.793.868-1.629,1.262-2.462s.749-1.688,1.107-2.539c.328-.864.681-1.718.976-2.6.31-.87.587-1.755.846-2.642s.49-1.784.712-2.681a39.842,39.842,0,0,0,.912-5.434c.07-.894.069-1.812.064-2.756l0-2.8.019-5.605.009-2.8,0-1.341c.01-.2-.264-.522-.576-.765a3.121,3.121,0,0,0-2.227-.724,7.522,7.522,0,0,0-2.416.9l-.237.13-.242-.115a10.256,10.256,0,0,0-1.639-.615,8.415,8.415,0,0,0-1.71-.311c-.142-.013-.283-.01-.425-.016-.115.007-.312.005-.431.021a4.72,4.72,0,0,0-.808.138,3.969,3.969,0,0,0-.765.287,3.48,3.48,0,0,0-.348.2,2.246,2.246,0,0,0-.281.213l-.368.347-.389-.371a3.546,3.546,0,0,0-1.951-.778c-.19-.018-.381-.032-.574-.033a1.686,1.686,0,0,0-.505.072,2.2,2.2,0,0,0-.825.5A5.69,5.69,0,0,0,520.5,844a10.856,10.856,0,0,0-.687,2.288,13.257,13.257,0,0,0-.244,2.4c-.016.817-.007,1.672,0,2.5.014,1.671.046,3.341.128,5.008a90.474,90.474,0,0,0,.921,9.955c.145.819.261,1.644.419,2.46s.295,1.638.489,2.446c.154.82.351,1.629.572,2.434.165.825.469,1.6.665,2.428a23.6,23.6,0,0,1-1.107-2.279c-.317-.785-.611-1.58-.862-2.389a38.094,38.094,0,0,1-1.173-4.937,86.453,86.453,0,0,1-1.055-10.067c-.081-1.684-.111-3.369-.122-5.053,0-.846-.008-1.67.009-2.531a14.438,14.438,0,0,1,.28-2.593,12.06,12.06,0,0,1,.775-2.515,6.706,6.706,0,0,1,1.534-2.249,3.118,3.118,0,0,1,1.328-.75,2.578,2.578,0,0,1,.736-.089c.226,0,.453.02.681.045a4.405,4.405,0,0,1,2.608,1.139l-.757-.024a3.012,3.012,0,0,1,.45-.347,4.374,4.374,0,0,1,.455-.257,4.959,4.959,0,0,1,.962-.353,5.662,5.662,0,0,1,1.01-.165c.187-.018.3-.012.49-.02.166.008.333.006.5.022a9.3,9.3,0,0,1,1.913.359,12.148,12.148,0,0,1,1.814.677l-.479.015a8.37,8.37,0,0,1,2.811-1.045c.153-.022.268-.026.382-.032a3.123,3.123,0,0,1,.437.024,4,4,0,0,1,.785.186,5.017,5.017,0,0,1,1.378.741,2.279,2.279,0,0,1,.981,1.471l.012,1.461.009,2.8.018,5.605,0,2.8c.006.922.01,1.875-.063,2.844s-.208,1.9-.37,2.831-.378,1.856-.594,2.775c-.24.914-.482,1.826-.764,2.727s-.571,1.8-.9,2.682-.671,1.765-1.049,2.63l-.6,1.284c-.214.421-.449.834-.672,1.25a22.344,22.344,0,0,1-1.57,2.37A11.339,11.339,0,0,1,531,879Z" fill="#7aabcc"/>
        </g>
      </g>
    </g>
    <g id="high26">
      <rect id="Rectangle_267" data-name="Rectangle 267" width="58" height="101" transform="translate(500 836)" fill="none"/>
    </g>
  </g>
</svg>
