<svg xmlns="http://www.w3.org/2000/svg" xmlns:xlink="http://www.w3.org/1999/xlink" width="58" height="101" viewBox="0 0 58 101">
  <defs>
    <clipPath id="clip-path">
      <path id="SVGID" d="M1063.694,750.2c-.14-1.8-.554-3.586-.746-5.374a35.957,35.957,0,0,1-.231-3.825c0-4,4.048-22.375,4.048-26a6.738,6.738,0,0,0-1.522-4.369c1.709-7.653,3.486-18.631-1.514-18.631-1.289,0-2.726,1.309-4.211,3.435-.045-4.577-.26-9.435-2.872-9.435-2.678,0-9.13,7.713-12.7,13.487.287-2.59.3-4.735-.457-5.487-1.9-1.875-16.192,5.75-16.192,21,0,9,3.036,26.75,3.036,33l.256-.139c-1.683,1.966-3.292,5.137-3.292,10.139,0,2.986-2.032,5.571-1.012,10,2.544,11.046,12.3,8.33,17.664,5.307a3.138,3.138,0,0,1,4.314,1.194c1.11,2.152,3.828,4.5,10.4,4.5,10.378,0,12.065-11.14,5.232-26.081a4.458,4.458,0,0,1-.16-1.573C1063.741,750.963,1063.724,750.581,1063.694,750.2Z" fill="none"/>
    </clipPath>
    <linearGradient id="linear-gradient" x1="0.5" y1="1" x2="0.5" gradientUnits="objectBoundingBox">
      <stop offset="0" stop-color="#fff"/>
      <stop offset="0.25" stop-color="#f2f7fa"/>
    </linearGradient>
  </defs>
  <g id="Regular14" transform="translate(-1018 -682)">
    <rect id="Rectangle_258" data-name="Rectangle 258" width="58" height="101" transform="translate(1018 682)" fill="none"/>
    <g id="Group_1466" data-name="Group 1466">
      <g id="Group_1464" data-name="Group 1464">
        <g id="Group_1453" data-name="Group 1453">
          <ellipse id="Ellipse_35" data-name="Ellipse 35" cx="8.102" cy="4" rx="8.102" ry="4" transform="translate(1034.882 770.5)" fill="#ebf2f7"/>
          <path id="Path_2422" data-name="Path 2422" d="M1042.984,771c4.479,0,7.6,1.845,7.6,3.5s-3.122,3.5-7.6,3.5-7.6-1.845-7.6-3.5,3.122-3.5,7.6-3.5m0-1c-4.751,0-8.6,2.015-8.6,4.5s3.851,4.5,8.6,4.5,8.6-2.015,8.6-4.5-3.851-4.5-8.6-4.5Z" fill="#7aabcc"/>
        </g>
        <g id="Group_1463" data-name="Group 1463">
          <g id="Group_1462" data-name="Group 1462" clip-path="url(#clip-path)">
            <g id="Group_1458" data-name="Group 1458">
              <path id="Path_2423" data-name="Path 2423" d="M1058.669,778.5c-5.09,0-8.534-1.462-9.961-4.228a3.531,3.531,0,0,0-3.175-1.878,3.732,3.732,0,0,0-1.828.477,18.608,18.608,0,0,1-8.643,2.605c-4.34,0-7.129-2.553-8.288-7.588a12.11,12.11,0,0,1,.415-6.439A13.125,13.125,0,0,0,1027.8,758c0-4.054,1.067-7.356,3.172-9.813l1.757-2.053-1.908,1.034c-.1-3-.684-7.857-1.3-12.977-.806-6.708-1.721-14.312-1.721-19.191,0-13.181,11.218-20.779,14.782-20.779a.87.87,0,0,1,.558.135c.523.516.628,2.224.312,5.075l-.245,2.2,1.167-1.887c3.788-6.127,9.975-13.249,12.274-13.249,2.107,0,2.329,4.615,2.372,8.94l.015,1.562.894-1.28c1.861-2.663,3.095-3.222,3.8-3.222a2.039,2.039,0,0,1,1.687.79c1.654,2.065,1.431,7.862-.661,17.232l-.051.228.143.186a6.2,6.2,0,0,1,1.418,4.064c0,1.723-.987,7.131-1.941,12.36-1.036,5.676-2.107,11.546-2.107,13.64a36.2,36.2,0,0,0,.234,3.878c.087.813.221,1.634.35,2.427.157.964.319,1.96.4,2.932.028.37.045.739.045,1.109.007.143.006.269.006.4a3.282,3.282,0,0,0,.2,1.382c4.369,9.554,5.265,17.539,2.459,21.908C1064.428,777.334,1061.994,778.5,1058.669,778.5Z" fill="#ebf2f7"/>
              <g id="Group_1455" data-name="Group 1455">
                <g id="Group_1454" data-name="Group 1454">
                  <path id="Path_2424" data-name="Path 2424" d="M1035.334,748c0-.06,0-.133,0-.193l-4.669-2.781.3.369Z" fill="#d1e2ed"/>
                  <path id="Path_2425" data-name="Path 2425" d="M1054.672,711.1l1.962-2.809-.116-11.807q-.009-.924-.033-1.712c-.615.677-1.276,1.451-1.952,2.283Z" fill="#d1e2ed"/>
                  <path id="Path_2426" data-name="Path 2426" d="M1061.354,756a7.508,7.508,0,0,1-.607-3.262l-.006-.389c0-.254-.012-.507-.032-.761-.061-.784-.2-1.646-.35-2.558-.138-.853-.282-1.735-.382-2.672a40.4,40.4,0,0,1-.26-4.356c0-2.333.824-7.015,2.18-14.447.743-4.071,1.865-10.221,1.868-11.553a1.786,1.786,0,0,0-.482-1.317l-1.43-1.856.51-2.286a74.263,74.263,0,0,0,1.505-8.74l-2.716,3.887c-.212,1.151-.471,2.429-.789,3.853l-.51,2.286,1.43,1.856a1.786,1.786,0,0,1,.482,1.317c0,1.332-1.125,7.482-1.868,11.553-1.356,7.432-2.18,12.114-2.18,14.447a40.4,40.4,0,0,0,.26,4.356c.1.937.244,1.819.382,2.672.149.912.289,1.774.35,2.558.02.254.032.507.032.761l.006.389a7.508,7.508,0,0,0,.607,3.262c4.32,9.446,4.189,15.388,2.765,17.606-.245.381-.9,1.4-3.45,1.4a14.634,14.634,0,0,1-3.681-.409c.847.889,2.9,1.409,5.681,1.409,2.553,0,3.205-1.015,3.45-1.4C1065.543,771.386,1065.674,765.444,1061.354,756Z" fill="#d1e2ed"/>
                  <path id="Path_2427" data-name="Path 2427" d="M1045.533,767.894a8.239,8.239,0,0,0-4.038,1.057,14.274,14.274,0,0,1-6.433,2.025c-.18,0-.374,0-.576-.017a2.962,2.962,0,0,0,2.576,1.017,14.274,14.274,0,0,0,6.433-2.025,8.144,8.144,0,0,1,6.662-.614A8.127,8.127,0,0,0,1045.533,767.894Z" fill="#d1e2ed"/>
                </g>
              </g>
              <path id="Path_2428" data-name="Path 2428" d="M1058.669,774c-3.154,0-5.383-.669-5.961-1.791a8.016,8.016,0,0,0-7.175-4.316,8.24,8.24,0,0,0-4.038,1.058,14.274,14.274,0,0,1-6.433,2.025c-1.179,0-2.959,0-3.9-4.1a7.893,7.893,0,0,1,.375-4.257A17.119,17.119,0,0,0,1032.3,758a10.316,10.316,0,0,1,2.09-6.886l-5.727-7.088,6.673,3.974c0-3.14-.624-8.333-1.347-14.346-.792-6.583-1.689-14.044-1.689-18.654a17.919,17.919,0,0,1,4.5-11.92,17.716,17.716,0,0,1,4.085-3.488l7.319,2.524a59.556,59.556,0,0,1,6.285-8.344q.024.789.033,1.712l.154,15.615,7.2-10.3a74.263,74.263,0,0,1-1.505,8.74l-.51,2.286,1.43,1.856a1.782,1.782,0,0,1,.482,1.317c0,1.332-1.125,7.482-1.868,11.552-1.356,7.433-2.18,12.115-2.18,14.448a40.433,40.433,0,0,0,.26,4.357c.1.936.243,1.818.382,2.671.149.912.289,1.774.35,2.558.02.254.032.507.032.76l.006.39a7.493,7.493,0,0,0,.607,3.262c4.32,9.446,4.189,15.388,2.765,17.605C1061.873,772.985,1061.222,774,1058.669,774Z" fill="#ebf2f7"/>
              <path id="Path_2429" data-name="Path 2429" d="M1058.669,772c-3.633,0-4.893-.9-5.072-1.249a9.011,9.011,0,0,0-8.064-4.857A9.242,9.242,0,0,0,1041,767.08a13.271,13.271,0,0,1-5.942,1.9c-1.014,0-2.164,0-2.929-3.323a6.978,6.978,0,0,1,.367-3.772,18.214,18.214,0,0,0,.8-4.881,9.371,9.371,0,0,1,1.849-6.236l-6.962-8.617,8.149,4.853c0-3.2-.627-8.421-1.354-14.465-.788-6.556-1.682-13.985-1.682-18.535a17.2,17.2,0,0,1,8.556-14.84l7.2,2.482a58.644,58.644,0,0,1,4.477-6.224l.175,17.814,6.595-9.437c-.229,1.311-.527,2.813-.91,4.528l-.612,2.743,1.716,2.227c.274.356.274.41.274.707-.023,1.351-1.123,7.382-1.852,11.373-1.361,7.462-2.2,12.16-2.2,14.627a41.565,41.565,0,0,0,.265,4.463c.1.963.249,1.859.39,2.726.145.891.283,1.732.34,2.475.018.228.029.455.029.682v.148l.007.147v.093a8.52,8.52,0,0,0,.7,3.68c3.865,8.452,4.178,14.555,2.833,16.649C1061.1,771.343,1060.675,772,1058.669,772Z" fill="url(#linear-gradient)"/>
              <g id="Group_1457" data-name="Group 1457">
                <g id="Group_1456" data-name="Group 1456">
                  <path id="Path_2430" data-name="Path 2430" d="M1054.672,711.1l4.48-6.412c.366-1.99.589-3.6.716-4.887l-5.234,7.49Z" fill="#fff"/>
                  <path id="Path_2431" data-name="Path 2431" d="M1033.33,746.807l2,1.193c0-3.141-.624-8.333-1.347-14.346-.792-6.583-1.689-14.045-1.689-18.654a17.924,17.924,0,0,1,4.5-11.92,17.716,17.716,0,0,1,4.085-3.488l7.319,2.524a59.023,59.023,0,0,1,4.333-6.061l-.015-1.571q-.009-.924-.033-1.712a59.5,59.5,0,0,0-6.285,8.344l-7.319-2.524a17.716,17.716,0,0,0-4.085,3.488,17.924,17.924,0,0,0-4.5,11.92c0,4.609.9,12.071,1.689,18.654C1032.7,738.553,1033.307,743.649,1033.33,746.807Z" fill="#fff"/>
                  <path id="Path_2432" data-name="Path 2432" d="M1052.708,772.209a7.924,7.924,0,0,0-4.551-3.872,7.882,7.882,0,0,1,2.551,2.872,3.465,3.465,0,0,0,2.28,1.382A1.655,1.655,0,0,1,1052.708,772.209Z" fill="#fff"/>
                  <path id="Path_2433" data-name="Path 2433" d="M1031.159,766.878a7.9,7.9,0,0,1,.375-4.258,17.067,17.067,0,0,0,.764-4.62,10.319,10.319,0,0,1,2.09-6.887l-5.43-6.718-2.3-1.369,5.727,7.087A10.319,10.319,0,0,0,1030.3,757a17.067,17.067,0,0,1-.764,4.62,7.9,7.9,0,0,0-.375,4.258c.8,3.474,2.2,4,3.327,4.081A7.228,7.228,0,0,1,1031.159,766.878Z" fill="#fff"/>
                </g>
              </g>
              <path id="Path_2434" data-name="Path 2434" d="M1056.646,687c1.789,0,1.847,5.918,1.872,8.445l.03,3.124,1.789-2.561c1.9-2.715,3-3.008,3.392-3.008a1.522,1.522,0,0,1,1.3.6c1.069,1.333,1.8,5.333-.758,16.809l-.1.457.286.371a5.743,5.743,0,0,1,1.314,3.759c0,1.678-.982,7.063-1.933,12.271-1.087,5.959-2.115,11.589-2.115,13.729a36.484,36.484,0,0,0,.237,3.932c.088.826.223,1.653.354,2.453.162,1,.316,1.939.389,2.89.03.38.044.731.045,1.121.006.109.005.226.005.347a3.727,3.727,0,0,0,.245,1.592c4.233,9.258,5.165,17.269,2.492,21.43-1.379,2.146-3.672,3.235-6.815,3.235-4.89,0-8.181-1.368-9.516-3.957a4.031,4.031,0,0,0-3.621-2.149,4.225,4.225,0,0,0-2.073.542,18.1,18.1,0,0,1-8.4,2.54c-4.076,0-6.7-2.423-7.8-7.2a11.7,11.7,0,0,1,.411-6.2A13.482,13.482,0,0,0,1028.3,758c0-3.932,1.027-7.124,3.052-9.488l3.515-4.105-3.582,1.942c-.164-3.043-.7-7.522-1.267-12.217-.8-6.7-1.718-14.282-1.718-19.132a21.847,21.847,0,0,1,5.987-15.106c3.288-3.53,6.893-5.173,8.294-5.173a.919.919,0,0,1,.237.023c.165.212.529,1.095.137,4.632l-.489,4.41,2.333-3.774c3.985-6.445,9.965-13.012,11.849-13.012m0-1c-2.678,0-9.13,7.713-12.7,13.486.287-2.59.3-4.734-.457-5.486a1.271,1.271,0,0,0-.91-.279c-3.694,0-15.282,7.548-15.282,21.279,0,9,3.036,26.75,3.036,33l.256-.139c-1.683,1.966-3.292,5.137-3.292,10.139,0,2.986-2.031,5.571-1.011,10,1.394,6.056,4.957,7.976,8.775,7.976a19.207,19.207,0,0,0,8.888-2.669,3.215,3.215,0,0,1,1.582-.413,3.043,3.043,0,0,1,2.732,1.607c1.11,2.151,3.828,4.5,10.4,4.5,10.378,0,12.065-11.14,5.232-26.081a4.455,4.455,0,0,1-.16-1.572c0-.383-.017-.766-.047-1.149-.139-1.8-.554-3.585-.746-5.373a35.974,35.974,0,0,1-.231-3.825c0-4,4.048-22.375,4.048-26a6.736,6.736,0,0,0-1.522-4.369c1.709-7.652,3.486-18.631-1.514-18.631-1.289,0-2.726,1.31-4.211,3.436-.045-4.578-.26-9.436-2.872-9.436Z" fill="#7aabcc"/>
            </g>
            <g id="Group_1459" data-name="Group 1459">
              <path id="Path_2435" data-name="Path 2435" d="M1045.114,728.051s-.128-.36-.32-1.045-.485-1.688-.793-2.978c-.328-1.286-.674-2.86-1.006-4.678s-.667-3.877-.918-6.159a18.272,18.272,0,0,1-.09-3.631c.1-1.246.281-2.506.477-3.795.386-2.575.891-5.277,1.082-8.049a12.457,12.457,0,0,0-.018-2.047c-.061-.644-.272-1.335-.615-1.367a2.15,2.15,0,0,0-.81,0,5.582,5.582,0,0,0-.98.247,12.508,12.508,0,0,0-1.944.862,22.5,22.5,0,0,0-10.543,13.579,21.208,21.208,0,0,0-.722,4.254c-.055.709-.067,1.421-.06,2.122.018.719.023,1.439.069,2.134.143,2.8.4,5.532.673,8.109.285,2.581.553,5.022.8,7.275.517,4.506.956,8.27,1.01,10.932.059,1.328.04,2.376.005,3.089s-.079,1.091-.079,1.091-.063-.379-.135-1.083c-.1-.7-.241-1.73-.423-3.04-.406-2.612-.874-6.358-1.441-10.862-.278-2.253-.6-4.692-.863-7.284s-.531-5.322-.658-8.189a26.431,26.431,0,0,1,.8-8.829,24.244,24.244,0,0,1,11.054-14.224,13.7,13.7,0,0,1,2.112-.951,6.667,6.667,0,0,1,1.155-.3,2.887,2.887,0,0,1,1.364.049,1.353,1.353,0,0,1,.365.173l.113.077c.04.034-.05-.047.1.08l.032.037.062.074a2.062,2.062,0,0,1,.363.616,4.48,4.48,0,0,1,.283,1.194,13.666,13.666,0,0,1,.037,2.236c-.181,2.892-.7,5.591-1.072,8.157-.194,1.281-.367,2.525-.481,3.717a17.148,17.148,0,0,0,.042,3.434c.209,2.233.543,4.286.814,6.1s.514,3.406.676,4.721c.183,1.311.3,2.346.374,3.054S1045.114,728.051,1045.114,728.051Z" fill="#7aabcc"/>
            </g>
            <g id="Group_1460" data-name="Group 1460">
              <path id="Path_2436" data-name="Path 2436" d="M1061.706,731s-.052-.324-.1-.931-.135-1.5-.142-2.644a26.023,26.023,0,0,1,.277-4.123c.231-1.592.725-3.335,1.177-5.2.444-1.888.925-3.932,1.433-6.094s1-4.442,1.405-6.816a42.434,42.434,0,0,0,.717-7.337,10.933,10.933,0,0,0-.547-3.6,3.153,3.153,0,0,0-.919-1.349,2.063,2.063,0,0,0-1.461-.371,2.164,2.164,0,0,0-.754.243,5.928,5.928,0,0,0-.711.5,9.359,9.359,0,0,0-1.273,1.317,23.575,23.575,0,0,0-2.106,3.116,67.153,67.153,0,0,0-3.32,6.631c-1.96,4.414-3.534,8.653-4.886,12.282-1.327,3.64-2.363,6.7-3.209,8.8-.826,2.111-1.381,3.294-1.381,3.294s.2-1.293.759-3.494,1.531-5.294,2.823-8.963c1.276-3.675,2.884-7.925,4.881-12.375a68.2,68.2,0,0,1,3.424-6.715,24.509,24.509,0,0,1,2.222-3.233,10.391,10.391,0,0,1,1.427-1.45,6.937,6.937,0,0,1,.884-.6,3.5,3.5,0,0,1,1.082-.34,3.051,3.051,0,0,1,2.206.549,4.135,4.135,0,0,1,1.269,1.785,11.885,11.885,0,0,1,.645,3.959,43.385,43.385,0,0,1-.677,7.54c-.393,2.412-.9,4.715-1.4,6.889s-1.039,4.188-1.494,6.1c-.5,1.9-.98,3.582-1.255,5.107s-.446,2.876-.579,3.995-.231,2.008-.3,2.61S1061.706,731,1061.706,731Z" fill="#7aabcc"/>
            </g>
            <g id="Group_1461" data-name="Group 1461">
              <path id="Path_2437" data-name="Path 2437" d="M1034.382,745a9.257,9.257,0,0,0-1.011.626,12.252,12.252,0,0,0-2.394,2.274,14.092,14.092,0,0,0-2.334,4.472,10.816,10.816,0,0,0-.387,1.464,11.053,11.053,0,0,0-.266,1.587,12.1,12.1,0,0,0-.129,1.7c-.034.573-.014,1.168-.094,1.861-.159,1.334-.589,2.572-.867,3.848a11.205,11.205,0,0,0-.253,3.933c.463,2.63,1.44,5.67,3.85,7.326a7.765,7.765,0,0,0,4.157,1.321,14.133,14.133,0,0,0,4.61-.65,22.291,22.291,0,0,0,4.426-1.894,3.772,3.772,0,0,1,2.784-.355,3.469,3.469,0,0,1,2.223,1.745,6.867,6.867,0,0,0,3.382,3.05,13.872,13.872,0,0,0,4.607,1.084,20.776,20.776,0,0,0,2.372.062,8.579,8.579,0,0,0,1.172-.094,7.819,7.819,0,0,0,1.113-.206,7.4,7.4,0,0,0,3.77-2.171c1.939-2.2,2.4-5.276,2.316-8.017a32.43,32.43,0,0,0-1.332-7.765,54.282,54.282,0,0,0-2.3-6.325c-.8-1.843-1.524-3.441-2.14-4.753l-1.464-3.036c-.349-.7-.515-1.082-.515-1.082s.255.33.7.973c.459.635,1.095,1.59,1.841,2.845a45.79,45.79,0,0,1,2.467,4.661,49.686,49.686,0,0,1,2.434,6.414,31.4,31.4,0,0,1,1.437,8.037,16.716,16.716,0,0,1-.435,4.51,9.991,9.991,0,0,1-2.191,4.286,8.5,8.5,0,0,1-4.333,2.475,15.938,15.938,0,0,1-5.005.238,14.886,14.886,0,0,1-4.946-1.2,7.882,7.882,0,0,1-3.838-3.52,2.646,2.646,0,0,0-3.618-.958,23.375,23.375,0,0,1-4.623,2.009,15.213,15.213,0,0,1-4.962.721,8.87,8.87,0,0,1-4.747-1.492,12.357,12.357,0,0,1-.973-.779l-.828-.91a11.757,11.757,0,0,1-.672-1l-.322-.506-.245-.547-.478-1.09c-.13-.359-.215-.71-.323-1.062-.1-.37-.206-.66-.307-1.088-.071-.373-.155-.741-.189-1.115a11.724,11.724,0,0,1,.285-4.319c.315-1.342.745-2.571.891-3.717.077-.543.07-1.173.111-1.788a12.924,12.924,0,0,1,.157-1.782,11.919,11.919,0,0,1,.3-1.678c.063-.27.126-.535.187-.8.079-.258.174-.507.258-.754a12.127,12.127,0,0,1,2.78-4.591,9.679,9.679,0,0,1,2.764-2.034A5.078,5.078,0,0,1,1034.382,745Z" fill="#7aabcc"/>
            </g>
          </g>
        </g>
      </g>
    </g>
  </g>
</svg>
