<svg xmlns="http://www.w3.org/2000/svg" xmlns:xlink="http://www.w3.org/1999/xlink" width="58" height="104" viewBox="0 0 58 104">
  <defs>
    <clipPath id="clip-path">
      <path id="SVGID" d="M441,854c0-3.875,10.75-17,15-17s13,9,13,17c0,3.464-1.878,7.293-4,10.532A134.659,134.659,0,0,1,460,902c-1.294,4.865-2.675,12.746-5,18-3.375,7.625-6.875,13-10,13-2.4,0,1-16.375,1-22,0-5.122-1.658-29.1-1.954-43.922A41.1,41.1,0,0,1,441,854Z" fill="none"/>
    </clipPath>
    <linearGradient id="linear-gradient" x1="-492.057" y1="1" x2="-492.057" gradientUnits="objectBoundingBox">
      <stop offset="0" stop-color="#fff"/>
      <stop offset="0.25" stop-color="#f2f7fa"/>
    </linearGradient>
  </defs>
  <g id="Regular27" transform="translate(-426 -836)">
    <rect id="Rectangle_266" data-name="Rectangle 266" width="58" height="104" transform="translate(426 836)" fill="none"/>
    <g id="Group_1580" data-name="Group 1580" transform="translate(0 3)">
      <g id="Group_1579" data-name="Group 1579">
        <g id="Group_1578" data-name="Group 1578" clip-path="url(#clip-path)">
          <g id="Group_1575" data-name="Group 1575">
            <path id="Path_2537" data-name="Path 2537" d="M445.005,932.5c-.918-.581.046-8.129.622-12.643A86.579,86.579,0,0,0,446.5,911c0-2.2-.3-7.7-.67-14.677-.5-9.248-1.114-20.759-1.284-29.255l0-.093-.036-.086A40.927,40.927,0,0,1,441.5,854c0-3.58,10.618-16.5,14.5-16.5,3.726,0,12.5,8.63,12.5,16.5,0,2.841-1.32,6.292-3.922,10.258l-.082.124v.149a133.848,133.848,0,0,1-4.979,37.34c-.367,1.38-.742,3.005-1.139,4.725-1.024,4.44-2.185,9.473-3.835,13.2C449.9,930.287,446.794,932.5,445.005,932.5Z" fill="#ebf2f7"/>
            <g id="Group_1573" data-name="Group 1573">
              <path id="Path_2538" data-name="Path 2538" d="M458.171,843.133c-.083.046-.178.113-.267.169,2.652,2.225,6.1,6.793,6.1,10.7,0,1.1-.414,3.567-3.185,7.789L460,863.032l0,1.487a129.755,129.755,0,0,1-4.828,36.2c-.386,1.452-.77,3.112-1.175,4.869-.327,1.42-.671,2.9-1.037,4.372.028.829.044,1.523.044,2.044a64.607,64.607,0,0,1-.61,7.062l.038-.085c1.476-3.337,2.587-8.148,3.565-12.393.4-1.757.789-3.417,1.175-4.869a129.755,129.755,0,0,0,4.828-36.2l0-1.487.815-1.243C465.586,858.567,466,856.1,466,855,466,850.146,460.676,844.261,458.171,843.133Z" fill="#d1e2ed"/>
            </g>
            <path id="Path_2539" data-name="Path 2539" d="M450.39,918.062A64.626,64.626,0,0,0,451,911c0-2.316-.3-7.878-.676-14.918-.495-9.215-1.111-20.683-1.279-29.1l-.019-.931-.353-.862a38.2,38.2,0,0,1-2.667-10.918c.834-2.7,7.179-10.484,10.165-12.134C458.676,843.26,464,849.145,464,854c0,1.1-.414,3.567-3.184,7.789L460,863.032l0,1.487a129.755,129.755,0,0,1-4.828,36.2c-.386,1.452-.769,3.112-1.175,4.869-.979,4.245-2.088,9.056-3.565,12.392Z" fill="#ebf2f7"/>
            <path id="Path_2540" data-name="Path 2540" d="M451.981,908.744c-.072-2.78-.337-7.711-.659-13.716-.494-9.207-1.109-20.666-1.277-29.07l-.023-1.118-.423-1.034a37.6,37.6,0,0,1-2.585-10.385c1.01-2.735,6.4-9.172,9.2-11.119,2.421,1.485,6.786,6.6,6.786,10.7,0,.793-.294,3.087-3.02,7.24L459,861.732,459,863.516a128.843,128.843,0,0,1-4.794,35.942c-.391,1.468-.776,3.136-1.183,4.9C452.691,905.784,452.347,907.272,451.981,908.744Z" fill="url(#linear-gradient)"/>
            <g id="Group_1574" data-name="Group 1574">
              <path id="Path_2541" data-name="Path 2541" d="M450.323,896.082c-.494-9.215-1.11-20.683-1.278-29.1l-.019-.931-.352-.862a38.208,38.208,0,0,1-2.668-10.918c.81-2.621,6.821-10.037,9.9-11.965a8.089,8.089,0,0,0-1.733-1.169c-2.985,1.65-9.331,9.437-10.165,12.134a38.208,38.208,0,0,0,2.668,10.918l.352.862.019.931c.168,8.421.784,19.889,1.278,29.1.378,7.041.677,12.6.677,14.918a64.607,64.607,0,0,1-.61,7.062l.038-.085a51.7,51.7,0,0,0,2.528-8.021C450.861,906.1,450.616,901.538,450.323,896.082Z" fill="#fff"/>
            </g>
            <path id="Path_2542" data-name="Path 2542" d="M456,838c3.577,0,12,8.369,12,16,0,2.742-1.292,6.1-3.84,9.983l-.163.249v.3a133.393,133.393,0,0,1-4.963,37.214c-.369,1.388-.744,3.016-1.141,4.74-1.02,4.419-2.175,9.427-3.806,13.112-4.461,10.077-7.342,12.151-8.8,12.382-.511-1.522.325-8.068.834-12.057A86.74,86.74,0,0,0,447,911c0-2.208-.3-7.719-.671-14.7-.5-9.247-1.114-20.756-1.283-29.246l0-.186-.07-.172A40.352,40.352,0,0,1,442,854c0-3.344,10.4-16,14-16m0-1c-4.25,0-15,13.125-15,17a41.089,41.089,0,0,0,3.046,13.078C444.342,881.9,446,905.878,446,911c0,5.625-3.4,22-1,22,3.125,0,6.625-5.375,10-13,2.325-5.254,3.706-13.135,5-18a134.659,134.659,0,0,0,5-37.468c2.126-3.239,4-7.069,4-10.532,0-8-8.75-17-13-17Z" fill="#7aabcc"/>
          </g>
          <g id="Group_1576" data-name="Group 1576">
            <path id="Path_2543" data-name="Path 2543" d="M459,872l2.374-3.135c.735-1.007,1.618-2.23,2.581-3.661a34.725,34.725,0,0,0,2.873-4.992,15.28,15.28,0,0,0,1.593-6.394,11.679,11.679,0,0,0-.186-1.818q-.081-.437-.163-.875c-.087-.3-.175-.592-.263-.891a19.675,19.675,0,0,0-1.495-3.523,24.809,24.809,0,0,0-4.989-6.311,14.09,14.09,0,0,0-3.35-2.333,4.58,4.58,0,0,0-.921-.361,3.6,3.6,0,0,0-.925-.181l-.115-.016c.046-.007-.064,0-.088.006l-.267.023c-.151.033-.265.065-.41.1a6.839,6.839,0,0,0-.9.386,26.889,26.889,0,0,0-6.26,5.477,45.557,45.557,0,0,0-4.885,6.527,13.379,13.379,0,0,0-1.56,3.412,2.071,2.071,0,0,0-.063.4c0,.058-.015.136-.013.179l.009.239c.009.321.021.637.055.932.044.6.136,1.209.217,1.806a49.272,49.272,0,0,0,1.535,6.658,42.317,42.317,0,0,0,2.07,5.387,34.743,34.743,0,0,0,2.149,3.884,13.519,13.519,0,0,0,.956,1.341,7.155,7.155,0,0,0,.767.956c.449.492.678.777.678.777s-.294-.2-.827-.623a7.321,7.321,0,0,1-.942-.821,12.5,12.5,0,0,1-1.143-1.252q-.3-.371-.637-.78c-.206-.284-.4-.594-.618-.913a22.675,22.675,0,0,1-1.254-2.14,39.036,39.036,0,0,1-2.22-5.494,44.164,44.164,0,0,1-1.632-6.811c-.083-.622-.176-1.24-.224-1.9-.036-.333-.047-.65-.056-.968l-.008-.239c0-.117.01-.2.016-.3a3.087,3.087,0,0,1,.087-.554,13.888,13.888,0,0,1,1.708-3.744A46.515,46.515,0,0,1,447.3,842.8a27.661,27.661,0,0,1,6.58-5.656,7.54,7.54,0,0,1,1.064-.461,6.193,6.193,0,0,1,.63-.151l.267-.025a1.628,1.628,0,0,1,.178-.01l.151.016a4.614,4.614,0,0,1,1.171.214,5.512,5.512,0,0,1,1.068.409,15.06,15.06,0,0,1,3.62,2.477,25.867,25.867,0,0,1,5.259,6.564,19.994,19.994,0,0,1,1.6,3.728q.144.48.284.955.093.5.187.995a12.72,12.72,0,0,1,.2,1.892,15.527,15.527,0,0,1-1.751,6.92,33.085,33.085,0,0,1-3.042,5.095,32.391,32.391,0,0,1-2.888,3.516,27.448,27.448,0,0,1-2.081,2.053C459.292,871.786,459,872,459,872Z" fill="#7aabcc"/>
          </g>
          <g id="Group_1577" data-name="Group 1577">
            <path id="Path_2544" data-name="Path 2544" d="M465,869a2.638,2.638,0,0,1,.122.557,1.838,1.838,0,0,1-.024.647,3.816,3.816,0,0,1-.2.828,5.225,5.225,0,0,1-.368.926,8.649,8.649,0,0,1-.544.963c-.23.3-.445.638-.712.935a11.061,11.061,0,0,1-.816.892,14.249,14.249,0,0,1-3.574,2.58,9.978,9.978,0,0,1-1.348.536L457,878l.51-.194a12.16,12.16,0,0,0,1.267-.664,15.755,15.755,0,0,0,3.316-2.741,10.6,10.6,0,0,0,.752-.885c.246-.294.437-.618.646-.914.168-.319.385-.6.512-.9a7.141,7.141,0,0,0,.379-.844,4.514,4.514,0,0,0,.238-.734c.063-.217.141-.411.176-.587A2.7,2.7,0,0,1,465,869Z" fill="#7aabcc"/>
          </g>
        </g>
      </g>
    </g>
  </g>
</svg>
