<svg xmlns="http://www.w3.org/2000/svg" xmlns:xlink="http://www.w3.org/1999/xlink" width="58" height="81" viewBox="0 0 58 81">
  <defs>
    <clipPath id="clip-path">
      <path id="SVGID" d="M175.386,861.9c0-2.39,10.576-24.9-2.185-24.9-2.019,0-11.772,3.985-11.772,3.985s-8.2-3.514-10.979-3.426a9.236,9.236,0,0,0-7.461,4.863c-1.516,2.708-1.375,4.426-1.375,7.528,0,3.487,2.214,8.04,2.867,10.958a131.094,131.094,0,0,1,1,18.928c-.549,8.879-6.978,22.2-6.978,23.908,0,2.238,1.087,3.985,3.988,3.985,2.381,0,13.127-14.739,17.288-20.575.549-.769,2.609-.293,2.65.651.164,3.8-.524,10.112-1.188,11.954-.982,2.723-3.8,5.355-3.8,7.222s1.2,5.33,5.982.748,10.184-8.791,10.775-15.939C175.012,881.953,175.386,864.295,175.386,861.9Z" fill="none"/>
    </clipPath>
    <linearGradient id="linear-gradient" x1="-280.286" y1="1" x2="-280.286" gradientUnits="objectBoundingBox">
      <stop offset="0" stop-color="#fff"/>
      <stop offset="0.25" stop-color="#f2f7fa"/>
    </linearGradient>
  </defs>
  <g id="Regular31" transform="translate(-130 -836)">
    <g id="Group_1528" data-name="Group 1528" transform="translate(0 3)">
      <g id="Group_1527" data-name="Group 1527" clip-path="url(#clip-path)">
        <g id="Group_1520" data-name="Group 1520">
          <path id="Path_2492" data-name="Path 2492" d="M159.506,909.5c-1.238,0-1.565-1.647-1.565-2.519s.82-2.085,1.687-3.37a17.5,17.5,0,0,0,2.081-3.682c.726-2.015,1.374-8.485,1.216-12.145-.04-.935-1.164-1.513-2.182-1.513a1.62,1.62,0,0,0-1.374.593c-10.719,15.031-15.793,20.365-16.881,20.365-2.315,0-3.488-1.173-3.488-3.485a31.986,31.986,0,0,1,1.573-4.593c2-5.259,5.028-13.206,5.4-19.284a131.084,131.084,0,0,0-1.008-19.068,36.579,36.579,0,0,0-1.116-3.611c-.815-2.37-1.739-5.058-1.739-7.238l0-.728c-.01-2.608-.016-4.181,1.313-6.556a8.74,8.74,0,0,1,7.041-4.607h0c2.829,0,10.685,3.351,10.764,3.385l.192.083.194-.079c2.688-1.1,10.008-3.948,11.583-3.948,2.133,0,3.633.639,4.585,1.954,2.959,4.088-.193,13.668-1.887,18.815a17.735,17.735,0,0,0-1.013,3.635c0,2.125-.357,19.822-1.186,29.845-.509,6.147-4.624,10-8.98,14.07-.55.514-1.1,1.029-1.643,1.548-1.84,1.763-2.958,2.133-3.571,2.133Z" fill="#ebf2f7"/>
          <g id="Group_1517" data-name="Group 1517">
            <g id="Group_1516" data-name="Group 1516">
              <path id="Path_2493" data-name="Path 2493" d="M160.743,881.771a6.07,6.07,0,0,0-5.038,2.48q-2.924,4.1-5.35,7.324c-.668,2.217-1.419,4.383-2.147,6.371,2.484-3.109,5.683-7.345,9.5-12.7a6.07,6.07,0,0,1,5.038-2.48,7.329,7.329,0,0,1,2.2.341A7.1,7.1,0,0,0,160.743,881.771Z" fill="#d1e2ed"/>
              <path id="Path_2494" data-name="Path 2494" d="M176.193,843.138A2.039,2.039,0,0,0,175.4,843c-.214.041-.51.12-.861.223.2,1.674-.21,5.41-2.916,13.635-.825,2.507-1.239,3.765-1.239,5.042,0,2.349-.324,16.97-.965,26.679v.006a59.422,59.422,0,0,1-.556,9.505,10.923,10.923,0,0,0,2.35-5.717c.778-9.4,1.171-26.885,1.171-29.473,0-1.277.414-2.535,1.239-5.042C177.249,846.847,176.756,843.879,176.193,843.138Z" fill="#d1e2ed"/>
            </g>
          </g>
          <path id="Path_2495" data-name="Path 2495" d="M166.865,897.094a59.533,59.533,0,0,0,.556-9.5,6.4,6.4,0,0,0-6.678-5.819,6.07,6.07,0,0,0-5.038,2.48c-3.815,5.35-7.013,9.586-9.5,12.7,1.881-5.138,3.93-11.46,4.261-16.8a131.785,131.785,0,0,0-1.108-20.329,39.864,39.864,0,0,0-1.252-4.09,22.875,22.875,0,0,1-1.495-5.775l0-.745c-.009-2.475.014-3.044.74-4.34a4.306,4.306,0,0,1,3.257-2.308,48.125,48.125,0,0,1,8.852,3.024l1.922.823,1.937-.791A92.292,92.292,0,0,1,173.4,842a2.049,2.049,0,0,1,.792.134c.562.741,1.055,3.709-2.569,14.724-.825,2.507-1.239,3.765-1.239,5.042,0,2.588-.393,20.074-1.171,29.474A10.923,10.923,0,0,1,166.865,897.094Z" fill="#ebf2f7"/>
          <path id="Path_2496" data-name="Path 2496" d="M149.092,890.591a50.358,50.358,0,0,0,2.375-11.385c.332-5.362-.523-17.9-1.131-20.609a40.311,40.311,0,0,0-1.282-4.2,23.009,23.009,0,0,1-1.44-5.449l0-.749c-.009-2.426.013-2.777.612-3.848a3.486,3.486,0,0,1,2.308-1.789,49.45,49.45,0,0,1,8.536,2.937l2.306.986,2.324-.948a99.73,99.73,0,0,1,9.736-3.518c.36,1.421.061,4.959-2.759,13.529-.858,2.608-1.289,3.917-1.289,5.354,0,2.32-.317,16.65-.944,26.33-.005-.238-.012-.468-.022-.688a7.4,7.4,0,0,0-7.677-6.775,7.056,7.056,0,0,0-5.852,2.9Q151.693,887.156,149.092,890.591Z" fill="url(#linear-gradient)"/>
          <g id="Group_1519" data-name="Group 1519">
            <g id="Group_1518" data-name="Group 1518">
              <path id="Path_2497" data-name="Path 2497" d="M144.208,895.946c1.215-1.52,2.6-3.314,4.147-5.371a47.69,47.69,0,0,0,2.114-10.43,131.777,131.777,0,0,0-1.109-20.33,39.372,39.372,0,0,0-1.252-4.09,22.869,22.869,0,0,1-1.494-5.775l0-.745c-.009-2.475.014-3.044.74-4.341a4.307,4.307,0,0,1,3.257-2.307,48.125,48.125,0,0,1,8.852,3.024l1.922.822,1.937-.79c3.234-1.32,7.22-2.8,9.221-3.386a2.233,2.233,0,0,0-.348-1.089A2.039,2.039,0,0,0,171.4,841a92.292,92.292,0,0,0-10.082,3.609l-1.937.79-1.922-.822a48.125,48.125,0,0,0-8.852-3.024,4.307,4.307,0,0,0-3.257,2.307c-.726,1.3-.749,1.866-.74,4.341l0,.745a22.869,22.869,0,0,0,1.494,5.775,39.372,39.372,0,0,1,1.252,4.09,131.777,131.777,0,0,1,1.109,20.33C148.139,884.486,146.089,890.808,144.208,895.946Z" fill="#fff"/>
              <path id="Path_2498" data-name="Path 2498" d="M167.215,890.377c.072-.868.14-1.806.206-2.794a6.136,6.136,0,0,0-4.475-5.471,5.862,5.862,0,0,1,2.475,4.477,59.422,59.422,0,0,1-.556,9.505A10.923,10.923,0,0,0,167.215,890.377Z" fill="#fff"/>
            </g>
          </g>
          <path id="Path_2499" data-name="Path 2499" d="M173.2,838a4.768,4.768,0,0,1,4.18,1.747c2.809,3.882-.291,13.3-1.957,18.365a16.645,16.645,0,0,0-1.038,3.792c0,2.121-.357,19.792-1.185,29.8-.492,5.956-4.539,9.74-8.822,13.746-.552.516-1.1,1.032-1.648,1.553-1.811,1.735-2.8,1.994-3.225,1.994-1.035,0-1.065-2-1.065-2.019,0-.717.815-1.923,1.6-3.09a18.155,18.155,0,0,0,2.136-3.793c.758-2.1,1.409-8.556,1.246-12.336-.054-1.246-1.406-1.991-2.682-1.991a2.1,2.1,0,0,0-1.781.8c-9.581,13.436-15.186,19.792-16.513,20.155-2.011-.012-2.949-.961-2.949-2.974a37.252,37.252,0,0,1,1.54-4.426c2.014-5.287,5.056-13.277,5.437-19.432a132.107,132.107,0,0,0-1.02-19.207,36.75,36.75,0,0,0-1.131-3.665c-.8-2.334-1.712-4.979-1.712-7.075l0-.733c-.009-2.611-.015-4.048,1.249-6.307a8.239,8.239,0,0,1,6.621-4.351h.075c2.186,0,8.3,2.415,10.478,3.345l.385.165.387-.158c3.7-1.512,10.067-3.91,11.394-3.91m0-1c-2.018,0-11.772,3.984-11.772,3.984s-8-3.426-10.872-3.426l-.107,0a9.233,9.233,0,0,0-7.461,4.862c-1.516,2.708-1.375,4.426-1.375,7.528,0,3.487,2.214,8.04,2.867,10.958a131.212,131.212,0,0,1,1,18.927c-.55,8.88-6.979,22.2-6.979,23.909,0,2.238,1.087,3.985,3.987,3.985,2.382,0,13.128-14.739,17.289-20.575a1.159,1.159,0,0,1,.967-.383c.766,0,1.656.417,1.683,1.034.164,3.8-.524,10.112-1.188,11.954-.981,2.723-3.8,5.355-3.8,7.222,0,1.187.484,3.019,2.065,3.019.906,0,2.174-.6,3.917-2.271,4.785-4.583,10.183-8.791,10.775-15.939.814-9.837,1.188-27.495,1.188-29.886S185.962,837,173.2,837Z" fill="#7aabcc"/>
        </g>
        <g id="Group_1521" data-name="Group 1521">
          <path id="Path_2500" data-name="Path 2500" d="M168.294,838.158a5.718,5.718,0,0,1-.665.534c-.212.151-.5.31-.786.494s-.614.368-.968.551c-.338.217-.738.389-1.126.6a8.729,8.729,0,0,0-1.155.713,3.338,3.338,0,0,0-.546.429,5.35,5.35,0,0,0-.946,1.066,3.635,3.635,0,0,0-.373.646,8.053,8.053,0,0,0-.549,1.457,13.928,13.928,0,0,0-.327,1.545c-.1.51-.13,1.02-.209,1.5-.053.484-.1.941-.151,1.364-.16,1.7-.268,2.839-.268,2.839h-.2s-.126-1.136-.244-2.849a28.18,28.18,0,0,1-.082-2.962,15.359,15.359,0,0,1,.132-1.708,9.491,9.491,0,0,1,.419-1.792,5.006,5.006,0,0,1,.371-.882,4.5,4.5,0,0,1,.493-.832,3.8,3.8,0,0,1,.6-.745,4.787,4.787,0,0,1,.677-.634,8.362,8.362,0,0,1,1.443-.922,7.891,7.891,0,0,1,1.386-.532,12.357,12.357,0,0,1,1.235-.2,5.5,5.5,0,0,1,.941,0,5.8,5.8,0,0,1,.845.127Z" fill="#7aabcc"/>
        </g>
        <g id="Group_1522" data-name="Group 1522">
          <path id="Path_2501" data-name="Path 2501" d="M162.875,889.8s-.062-.234-.135-.644-.168-.992-.282-1.682c-.051-.346-.1-.72-.164-1.116s-.1-.814-.163-1.245c-.084-.871-.173-1.8-.262-2.73-.225-1.862-.459-3.746-.485-5.166-.046-1.418-.005-2.359-.005-2.359l.1,0s.059.939.254,2.331.545,3.224.926,5.07c.194.923.39,1.852.507,2.736a16.827,16.827,0,0,1,.091,2.436c-.008.358-.052.687-.071.977a6.819,6.819,0,0,1-.094.745c-.063.412-.118.648-.118.648Z" fill="#7aabcc"/>
        </g>
        <g id="Group_1523" data-name="Group 1523">
          <path id="Path_2502" data-name="Path 2502" d="M158.4,888.775a3.28,3.28,0,0,1,.063-.345,6.873,6.873,0,0,1,.2-.847,8.013,8.013,0,0,1,.415-1.134c.2-.393.454-.795.676-1.213.446-.836.851-1.691,1.166-2.329a9.647,9.647,0,0,0,.461-1.09l.1.021a10.072,10.072,0,0,1-.228,1.184c-.159.707-.456,1.62-.762,2.531-.158.453-.288.921-.467,1.335a5.75,5.75,0,0,1-.647,1.058,4.338,4.338,0,0,1-.615.669,2.861,2.861,0,0,1-.278.213Z" fill="#7aabcc"/>
        </g>
        <g id="Group_1524" data-name="Group 1524">
          <path id="Path_2503" data-name="Path 2503" d="M165.417,859.912l-.3.075a2.8,2.8,0,0,0-.341.093,2.659,2.659,0,0,0-.41.156,4.011,4.011,0,0,0-.9.575,4.662,4.662,0,0,0-.4.425,3.985,3.985,0,0,0-.347.492,5.932,5.932,0,0,0-.707,2.127c-.028.154-.032.3-.05.423a.74.74,0,0,1-.163.322,1.163,1.163,0,0,1-.241.214.942.942,0,0,1-.123.079.769.769,0,0,1-.117-.081.988.988,0,0,1-.229-.241.644.644,0,0,1-.115-.382,3.482,3.482,0,0,1,.061-.486,6.767,6.767,0,0,1,.309-1.192,5.818,5.818,0,0,1,.69-1.253,4.091,4.091,0,0,1,1.075-.956,3.131,3.131,0,0,1,1.161-.4,3.091,3.091,0,0,1,.482-.041,1.44,1.44,0,0,1,.36.016Z" fill="#7aabcc"/>
        </g>
        <g id="Group_1525" data-name="Group 1525">
          <path id="Path_2504" data-name="Path 2504" d="M161.379,863.9a1.365,1.365,0,0,1-.2-.245.8.8,0,0,0-.2-.205l-.236-.208c-.168-.161-.366-.368-.617-.576a7.075,7.075,0,0,0-.859-.625,9.827,9.827,0,0,0-1.883-.886,3.878,3.878,0,0,0-.668-.18,1.34,1.34,0,0,0-.255-.021l-.021-.1a1.527,1.527,0,0,1,.279-.05,4.13,4.13,0,0,1,.735.006,7.72,7.72,0,0,1,2.166.512,5.529,5.529,0,0,1,1.1.557,2.414,2.414,0,0,1,.777.847,1.413,1.413,0,0,1,.144.492.686.686,0,0,1-.026.38,1.373,1.373,0,0,1-.132.288Z" fill="#7aabcc"/>
        </g>
        <g id="Group_1526" data-name="Group 1526">
          <path id="Path_2505" data-name="Path 2505" d="M144.434,863.882a2.378,2.378,0,0,1,.088-1.158,3.088,3.088,0,0,1,.544-1.049,5.176,5.176,0,0,1,1.026-.877,5.065,5.065,0,0,1,2.279-.923,4.066,4.066,0,0,1,.8-.032l.3.019v.1l-.287.05a3.821,3.821,0,0,0-.726.2,5.293,5.293,0,0,0-1.851,1.2,6.772,6.772,0,0,0-.721.909c-.232.281-.452.543-.651.773s-.354.42-.493.574a2.513,2.513,0,0,1-.208.242Z" fill="#7aabcc"/>
        </g>
      </g>
    </g>
    <g id="high31">
      <rect id="Rectangle_262" data-name="Rectangle 262" width="58" height="81" transform="translate(130 836)" fill="none"/>
    </g>
  </g>
</svg>
