<svg xmlns="http://www.w3.org/2000/svg" xmlns:xlink="http://www.w3.org/1999/xlink" width="58" height="81" viewBox="0 0 58 81">
  <defs>
    <clipPath id="clip-path">
      <path id="SVGID" d="M1104.614,861.9c0-2.39-10.576-24.9,2.185-24.9,2.019,0,11.772,3.985,11.772,3.985s8.2-3.514,10.979-3.426a9.236,9.236,0,0,1,7.461,4.863c1.516,2.708,1.375,4.426,1.375,7.528,0,3.487-2.214,8.04-2.867,10.958a131.092,131.092,0,0,0-1,18.928c.549,8.879,6.978,22.2,6.978,23.908,0,2.238-1.087,3.985-3.988,3.985-2.381,0-13.127-14.739-17.288-20.575-.549-.769-2.609-.293-2.65.651-.164,3.8.524,10.112,1.188,11.954.982,2.723,3.8,5.355,3.8,7.222s-1.2,5.33-5.982.748-10.184-8.791-10.775-15.939C1104.988,881.953,1104.614,864.295,1104.614,861.9Z" fill="none"/>
    </clipPath>
    <linearGradient id="linear-gradient" x1="0.5" y1="1" x2="0.5" gradientUnits="objectBoundingBox">
      <stop offset="0" stop-color="#fff"/>
      <stop offset="0.25" stop-color="#f2f7fa"/>
    </linearGradient>
  </defs>
  <g id="Regular18" transform="translate(-1092 -836)">
    <rect id="Rectangle_275" data-name="Rectangle 275" width="58" height="81" transform="translate(1092 836)" fill="none"/>
    <g id="Group_1341" data-name="Group 1341" transform="translate(0 3)">
      <g id="Group_1340" data-name="Group 1340">
        <g id="Group_1339" data-name="Group 1339" clip-path="url(#clip-path)">
          <g id="Group_1332" data-name="Group 1332">
            <path id="Path_2308" data-name="Path 2308" d="M1120.494,909.5c-.613,0-1.73-.37-3.571-2.133-.542-.519-1.093-1.034-1.643-1.548-4.356-4.074-8.471-7.923-8.98-14.07-.829-10.023-1.186-27.72-1.186-29.845a17.736,17.736,0,0,0-1.013-3.635c-1.694-5.147-4.846-14.727-1.887-18.815.952-1.315,2.452-1.954,4.585-1.954,1.575,0,8.9,2.85,11.583,3.948l.194.079.192-.083c.079-.034,7.939-3.386,10.676-3.386a8.759,8.759,0,0,1,7.131,4.608c1.329,2.375,1.323,3.948,1.313,6.556l0,.728c0,2.18-.924,4.868-1.739,7.238a36.574,36.574,0,0,0-1.116,3.611,131.1,131.1,0,0,0-1.008,19.068c.376,6.078,3.4,14.025,5.4,19.284a31.991,31.991,0,0,1,1.573,4.593c0,2.312-1.173,3.485-3.488,3.485-1.088,0-6.162-5.334-16.881-20.365a1.62,1.62,0,0,0-1.374-.593c-1.018,0-2.142.578-2.182,1.512-.158,3.661.49,10.131,1.216,12.146a17.5,17.5,0,0,0,2.081,3.682c.867,1.285,1.687,2.5,1.687,3.37S1121.732,909.5,1120.494,909.5Z" fill="#ebf2f7"/>
            <g id="Group_1329" data-name="Group 1329">
              <g id="Group_1328" data-name="Group 1328">
                <path id="Path_2309" data-name="Path 2309" d="M1132.648,844.864c.726,1.3.749,1.866.74,4.341l0,.745a22.875,22.875,0,0,1-1.495,5.775,39.612,39.612,0,0,0-1.251,4.09,131.78,131.78,0,0,0-1.109,20.33,56.518,56.518,0,0,0,3.247,13.928q1.646,2.161,3.014,3.873c-1.881-5.138-3.93-11.46-4.261-16.8a131.78,131.78,0,0,1,1.109-20.33,39.612,39.612,0,0,1,1.251-4.09,22.875,22.875,0,0,0,1.495-5.775l0-.745c.009-2.475-.014-3.044-.74-4.341a4.412,4.412,0,0,0-3.029-2.29A5.172,5.172,0,0,1,1132.648,844.864Z" fill="#d1e2ed"/>
                <path id="Path_2310" data-name="Path 2310" d="M1119.257,881.771a6.4,6.4,0,0,0-6.678,5.818c-.021.495-.026,1.054-.022,1.637.071,1.119.148,2.18.228,3.151a10.923,10.923,0,0,0,2.35,5.717,59.536,59.536,0,0,1-.556-9.505,6.4,6.4,0,0,1,6.678-5.818,6.691,6.691,0,0,1,1.85.265A6.277,6.277,0,0,0,1119.257,881.771Z" fill="#d1e2ed"/>
              </g>
            </g>
            <path id="Path_2311" data-name="Path 2311" d="M1113.135,897.094a10.923,10.923,0,0,1-2.35-5.716c-.778-9.4-1.171-26.886-1.171-29.474,0-1.277-.414-2.535-1.239-5.042-3.612-10.977-3.134-13.962-2.52-14.763h0a3.639,3.639,0,0,1,.74-.1,92,92,0,0,1,10.082,3.609l1.936.791,1.923-.823c3.611-1.545,7.792-2.958,8.948-3.024a4.321,4.321,0,0,1,3.161,2.308c.726,1.3.749,1.865.74,4.34l0,.745a22.875,22.875,0,0,1-1.495,5.775,39.84,39.84,0,0,0-1.252,4.09,131.795,131.795,0,0,0-1.108,20.33c.331,5.341,2.38,11.663,4.261,16.8-2.484-3.109-5.682-7.345-9.5-12.7a6.07,6.07,0,0,0-5.038-2.48,6.4,6.4,0,0,0-6.678,5.818A59.536,59.536,0,0,0,1113.135,897.094Z" fill="#ebf2f7"/>
            <path id="Path_2312" data-name="Path 2312" d="M1130.908,890.591q-2.59-3.432-5.8-7.92a7.056,7.056,0,0,0-5.852-2.9,7.4,7.4,0,0,0-7.677,6.775c-.01.22-.017.45-.022.688-.627-9.68-.944-24.01-.944-26.33,0-1.437-.431-2.746-1.289-5.354-2.82-8.57-3.119-12.108-2.759-13.529a99.729,99.729,0,0,1,9.736,3.518l2.322.949,2.308-.987a48.975,48.975,0,0,1,8.563-2.941,3.48,3.48,0,0,1,2.281,1.793c.6,1.071.621,1.422.612,3.848l0,.749a23.012,23.012,0,0,1-1.44,5.449,40.305,40.305,0,0,0-1.282,4.2c-.608,2.71-1.463,15.247-1.131,20.609A50.366,50.366,0,0,0,1130.908,890.591Z" fill="url(#linear-gradient)"/>
            <g id="Group_1331" data-name="Group 1331">
              <g id="Group_1330" data-name="Group 1330">
                <path id="Path_2313" data-name="Path 2313" d="M1109.614,861.9c0-1.277-.414-2.535-1.239-5.042-3.611-10.977-3.134-13.963-2.521-14.763h0a3.555,3.555,0,0,1,.74-.1,92.225,92.225,0,0,1,10.082,3.609l1.936.791,1.923-.823c3.611-1.545,7.793-2.958,8.948-3.024.043,0,.088.013.132.017a3.571,3.571,0,0,0-2.132-1.017c-1.155.066-5.337,1.479-8.948,3.024l-1.923.823-1.936-.791A92.225,92.225,0,0,0,1104.6,841a3.555,3.555,0,0,0-.74.1h0c-.613.8-1.09,3.786,2.521,14.763.825,2.507,1.239,3.765,1.239,5.042,0,2.588.393,20.074,1.171,29.473a10.923,10.923,0,0,0,2.35,5.717,64.121,64.121,0,0,1-.578-7.868C1109.931,878.519,1109.614,864.225,1109.614,861.9Z" fill="#fff"/>
                <path id="Path_2314" data-name="Path 2314" d="M1124.3,884.251a5.853,5.853,0,0,0-3.188-2.215,5.733,5.733,0,0,1,1.188,1.215c3.814,5.35,7.013,9.586,9.5,12.7-.337-.921-.677-1.888-1.014-2.873Q1127.931,889.335,1124.3,884.251Z" fill="#fff"/>
              </g>
            </g>
            <path id="Path_2315" data-name="Path 2315" d="M1106.8,838c1.327,0,7.693,2.4,11.393,3.91l.388.158.384-.165c2.174-.93,8.292-3.345,10.479-3.345h.075a8.239,8.239,0,0,1,6.621,4.351c1.264,2.26,1.259,3.7,1.249,6.311l0,.729c0,2.1-.909,4.742-1.712,7.076a36.83,36.83,0,0,0-1.131,3.663,131.969,131.969,0,0,0-1.02,19.208c.381,6.155,3.423,14.145,5.436,19.432a37.918,37.918,0,0,1,1.541,4.415c0,2.024-.938,2.973-2.95,2.985-1.326-.363-6.931-6.719-16.512-20.155a2.1,2.1,0,0,0-1.781-.8c-1.277,0-2.629.745-2.682,1.991-.163,3.78.489,10.236,1.246,12.337a18.192,18.192,0,0,0,2.136,3.792c.788,1.166,1.6,2.372,1.6,3.09,0,.02-.029,2.019-1.065,2.019-.427,0-1.414-.259-3.225-1.994-.544-.521-1.1-1.037-1.648-1.553-4.284-4.006-8.329-7.79-8.823-13.746-.827-10.011-1.184-27.682-1.184-29.8a16.63,16.63,0,0,0-1.038-3.791c-1.665-5.062-4.765-14.484-1.956-18.366A4.765,4.765,0,0,1,1106.8,838m0-1c-12.76,0-2.185,22.514-2.185,24.9s.374,20.049,1.188,29.886c.592,7.148,5.99,11.356,10.775,15.939,1.744,1.669,3.011,2.271,3.917,2.271,1.581,0,2.065-1.832,2.065-3.019,0-1.867-2.815-4.5-3.8-7.222-.664-1.842-1.352-8.156-1.188-11.954.027-.617.917-1.034,1.683-1.034a1.159,1.159,0,0,1,.967.383c4.161,5.836,14.907,20.575,17.288,20.575,2.9,0,3.988-1.747,3.988-3.985,0-1.708-6.429-15.029-6.979-23.909a131.065,131.065,0,0,1,1-18.927c.653-2.918,2.867-7.471,2.867-10.958,0-3.1.141-4.82-1.375-7.528a9.233,9.233,0,0,0-7.461-4.862l-.107,0c-2.872,0-10.872,3.426-10.872,3.426S1108.818,837,1106.8,837Z" fill="#7aabcc"/>
          </g>
          <g id="Group_1333" data-name="Group 1333">
            <path id="Path_2316" data-name="Path 2316" d="M1111.758,837.964a5.8,5.8,0,0,1,.845-.127,5.5,5.5,0,0,1,.941,0,12.359,12.359,0,0,1,1.235.2,7.894,7.894,0,0,1,1.386.532,8.365,8.365,0,0,1,1.443.922,4.789,4.789,0,0,1,.677.634,3.8,3.8,0,0,1,.6.745,4.5,4.5,0,0,1,.493.832,5.01,5.01,0,0,1,.371.882,9.481,9.481,0,0,1,.419,1.792,15.356,15.356,0,0,1,.132,1.708,28.171,28.171,0,0,1-.082,2.962c-.118,1.713-.244,2.849-.244,2.849h-.2s-.108-1.136-.268-2.839c-.047-.423-.1-.88-.151-1.364-.079-.477-.111-.987-.209-1.5a13.914,13.914,0,0,0-.327-1.545,8.048,8.048,0,0,0-.549-1.457,3.626,3.626,0,0,0-.373-.646,5.353,5.353,0,0,0-.946-1.066,3.343,3.343,0,0,0-.546-.429,8.725,8.725,0,0,0-1.155-.713c-.388-.208-.788-.38-1.126-.6-.354-.183-.68-.365-.968-.551s-.574-.343-.786-.494a5.713,5.713,0,0,1-.665-.534Z" fill="#7aabcc"/>
          </g>
          <g id="Group_1334" data-name="Group 1334">
            <path id="Path_2317" data-name="Path 2317" d="M1117.026,889.8s-.055-.236-.118-.648a6.831,6.831,0,0,1-.094-.745c-.019-.29-.063-.619-.071-.977a16.822,16.822,0,0,1,.091-2.436c.117-.884.313-1.813.507-2.736.381-1.846.73-3.678.926-5.07s.254-2.331.254-2.331l.1,0s.041.941-.005,2.359c-.026,1.42-.26,3.3-.485,5.166-.089.929-.178,1.859-.262,2.73-.067.431-.1.85-.163,1.245s-.113.77-.164,1.116c-.114.69-.2,1.269-.282,1.682s-.135.644-.135.644Z" fill="#7aabcc"/>
          </g>
          <g id="Group_1335" data-name="Group 1335">
            <path id="Path_2318" data-name="Path 2318" d="M1121.519,888.828a2.853,2.853,0,0,1-.278-.213,4.336,4.336,0,0,1-.615-.669,5.745,5.745,0,0,1-.647-1.058c-.179-.414-.309-.882-.467-1.335-.306-.911-.6-1.824-.762-2.531a10.088,10.088,0,0,1-.228-1.184l.1-.021a9.628,9.628,0,0,0,.461,1.09c.315.638.72,1.493,1.166,2.329.222.418.476.82.676,1.213a8.019,8.019,0,0,1,.415,1.134,6.873,6.873,0,0,1,.2.847,3.292,3.292,0,0,1,.063.345Z" fill="#7aabcc"/>
          </g>
          <g id="Group_1336" data-name="Group 1336">
            <path id="Path_2319" data-name="Path 2319" d="M1114.583,859.912l.311-.039a1.44,1.44,0,0,1,.36-.016,3.09,3.09,0,0,1,.482.041,3.13,3.13,0,0,1,1.161.4,4.09,4.09,0,0,1,1.075.956,5.818,5.818,0,0,1,.69,1.253,6.761,6.761,0,0,1,.309,1.192,3.469,3.469,0,0,1,.061.486.645.645,0,0,1-.115.382.987.987,0,0,1-.229.241.775.775,0,0,1-.117.081.94.94,0,0,1-.123-.079,1.163,1.163,0,0,1-.241-.214.741.741,0,0,1-.163-.322c-.018-.126-.022-.269-.05-.423a5.931,5.931,0,0,0-.707-2.127,3.977,3.977,0,0,0-.347-.492,4.653,4.653,0,0,0-.4-.425,4.009,4.009,0,0,0-.9-.575,2.655,2.655,0,0,0-.41-.156,2.8,2.8,0,0,0-.341-.093Z" fill="#7aabcc"/>
          </g>
          <g id="Group_1337" data-name="Group 1337">
            <path id="Path_2320" data-name="Path 2320" d="M1118.521,863.891a1.37,1.37,0,0,1-.132-.288.686.686,0,0,1-.026-.38,1.413,1.413,0,0,1,.144-.492,2.414,2.414,0,0,1,.777-.847,5.526,5.526,0,0,1,1.1-.557,7.72,7.72,0,0,1,2.166-.512,4.13,4.13,0,0,1,.735-.006,1.529,1.529,0,0,1,.279.05l-.021.1a1.34,1.34,0,0,0-.255.021,3.879,3.879,0,0,0-.668.18,9.828,9.828,0,0,0-1.883.886,7.074,7.074,0,0,0-.859.625c-.251.208-.449.415-.617.576l-.236.208a.8.8,0,0,0-.2.205,1.363,1.363,0,0,1-.2.245Z" fill="#7aabcc"/>
          </g>
          <g id="Group_1338" data-name="Group 1338">
            <path id="Path_2321" data-name="Path 2321" d="M1135.471,863.912a2.528,2.528,0,0,1-.208-.242c-.139-.154-.293-.338-.493-.574s-.419-.492-.651-.773a6.771,6.771,0,0,0-.721-.909,5.293,5.293,0,0,0-1.851-1.2,3.823,3.823,0,0,0-.726-.2l-.287-.05v-.1l.3-.019a4.067,4.067,0,0,1,.8.032,5.064,5.064,0,0,1,2.279.923,5.173,5.173,0,0,1,1.026.877,3.086,3.086,0,0,1,.544,1.049,2.38,2.38,0,0,1,.088,1.158Z" fill="#7aabcc"/>
          </g>
        </g>
      </g>
    </g>
  </g>
</svg>
