<svg xmlns="http://www.w3.org/2000/svg" xmlns:xlink="http://www.w3.org/1999/xlink" width="58" height="101" viewBox="0 0 58 101">
  <defs>
    <clipPath id="clip-path">
      <path id="SVGID" d="M216.259,751.346a4.456,4.456,0,0,1-.16,1.573C209.266,767.86,210.953,779,221.331,779c6.577,0,9.3-2.347,10.4-4.5a3.138,3.138,0,0,1,4.314-1.194c5.364,3.023,15.12,5.739,17.664-5.307,1.02-4.429-1.012-7.014-1.012-10,0-5-1.609-8.173-3.292-10.139l.256.139c0-6.25,3.036-24,3.036-33,0-15.25-14.294-22.875-16.192-21-.76.752-.744,2.9-.457,5.487-3.569-5.774-10.021-13.487-12.7-13.487-2.612,0-2.827,4.858-2.872,9.435C219,693.309,217.56,692,216.271,692c-5,0-3.223,10.978-1.514,18.631A6.737,6.737,0,0,0,213.235,715c0,3.625,4.048,22,4.048,26a35.954,35.954,0,0,1-.231,3.825c-.192,1.788-.606,3.577-.746,5.374C216.276,750.581,216.259,750.963,216.259,751.346Z" fill="none"/>
    </clipPath>
    <linearGradient id="linear-gradient" x1="-219.341" y1="1" x2="-219.341" gradientUnits="objectBoundingBox">
      <stop offset="0" stop-color="#fff"/>
      <stop offset="0.25" stop-color="#f2f7fa"/>
    </linearGradient>
  </defs>
  <g id="Regular3" transform="translate(-204 -687)">
    <rect id="Rectangle_247" data-name="Rectangle 247" width="58" height="101" transform="translate(204 687)" fill="none"/>
    <g id="Group_1660" data-name="Group 1660" transform="translate(0 5)">
      <g id="Group_1658" data-name="Group 1658">
        <g id="Group_1647" data-name="Group 1647">
          <ellipse id="Ellipse_40" data-name="Ellipse 40" cx="8.102" cy="4" rx="8.102" ry="4" transform="translate(228.914 770.5)" fill="#ebf2f7"/>
          <path id="Path_2613" data-name="Path 2613" d="M237.016,771c4.48,0,7.6,1.845,7.6,3.5s-3.122,3.5-7.6,3.5-7.6-1.845-7.6-3.5,3.122-3.5,7.6-3.5m0-1c-4.75,0-8.6,2.015-8.6,4.5s3.852,4.5,8.6,4.5,8.6-2.015,8.6-4.5-3.851-4.5-8.6-4.5Z" fill="#7aabcc"/>
        </g>
        <g id="Group_1657" data-name="Group 1657">
          <g id="Group_1656" data-name="Group 1656" clip-path="url(#clip-path)">
            <g id="Group_1652" data-name="Group 1652">
              <path id="Path_2614" data-name="Path 2614" d="M221.331,778.5c-3.325,0-5.759-1.166-7.236-3.465-2.806-4.369-1.91-12.354,2.459-21.908a3.283,3.283,0,0,0,.2-1.382c0-.13,0-.256,0-.374,0-.395.018-.764.046-1.134.076-.972.238-1.968.4-2.932.129-.793.263-1.614.35-2.427a36.214,36.214,0,0,0,.234-3.878c0-2.094-1.071-7.964-2.107-13.64-.954-5.229-1.941-10.637-1.941-12.36a6.2,6.2,0,0,1,1.418-4.064l.143-.186-.051-.228c-2.092-9.37-2.315-15.167-.661-17.232a2.039,2.039,0,0,1,1.687-.79c.707,0,1.941.559,3.8,3.222l.894,1.28.015-1.562c.043-4.325.265-8.94,2.372-8.94,2.3,0,8.486,7.122,12.274,13.249l1.167,1.887-.245-2.2c-.316-2.851-.211-4.559.312-5.075a.87.87,0,0,1,.558-.135c3.564,0,14.782,7.6,14.782,20.779,0,4.879-.915,12.483-1.721,19.191-.616,5.12-1.2,9.981-1.3,12.977l-1.908-1.034,1.757,2.053c2.1,2.457,3.172,5.759,3.172,9.813a13.124,13.124,0,0,0,.609,3.449,12.11,12.11,0,0,1,.415,6.439c-1.159,5.035-3.948,7.588-8.288,7.588a18.608,18.608,0,0,1-8.643-2.605,3.732,3.732,0,0,0-1.828-.477,3.531,3.531,0,0,0-3.175,1.878C229.865,777.038,226.421,778.5,221.331,778.5Z" fill="#ebf2f7"/>
              <g id="Group_1649" data-name="Group 1649">
                <g id="Group_1648" data-name="Group 1648">
                  <path id="Path_2615" data-name="Path 2615" d="M225.328,711.1l.019-1.837-5.215-7.462c.065.665.159,1.424.282,2.265Z" fill="#d1e2ed"/>
                  <path id="Path_2616" data-name="Path 2616" d="M231.8,702.116l1.11-.384a60.2,60.2,0,0,0-5.4-6.96c-.012.407-.021.848-.027,1.308A59.342,59.342,0,0,1,231.8,702.116Z" fill="#d1e2ed"/>
                  <path id="Path_2617" data-name="Path 2617" d="M247.7,715c0,4.609-.9,12.071-1.688,18.654-.723,6.013-1.347,11.205-1.347,14.346l2.082-1.24c.188-3.12.692-7.347,1.265-12.106.792-6.583,1.688-14.045,1.688-18.654a18.382,18.382,0,0,0-8.593-15.4l-.4.139A18.213,18.213,0,0,1,247.7,715Z" fill="#d1e2ed"/>
                  <path id="Path_2618" data-name="Path 2618" d="M238.505,768.951a8.238,8.238,0,0,0-4.037-1.057,8.015,8.015,0,0,0-7.176,4.315c-.578,1.122-2.807,1.791-5.962,1.791a7.154,7.154,0,0,1-1.237-.106c.372.456,1.188,1.106,3.237,1.106,3.155,0,5.384-.669,5.962-1.791a8.015,8.015,0,0,1,7.176-4.315,8.264,8.264,0,0,1,3.071.594C239.192,769.32,238.847,769.144,238.505,768.951Z" fill="#d1e2ed"/>
                  <path id="Path_2619" data-name="Path 2619" d="M249.7,759a10.319,10.319,0,0,0-2.089-6.887l5.727-7.087-5.412,3.223-2.315,2.864A10.319,10.319,0,0,1,247.7,758a17.06,17.06,0,0,0,.765,4.62,7.9,7.9,0,0,1,.375,4.258c-.944,4.1-2.724,4.1-3.9,4.1a13.044,13.044,0,0,1-5.215-1.4,8.273,8.273,0,0,1,.782.377,14.274,14.274,0,0,0,6.433,2.025c1.179,0,2.959,0,3.9-4.1a7.9,7.9,0,0,0-.375-4.258A17.06,17.06,0,0,1,249.7,759Z" fill="#d1e2ed"/>
                </g>
              </g>
              <path id="Path_2620" data-name="Path 2620" d="M221.331,774c-2.553,0-3.2-1.015-3.45-1.4-1.424-2.217-1.555-8.159,2.765-17.605a7.492,7.492,0,0,0,.607-3.262v-.164l.006-.123v-.1c0-.253.012-.506.032-.759.061-.785.2-1.647.35-2.559.139-.853.282-1.735.382-2.671a40.433,40.433,0,0,0,.26-4.357c0-2.333-.824-7.015-2.18-14.448-.743-4.07-1.865-10.22-1.868-11.552a1.782,1.782,0,0,1,.482-1.317l1.43-1.856-.51-2.286a74.237,74.237,0,0,1-1.5-8.74l7.2,10.3.154-15.615q.009-.924.033-1.712a59.555,59.555,0,0,1,6.285,8.344l7.308-2.52A18.382,18.382,0,0,1,247.7,715c0,4.61-.9,12.071-1.689,18.654-.723,6.013-1.347,11.206-1.347,14.346l6.673-3.974-5.727,7.088A10.316,10.316,0,0,1,247.7,758a17.115,17.115,0,0,0,.764,4.621,7.894,7.894,0,0,1,.375,4.257c-.944,4.1-2.724,4.1-3.9,4.1a14.274,14.274,0,0,1-6.433-2.025,8.24,8.24,0,0,0-4.038-1.058,8.016,8.016,0,0,0-7.175,4.316C226.714,773.331,224.485,774,221.331,774Z" fill="#ebf2f7"/>
              <path id="Path_2621" data-name="Path 2621" d="M221.331,772c-2.006,0-2.428-.657-2.608-.937-1.345-2.094-1.032-8.2,2.833-16.649a8.519,8.519,0,0,0,.7-3.68v-.14l.008-.147,0-.1c0-.227.011-.454.029-.682.057-.743.2-1.584.34-2.475.141-.867.287-1.763.39-2.726a41.581,41.581,0,0,0,.265-4.463c0-2.467-.835-7.165-2.2-14.627-.729-3.991-1.829-10.022-1.852-11.383,0-.287,0-.341.274-.7l1.716-2.227-.612-2.743c-.383-1.715-.681-3.217-.91-4.528l6.6,9.437.175-17.814a58.648,58.648,0,0,1,4.477,6.224l7.2-2.482A17.2,17.2,0,0,1,246.7,714c0,4.55-.894,11.979-1.682,18.535-.727,6.044-1.354,11.265-1.354,14.465l8.149-4.853-6.962,8.617A9.371,9.371,0,0,1,246.7,757a18.213,18.213,0,0,0,.8,4.881,6.979,6.979,0,0,1,.367,3.772c-.765,3.323-1.915,3.323-2.929,3.323a13.271,13.271,0,0,1-5.942-1.9,9.242,9.242,0,0,0-4.529-1.186,9.011,9.011,0,0,0-8.064,4.857C226.224,771.1,224.964,772,221.331,772Z" fill="url(#linear-gradient)"/>
              <g id="Group_1651" data-name="Group 1651">
                <g id="Group_1650" data-name="Group 1650">
                  <path id="Path_2622" data-name="Path 2622" d="M244.666,748l1.261-.751,3.412-4.223-4.591,2.734C244.7,746.582,244.666,747.345,244.666,748Z" fill="#fff"/>
                  <path id="Path_2623" data-name="Path 2623" d="M231.8,702.116l6.9-2.381a16.469,16.469,0,0,0-1.6-1.139l-6.2,2.136C231.214,701.189,231.513,701.65,231.8,702.116Z" fill="#fff"/>
                  <path id="Path_2624" data-name="Path 2624" d="M225.328,711.1l.154-15.616c0-.139,0-.268.006-.4-.683-.842-1.351-1.624-1.973-2.308q-.024.789-.033,1.712l-.135,13.779Z" fill="#fff"/>
                  <path id="Path_2625" data-name="Path 2625" d="M217.881,772.6c-1.424-2.218-1.555-8.16,2.765-17.606a7.492,7.492,0,0,0,.607-3.262v-.164l.006-.123v-.1c0-.254.012-.507.032-.76.061-.785.2-1.647.35-2.559.138-.853.282-1.735.382-2.671a40.433,40.433,0,0,0,.26-4.357c0-2.333-.824-7.015-2.18-14.447-.743-4.071-1.865-10.221-1.869-11.553a1.78,1.78,0,0,1,.484-1.317l1.429-1.856-.51-2.286c-.584-2.614-.97-4.738-1.223-6.475l-2.282-3.265a74.237,74.237,0,0,0,1.5,8.74l.51,2.286-1.429,1.856a1.78,1.78,0,0,0-.484,1.317c0,1.332,1.126,7.482,1.869,11.553,1.356,7.432,2.18,12.114,2.18,14.447a40.433,40.433,0,0,1-.26,4.357c-.1.936-.244,1.818-.382,2.671-.149.912-.289,1.774-.35,2.559-.02.253-.032.506-.032.76v.1l-.006.123v.164a7.492,7.492,0,0,1-.607,3.262c-4.32,9.446-4.189,15.388-2.765,17.606a2.911,2.911,0,0,0,2.212,1.29A3.516,3.516,0,0,1,217.881,772.6Z" fill="#fff"/>
                  <path id="Path_2626" data-name="Path 2626" d="M237.539,768.488c.061.031.122.058.184.086C237.66,768.548,237.6,768.514,237.539,768.488Z" fill="#fff"/>
                </g>
              </g>
              <path id="Path_2627" data-name="Path 2627" d="M223.354,687c1.884,0,7.864,6.567,11.848,13.012l2.333,3.774-.488-4.41c-.393-3.538-.027-4.421.137-4.632a.915.915,0,0,1,.236-.023c3.443,0,14.281,7.415,14.281,20.279,0,4.85-.912,12.437-1.717,19.132-.564,4.7-1.1,9.174-1.267,12.217l-3.578-1.94,3.511,4.1c2.025,2.365,3.051,5.557,3.051,9.488a13.5,13.5,0,0,0,.627,3.58,11.7,11.7,0,0,1,.411,6.2c-1.1,4.778-3.724,7.2-7.8,7.2a18.1,18.1,0,0,1-8.4-2.54,4.228,4.228,0,0,0-2.073-.542,4.031,4.031,0,0,0-3.62,2.148c-1.336,2.59-4.627,3.958-9.518,3.958-3.142,0-5.435-1.088-6.814-3.234-2.673-4.162-1.741-12.173,2.494-21.432a3.733,3.733,0,0,0,.243-1.588c0-.121,0-.239.006-.4,0-.335.014-.686.044-1.072.074-.951.227-1.893.389-2.89.131-.8.266-1.627.354-2.453a36.616,36.616,0,0,0,.236-3.932c0-2.14-1.027-7.77-2.115-13.729-.95-5.208-1.933-10.593-1.933-12.271a5.744,5.744,0,0,1,1.315-3.759l.286-.371-.1-.457c-2.562-11.477-1.827-15.476-.757-16.809a1.522,1.522,0,0,1,1.3-.6c.387,0,1.5.293,3.392,3.008l1.789,2.561.03-3.124c.025-2.527.083-8.445,1.872-8.445m0-1c-2.612,0-2.827,4.858-2.872,9.436C219,693.31,217.56,692,216.271,692c-5,0-3.223,10.979-1.514,18.631A6.73,6.73,0,0,0,213.234,715c0,3.625,4.048,22,4.048,26a35.969,35.969,0,0,1-.23,3.825c-.192,1.788-.607,3.577-.746,5.373-.03.383-.047.766-.047,1.149a4.5,4.5,0,0,1-.159,1.572C209.267,767.86,210.953,779,221.33,779c6.578,0,9.3-2.348,10.406-4.5a3.043,3.043,0,0,1,2.732-1.607,3.214,3.214,0,0,1,1.582.413,19.211,19.211,0,0,0,8.888,2.669c3.819,0,7.381-1.919,8.776-7.976,1.019-4.429-1.013-7.014-1.013-10,0-5-1.608-8.173-3.291-10.139l.256.139c0-6.25,3.035-24,3.035-33,0-13.73-11.587-21.279-15.281-21.279a1.27,1.27,0,0,0-.91.279c-.76.752-.744,2.9-.457,5.486-3.57-5.773-10.021-13.486-12.7-13.486Z" fill="#7aabcc"/>
            </g>
            <g id="Group_1653" data-name="Group 1653">
              <path id="Path_2628" data-name="Path 2628" d="M234.886,728.051s.022-.382.106-1.088.191-1.743.374-3.054c.162-1.315.4-2.9.676-4.721s.6-3.869.814-6.1a17.157,17.157,0,0,0,.042-3.434c-.114-1.192-.287-2.436-.481-3.717-.375-2.566-.891-5.265-1.072-8.157a13.657,13.657,0,0,1,.037-2.236,4.477,4.477,0,0,1,.283-1.194,2.061,2.061,0,0,1,.363-.616l.062-.074.032-.037c.147-.127.057-.046.1-.08l.113-.077a1.355,1.355,0,0,1,.365-.173,2.887,2.887,0,0,1,1.364-.049,6.668,6.668,0,0,1,1.155.3,13.707,13.707,0,0,1,2.112.951,24.245,24.245,0,0,1,11.054,14.224,26.433,26.433,0,0,1,.8,8.829c-.127,2.867-.393,5.6-.658,8.189s-.585,5.031-.863,7.284c-.567,4.5-1.035,8.25-1.441,10.862-.182,1.31-.325,2.339-.423,3.04-.072.7-.135,1.083-.135,1.083s-.043-.377-.079-1.091-.054-1.761,0-3.089c.054-2.662.493-6.426,1.01-10.932.249-2.253.517-4.694.8-7.275.27-2.577.53-5.309.673-8.109.046-.7.051-1.415.069-2.134.007-.7,0-1.413-.06-2.122a21.2,21.2,0,0,0-.722-4.254,22.5,22.5,0,0,0-10.543-13.579,12.508,12.508,0,0,0-1.944-.862,5.584,5.584,0,0,0-.98-.247,2.15,2.15,0,0,0-.81,0c-.343.032-.554.723-.615,1.367a12.464,12.464,0,0,0-.018,2.047c.191,2.772.7,5.474,1.082,8.049.2,1.289.381,2.549.477,3.795a18.275,18.275,0,0,1-.09,3.631c-.251,2.282-.592,4.338-.918,6.159s-.678,3.392-1.006,4.678c-.308,1.29-.587,2.3-.793,2.978S234.886,728.051,234.886,728.051Z" fill="#7aabcc"/>
            </g>
            <g id="Group_1654" data-name="Group 1654">
              <path id="Path_2629" data-name="Path 2629" d="M218.294,731s-.056-.323-.116-.929-.171-1.486-.3-2.61-.3-2.471-.579-3.995-.757-3.211-1.255-5.107c-.455-1.907-.99-3.909-1.494-6.1s-1-4.477-1.4-6.889a43.391,43.391,0,0,1-.677-7.54,11.885,11.885,0,0,1,.645-3.959,4.134,4.134,0,0,1,1.269-1.785,3.051,3.051,0,0,1,2.206-.549,3.5,3.5,0,0,1,1.082.34,6.926,6.926,0,0,1,.884.6,10.384,10.384,0,0,1,1.427,1.45,24.5,24.5,0,0,1,2.222,3.233,68.175,68.175,0,0,1,3.424,6.715c2,4.45,3.605,8.7,4.881,12.375,1.292,3.669,2.278,6.757,2.823,8.963s.759,3.494.759,3.494-.555-1.183-1.381-3.294c-.846-2.1-1.882-5.162-3.209-8.8-1.352-3.629-2.926-7.868-4.886-12.282a67.14,67.14,0,0,0-3.32-6.631,23.57,23.57,0,0,0-2.106-3.116,9.359,9.359,0,0,0-1.273-1.317,5.928,5.928,0,0,0-.711-.5,2.165,2.165,0,0,0-.754-.243,2.063,2.063,0,0,0-1.461.371,3.154,3.154,0,0,0-.919,1.349,10.935,10.935,0,0,0-.547,3.6,42.441,42.441,0,0,0,.717,7.337c.406,2.374.9,4.658,1.4,6.816s.989,4.206,1.433,6.094c.452,1.866.946,3.609,1.177,5.2a26.027,26.027,0,0,1,.277,4.123c-.007,1.141-.083,2.039-.142,2.644S218.294,731,218.294,731Z" fill="#7aabcc"/>
            </g>
            <g id="Group_1655" data-name="Group 1655">
              <path id="Path_2630" data-name="Path 2630" d="M245.618,745a5.077,5.077,0,0,1,1.122.438,9.677,9.677,0,0,1,2.764,2.034,12.126,12.126,0,0,1,2.78,4.591c.084.247.179.5.258.754.061.262.124.527.187.8a11.912,11.912,0,0,1,.3,1.678,12.917,12.917,0,0,1,.157,1.782c.041.615.034,1.245.111,1.788.146,1.146.576,2.375.891,3.717a11.726,11.726,0,0,1,.285,4.319c-.034.374-.118.742-.189,1.115-.1.428-.2.718-.307,1.088-.108.352-.193.7-.323,1.062l-.478,1.09-.245.547-.322.506a11.754,11.754,0,0,1-.672,1l-.828.91a12.376,12.376,0,0,1-.973.779,8.87,8.87,0,0,1-4.747,1.492,15.213,15.213,0,0,1-4.962-.721,23.374,23.374,0,0,1-4.623-2.009,2.646,2.646,0,0,0-3.618.958,7.882,7.882,0,0,1-3.838,3.52,14.886,14.886,0,0,1-4.946,1.2,15.939,15.939,0,0,1-5.005-.238,8.5,8.5,0,0,1-4.333-2.475,9.991,9.991,0,0,1-2.191-4.286,16.714,16.714,0,0,1-.435-4.51,31.39,31.39,0,0,1,1.437-8.037,49.671,49.671,0,0,1,2.434-6.414,45.786,45.786,0,0,1,2.467-4.661c.746-1.255,1.382-2.21,1.841-2.845s.7-.973.7-.973-.166.385-.515,1.082l-1.464,3.036c-.616,1.312-1.341,2.91-2.14,4.753a54.268,54.268,0,0,0-2.3,6.325,32.426,32.426,0,0,0-1.332,7.765c-.089,2.741.377,5.82,2.316,8.017a7.4,7.4,0,0,0,3.77,2.171,7.82,7.82,0,0,0,1.113.206,8.58,8.58,0,0,0,1.172.094,20.776,20.776,0,0,0,2.372-.062,13.872,13.872,0,0,0,4.607-1.084,6.867,6.867,0,0,0,3.382-3.05,3.469,3.469,0,0,1,2.223-1.745,3.772,3.772,0,0,1,2.784.355,22.292,22.292,0,0,0,4.426,1.894,14.133,14.133,0,0,0,4.61.65,7.764,7.764,0,0,0,4.157-1.321c2.41-1.656,3.387-4.7,3.85-7.326a11.2,11.2,0,0,0-.253-3.933c-.278-1.276-.708-2.514-.867-3.848-.08-.693-.06-1.288-.094-1.861a12.1,12.1,0,0,0-.129-1.7,11.038,11.038,0,0,0-.266-1.587,10.807,10.807,0,0,0-.387-1.464,14.092,14.092,0,0,0-2.334-4.472,12.254,12.254,0,0,0-2.394-2.274A9.254,9.254,0,0,0,245.618,745Z" fill="#7aabcc"/>
            </g>
          </g>
        </g>
      </g>
    </g>
  </g>
</svg>
